<svg xmlns="http://www.w3.org/2000/svg" viewBox="0 0 1000 800" width="100%" height="100%">
  <defs>
    <!-- Background Wallpaper Pattern -->
    <pattern id="wallpaper" width="100" height="100" patternUnits="userSpaceOnUse">
      <rect width="100" height="100" fill="#240810"/>
      <path d="M 50 10 L 60 30 L 50 50 L 40 30 Z" fill="#360c18"/>
      <path d="M 10 60 L 20 80 L 10 100 L 0 80 Z" fill="#360c18"/>
      <path d="M 90 60 L 100 80 L 90 100 L 80 80 Z" fill="#360c18"/>
      <circle cx="50" cy="50" r="15" fill="none" stroke="#360c18" stroke-width="2"/>
    </pattern>

    <!-- Gradients -->
    <radialGradient id="vignetteGrad" cx="50%" cy="50%" r="75%">
      <stop offset="40%" stop-color="#000" stop-opacity="0"/>
      <stop offset="100%" stop-color="#000" stop-opacity="0.95"/>
    </radialGradient>
    
    <radialGradient id="tableFelt" cx="50%" cy="850" r="770" gradientUnits="userSpaceOnUse">
      <stop offset="0%" stop-color="#145924"/>
      <stop offset="60%" stop-color="#0b3815"/>
      <stop offset="100%" stop-color="#031406"/>
    </radialGradient>

    <linearGradient id="lightCone" x1="0%" y1="0%" x2="0%" y2="100%">
      <stop offset="0%" stop-color="#ffffff" stop-opacity="0.6"/>
      <stop offset="100%" stop-color="#fff2cc" stop-opacity="0"/>
    </linearGradient>

    <linearGradient id="cardGrad" x1="0%" y1="0%" x2="100%" y2="100%">
      <stop offset="0%" stop-color="#ffffff"/>
      <stop offset="100%" stop-color="#e0e0e0"/>
    </linearGradient>

    <!-- Filters -->
    <filter id="shadow" x="-20%" y="-20%" width="150%" height="150%">
      <feDropShadow dx="3" dy="6" stdDeviation="4" flood-color="#000" flood-opacity="0.6"/>
    </filter>
    
    <filter id="glow" x="-50%" y="-50%" width="200%" height="200%">
      <feGaussianBlur stdDeviation="3" result="blur"/>
      <feComposite in="SourceGraphic" in2="blur" operator="over"/>
    </filter>

    <filter id="blur-light" x="-20%" y="-20%" width="140%" height="140%">
      <feGaussianBlur stdDeviation="2"/>
    </filter>

    <filter id="blur-heavy" x="-50%" y="-50%" width="200%" height="200%">
      <feGaussianBlur stdDeviation="6"/>
    </filter>

    <!-- Base Components -->
    <g id="chip">
      <ellipse cx="0" cy="0" rx="30" ry="10" fill="#1a1a1a"/>
      <ellipse cx="0" cy="-5" rx="30" ry="10" fill="currentColor"/>
      <path d="M -30 -5 L -30 0 M 30 -5 L 30 0 M -15 5 L -15 9 M 15 5 L 15 9" stroke="#ffffff" stroke-width="5"/>
      <ellipse cx="0" cy="-5" rx="20" ry="6.5" fill="none" stroke="#ffffff" stroke-width="2"/>
      <ellipse cx="0" cy="-5" rx="12" ry="4" fill="#ffffff" opacity="0.9"/>
      <path d="M -20 -5 L -30 -5 M 20 -5 L 30 -5 M 0 -11.5 L 0 -15 M 0 1.5 L 0 5" stroke="#ffffff" stroke-width="3"/>
    </g>

    <g id="card-base">
      <rect width="90" height="140" rx="8" fill="url(#cardGrad)" stroke="#999" stroke-width="1" filter="url(#shadow)"/>
      <rect x="5" y="5" width="80" height="130" rx="4" fill="none" stroke="currentColor" stroke-width="1" opacity="0.4"/>
    </g>

    <g id="flop-base">
      <rect width="70" height="100" rx="6" fill="url(#cardGrad)" stroke="#ccc" stroke-width="1" filter="url(#shadow)"/>
      <rect x="4" y="4" width="62" height="92" rx="3" fill="none" stroke="currentColor" stroke-width="1" opacity="0.3"/>
    </g>
  </defs>

  <!-- ================= BACKGROUND & LIGHTING ================= -->
  <rect width="1000" height="800" fill="url(#wallpaper)"/>
  
  <!-- Volumetric Spotlight Cone -->
  <path d="M 350 -50 L 650 -50 L 950 850 L 50 850 Z" fill="url(#lightCone)" style="mix-blend-mode: screen;"/>

  <!-- Background Dust Particles -->
  <g fill="#fff" opacity="0.15" filter="url(#blur-light)">
    <circle cx="450" cy="200" r="3"/>
    <circle cx="550" cy="150" r="4"/>
    <circle cx="600" cy="250" r="2"/>
    <circle cx="400" cy="300" r="5"/>
    <circle cx="520" cy="100" r="3"/>
  </g>

  <!-- ================= CHARACTER BACK LAYER (SHOULDERS/TORSO) ================= -->
  <!-- Shoulders & Chest -->
  <path d="M 200 850 C 250 500, 350 450, 500 450 C 650 450, 750 500, 800 850 Z" fill="#9e7b65"/>
  <path d="M 350 850 C 380 600, 420 520, 500 520 C 580 520, 620 600, 650 850 Z" fill="#d4c3b6"/>
  
  <!-- Gaudy Purple/Gold Shirt -->
  <path d="M 160 850 C 220 500, 340 450, 420 480 L 460 600 C 420 650, 400 750, 380 850 Z" fill="#4a148c"/>
  <path d="M 840 850 C 780 500, 660 450, 580 480 L 540 600 C 580 650, 600 750, 620 850 Z" fill="#4a148c"/>
  <!-- Shirt Collar -->
  <path d="M 420 480 L 300 410 L 390 560 Z" fill="#380b6e" filter="url(#shadow)"/>
  <path d="M 580 480 L 700 410 L 610 560 Z" fill="#380b6e" filter="url(#shadow)"/>
  
  <!-- Shirt Gold Pattern -->
  <g fill="#fbc02d" opacity="0.7">
    <circle cx="280" cy="700" r="18"/>
    <circle cx="330" cy="810" r="22"/>
    <circle cx="720" cy="700" r="18"/>
    <circle cx="670" cy="810" r="22"/>
    <path d="M 250 600 Q 280 580 300 620 Q 270 640 250 600 Z"/>
    <path d="M 750 600 Q 720 580 700 620 Q 730 640 750 600 Z"/>
  </g>

  <!-- Loose Red Tie -->
  <path d="M 460 550 C 480 600, 490 700, 480 850 L 530 850 C 520 700, 520 600, 540 550 Z" fill="#b71c1c" filter="url(#shadow)"/>
  <path d="M 445 545 Q 500 580 555 545 Q 500 515 445 545 Z" fill="#d32f2f" filter="url(#shadow)"/>

  <!-- ================= THE POKER TABLE (MIDGROUND) ================= -->
  <!-- Outer Padded Leather Rail -->
  <ellipse cx="500" cy="850" rx="850" ry="320" fill="#2e1105" stroke="#1c0a03" stroke-width="12" filter="url(#shadow)"/>
  <ellipse cx="500" cy="850" rx="810" ry="290" fill="none" stroke="#451a08" stroke-width="30"/>
  <!-- Green Casino Felt -->
  <ellipse cx="500" cy="850" rx="780" ry="260" fill="url(#tableFelt)"/>
  <ellipse cx="500" cy="850" rx="720" ry="220" fill="none" stroke="#e0b836" stroke-width="4" opacity="0.5"/>

  <!-- ================= HYENA CHARACTER (HEAD & FACE) ================= -->
  <!-- Wild Back Mane -->
  <polygon points="450,280 400,140 480,210 500,90 540,190 590,110 570,230 660,180 600,280" fill="#1a110c"/>
  <polygon points="460,260 430,160 485,220 505,120 535,200 575,140 560,230 630,200 580,260" fill="#362217"/>

  <!-- Left Ear -->
  <path d="M 380 310 C 300 200, 220 230, 280 380 C 310 400, 340 380, 380 310 Z" fill="#9e7b65" stroke="#1c110b" stroke-width="4"/>
  <path d="M 360 310 C 300 240, 255 260, 300 360 Z" fill="#b58282"/>
  <path d="M 280 380 L 260 370 L 290 400 Z" fill="#9e7b65"/>
  <!-- Gold Earring -->
  <ellipse cx="265" cy="290" rx="10" ry="25" fill="none" stroke="#fbc02d" stroke-width="6" transform="rotate(30, 265, 290)" filter="url(#shadow)"/>
  <ellipse cx="265" cy="290" rx="8" ry="23" fill="none" stroke="#fff9c4" stroke-width="2" transform="rotate(30, 265, 290)"/>

  <!-- Right Ear (Torn) -->
  <path d="M 620 310 C 700 200, 780 230, 720 380 C 690 400, 660 380, 620 310 Z" fill="#9e7b65" stroke="#1c110b" stroke-width="4"/>
  <path d="M 640 310 C 700 240, 745 260, 700 360 Z" fill="#b58282"/>
  <path d="M 725 295 L 690 310 L 710 325 Z" fill="#240810"/> <!-- Matches wallpaper background -->

  <!-- Transparent Green Dealer Visor -->
  <g>
    <!-- Back Strap -->
    <path d="M 300 280 C 340 230, 660 230, 700 280 L 690 300 C 650 255, 350 255, 310 300 Z" fill="#fff" filter="url(#shadow)"/>
    <path d="M 305 285 C 345 235, 655 235, 695 285 L 690 295 C 650 245, 350 245, 310 295 Z" fill="#d32f2f"/>
    <!-- Visor Brim -->
    <path d="M 310 300 C 400 380, 600 380, 690 300 C 600 340, 400 340, 310 300 Z" fill="#2e7d32" fill-opacity="0.85" stroke="#1b5e20" stroke-width="4" filter="url(#shadow)"/>
    <path d="M 330 305 C 410 370, 590 370, 670 305 C 590 325, 410 325, 330 305 Z" fill="#ffffff" fill-opacity="0.25"/>
  </g>

  <!-- Jagged Fur Head & Cheeks -->
  <path d="M 500 280 
           L 550 285 L 570 270 L 590 300 L 620 310 L 630 290 L 650 340 L 680 345 L 670 370 L 710 390 
           L 680 410 L 720 440 L 690 460 L 710 490 L 670 500 L 650 530 L 600 535 L 500 540
           L 400 535 L 350 530 L 330 500 L 290 490 L 310 460 L 280 440 L 320 410 L 290 390 
           L 330 370 L 320 345 L 350 340 L 370 290 L 380 310 L 410 300 L 430 270 L 450 285 Z" fill="#9e7b65" filter="url(#shadow)"/>
  
  <!-- Pale Muzzle -->
  <path d="M 450 370 C 450 370, 400 450, 430 500 C 450 520, 550 520, 570 500 C 600 450, 550 370, 550 370 Z" fill="#d4c3b6"/>

  <!-- Snout Wrinkles & Spots -->
  <path d="M 470 370 Q 500 390 530 370" fill="none" stroke="#6b5141" stroke-width="3"/>
  <path d="M 460 390 Q 500 410 540 390" fill="none" stroke="#6b5141" stroke-width="3"/>
  <g fill="#2a1a14" opacity="0.6">
    <circle cx="480" cy="450" r="2.5"/>
    <circle cx="465" cy="460" r="1.5"/>
    <circle cx="495" cy="465" r="3"/>
    <circle cx="530" cy="455" r="2.5"/>
    <circle cx="510" cy="470" r="2"/>
    <circle cx="545" cy="460" r="2.5"/>
  </g>
  <!-- Cheek Fur Lines -->
  <g stroke="#2a1a14" stroke-width="2.5" opacity="0.5" stroke-linecap="round">
    <path d="M 360 400 L 330 390 M 350 420 L 320 410 M 370 450 L 340 440"/>
    <path d="M 640 400 L 670 390 M 650 420 L 680 410 M 630 450 L 660 440"/>
  </g>

  <!-- Dark Heavy Eyebrows -->
  <path d="M 380 325 Q 420 290 475 335" fill="none" stroke="#1c110b" stroke-width="14" stroke-linecap="round" filter="url(#shadow)"/>
  <path d="M 515 320 Q 570 250 630 310" fill="none" stroke="#1c110b" stroke-width="16" stroke-linecap="round" filter="url(#shadow)"/>

  <!-- Under-Eye Bags (Degenerate Gambler) -->
  <path d="M 390 355 Q 430 395 470 355" fill="none" stroke="#4a2e22" stroke-width="8" stroke-linecap="round"/>
  <path d="M 395 365 Q 430 410 465 365" fill="none" stroke="#2a1411" stroke-width="4" stroke-linecap="round"/>
  <path d="M 520 375 Q 560 425 610 375" fill="none" stroke="#4a2e22" stroke-width="8" stroke-linecap="round"/>
  <path d="M 525 385 Q 560 440 605 385" fill="none" stroke="#2a1411" stroke-width="4" stroke-linecap="round"/>

  <!-- Eyes: Asymmetrical & Crazed -->
  <!-- Left Eye (Squinting) -->
  <path d="M 400 340 Q 430 310 460 340 Q 430 355 400 340 Z" fill="#fff7d6" stroke="#110805" stroke-width="3"/>
  <!-- Right Eye (Bulging) -->
  <circle cx="565" cy="335" r="35" fill="#fff7d6" stroke="#110805" stroke-width="4"/>
  
  <!-- Bloodshot Veins -->
  <path d="M 405 338 Q 415 335 420 335 M 455 338 Q 445 335 440 335" stroke="#d32f2f" stroke-width="1.5" fill="none"/>
  <path d="M 530 335 Q 540 320 550 330 M 535 345 Q 545 350 550 340 M 595 325 Q 585 320 580 330 M 595 345 Q 585 355 580 345 M 565 305 Q 560 315 565 320" stroke="#d32f2f" stroke-width="1.5" fill="none"/>
  
  <!-- Irises & Tiny Pupils -->
  <circle cx="430" cy="335" r="10" fill="#f27d0c"/>
  <circle cx="430" cy="335" r="3" fill="#000"/>
  <circle cx="565" cy="335" r="18" fill="#f27d0c"/>
  <circle cx="565" cy="335" r="5" fill="#000"/>
  <!-- Eye Highlights -->
  <circle cx="432" cy="332" r="2" fill="#fff"/>
  <circle cx="570" cy="328" r="5" fill="#fff"/>
  <circle cx="558" cy="340" r="2" fill="#fff"/>

  <!-- Shiny Black Dog Nose -->
  <path d="M 460 410 C 460 375, 540 375, 540 410 L 515 440 Q 500 450 485 440 Z" fill="#0d0805"/>
  <ellipse cx="485" cy="400" rx="12" ry="6" fill="#ffffff" opacity="0.4" transform="rotate(-15, 485, 400)"/>
  <circle cx="515" cy="425" r="4.5" fill="#000"/>
  <circle cx="485" cy="425" r="4.5" fill="#000"/>

  <!-- Big Crazed Grin & Mouth Cavity -->
  <path d="M 330 430 Q 500 580 670 430 Q 500 640 330 430 Z" fill="#2b0f14"/>
  <path d="M 350 440 Q 500 560 650 440" fill="none" stroke="#110508" stroke-width="6"/> <!-- Depth -->
  <!-- Lolling Tongue -->
  <path d="M 430 520 Q 500 620 570 520 Q 500 560 430 520 Z" fill="#a84a68"/>
  
  <!-- Jagged Sharp Teeth -->
  <g fill="#f2ead5" stroke="#4a3b2b" stroke-width="1.5">
    <!-- Top Row -->
    <polygon points="360,435 375,465 385,442"/>
    <polygon points="390,444 405,480 415,450"/>
    <polygon points="420,452 440,495 455,460"/>
    <polygon points="460,463 480,510 500,470"/>
    <polygon points="505,470 525,510 540,463"/>
    <polygon points="545,460 560,495 580,452"/>
    <polygon points="585,450 595,480 610,444"/>
    <polygon points="615,442 625,465 640,435"/>
  </g>
  <g fill="#e8dcc3" stroke="#4a3b2b" stroke-width="1.5">
    <!-- Bottom Row -->
    <polygon points="380,470 390,450 400,480"/>
    <polygon points="410,490 425,465 435,500"/>
    <polygon points="445,510 460,480 475,520"/>
    <polygon points="485,525 500,495 515,525"/>
    <polygon points="525,520 540,480 555,510"/>
    <polygon points="565,500 575,465 590,490"/>
    <polygon points="600,480 610,450 620,470"/>
  </g>

  <!-- Outer Black Lips -->
  <path d="M 330 430 Q 500 580 670 430 Q 500 595 330 430 Z" fill="none" stroke="#140608" stroke-width="8"/>

  <!-- Dripping Saliva -->
  <path d="M 405 480 Q 410 460 425 465 L 410 490 Z" fill="#d9f2fa" opacity="0.8"/>
  <path d="M 525 510 Q 530 480 540 463 Q 520 480 525 510 Z" fill="#d9f2fa" opacity="0.8"/>
  <path d="M 580 452 Q 575 480 565 500 Q 585 470 580 452 Z" fill="#d9f2fa" opacity="0.8"/>

  <!-- Spiked Degenerate Collar -->
  <path d="M 330 520 C 400 600, 600 600, 670 520 L 680 560 C 600 660, 400 660, 320 560 Z" fill="#111" filter="url(#shadow)"/>
  <g fill="#e0e0e0" stroke="#757575" stroke-width="2">
    <polygon points="360,540 350,590 380,555"/>
    <polygon points="410,560 405,620 435,575"/>
    <polygon points="480,575 480,640 505,585"/>
    <polygon points="550,575 565,635 570,575"/>
    <polygon points="610,550 635,595 625,540"/>
  </g>

  <!-- Green Bounce Rim Light on Jaw -->
  <path d="M 330 500 C 280 480, 300 420, 340 380 C 350 350, 380 310, 410 300 C 380 320, 350 360, 350 400 C 310 440, 350 490, 370 510 Z" fill="#4caf50" opacity="0.25" style="mix-blend-mode: screen;" filter="url(#blur-light)"/>

  <!-- ================= PROPS (CIGAR, DRINKS, CHIPS, BOARD) ================= -->
  
  <!-- Smoking Cigar -->
  <g transform="translate(620, 465) rotate(-20)" filter="url(#shadow)">
    <rect x="0" y="-10" width="90" height="24" rx="4" fill="#4e342e" stroke="#2b1a13" stroke-width="2"/>
    <!-- Texture Veins -->
    <path d="M 10 -10 L 20 14 M 30 -10 L 40 14 M 50 -10 L 60 14 M 70 -10 L 80 14" stroke="#3e2723" stroke-width="1.5"/>
    <!-- Band -->
    <rect x="25" y="-10" width="15" height="24" fill="#d32f2f"/>
    <rect x="27" y="-10" width="11" height="24" fill="none" stroke="#fbc02d" stroke-width="2"/>
    <!-- Ash -->
    <rect x="90" y="-9" width="20" height="22" rx="4" fill="#9e9e9e"/>
    <path d="M 95 -9 L 93 13 M 100 -9 L 103 13 M 105 -9 L 104 13" stroke="#616161" stroke-width="2"/>
    <!-- Glowing Ember -->
    <circle cx="110" cy="2" r="6" fill="#ff3d00" filter="url(#glow)"/>
    <circle cx="110" cy="2" r="3" fill="#ffea00"/>
  </g>
  
  <!-- Stylized Cigar Smoke Rings -->
  <path d="M 720 450 Q 770 420 740 380 T 770 300 T 730 220 T 780 140" fill="none" stroke="#e0e0e0" stroke-width="12" opacity="0.3" filter="url(#blur-light)"/>
  <path d="M 725 455 Q 765 425 735 385 T 765 305 T 725 225 T 775 145" fill="none" stroke="#ffffff" stroke-width="4" opacity="0.6"/>
  <ellipse cx="750" cy="260" rx="30" ry="15" fill="none" stroke="#e0e0e0" stroke-width="6" opacity="0.4" transform="rotate(-15, 750, 260)" filter="url(#blur-light)"/>

  <!-- Crystal Whiskey Tumbler -->
  <g transform="translate(140, 620)" filter="url(#shadow)">
    <!-- Liquid Base & Reflection -->
    <path d="M 8 20 L 52 20 L 48 65 L 12 65 Z" fill="#d87c14" opacity="0.85"/>
    <ellipse cx="30" cy="20" rx="22" ry="6" fill="#f5a623" opacity="0.9"/>
    <!-- Ice Cubes -->
    <g stroke="#ffffff" stroke-width="1.5" opacity="0.7">
      <path d="M 20 30 L 35 25 L 45 35 L 30 40 Z" fill="#ffffff" opacity="0.4"/>
      <path d="M 20 30 L 20 45 L 30 55 L 30 40 Z" fill="#ffffff" opacity="0.2"/>
      <path d="M 45 35 L 45 50 L 30 55 L 30 40 Z" fill="#ffffff" opacity="0.3"/>
      <path d="M 15 45 L 28 42 L 35 52 L 22 55 Z" fill="#ffffff" opacity="0.5"/>
    </g>
    <!-- Front Glass Highlights -->
    <path d="M 5 0 L 55 0 L 50 70 L 10 70 Z" fill="none" stroke="#ffffff" stroke-width="2.5" opacity="0.7"/>
    <ellipse cx="30" cy="0" rx="25" ry="6" fill="none" stroke="#ffffff" stroke-width="2.5" opacity="0.8"/>
    <ellipse cx="30" cy="70" rx="20" ry="5" fill="none" stroke="#ffffff" stroke-width="3" opacity="0.5"/>
    <path d="M 10 10 L 14 60" stroke="#ffffff" stroke-width="3" stroke-linecap="round" opacity="0.8"/>
    <path d="M 48 15 L 46 45" stroke="#ffffff" stroke-width="1.5" stroke-linecap="round" opacity="0.6"/>
  </g>

  <!-- Community Cards (The Flop) -->
  <g transform="translate(480, 660) scale(1.1) skewX(-25) rotate(-8)">
    <!-- 8 of Clubs -->
    <g transform="translate(-100, 0)">
      <use href="#flop-base" style="color: #111"/>
      <text x="7" y="22" font-family="Arial, sans-serif" font-weight="bold" font-size="20" fill="#111">8</text>
      <text x="7" y="40" font-family="Arial, sans-serif" font-size="20" fill="#111">♣</text>
      <text x="35" y="70" font-family="Arial, sans-serif" font-size="45" fill="#111" text-anchor="middle">♣</text>
    </g>
    <!-- 8 of Diamonds -->
    <g transform="translate(-25, 4) rotate(4)">
      <use href="#flop-base" style="color: #d32f2f"/>
      <text x="7" y="22" font-family="Arial, sans-serif" font-weight="bold" font-size="20" fill="#d32f2f">8</text>
      <text x="7" y="40" font-family="Arial, sans-serif" font-size="20" fill="#d32f2f">♦</text>
      <text x="35" y="70" font-family="Arial, sans-serif" font-size="45" fill="#d32f2f" text-anchor="middle">♦</text>
    </g>
    <!-- Ace of Diamonds -->
    <g transform="translate(50, 0) rotate(8)">
      <use href="#flop-base" style="color: #d32f2f"/>
      <text x="7" y="22" font-family="Arial, sans-serif" font-weight="bold" font-size="20" fill="#d32f2f">A</text>
      <text x="7" y="40" font-family="Arial, sans-serif" font-size="20" fill="#d32f2f">♦</text>
      <text x="35" y="70" font-family="Arial, sans-serif" font-size="45" fill="#d32f2f" text-anchor="middle">♦</text>
    </g>
  </g>

  <!-- High-Stakes Chip Stacks -->
  <g filter="url(#shadow)">
    <!-- Black Stack -->
    <g style="color: #424242;" transform="translate(350, 720)">
      <use href="#chip" y="0"/><use href="#chip" y="-9"/><use href="#chip" y="-18"/>
      <use href="#chip" y="-27"/><use href="#chip" y="-36"/><use href="#chip" y="-45"/>
    </g>
    <!-- Red Stack -->
    <g style="color: #d32f2f;" transform="translate(290, 740)">
      <use href="#chip" y="0"/><use href="#chip" y="-9"/><use href="#chip" y="-18"/>
      <use href="#chip" y="-27"/><use href="#chip" y="-36"/>
    </g>
    <!-- Blue Stack -->
    <g style="color: #1976d2;" transform="translate(410, 730)">
      <use href="#chip" y="0"/><use href="#chip" y="-9"/><use href="#chip" y="-18"/>
    </g>
    <!-- Scattered Gold/Purple -->
    <use href="#chip" x="380" y="760" style="color: #fbc02d;"/>
    <use href="#chip" x="450" y="740" style="color: #8e24aa;"/>
  </g>
  
  <!-- Dealer Button -->
  <g transform="translate(680, 700) rotate(15)" filter="url(#shadow)">
    <circle cx="0" cy="0" r="28" fill="#fff"/>
    <circle cx="0" cy="0" r="24" fill="none" stroke="#111" stroke-width="3"/>
    <text x="0" y="5" font-family="Arial, sans-serif" font-weight="bold" font-size="14" fill="#111" text-anchor="middle">DEALER</text>
  </g>

  <!-- ================= FOREGROUND (PAWS & THE WINNING HAND) ================= -->
  
  <!-- Left Forearm (Guarding Chips) -->
  <g filter="url(#shadow)">
    <path d="M 50 1000 C 50 800, 150 720, 280 800 L 150 1000 Z" fill="#7a5c4a"/>
    <ellipse cx="120" cy="850" rx="15" ry="25" fill="#2a1a14" opacity="0.8" transform="rotate(20, 120, 850)"/>
    <ellipse cx="180" cy="880" rx="20" ry="15" fill="#2a1a14" opacity="0.8" transform="rotate(-15, 180, 880)"/>
    <!-- Knuckles/Fingers -->
    <g fill="#5c4335" stroke="#1c110b" stroke-width="3">
      <circle cx="280" cy="800" r="25"/>
      <circle cx="240" cy="815" r="25"/>
      <circle cx="200" cy="835" r="25"/>
    </g>
    <!-- Sharp Claws -->
    <path d="M 290 780 L 320 755 L 305 800 Z" fill="#1c110b"/>
    <path d="M 250 795 L 270 765 L 265 810 Z" fill="#1c110b"/>
    <path d="M 210 815 L 220 780 L 225 825 Z" fill="#1c110b"/>
  </g>

  <!-- Right Arm (Holding Hand) -->
  <path d="M 950 1000 C 950 800, 850 700, 700 780 L 750 1000 Z" fill="#7a5c4a" filter="url(#shadow)"/>
  <ellipse cx="850" cy="850" rx="20" ry="30" fill="#2a1a14" opacity="0.8" transform="rotate(-20, 850, 850)"/>

  <!-- Back Fingers of Right Hand -->
  <g fill="#5c4335" stroke="#1c110b" stroke-width="3" filter="url(#shadow)">
    <ellipse cx="660" cy="730" rx="35" ry="18" transform="rotate(-30, 660, 730)"/>
    <ellipse cx="710" cy="710" rx="35" ry="18" transform="rotate(-15, 710, 710)"/>
    <ellipse cx="770" cy="710" rx="35" ry="18" transform="rotate(5, 770, 710)"/>
    <ellipse cx="830" cy="730" rx="35" ry="18" transform="rotate(25, 830, 730)"/>
  </g>
  <!-- Claws on back fingers peeking over cards -->
  <path d="M 640 710 L 620 675 L 650 700 Z" fill="#1c110b"/>
  <path d="M 690 690 L 680 650 L 705 685 Z" fill="#1c110b"/>
  <path d="M 760 690 L 770 650 L 780 690 Z" fill="#1c110b"/>
  <path d="M 840 710 L 860 675 L 850 715 Z" fill="#1c110b"/>

  <!-- The Royal Flush in Hearts -->
  <g transform="translate(620, 590)">
    <!-- 10 of Hearts -->
    <g transform="translate(0, 60) rotate(-20)" style="color: #d32f2f;">
      <use href="#card-base"/>
      <text x="8" y="28" font-family="Georgia, serif" font-weight="bold" font-size="24" fill="#d32f2f">10</text>
      <text x="12" y="48" font-family="Georgia, serif" font-size="20" fill="#d32f2f">♥</text>
      <text x="45" y="95" font-family="Georgia, serif" font-size="55" fill="#d32f2f" text-anchor="middle">♥</text>
    </g>
    <!-- Jack of Hearts -->
    <g transform="translate(45, 30) rotate(-10)" style="color: #d32f2f;">
      <use href="#card-base"/>
      <text x="8" y="28" font-family="Georgia, serif" font-weight="bold" font-size="24" fill="#d32f2f">J</text>
      <text x="12" y="48" font-family="Georgia, serif" font-size="20" fill="#d32f2f">♥</text>
      <text x="45" y="95" font-family="Georgia, serif" font-size="55" fill="#d32f2f" text-anchor="middle">♥</text>
    </g>
    <!-- Queen of Hearts -->
    <g transform="translate(95, 10) rotate(0)" style="color: #d32f2f;">
      <use href="#card-base"/>
      <text x="8" y="28" font-family="Georgia, serif" font-weight="bold" font-size="24" fill="#d32f2f">Q</text>
      <text x="12" y="48" font-family="Georgia, serif" font-size="20" fill="#d32f2f">♥</text>
      <text x="45" y="95" font-family="Georgia, serif" font-size="55" fill="#d32f2f" text-anchor="middle">♥</text>
    </g>
    <!-- King of Hearts -->
    <g transform="translate(145, 5) rotate(10)" style="color: #d32f2f;">
      <use href="#card-base"/>
      <text x="8" y="28" font-family="Georgia, serif" font-weight="bold" font-size="24" fill="#d32f2f">K</text>
      <text x="12" y="48" font-family="Georgia, serif" font-size="20" fill="#d32f2f">♥</text>
      <text x="45" y="95" font-family="Georgia, serif" font-size="55" fill="#d32f2f" text-anchor="middle">♥</text>
    </g>
    <!-- Ace of Hearts -->
    <g transform="translate(195, 20) rotate(20)" style="color: #d32f2f;">
      <use href="#card-base"/>
      <text x="8" y="28" font-family="Georgia, serif" font-weight="bold" font-size="24" fill="#d32f2f">A</text>
      <text x="12" y="48" font-family="Georgia, serif" font-size="20" fill="#d32f2f">♥</text>
      <text x="45" y="95" font-family="Georgia, serif" font-size="55" fill="#d32f2f" text-anchor="middle">♥</text>
      <text x="80" y="130" font-family="Georgia, serif" font-weight="bold" font-size="24" fill="#d32f2f" transform="rotate(180, 80, 130)">A</text>
    </g>
  </g>

  <!-- Giant Thumb Covering the Bottom of Hand -->
  <ellipse cx="750" cy="780" rx="60" ry="25" fill="#52392b" stroke="#1c110b" stroke-width="3" transform="rotate(-10, 750, 780)" filter="url(#shadow)"/>
  <path d="M 690 765 L 640 745 L 680 780 Z" fill="#1c110b" filter="url(#shadow)"/>

  <!-- Flashy Jewelry (Pinkie Ring & Gold Watch) -->
  <g filter="url(#shadow)">
    <!-- Ring on Pinkie -->
    <ellipse cx="820" cy="730" rx="14" ry="26" fill="#fbc02d" stroke="#f57f17" stroke-width="2" transform="rotate(25, 820, 730)"/>
    <polygon points="815,720 825,715 830,725 820,735" fill="#d32f2f" stroke="#b71c1c" stroke-width="1.5"/>
    <!-- Gold Watch -->
    <rect x="790" y="840" width="130" height="40" rx="5" fill="#fbc02d" stroke="#f57f17" stroke-width="4" transform="rotate(-20, 800, 850)"/>
    <ellipse cx="850" cy="850" rx="22" ry="32" fill="#fff" stroke="#fbc02d" stroke-width="8" transform="rotate(-20, 850, 850)"/>
    <circle cx="850" cy="850" r="15" fill="#111"/>
    <path d="M 850 850 L 856 838 M 850 850 L 838 847" stroke="#fbc02d" stroke-width="2.5" stroke-linecap="round"/>
  </g>

  <!-- ================= POST-PROCESSING & FOREGROUND ATMOSPHERE ================= -->
  
  <!-- Blurred Casino Chips Floating in Foreground -->
  <g transform="translate(40, 100) scale(1.8) rotate(45)" filter="url(#blur-heavy)" opacity="0.9">
    <use href="#chip" style="color: #d32f2f;"/>
  </g>
  <!-- Blurred Card Floating in Background Right -->
  <g transform="translate(850, 120) scale(0.9) rotate(-25)" filter="url(#blur-heavy)" opacity="0.6">
    <rect width="90" height="140" rx="8" fill="#fff"/>
    <rect x="5" y="5" width="80" height="130" rx="4" fill="none" stroke="#111" stroke-width="2"/>
    <text x="45" y="90" font-family="Georgia, serif" font-size="55" fill="#111" text-anchor="middle">♠</text>
  </g>

  <!-- Heavy Noir Vignette Filter over entire canvas -->
  <rect width="100%" height="100%" fill="url(#vignetteGrad)" style="pointer-events: none; mix-blend-mode: multiply;"/>
</svg>