<svg xmlns="http://www.w3.org/2000/svg" viewBox="0 0 1000 800" width="100%" height="100%">
  <defs>
    <!-- Wall Pattern -->
    <pattern id="wallpaper" width="120" height="120" patternUnits="userSpaceOnUse">
      <rect width="120" height="120" fill="#1F0B10"/>
      <path d="M 60 0 L 120 60 L 60 120 L 0 60 Z" fill="#2C0F16"/>
      <path d="M 60 15 L 105 60 L 60 105 L 15 60 Z" fill="none" stroke="#D4AF37" stroke-width="1" opacity="0.15"/>
      <path d="M 60 30 L 90 60 L 60 90 L 30 60 Z" fill="none" stroke="#D4AF37" stroke-width="0.5" opacity="0.1"/>
    </pattern>

    <!-- Gradients -->
    <radialGradient id="vignette" cx="50%" cy="50%" r="75%">
      <stop offset="40%" stop-color="#000" stop-opacity="0"/>
      <stop offset="100%" stop-color="#000" stop-opacity="0.95"/>
    </radialGradient>
    
    <radialGradient id="tableGlow" cx="50%" cy="850" r="500" gradientUnits="userSpaceOnUse">
      <stop offset="0%" stop-color="#1B5E20"/>
      <stop offset="60%" stop-color="#0D3B1B"/>
      <stop offset="100%" stop-color="#041207"/>
    </radialGradient>

    <linearGradient id="woodRim" x1="0%" y1="0%" x2="0%" y2="100%">
      <stop offset="0%" stop-color="#5D4037"/>
      <stop offset="50%" stop-color="#3E2723"/>
      <stop offset="100%" stop-color="#1E110A"/>
    </linearGradient>

    <radialGradient id="spotlight" cx="50%" cy="30%" r="70%">
      <stop offset="0%" stop-color="#FFF" stop-opacity="0.15"/>
      <stop offset="40%" stop-color="#FFF" stop-opacity="0.05"/>
      <stop offset="100%" stop-color="#FFF" stop-opacity="0"/>
    </radialGradient>

    <!-- Filters -->
    <filter id="shadow" x="-30%" y="-30%" width="160%" height="160%">
      <feDropShadow dx="0" dy="10" stdDeviation="6" flood-color="#000" flood-opacity="0.7"/>
    </filter>
    
    <filter id="card-shadow" x="-30%" y="-30%" width="160%" height="160%">
      <feDropShadow dx="-5" dy="8" stdDeviation="4" flood-color="#000" flood-opacity="0.5"/>
    </filter>

    <filter id="glow" x="-50%" y="-50%" width="200%" height="200%">
      <feGaussianBlur stdDeviation="4" result="blur"/>
      <feComposite in="SourceGraphic" in2="blur" operator="over"/>
    </filter>

    <filter id="blur-strong">
      <feGaussianBlur stdDeviation="8"/>
    </filter>

    <!-- Poker Suits -->
    <g id="suit-spade">
      <path d="M 0 -12 C -6 -2, -12 2, -12 10 C -12 16, -4 16, -2 12 L -5 20 L 5 20 L 2 12 C 4 16, 12 16, 12 10 C 12 2, 6 -2, 0 -12 Z" fill="#111"/>
    </g>
    <g id="suit-heart">
      <path d="M 0 6 C 0 -5, -13 -5, -13 2 C -13 10, 0 17, 0 24 C 0 17, 13 10, 13 2 C 13 -5, 0 -5, 0 6 Z" fill="#D32F2F"/>
    </g>
    <g id="suit-diamond">
      <path d="M 0 -14 L 10 2 L 0 18 L -10 2 Z" fill="#D32F2F"/>
    </g>

    <!-- Card Base Template -->
    <g id="playing-card">
      <rect x="-60" y="-170" width="120" height="170" rx="8" fill="#F8F9FA" stroke="#D7CCC8" stroke-width="1.5" filter="url(#card-shadow)"/>
      <rect x="-54" y="-164" width="108" height="158" rx="5" fill="none" stroke="#EFEBE9" stroke-width="1"/>
    </g>

    <!-- 3D Poker Chips Components -->
    <g id="chip-red">
      <ellipse cx="0" cy="7" rx="35" ry="14" fill="#8E0000"/>
      <ellipse cx="0" cy="0" rx="35" ry="14" fill="#D32F2F"/>
      <ellipse cx="0" cy="0" rx="24" ry="9.5" fill="none" stroke="#FFF" stroke-width="1.5" opacity="0.4"/>
      <ellipse cx="0" cy="0" rx="16" ry="6" fill="#8E0000" opacity="0.5"/>
      <path d="M -35 0 L -35 7 M -20 11 L -20 18 M 0 14 L 0 21 M 20 11 L 20 18 M 35 0 L 35 7" stroke="#FFF" stroke-width="5" opacity="0.85"/>
      <ellipse cx="0" cy="-2" rx="30" ry="10" fill="#FFF" opacity="0.1"/>
    </g>
    
    <g id="chip-blue">
      <ellipse cx="0" cy="7" rx="35" ry="14" fill="#0D47A1"/>
      <ellipse cx="0" cy="0" rx="35" ry="14" fill="#1976D2"/>
      <ellipse cx="0" cy="0" rx="24" ry="9.5" fill="none" stroke="#FFF" stroke-width="1.5" opacity="0.4"/>
      <ellipse cx="0" cy="0" rx="16" ry="6" fill="#0D47A1" opacity="0.5"/>
      <path d="M -35 0 L -35 7 M -20 11 L -20 18 M 0 14 L 0 21 M 20 11 L 20 18 M 35 0 L 35 7" stroke="#FFF" stroke-width="5" opacity="0.85"/>
      <ellipse cx="0" cy="-2" rx="30" ry="10" fill="#FFF" opacity="0.1"/>
    </g>

    <g id="chip-black">
      <ellipse cx="0" cy="7" rx="35" ry="14" fill="#000000"/>
      <ellipse cx="0" cy="0" rx="35" ry="14" fill="#212121"/>
      <ellipse cx="0" cy="0" rx="24" ry="9.5" fill="none" stroke="#FFF" stroke-width="1.5" opacity="0.2"/>
      <ellipse cx="0" cy="0" rx="16" ry="6" fill="#000000" opacity="0.8"/>
      <path d="M -35 0 L -35 7 M -20 11 L -20 18 M 0 14 L 0 21 M 20 11 L 20 18 M 35 0 L 35 7" stroke="#D4AF37" stroke-width="5" opacity="0.9"/>
      <ellipse cx="0" cy="-2" rx="30" ry="10" fill="#FFF" opacity="0.1"/>
    </g>
    
    <g id="chip-gold">
      <ellipse cx="0" cy="7" rx="35" ry="14" fill="#F57F17"/>
      <ellipse cx="0" cy="0" rx="35" ry="14" fill="#FBC02D"/>
      <ellipse cx="0" cy="0" rx="24" ry="9.5" fill="none" stroke="#FFF" stroke-width="1.5" opacity="0.4"/>
      <ellipse cx="0" cy="0" rx="16" ry="6" fill="#F57F17" opacity="0.5"/>
      <path d="M -35 0 L -35 7 M -20 11 L -20 18 M 0 14 L 0 21 M 20 11 L 20 18 M 35 0 L 35 7" stroke="#FFF" stroke-width="5" opacity="0.85"/>
      <ellipse cx="0" cy="-2" rx="30" ry="10" fill="#FFF" opacity="0.2"/>
    </g>
  </defs>

  <!-- ================= BACKGROUND ================= -->
  <rect width="1000" height="800" fill="url(#wallpaper)"/>
  
  <!-- Smoky Background Atmosphere -->
  <path d="M -50 250 C 200 150, 400 350, 600 200 C 800 50, 950 250, 1100 150" fill="none" stroke="#FFF" stroke-width="80" opacity="0.04" filter="url(#blur-strong)"/>
  <path d="M 0 500 C 300 650, 500 350, 800 550 C 950 650, 1050 450, 1100 500" fill="none" stroke="#FFF" stroke-width="120" opacity="0.03" filter="url(#blur-strong)"/>

  <!-- ================= HYENA CHARACTER (BACK/BODY) ================= -->
  
  <!-- Shoulders & Torso -->
  <path d="M 220 900 C 250 650, 320 520, 500 520 C 680 520, 750 650, 780 900 Z" fill="#8F7966"/>
  <!-- Pinstripe Vest (Gambler Style) -->
  <path d="M 240 900 C 270 700, 340 580, 420 560 L 400 900 Z" fill="#263238" stroke="#111" stroke-width="2"/>
  <path d="M 760 900 C 730 700, 660 580, 580 560 L 600 900 Z" fill="#263238" stroke="#111" stroke-width="2"/>
  <!-- Vest Pinstripes -->
  <path d="M 280 900 L 320 630 M 320 900 L 360 600 M 360 900 L 390 580" stroke="#546E7A" stroke-width="2" opacity="0.5"/>
  <path d="M 720 900 L 680 630 M 680 900 L 640 600 M 640 900 L 610 580" stroke="#546E7A" stroke-width="2" opacity="0.5"/>
  
  <!-- Neck/Chest Fur -->
  <path d="M 400 560 L 450 650 L 500 600 L 550 650 L 600 560 C 550 500, 450 500, 400 560 Z" fill="#D0C1B4"/>

  <!-- Back Mane / Spiky Mohawk -->
  <path d="M 460 300 L 410 200 L 460 220 L 440 120 L 490 180 L 500 70 L 530 160 L 570 90 L 560 190 L 610 160 L 570 250 L 640 230 L 580 320 Z" fill="#211A16"/>
  <!-- Mane Highlights -->
  <path d="M 480 250 L 450 150 L 480 180 L 500 100 L 520 170 L 550 110 L 540 190 L 580 160 L 550 240 Z" fill="#4E3D34"/>

  <!-- ================= HYENA HEAD & FACE ================= -->

  <!-- Base Head Shape & Cheeks (Jagged for fur) -->
  <path d="M 330 380 Q 280 430 310 470 Q 270 500 340 520 C 400 550, 600 550, 660 520 Q 730 500 690 470 Q 720 430 670 380 C 670 280, 580 230, 500 230 C 420 230, 330 280, 330 380 Z" fill="#8F7966"/>

  <!-- Left Ear -->
  <g transform="translate(360, 260) rotate(-20)">
    <path d="M 0 0 C -50 -100, 20 -140, 50 0 Z" fill="#8F7966" stroke="#211A16" stroke-width="3"/>
    <path d="M 5 0 C -30 -80, 25 -110, 40 0 Z" fill="#C49F8C"/>
    <path d="M 10 0 C -15 -60, 25 -80, 30 0 Z" fill="#3E2723" opacity="0.6"/> <!-- Inner shadow -->
  </g>

  <!-- Right Ear (Torn) -->
  <g transform="translate(640, 260) rotate(20)">
    <path d="M 0 0 C 50 -100, -20 -140, -50 0 Z" fill="#8F7966" stroke="#211A16" stroke-width="3"/>
    <path d="M -5 0 C 30 -80, -25 -110, -40 0 Z" fill="#C49F8C"/>
    <path d="M -10 0 C 15 -60, -25 -80, -30 0 Z" fill="#3E2723" opacity="0.6"/>
    <!-- Tear -->
    <polygon points="-25,-75 -5,-65 -30,-50" fill="url(#wallpaper)"/>
  </g>

  <!-- Fur Spots -->
  <g fill="#2E221E" opacity="0.85">
    <path d="M 340 480 Q 350 470 360 485 Q 355 495 340 480 Z"/>
    <path d="M 370 430 Q 385 410 395 435 Q 380 450 370 430 Z"/>
    <path d="M 640 490 Q 655 480 650 500 Q 635 505 640 490 Z"/>
    <path d="M 610 440 Q 625 425 635 445 Q 615 460 610 440 Z"/>
    <circle cx="410" cy="280" r="12"/><circle cx="440" cy="250" r="10"/>
    <circle cx="590" cy="280" r="14"/><circle cx="560" cy="250" r="9"/>
  </g>

  <!-- The Jaw / Snout Base -->
  <path d="M 400 390 C 380 460, 420 520, 500 520 C 580 520, 620 460, 600 390 C 560 360, 440 360, 400 390 Z" fill="#D0C1B4"/>

  <!-- The Mouth / Big Grin -->
  <!-- Dark Interior -->
  <path d="M 330 420 C 500 650, 670 420, 670 420 C 580 500, 420 500, 330 420 Z" fill="#1A0000"/>
  <!-- Tongue -->
  <path d="M 440 490 C 500 560, 560 490, 560 490 C 530 520, 470 520, 440 490 Z" fill="#801C2E"/>
  <!-- Top Gums & Lips -->
  <path d="M 320 415 C 450 540, 550 540, 680 415 C 550 500, 450 500, 320 415 Z" fill="#2E1C17"/>
  <path d="M 370 430 C 450 510, 550 510, 630 430 C 550 490, 450 490, 370 430 Z" fill="#6A2E2A"/>

  <!-- Jagged, Disgusting Teeth -->
  <g fill="#E8DEB4" stroke="#4A3B2C" stroke-width="1.5">
    <!-- Left Canine -->
    <polygon points="390,435 375,510 360,425"/>
    <!-- Right Canine -->
    <polygon points="610,435 625,510 640,425"/>
    <!-- Top Incisors -->
    <polygon points="410,455 415,485 430,465"/>
    <polygon points="435,468 445,500 460,475"/>
    <polygon points="465,478 480,515 495,482"/>
    <polygon points="505,482 520,515 535,478"/>
    <polygon points="540,475 555,500 565,468"/>
    <polygon points="570,465 585,485 590,455"/>
    <!-- Bottom Teeth (jutting up from blackness) -->
    <polygon points="430,520 440,495 450,525"/>
    <polygon points="460,530 475,490 490,535"/>
    <polygon points="510,535 525,490 540,530"/>
    <polygon points="550,525 560,495 570,520"/>
  </g>

  <!-- Wet Nose -->
  <path d="M 450 410 C 450 380, 550 380, 550 410 L 520 450 Q 500 460 480 450 Z" fill="#1A110D"/>
  <ellipse cx="480" cy="405" rx="12" ry="5" fill="#FFF" opacity="0.4" transform="rotate(-15, 480, 405)"/>
  <!-- Muzzle Wrinkles/Snarl -->
  <path d="M 440 390 Q 470 370 500 390 Q 530 370 560 390" fill="none" stroke="#8F7966" stroke-width="4" opacity="0.7"/>
  <!-- Whisker spots -->
  <circle cx="430" cy="440" r="1.5" fill="#211A16"/> <circle cx="445" cy="450" r="1.5" fill="#211A16"/>
  <circle cx="570" cy="440" r="1.5" fill="#211A16"/> <circle cx="555" cy="450" r="1.5" fill="#211A16"/>

  <!-- Eyes (Crazy & Asymmetrical) -->
  <!-- Left Eye Socket (Squinting) -->
  <path d="M 380 340 Q 420 310 460 340 Q 420 370 380 340 Z" fill="#211A16"/>
  <path d="M 390 340 Q 420 320 450 340 Q 420 355 390 340 Z" fill="#F4D03F" stroke="#1A110D" stroke-width="2"/>
  <!-- Left Pupil (Pinprick) -->
  <circle cx="420" cy="338" r="3" fill="#1A110D"/>
  
  <!-- Right Eye Socket (Bulging Wide) -->
  <ellipse cx="560" cy="325" rx="45" ry="40" fill="#211A16"/>
  <circle cx="560" cy="325" r="32" fill="#F4D03F" stroke="#1A110D" stroke-width="3"/>
  <!-- Right Eye Blood Veins -->
  <path d="M 532 325 Q 545 320 550 325 M 535 340 Q 545 335 552 338 M 588 320 Q 575 315 570 322 M 585 335 Q 575 335 568 330" fill="none" stroke="#D32F2F" stroke-width="1.5" opacity="0.8"/>
  <!-- Right Pupil (Dilated) -->
  <circle cx="560" cy="325" r="16" fill="#1A110D"/>
  
  <!-- Catchlights (Makes eyes look wet and alive) -->
  <circle cx="421" cy="336" r="1.5" fill="#FFF"/>
  <circle cx="565" cy="315" r="6" fill="#FFF"/>
  <circle cx="558" cy="320" r="2" fill="#FFF"/>

  <!-- Heavy Eyebrows / Furrowed Brow -->
  <path d="M 370 320 L 410 290 L 440 310 L 480 340 L 460 300 L 390 280 Z" fill="#211A16"/>
  <!-- Twitching Right Eyebrow -->
  <path d="M 500 330 L 530 280 L 570 260 L 610 290 L 640 270 L 610 320 L 560 290 Z" fill="#211A16"/>

  <!-- Drool (Degenerate Detail) -->
  <g opacity="0.85">
    <path d="M 390 445 C 380 500, 395 540, 385 560 C 375 540, 370 500, 390 445" fill="#A8DDFD"/>
    <path d="M 390 455 C 382 500, 390 530, 385 550" fill="none" stroke="#FFF" stroke-width="2" stroke-linecap="round"/>
    <circle cx="384" cy="575" r="5" fill="#A8DDFD"/>
    <circle cx="383" cy="573" r="2" fill="#FFF"/>
    <!-- Right side drool string -->
    <path d="M 640 445 C 650 480, 635 510, 645 530 C 655 510, 660 480, 640 445" fill="#A8DDFD"/>
  </g>

  <!-- Spiked Collar -->
  <path d="M 350 560 C 450 630, 550 630, 650 560 L 660 590 C 550 670, 450 670, 340 590 Z" fill="#111" filter="url(#shadow)"/>
  <!-- Spikes -->
  <g stroke="#263238" stroke-width="1">
    <polygon points="370,580 375,625 385,585" fill="#B0BEC5"/>
    <polygon points="420,595 430,645 440,600" fill="#CFD8DC"/>
    <polygon points="490,605 500,660 510,610" fill="#ECEFF1"/> <!-- Center Bright Spike -->
    <polygon points="560,600 570,645 580,595" fill="#CFD8DC"/>
    <polygon points="615,585 625,625 630,580" fill="#B0BEC5"/>
  </g>

  <!-- Dealer Visor (Translucent Green) -->
  <g filter="url(#shadow)">
    <!-- Main Brim -->
    <path d="M 300 310 C 400 380, 600 380, 700 310 C 600 345, 400 345, 300 310 Z" fill="#4CAF50" opacity="0.85"/>
    <!-- Rim Highlight / Trim -->
    <path d="M 300 310 C 400 380, 600 380, 700 310 C 600 345, 400 345, 300 310 Z" fill="none" stroke="#A5D6A7" stroke-width="3" opacity="0.9"/>
    <!-- Visor Head Strap -->
    <path d="M 290 295 C 330 250, 670 250, 710 295 L 700 310 C 660 270, 340 270, 300 310 Z" fill="#212121"/>
    <path d="M 290 295 C 330 250, 670 250, 710 295" fill="none" stroke="#FFF" stroke-width="1" opacity="0.3"/>
  </g>

  <!-- Cigar in Mouth -->
  <g transform="translate(610, 480) rotate(-20)" filter="url(#shadow)">
    <!-- Cigar Body -->
    <rect x="0" y="-10" width="75" height="20" rx="4" fill="#4E342E" stroke="#1A110D" stroke-width="2"/>
    <!-- Texture/Leaves -->
    <line x1="15" y1="-10" x2="5" y2="10" stroke="#2E1A11" stroke-width="2"/>
    <line x1="35" y1="-10" x2="25" y2="10" stroke="#2E1A11" stroke-width="2"/>
    <line x1="55" y1="-10" x2="45" y2="10" stroke="#2E1A11" stroke-width="2"/>
    <!-- Red Band -->
    <rect x="15" y="-10" width="12" height="20" fill="#B71C1C"/>
    <rect x="15" y="-8" width="12" height="3" fill="#FDD835"/>
    <rect x="15" y="5" width="12" height="3" fill="#FDD835"/>
    <!-- Ash -->
    <rect x="75" y="-9" width="18" height="18" rx="2" fill="#757575" stroke="#424242" stroke-width="1"/>
    <path d="M 80 -9 L 78 9 M 86 -9 L 84 9" stroke="#616161" stroke-width="2"/>
    <!-- Glowing Cherry -->
    <ellipse cx="94" cy="0" rx="4" ry="7" fill="#FF3D00" filter="url(#glow)"/>
    <ellipse cx="95" cy="0" rx="2" ry="4" fill="#FFF"/>
  </g>
  <!-- Cigar Smoke (Above visor) -->
  <path d="M 700 450 C 720 400, 660 350, 700 280 C 740 210, 650 150, 700 80" fill="none" stroke="#FFF" stroke-width="8" opacity="0.25" filter="url(#blur-strong)"/>
  <path d="M 700 450 C 730 380, 680 340, 710 270 C 740 200, 680 160, 710 90" fill="none" stroke="#FFF" stroke-width="3" opacity="0.4" filter="url(#blur-strong)"/>

  <!-- ================= POKER TABLE ================= -->
  
  <!-- Outer Wood Rim -->
  <ellipse cx="500" cy="850" rx="850" ry="320" fill="url(#woodRim)" stroke="#111" stroke-width="6" filter="url(#shadow)"/>
  <!-- Wood Highlights -->
  <ellipse cx="500" cy="850" rx="830" ry="300" fill="none" stroke="#8D6E63" stroke-width="4" opacity="0.3"/>
  <ellipse cx="500" cy="850" rx="800" ry="270" fill="none" stroke="#2D1A11" stroke-width="10"/>
  
  <!-- Green Felt Surface -->
  <ellipse cx="500" cy="850" rx="795" ry="265" fill="url(#tableGlow)"/>
  
  <!-- Casino Table Inner Yellow Betting Line -->
  <ellipse cx="500" cy="850" rx="740" ry="230" fill="none" stroke="#FDD835" stroke-width="4" opacity="0.5"/>

  <!-- ================= TABLE PROPS (MIDGROUND) ================= -->

  <!-- Whiskey Glass -->
  <g transform="translate(180, 630)" filter="url(#shadow)">
    <!-- Ambient Table Glow from liquid -->
    <ellipse cx="40" cy="85" rx="35" ry="12" fill="#FF8F00" opacity="0.25" filter="url(#glow)"/>
    <!-- Glass Back Inner -->
    <path d="M 10 10 L 70 10 L 60 80 L 20 80 Z" fill="#FFF" opacity="0.05"/>
    <ellipse cx="40" cy="80" rx="20" ry="6" fill="#FFF" opacity="0.15"/>
    <!-- Whiskey Liquid -->
    <path d="M 16 45 L 64 45 L 58 78 L 22 78 Z" fill="#E65100" opacity="0.85"/>
    <ellipse cx="40" cy="45" rx="24" ry="6" fill="#FFB300" opacity="0.9"/>
    <!-- Ice Cubes -->
    <rect x="25" y="55" width="20" height="20" rx="2" fill="#FFF" opacity="0.6" transform="rotate(15, 35, 65)"/>
    <rect x="42" y="42" width="16" height="16" rx="2" fill="#FFF" opacity="0.5" transform="rotate(-25, 50, 50)"/>
    <!-- Glass Front Outlines & Reflection -->
    <path d="M 10 10 L 70 10 L 60 80 L 20 80 Z" fill="none" stroke="#FFF" stroke-width="2.5" opacity="0.5"/>
    <ellipse cx="40" cy="10" rx="30" ry="8" fill="none" stroke="#FFF" stroke-width="2.5" opacity="0.7"/>
    <path d="M 14 15 L 22 75" stroke="#FFF" stroke-width="4" stroke-linecap="round" opacity="0.6"/> <!-- Sharp reflection -->
    <path d="M 66 15 L 62 40" stroke="#FFF" stroke-width="2" stroke-linecap="round" opacity="0.4"/>
  </g>

  <!-- Community Cards (The Flop) -->
  <g transform="translate(500, 680) scale(1, 0.55) skewX(-45) rotate(-15)" filter="url(#shadow)">
    <!-- Ace of Spades -->
    <g transform="translate(-130, 0) rotate(-6)">
      <use href="#playing-card"/>
      <text x="-48" y="-135" fill="#111" font-size="28" font-family="Arial, sans-serif" font-weight="bold">A</text>
      <use href="#suit-spade" transform="translate(-40, -115) scale(0.8)"/>
      <use href="#suit-spade" transform="translate(0, -85) scale(3.5)"/>
    </g>
    <!-- King of Spades -->
    <g transform="translate(0, -5) rotate(2)">
      <use href="#playing-card"/>
      <text x="-48" y="-135" fill="#111" font-size="28" font-family="Arial, sans-serif" font-weight="bold">K</text>
      <use href="#suit-spade" transform="translate(-40, -115) scale(0.8)"/>
      <use href="#suit-spade" transform="translate(0, -85) scale(3.5)"/>
    </g>
    <!-- King of Diamonds -->
    <g transform="translate(130, 0) rotate(10)">
      <use href="#playing-card"/>
      <text x="-48" y="-135" fill="#D32F2F" font-size="28" font-family="Arial, sans-serif" font-weight="bold">K</text>
      <use href="#suit-diamond" transform="translate(-40, -115) scale(0.8)"/>
      <use href="#suit-diamond" transform="translate(0, -85) scale(3.5)"/>
    </g>
  </g>

  <!-- Scattered Chips near the Flop -->
  <g filter="url(#shadow)">
    <use href="#chip-blue" x="420" y="700"/>
    <use href="#chip-blue" x="430" y="690"/>
    <use href="#chip-red" x="470" y="720"/>
    <use href="#chip-gold" x="600" y="710"/>
  </g>

  <!-- ================= FOREGROUND (PAWS & CARDS) ================= -->

  <!-- Left Paw (Guarding Chips) -->
  <g filter="url(#shadow)">
    <!-- Arm/Wrist -->
    <path d="M 60 950 L 120 780 C 150 720, 250 740, 320 760 C 350 770, 340 820, 300 850 L 220 950 Z" fill="#8F7966"/>
    <!-- Fur tufts on arm -->
    <path d="M 120 780 L 100 760 L 135 765 Z" fill="#211A16" opacity="0.8"/>
    <path d="M 170 740 L 150 710 L 185 730 Z" fill="#211A16" opacity="0.8"/>
    
    <!-- Massive Knuckles/Fingers gripping table -->
    <g fill="#7A6153" stroke="#211A16" stroke-width="2">
      <!-- Pinky -->
      <path d="M 210 820 Q 230 790 260 805 Q 240 840 210 820 Z"/>
      <!-- Ring -->
      <path d="M 240 800 Q 270 760 300 780 Q 280 820 240 800 Z"/>
      <!-- Middle -->
      <path d="M 280 780 Q 310 740 340 760 Q 320 800 280 780 Z"/>
      <!-- Index -->
      <path d="M 320 765 Q 350 740 370 770 Q 340 800 320 765 Z"/>
    </g>
    <!-- Sharp Claws -->
    <g fill="#111">
      <path d="M 255 802 L 275 795 L 260 815 Z"/>
      <path d="M 295 778 L 315 765 L 300 790 Z"/>
      <path d="M 335 758 L 355 745 L 340 770 Z"/>
      <path d="M 365 768 L 385 760 L 370 780 Z"/>
    </g>
  </g>

  <!-- Left Side Chip Stacks (Behind and beside the paw) -->
  <g filter="url(#shadow)">
    <!-- Tall Red Stack -->
    <g transform="translate(380, 750)">
      <use href="#chip-red" y="0"/><use href="#chip-red" y="-12"/><use href="#chip-red" y="-24"/>
      <use href="#chip-red" y="-36"/><use href="#chip-red" y="-48"/><use href="#chip-red" y="-60"/><use href="#chip-red" y="-72"/>
    </g>
    <!-- Blue Stack -->
    <g transform="translate(320, 730)">
      <use href="#chip-blue" y="0"/><use href="#chip-blue" y="-12"/><use href="#chip-blue" y="-24"/><use href="#chip-blue" y="-36"/>
    </g>
    <!-- Black / High Roller Stack -->
    <g transform="translate(450, 760)">
      <use href="#chip-black" y="0"/><use href="#chip-black" y="-12"/><use href="#chip-black" y="-24"/><use href="#chip-black" y="-36"/><use href="#chip-black" y="-48"/>
    </g>
    <!-- Scattered Gold Chips -->
    <use href="#chip-gold" x="300" y="760"/>
    <use href="#chip-gold" x="410" y="780"/>
  </g>

  <!-- The Winning Hand (Royal Flush in Hearts) - Right Forehand -->
  <!-- We fan them perfectly around a pivot (800, 850) -->
  <g id="hero-cards">
    <!-- 10 of Hearts -->
    <g transform="translate(800, 850) rotate(-24)">
      <use href="#playing-card"/>
      <text x="-48" y="-135" fill="#D32F2F" font-size="28" font-family="Arial, sans-serif" font-weight="bold">10</text>
      <use href="#suit-heart" transform="translate(-40, -115) scale(0.8)"/>
      <use href="#suit-heart" transform="translate(0, -85) scale(3.5)"/>
    </g>
    <!-- Jack of Hearts -->
    <g transform="translate(800, 850) rotate(-12)">
      <use href="#playing-card"/>
      <text x="-48" y="-135" fill="#D32F2F" font-size="28" font-family="Arial, sans-serif" font-weight="bold">J</text>
      <use href="#suit-heart" transform="translate(-40, -115) scale(0.8)"/>
      <use href="#suit-heart" transform="translate(0, -85) scale(3.5)"/>
    </g>
    <!-- Queen of Hearts -->
    <g transform="translate(800, 850) rotate(0)">
      <use href="#playing-card"/>
      <text x="-48" y="-135" fill="#D32F2F" font-size="28" font-family="Arial, sans-serif" font-weight="bold">Q</text>
      <use href="#suit-heart" transform="translate(-40, -115) scale(0.8)"/>
      <use href="#suit-heart" transform="translate(0, -85) scale(3.5)"/>
    </g>
    <!-- King of Hearts -->
    <g transform="translate(800, 850) rotate(12)">
      <use href="#playing-card"/>
      <text x="-48" y="-135" fill="#D32F2F" font-size="28" font-family="Arial, sans-serif" font-weight="bold">K</text>
      <use href="#suit-heart" transform="translate(-40, -115) scale(0.8)"/>
      <use href="#suit-heart" transform="translate(0, -85) scale(3.5)"/>
    </g>
    <!-- Ace of Hearts (The Nuts) -->
    <g transform="translate(800, 850) rotate(24)">
      <use href="#playing-card"/>
      <text x="-48" y="-135" fill="#D32F2F" font-size="28" font-family="Arial, sans-serif" font-weight="bold">A</text>
      <use href="#suit-heart" transform="translate(-40, -115) scale(0.8)"/>
      <use href="#suit-heart" transform="translate(0, -85) scale(3.5)"/>
    </g>
  </g>

  <!-- Right Paw Holding Cards -->
  <g filter="url(#shadow)">
    <!-- Arm coming from bottom right -->
    <path d="M 980 950 L 920 800 C 880 720, 780 720, 730 780 C 700 810, 740 880, 780 950 Z" fill="#8F7966"/>
    <!-- Back Fingers supporting cards -->
    <g fill="#7A6153" stroke="#211A16" stroke-width="2">
      <path d="M 720 730 Q 700 680 730 670 Q 750 700 730 730 Z"/>
      <path d="M 760 710 Q 750 650 780 640 Q 800 680 780 710 Z"/>
      <path d="M 810 710 Q 820 650 850 650 Q 860 690 840 720 Z"/>
      <path d="M 860 740 Q 890 690 910 710 Q 890 750 870 760 Z"/>
    </g>
    <!-- Finger Claws (peeking over cards) -->
    <g fill="#111">
      <polygon points="720,675 710,650 735,665"/>
      <polygon points="770,645 765,615 785,635"/>
      <polygon points="840,655 850,625 860,650"/>
      <polygon points="905,705 925,685 915,715"/>
    </g>
    <!-- Massive Thumb overlapping front of cards -->
    <path d="M 730 830 C 700 780, 730 730, 780 750 C 820 770, 830 800, 800 840 Z" fill="#6D5144" stroke="#211A16" stroke-width="2"/>
    <!-- Thumb Claw -->
    <polygon points="775,750 760,710 795,745" fill="#111"/>
  </g>

  <!-- ================= LIGHTING / FOREGROUND EFFECTS ================= -->

  <!-- Top Cinematic Spotlight Cone -->
  <polygon points="350,-50 650,-50 1100,850 -100,850" fill="url(#spotlight)" style="mix-blend-mode: screen;" opacity="0.8"/>

  <!-- Character Rim Lighting (Cyan/Blue reflection from off-screen casino neon) -->
  <g fill="none" stroke="#18FFFF" stroke-width="3" opacity="0.6" filter="url(#glow)">
    <!-- Head/Ear outline -->
    <path d="M 330 380 C 330 280, 420 230, 500 230"/>
    <path d="M 360 260 C 310 160, 380 120, 410 260"/>
    <!-- Left Shoulder rim -->
    <path d="M 220 900 C 250 650, 320 520, 400 520"/>
    <!-- Visor Rim Edge -->
    <path d="M 300 310 C 350 345, 450 360, 550 360"/>
  </g>

  <!-- Warm Under-Lighting (Green bounce from the table felt) -->
  <g fill="none" stroke="#4CAF50" stroke-width="6" opacity="0.3" filter="url(#glow)">
    <path d="M 400 560 L 450 650 L 500 600 L 550 650 L 600 560"/>
    <path d="M 430 520 C 470 540, 530 540, 570 520"/> <!-- Under Jaw -->
  </g>

  <!-- Floating Dust Motes (Bokeh Effect) -->
  <g fill="#FFF" filter="url(#glow)">
    <circle cx="280" cy="400" r="8" opacity="0.1"/>
    <circle cx="350" cy="550" r="15" opacity="0.05"/>
    <circle cx="650" cy="350" r="12" opacity="0.08"/>
    <circle cx="750" cy="500" r="20" opacity="0.04"/>
    <circle cx="480" cy="200" r="6" opacity="0.15"/>
    <circle cx="850" cy="300" r="10" opacity="0.06"/>
    <circle cx="150" cy="700" r="18" opacity="0.05"/>
  </g>

  <!-- Deep Moody Vignette Overlay -->
  <rect width="1000" height="800" fill="url(#vignette)" style="mix-blend-mode: multiply;" opacity="0.85"/>

</svg>