<svg xmlns="http://www.w3.org/2000/svg" viewBox="0 0 1000 800" width="100%" height="100%">
  <defs>
    <!-- Background Wallpaper -->
    <pattern id="wallpaper" width="100" height="100" patternUnits="userSpaceOnUse">
      <rect width="100" height="100" fill="#1a0b0d"/>
      <path d="M 50 0 L 50 100 M 0 50 L 100 50" stroke="#2a1215" stroke-width="20"/>
      <path d="M 0 0 L 100 100 M 100 0 L 0 100" stroke="#3d181d" stroke-width="2" opacity="0.3"/>
      <circle cx="50" cy="50" r="35" fill="none" stroke="#2a1215" stroke-width="4"/>
    </pattern>

    <!-- Gradients -->
    <radialGradient id="vignette" cx="50%" cy="40%" r="75%">
      <stop offset="20%" stop-color="#000" stop-opacity="0"/>
      <stop offset="80%" stop-color="#050200" stop-opacity="0.8"/>
      <stop offset="100%" stop-color="#000" stop-opacity="0.95"/>
    </radialGradient>
    
    <radialGradient id="tableGlow" cx="50%" cy="800" r="500" gradientUnits="userSpaceOnUse">
      <stop offset="0%" stop-color="#388E3C"/>
      <stop offset="40%" stop-color="#1B5E20"/>
      <stop offset="80%" stop-color="#0A2A0D"/>
      <stop offset="100%" stop-color="#031205"/>
    </radialGradient>

    <linearGradient id="woodRail" x1="0" y1="0" x2="0" y2="1">
      <stop offset="0%" stop-color="#5D4037"/>
      <stop offset="15%" stop-color="#3E2723"/>
      <stop offset="80%" stop-color="#1E110A"/>
      <stop offset="100%" stop-color="#0D0603"/>
    </linearGradient>

    <linearGradient id="cardGrad" x1="0" y1="0" x2="1" y2="1">
      <stop offset="0%" stop-color="#FFFFFF"/>
      <stop offset="100%" stop-color="#D7CCC8"/>
    </linearGradient>

    <linearGradient id="metalSpike" x1="0%" y1="0%" x2="100%" y2="100%">
      <stop offset="0%" stop-color="#FFFFFF"/>
      <stop offset="30%" stop-color="#B0BEC5"/>
      <stop offset="70%" stop-color="#546E7A"/>
      <stop offset="100%" stop-color="#263238"/>
    </linearGradient>

    <linearGradient id="furGrad" x1="0%" y1="0%" x2="0%" y2="100%">
      <stop offset="0%" stop-color="#8D6E5D"/>
      <stop offset="100%" stop-color="#4A3428"/>
    </linearGradient>

    <radialGradient id="cigarGlow" cx="50%" cy="50%" r="50%">
      <stop offset="0%" stop-color="#FFFFFF"/>
      <stop offset="20%" stop-color="#FFEA00"/>
      <stop offset="60%" stop-color="#FF3D00"/>
      <stop offset="100%" stop-color="#FF3D00" stop-opacity="0"/>
    </radialGradient>

    <radialGradient id="eyeGlow" cx="50%" cy="50%" r="50%">
      <stop offset="0%" stop-color="#FFD54F"/>
      <stop offset="70%" stop-color="#F57F17"/>
      <stop offset="100%" stop-color="#B71C1C"/>
    </radialGradient>

    <!-- Filters -->
    <filter id="shadow" x="-30%" y="-30%" width="160%" height="160%">
      <feDropShadow dx="0" dy="8" stdDeviation="6" flood-color="#000" flood-opacity="0.75"/>
    </filter>
    
    <filter id="lightShadow" x="-20%" y="-20%" width="140%" height="140%">
      <feDropShadow dx="2" dy="5" stdDeviation="4" flood-color="#000" flood-opacity="0.5"/>
    </filter>
    
    <filter id="blur" x="-50%" y="-50%" width="200%" height="200%">
      <feGaussianBlur stdDeviation="6"/>
    </filter>
    
    <filter id="glow" x="-50%" y="-50%" width="200%" height="200%">
      <feGaussianBlur stdDeviation="4" result="blur"/>
      <feComposite in="SourceGraphic" in2="blur" operator="over"/>
    </filter>

    <filter id="smokeBlur">
      <feGaussianBlur stdDeviation="12"/>
    </filter>

    <!-- Components -->
    <g id="chip">
      <ellipse cx="0" cy="0" rx="35" ry="14" fill="#0A0A0A"/>
      <path d="M -35 0 L -35 -5 C -35 -12, -19 -19, 0 -19 C 19 -19, 35 -12, 35 -5 L 35 0 Z" fill="#111"/>
      <ellipse cx="0" cy="-5" rx="35" ry="14" fill="currentColor"/>
      <path d="M -22 -5 L -32 -5 M 22 -5 L 32 -5 M 0 -14 L 0 -19 M 0 4 L 0 9 M -15 -12 L -22 -16 M 15 -12 L 22 -16 M -15 2 L -22 6 M 15 2 L 22 6" stroke="#FFF" stroke-width="3" opacity="0.8"/>
      <ellipse cx="0" cy="-5" rx="22" ry="8" fill="#FFF" opacity="0.1"/>
      <ellipse cx="0" cy="-5" rx="14" ry="5" fill="#0A0A0A" opacity="0.4"/>
    </g>

    <g id="card">
      <rect x="0" y="0" width="75" height="115" rx="6" fill="url(#cardGrad)" stroke="#BCAAA4" stroke-width="1" filter="url(#shadow)"/>
      <rect x="3" y="3" width="69" height="109" rx="4" fill="none" stroke="#EFEBE9" stroke-width="1"/>
    </g>

    <g id="flop-card">
      <rect width="65" height="95" rx="4" fill="#F5F5F5" stroke="#9E9E9E" stroke-width="1" filter="url(#lightShadow)"/>
    </g>
  </defs>

  <!-- ================= BACKGROUND & ATMOSPHERE ================= -->
  <rect width="1000" height="800" fill="url(#wallpaper)"/>
  
  <!-- Volumetric Lamp Spotlight -->
  <path d="M 300 -50 L 700 -50 L 1100 850 L -100 850 Z" fill="#FFF" opacity="0.04"/>
  <path d="M 400 -50 L 600 -50 L 800 850 L 200 850 Z" fill="#FFF" opacity="0.06"/>
  <circle cx="500" cy="-50" r="400" fill="#FFC107" opacity="0.05" filter="url(#smokeBlur)"/>

  <!-- Thick Background Smoke -->
  <path d="M -50 300 Q 200 150 450 350 T 1050 200" fill="none" stroke="#E0E0E0" stroke-width="80" opacity="0.03" filter="url(#smokeBlur)"/>
  <path d="M -100 550 Q 300 400 600 650 T 1150 500" fill="none" stroke="#FFF" stroke-width="100" opacity="0.02" filter="url(#smokeBlur)"/>

  <!-- ================= HYENA CHARACTER (BACK) ================= -->
  
  <!-- Shoulders & Torso -->
  <path d="M 280 850 C 230 600, 360 480, 500 480 C 640 480, 770 600, 720 850 Z" fill="url(#furGrad)"/>
  <path d="M 360 850 C 350 650, 430 570, 500 570 C 570 570, 650 650, 640 850 Z" fill="#D7CCC8" opacity="0.9"/>
  
  <!-- Back Mane (Spiky and wild) -->
  <g fill="#1A110C" filter="url(#lightShadow)">
    <path d="M 450 300 L 400 240 L 460 210 L 410 140 L 490 170 L 470 80 L 530 150 L 570 60 L 560 160 L 620 110 L 580 200 L 640 210 L 570 270 L 610 320 Z"/>
    <!-- Mane highlights -->
    <path d="M 470 270 L 430 180 L 480 210 L 490 110 L 530 170 L 560 90 L 550 180 L 600 150 L 560 240 Z" fill="#3E2723"/>
  </g>

  <!-- Left Ear (Ragged, rounded hyena shape) -->
  <path d="M 390 310 C 310 180, 240 230, 280 380 C 290 410, 340 380, 390 330 Z" fill="#795548" stroke="#211A16" stroke-width="4"/>
  <path d="M 370 310 C 320 220, 280 250, 305 365 Z" fill="#4E342E"/>
  <path d="M 360 300 C 330 240, 300 260, 315 350 Z" fill="#A1887F" opacity="0.6"/>
  
  <!-- Right Ear (Torn, pierced) -->
  <path d="M 610 310 C 690 180, 760 230, 720 380 C 710 410, 660 380, 610 330 Z" fill="#795548" stroke="#211A16" stroke-width="4"/>
  <path d="M 630 310 C 680 220, 720 250, 695 365 Z" fill="#4E342E"/>
  <path d="M 640 300 C 670 240, 700 260, 685 350 Z" fill="#A1887F" opacity="0.6"/>
  <!-- Ear Tear -->
  <polygon points="735,280 680,310 710,335" fill="#1a0b0d"/> 
  <!-- Earring -->
  <circle cx="725" cy="360" r="12" fill="none" stroke="#FFD54F" stroke-width="4" filter="url(#lightShadow)"/>

  <!-- Base Head Shape & Cheeks -->
  <ellipse cx="500" cy="380" rx="150" ry="120" fill="#8D6E5D"/>
  <!-- Wide, furry jowls -->
  <path d="M 340 390 C 270 480, 400 550, 500 550 C 600 550, 730 480, 660 390 C 710 490, 580 570, 500 570 C 420 570, 290 490, 340 390 Z" fill="#6D4C41"/>
  <path d="M 360 410 C 310 480, 420 540, 500 540 C 580 540, 690 480, 640 410 Z" fill="#8D6E5D"/>

  <!-- Fur Spots (Hyena markings) -->
  <g fill="#2D1E16" opacity="0.8">
    <ellipse cx="340" cy="680" rx="20" ry="30" transform="rotate(-15, 340, 680)"/>
    <ellipse cx="390" cy="760" rx="25" ry="18" transform="rotate(5, 390, 760)"/>
    <ellipse cx="660" cy="690" rx="18" ry="32" transform="rotate(25, 660, 690)"/>
    <ellipse cx="610" cy="780" rx="30" ry="20" transform="rotate(-10, 610, 780)"/>
    <ellipse cx="370" cy="490" rx="14" ry="22" transform="rotate(-25, 370, 490)"/>
    <ellipse cx="320" cy="550" rx="18" ry="12" transform="rotate(-45, 320, 550)"/>
    <ellipse cx="630" cy="500" rx="16" ry="24" transform="rotate(35, 630, 500)"/>
    <ellipse cx="680" cy="560" rx="14" ry="18" transform="rotate(50, 680, 560)"/>
    <circle cx="410" cy="290" r="12"/>
    <circle cx="580" cy="280" r="14"/>
    <circle cx="610" cy="340" r="10"/>
    <circle cx="380" cy="350" r="11"/>
    <circle cx="430" cy="460" r="8"/>
    <circle cx="570" cy="470" r="9"/>
  </g>

  <!-- Muzzle/Snout -->
  <path d="M 420 380 C 400 480, 440 520, 500 520 C 560 520, 600 480, 580 380 C 530 400, 470 400, 420 380 Z" fill="#D7CCC8"/>
  <path d="M 440 390 C 420 470, 460 500, 500 500 C 540 500, 580 470, 560 390 Z" fill="#EFEBE9"/>

  <!-- ================= THE MANIC FACE ================= -->

  <!-- Eye Sockets / Bags (Deep & Dark) -->
  <path d="M 380 330 C 370 380, 470 400, 470 340 Z" fill="#3E2723" opacity="0.6" filter="url(#blur)"/>
  <path d="M 620 320 C 630 380, 530 400, 530 330 Z" fill="#3E2723" opacity="0.6" filter="url(#blur)"/>
  <path d="M 390 375 Q 430 410, 465 375" fill="none" stroke="#2D1E16" stroke-width="5" stroke-linecap="round"/>
  <path d="M 525 385 Q 565 420, 605 380" fill="none" stroke="#2D1E16" stroke-width="5" stroke-linecap="round"/>

  <!-- Left Eye (Twitching, Squinting) -->
  <path d="M 400 350 Q 430 330 460 350 Q 430 365 400 350 Z" fill="url(#eyeGlow)" stroke="#1A110C" stroke-width="4"/>
  <!-- Right Eye (Wide Open, Dilated) -->
  <circle cx="560" cy="345" r="26" fill="url(#eyeGlow)" stroke="#1A110C" stroke-width="4"/>
  <path d="M 534 345 A 26 26 0 0 1 586 345" fill="none" stroke="#D32F2F" stroke-width="2" opacity="0.5"/> <!-- Bloodshot top -->

  <!-- Pupils (Pinprick vs Blown out) -->
  <circle cx="435" cy="349" r="4" fill="#0A0502"/>
  <circle cx="560" cy="345" r="16" fill="#0A0502"/>
  
  <!-- Catchlights -->
  <circle cx="437" cy="347" r="1.5" fill="#FFF"/>
  <circle cx="565" cy="336" r="5" fill="#FFF"/>
  <circle cx="555" cy="348" r="2" fill="#FFF" opacity="0.7"/>

  <!-- Heavy, Expressive Eyebrows -->
  <path d="M 380 335 Q 430 280 480 350" fill="none" stroke="#1A110C" stroke-width="14" stroke-linecap="round"/>
  <path d="M 510 335 Q 570 260 620 320" fill="none" stroke="#1A110C" stroke-width="16" stroke-linecap="round"/>

  <!-- Nose (Wet, Dog-like) -->
  <path d="M 450 410 C 450 380, 550 380, 550 410 L 520 450 Q 500 465 480 450 Z" fill="#1A110C"/>
  <!-- Nose details -->
  <ellipse cx="475" cy="410" rx="8" ry="4" fill="#FFF" opacity="0.4" transform="rotate(-15, 475, 410)"/>
  <path d="M 470 435 Q 480 445 500 450 Q 520 445 530 435" fill="none" stroke="#000" stroke-width="3"/>

  <!-- ================= THE DEGENERATE GRIN ================= -->
  
  <!-- Dark Mouth Cavity -->
  <path d="M 360 440 C 450 560, 550 560, 640 440 C 550 630, 450 630, 360 440 Z" fill="#0A0502"/>
  
  <!-- Back Gums/Tongue (Subtle) -->
  <path d="M 430 520 C 480 570, 520 570, 570 520 C 520 540, 480 540, 430 520 Z" fill="#880E4F" opacity="0.8"/>

  <!-- Upper Teeth (Thick, Carnivore) -->
  <g fill="#FFFDE7" stroke="#3E2723" stroke-width="2">
    <path d="M 370 445 L 385 475 L 395 455 Z"/>
    <path d="M 400 460 L 415 495 L 430 470 Z"/>
    <path d="M 435 475 L 455 515 L 470 485 Z"/>
    <path d="M 475 490 L 495 530 L 515 490 Z"/> <!-- Central incisors/canines -->
    <path d="M 520 485 L 535 515 L 555 475 Z"/>
    <path d="M 560 470 L 575 495 L 590 460 Z"/>
    <path d="M 595 455 L 605 475 L 620 445 Z"/>
  </g>

  <!-- Lower Teeth -->
  <g fill="#FFF9C4" stroke="#3E2723" stroke-width="2">
    <path d="M 410 510 L 420 485 L 430 515 Z"/>
    <path d="M 440 525 L 455 495 L 470 535 Z"/>
    <path d="M 480 540 L 495 510 L 510 540 Z"/>
    <path d="M 520 535 L 535 495 L 550 525 Z"/>
    <path d="M 560 515 L 570 485 L 580 510 Z"/>
  </g>

  <!-- Lips / Grin outline -->
  <path d="M 350 435 C 450 550, 550 550, 650 435" fill="none" stroke="#2D1E16" stroke-width="12" stroke-linecap="round"/>
  <path d="M 350 435 C 450 550, 550 550, 650 435" fill="none" stroke="#5D4037" stroke-width="4" stroke-linecap="round"/>

  <!-- Saliva / Drool (Gross but fits the theme) -->
  <path d="M 405 500 Q 410 540 405 560 Q 400 540 405 500 Z" fill="#B3E5FC" opacity="0.7"/>
  <path d="M 605 460 Q 610 510 605 520 Q 600 510 605 460 Z" fill="#B3E5FC" opacity="0.6"/>
  <!-- Spit string between jaws -->
  <path d="M 460 500 Q 465 520 460 535" fill="none" stroke="#E1F5FE" stroke-width="2" opacity="0.8"/>

  <!-- Cigar in Mouth (Overlapping the grin) -->
  <g transform="translate(580, 460) rotate(-20)" filter="url(#shadow)">
    <!-- Main Body -->
    <rect x="-10" y="-12" width="95" height="24" rx="5" fill="#3E2723" stroke="#1A110C" stroke-width="2"/>
    <rect x="-10" y="-12" width="95" height="8" rx="2" fill="#5D4037" opacity="0.5"/> <!-- cylindrical highlight -->
    <!-- Cigar Band -->
    <rect x="15" y="-12" width="16" height="24" fill="#D32F2F" stroke="#1A110C" stroke-width="1"/>
    <rect x="17" y="-10" width="12" height="20" fill="none" stroke="#FFD54F" stroke-width="2"/>
    <!-- Ash -->
    <path d="M 85 -11 L 105 -9 L 108 9 L 85 11 Z" fill="#9E9E9E" stroke="#424242" stroke-width="1"/>
    <path d="M 90 -10 L 92 10 M 96 -9 L 98 9 M 102 -9 L 100 8" stroke="#757575" stroke-width="2"/>
    <!-- Glowing Tip -->
    <ellipse cx="106" cy="0" rx="6" ry="10" fill="url(#cigarGlow)" filter="url(#glow)"/>
    <ellipse cx="106" cy="0" rx="3" ry="5" fill="#FFF"/>
  </g>

  <!-- Smoke from Cigar -->
  <g filter="url(#smokeBlur)" opacity="0.6">
    <path d="M 680 430 Q 720 380 690 320 T 730 200 T 670 100" fill="none" stroke="#FFF" stroke-width="12" stroke-linecap="round"/>
    <path d="M 685 435 Q 730 390 695 330 T 740 210 T 680 110" fill="none" stroke="#E0E0E0" stroke-width="6" stroke-linecap="round"/>
  </g>


  <!-- ================= ACCESSORIES ================= -->

  <!-- Spiked Collar -->
  <g filter="url(#shadow)">
    <path d="M 330 550 Q 500 640 670 550 L 685 585 Q 500 685 315 585 Z" fill="#1A110C"/>
    <!-- Spikes -->
    <g stroke="#1A110C" stroke-width="2">
      <polygon points="360,570 365,620 380,575" fill="url(#metalSpike)"/>
      <polygon points="415,590 425,645 440,598" fill="url(#metalSpike)"/>
      <polygon points="485,605 500,665 515,610" fill="url(#metalSpike)"/>
      <polygon points="560,598 575,645 585,590" fill="url(#metalSpike)"/>
      <polygon points="620,575 635,620 640,570" fill="url(#metalSpike)"/>
    </g>
    <path d="M 320 565 Q 500 660 680 565" fill="none" stroke="#3E2723" stroke-width="3"/> <!-- Leather edge -->
  </g>

  <!-- Dealer Visor (Green Translucent Hat) -->
  <g filter="url(#shadow)">
    <!-- Brim Back/Shadow -->
    <path d="M 300 290 C 380 390, 620 390, 700 290 C 620 340, 380 340, 300 290 Z" fill="#0A2A0D"/>
    <!-- Brim Front (Translucent plastic effect) -->
    <path d="M 290 280 C 380 390, 620 390, 710 280 C 620 310, 380 310, 290 280 Z" fill="#2E7D32" opacity="0.85" stroke="#1B5E20" stroke-width="3"/>
    <!-- Highlight on Brim -->
    <path d="M 310 285 C 390 375, 610 375, 690 285 C 610 300, 390 300, 310 285 Z" fill="#FFF" opacity="0.2"/>
    <!-- White Trim -->
    <path d="M 290 280 C 380 390, 620 390, 710 280" fill="none" stroke="#FFF" stroke-width="4" opacity="0.8"/>
    <!-- Head Strap -->
    <path d="M 280 270 C 330 220, 670 220, 720 270 L 710 280 C 660 235, 340 235, 290 280 Z" fill="#212121" stroke="#000" stroke-width="2"/>
    <!-- Strap Adjuster -->
    <rect x="300" y="240" width="15" height="25" fill="#FFF" transform="rotate(-30, 300, 240)"/>
  </g>

  <!-- Green cast shadow over the forehead/eyes from visor -->
  <path d="M 330 310 C 420 370, 580 370, 670 310 C 600 280, 400 280, 330 310 Z" fill="#1B5E20" opacity="0.25" style="mix-blend-mode: multiply;"/>


  <!-- ================= THE POKER TABLE ================= -->
  
  <!-- Outer Wooden Rail -->
  <ellipse cx="500" cy="850" rx="900" ry="340" fill="url(#woodRail)" stroke="#1A0A05" stroke-width="40" filter="url(#shadow)"/>
  
  <!-- Rail Inner Edge (Leather/Padding highlight) -->
  <ellipse cx="500" cy="850" rx="870" ry="310" fill="none" stroke="#8D6E5D" stroke-width="10" opacity="0.5"/>
  <ellipse cx="500" cy="850" rx="850" ry="290" fill="none" stroke="#000" stroke-width="15" opacity="0.8"/>

  <!-- Green Felt Surface -->
  <ellipse cx="500" cy="850" rx="840" ry="280" fill="url(#tableGlow)"/>
  <!-- Casino Table Inlay Lines -->
  <ellipse cx="500" cy="850" rx="780" ry="240" fill="none" stroke="#FBC02D" stroke-width="4" opacity="0.6"/>
  <ellipse cx="500" cy="850" rx="765" ry="225" fill="none" stroke="#FBC02D" stroke-width="2" opacity="0.3"/>


  <!-- ================= TABLE PROPS (MIDGROUND) ================= -->
  
  <!-- Whiskey Glass -->
  <g transform="translate(140, 630)" filter="url(#lightShadow)">
    <!-- Back of glass -->
    <path d="M 0 0 L 70 0 L 60 85 L 10 85 Z" fill="#FFF" opacity="0.05"/>
    <ellipse cx="35" cy="85" rx="25" ry="8" fill="#FFF" opacity="0.1"/>
    
    <!-- Liquid -->
    <path d="M 6 30 L 64 30 L 58 80 L 12 80 Z" fill="#E65100" opacity="0.9"/>
    <ellipse cx="35" cy="30" rx="29" ry="8" fill="#FFB300" opacity="0.8"/>
    
    <!-- Ice Cubes -->
    <g opacity="0.6" stroke="#FFF" stroke-width="1.5">
      <rect x="20" y="40" width="22" height="22" rx="3" fill="#E0F7FA" transform="rotate(15, 31, 51)"/>
      <path d="M 23 45 L 35 48" stroke-width="2"/> <!-- Internal facet -->
      
      <rect x="35" y="55" width="20" height="20" rx="3" fill="#E0F7FA" transform="rotate(-25, 45, 65)"/>
      <path d="M 38 60 L 50 55" stroke-width="2"/>
    </g>

    <!-- Front glass & Reflections -->
    <path d="M 0 0 L 70 0 L 60 85 L 10 85 Z" fill="none" stroke="#FFF" stroke-width="3" opacity="0.6"/>
    <ellipse cx="35" cy="0" rx="35" ry="10" fill="none" stroke="#FFF" stroke-width="3" opacity="0.8"/>
    <path d="M 12 15 L 20 75" stroke="#FFF" stroke-width="4" opacity="0.7"/> <!-- Main sharp highlight -->
    <path d="M 60 15 L 55 75" stroke="#FFF" stroke-width="1" opacity="0.4"/>
  </g>

  <!-- Chips Stacks (Messy, guarded by left paw) -->
  <g filter="url(#shadow)">
    <!-- Back Red Stack -->
    <g style="color: #C62828" transform="translate(350, 710)">
      <use href="#chip" y="0"/>
      <use href="#chip" y="-10"/>
      <use href="#chip" y="-20"/>
      <use href="#chip" y="-30"/>
      <use href="#chip" y="-40"/>
      <use href="#chip" y="-50"/>
      <use href="#chip" y="-60" transform="rotate(10, 0, -60)"/>
    </g>
    <!-- Blue Stack (Slightly tilted) -->
    <g style="color: #1565C0" transform="translate(280, 735) rotate(-5)">
      <use href="#chip" y="0"/>
      <use href="#chip" y="-10"/>
      <use href="#chip" y="-20"/>
      <use href="#chip" y="-30"/>
      <use href="#chip" y="-40"/>
    </g>
    <!-- Gold/Black High Value Chips -->
    <g style="color: #FFB300" transform="translate(420, 740)">
      <use href="#chip" y="0"/>
      <use href="#chip" y="-10"/>
      <use href="#chip" y="-20" transform="translate(5, 0)"/>
    </g>
    <!-- Scattered Chips -->
    <use href="#chip" x="380" y="755" style="color: #2E7D32"/>
    <use href="#chip" x="460" y="730" style="color: #C62828" transform="rotate(15, 460, 730)"/>
    <use href="#chip" x="320" y="765" style="color: #1565C0"/>
  </g>

  <!-- Left Paw (Guarding the pot) -->
  <g filter="url(#shadow)">
    <!-- Arm -->
    <path d="M 0 950 C 40 800, 150 720, 270 780 L 120 950 Z" fill="url(#furGrad)"/>
    
    <!-- Knuckles / Back of hand -->
    <ellipse cx="250" cy="790" rx="60" ry="35" fill="#6D4C41" transform="rotate(15, 250, 790)"/>
    
    <!-- Fingers (Articulated and gripping) -->
    <g fill="#5D4037" stroke="#211A16" stroke-width="3">
      <!-- Index -->
      <path d="M 285 765 C 310 750, 340 760, 340 780 C 340 800, 310 800, 295 785 Z"/>
      <!-- Middle -->
      <path d="M 265 775 C 290 760, 320 775, 315 800 C 310 820, 280 810, 270 795 Z"/>
      <!-- Ring -->
      <path d="M 235 790 C 260 780, 290 795, 280 820 C 270 840, 240 825, 235 810 Z"/>
    </g>
    
    <!-- Sharp Claws gripping the table -->
    <g fill="#1A110C">
      <path d="M 335 775 L 365 785 L 335 795 Z"/>
      <path d="M 312 795 L 340 815 L 305 815 Z"/>
      <path d="M 278 815 L 300 840 L 265 830 Z"/>
    </g>
  </g>

  <!-- Community Cards (The Flop) -->
  <g transform="translate(500, 680) scale(1, 0.65) skewX(-45) rotate(-15)" filter="url(#shadow)">
    <!-- Card 1 -->
    <g transform="translate(-110, 0) rotate(-6)">
      <use href="#flop-card"/>
      <text x="10" y="24" fill="#0A0A0A" font-family="Arial Black, sans-serif" font-weight="900" font-size="22">A</text>
      <text x="14" y="42" fill="#0A0A0A" font-family="Arial, sans-serif" font-size="18">♠</text>
      <text x="32" y="65" fill="#0A0A0A" font-family="Arial, sans-serif" font-size="40" text-anchor="middle">♠</text>
    </g>
    <!-- Card 2 -->
    <g transform="translate(-35, 5) rotate(2)">
      <use href="#flop-card"/>
      <text x="10" y="24" fill="#0A0A0A" font-family="Arial Black, sans-serif" font-weight="900" font-size="22">K</text>
      <text x="14" y="42" fill="#0A0A0A" font-family="Arial, sans-serif" font-size="18">♠</text>
      <text x="32" y="65" fill="#0A0A0A" font-family="Arial, sans-serif" font-size="40" text-anchor="middle">♠</text>
    </g>
    <!-- Card 3 -->
    <g transform="translate(40, -5) rotate(10)">
      <use href="#flop-card"/>
      <text x="10" y="24" fill="#C62828" font-family="Arial Black, sans-serif" font-weight="900" font-size="22">K</text>
      <text x="14" y="42" fill="#C62828" font-family="Arial, sans-serif" font-size="18">♦</text>
      <text x="32" y="65" fill="#C62828" font-family="Arial, sans-serif" font-size="40" text-anchor="middle">♦</text>
    </g>
  </g>


  <!-- ================= FOREGROUND (RIGHT PAW & WINNING HAND) ================= -->
  
  <!-- Right Arm coming up -->
  <path d="M 1000 950 C 980 750, 850 630, 700 730 L 760 950 Z" fill="url(#furGrad)" filter="url(#shadow)"/>
  
  <!-- Arm Fur Spots -->
  <g fill="#2D1E16" opacity="0.8">
    <ellipse cx="860" cy="800" rx="22" ry="14" transform="rotate(-25, 860, 800)"/>
    <ellipse cx="800" cy="860" rx="16" ry="28" transform="rotate(15, 800, 860)"/>
    <ellipse cx="920" cy="880" rx="28" ry="18" transform="rotate(5, 920, 880)"/>
  </g>

  <!-- The Royal Flush (Hearts) -->
  <g id="winning-hand" filter="url(#shadow)">
    <!-- 10 of Hearts -->
    <g transform="translate(580, 630) rotate(-24)">
      <use href="#card"/>
      <text x="10" y="26" fill="#C62828" font-family="Arial Black, sans-serif" font-weight="900" font-size="24" letter-spacing="-2">10</text>
      <text x="21" y="45" fill="#C62828" font-family="Arial, sans-serif" font-size="20" text-anchor="middle">♥</text>
      <text x="37" y="80" fill="#C62828" font-family="Arial, sans-serif" font-size="48" text-anchor="middle">♥</text>
    </g>
    <!-- Jack of Hearts -->
    <g transform="translate(625, 595) rotate(-12)">
      <use href="#card"/>
      <text x="10" y="26" fill="#C62828" font-family="Arial Black, sans-serif" font-weight="900" font-size="24">J</text>
      <text x="17" y="45" fill="#C62828" font-family="Arial, sans-serif" font-size="20" text-anchor="middle">♥</text>
      <text x="37" y="80" fill="#C62828" font-family="Arial, sans-serif" font-size="48" text-anchor="middle">♥</text>
    </g>
    <!-- Queen of Hearts -->
    <g transform="translate(680, 575) rotate(0)">
      <use href="#card"/>
      <text x="10" y="26" fill="#C62828" font-family="Arial Black, sans-serif" font-weight="900" font-size="24">Q</text>
      <text x="18" y="45" fill="#C62828" font-family="Arial, sans-serif" font-size="20" text-anchor="middle">♥</text>
      <text x="37" y="80" fill="#C62828" font-family="Arial, sans-serif" font-size="48" text-anchor="middle">♥</text>
    </g>
    <!-- King of Hearts -->
    <g transform="translate(735, 575) rotate(12)">
      <use href="#card"/>
      <text x="10" y="26" fill="#C62828" font-family="Arial Black, sans-serif" font-weight="900" font-size="24">K</text>
      <text x="17" y="45" fill="#C62828" font-family="Arial, sans-serif" font-size="20" text-anchor="middle">♥</text>
      <text x="37" y="80" fill="#C62828" font-family="Arial, sans-serif" font-size="48" text-anchor="middle">♥</text>
    </g>
    <!-- Ace of Hearts -->
    <g transform="translate(785, 595) rotate(24)">
      <use href="#card"/>
      <text x="10" y="26" fill="#C62828" font-family="Arial Black, sans-serif" font-weight="900" font-size="24">A</text>
      <text x="17" y="45" fill="#C62828" font-family="Arial, sans-serif" font-size="20" text-anchor="middle">♥</text>
      <text x="37" y="80" fill="#C62828" font-family="Arial, sans-serif" font-size="48" text-anchor="middle">♥</text>
    </g>
  </g>

  <!-- Right Paw Covering the Cards -->
  <g filter="url(#shadow)">
    <!-- Base Hand -->
    <path d="M 590 850 C 580 720, 710 690, 880 750 L 920 860 Z" fill="#6D4C41"/>
    
    <!-- Back Fingers wrapping around -->
    <g fill="#4E342E" stroke="#211A16" stroke-width="3">
      <!-- Pinky -->
      <ellipse cx="620" cy="710" rx="40" ry="20" transform="rotate(-30, 620, 710)"/>
      <!-- Ring -->
      <ellipse cx="680" cy="690" rx="40" ry="20" transform="rotate(-15, 680, 690)"/>
      <!-- Middle -->
      <ellipse cx="750" cy="685" rx="40" ry="20" transform="rotate(5, 750, 685)"/>
      <!-- Index -->
      <ellipse cx="820" cy="700" rx="40" ry="20" transform="rotate(25, 820, 700)"/>
    </g>

    <!-- The Big Thumb over the front -->
    <path d="M 680 790 C 660 740, 710 710, 760 730 C 800 745, 810 780, 780 810 Z" fill="#5D4037" stroke="#211A16" stroke-width="3"/>
    
    <!-- Thumb Claw -->
    <path d="M 695 735 L 660 710 L 685 755 Z" fill="#1A110C"/>

    <!-- Finger Claws (peeking over the cards) -->
    <g fill="#1A110C">
      <path d="M 590 685 L 575 655 L 605 675 Z"/>
      <path d="M 660 660 L 655 625 L 680 655 Z"/>
      <path d="M 740 655 L 750 620 L 760 655 Z"/>
      <path d="M 825 675 L 850 645 L 840 680 Z"/>
    </g>
  </g>

  <!-- ================= FOREGROUND LIGHTING / FX ================= -->
  
  <!-- Floating Dust Particles -->
  <g fill="#FFF" filter="url(#glow)">
    <circle cx="320" cy="380" r="3" opacity="0.3"/>
    <circle cx="350" cy="420" r="2" opacity="0.2"/>
    <circle cx="660" cy="280" r="4" opacity="0.15"/>
    <circle cx="680" cy="240" r="2" opacity="0.3"/>
    <circle cx="210" cy="580" r="3" opacity="0.2"/>
    <circle cx="780" cy="480" r="2.5" opacity="0.25"/>
    <circle cx="480" cy="250" r="2" opacity="0.4"/>
  </g>

  <!-- Dramatic Dark Vignette -->
  <rect width="1000" height="800" fill="url(#vignette)" style="mix-blend-mode: multiply;"/>

</svg>