<svg xmlns="http://www.w3.org/2000/svg" viewBox="0 0 1000 800" width="100%" height="100%" style="background-color: #050203;">
  <defs>
    <!-- Rich Casino Wallpaper -->
    <pattern id="wallpaper" width="120" height="120" patternUnits="userSpaceOnUse">
      <rect width="120" height="120" fill="#100507"/>
      <path d="M 60 0 L 120 60 L 60 120 L 0 60 Z" fill="#18070a"/>
      <path d="M 60 5 L 115 60 L 60 115 L 5 60 Z" fill="none" stroke="#250d12" stroke-width="2"/>
      <circle cx="60" cy="60" r="15" fill="#100507" stroke="#250d12" stroke-width="2"/>
      <path d="M 60 30 L 65 45 L 80 45 L 68 55 L 72 70 L 60 60 L 48 70 L 52 55 L 40 45 L 55 45 Z" fill="#250d12"/>
    </pattern>

    <!-- Gradients -->
    <radialGradient id="vignette" cx="50%" cy="50%" r="75%">
      <stop offset="30%" stop-color="#000" stop-opacity="0"/>
      <stop offset="80%" stop-color="#050200" stop-opacity="0.8"/>
      <stop offset="100%" stop-color="#000" stop-opacity="0.95"/>
    </radialGradient>
    
    <radialGradient id="tableGlow" cx="50%" cy="850" r="400" gradientUnits="userSpaceOnUse">
      <stop offset="0%" stop-color="#2E7D32"/>
      <stop offset="50%" stop-color="#1B5E20"/>
      <stop offset="90%" stop-color="#0A2A0D"/>
      <stop offset="100%" stop-color="#031205"/>
    </radialGradient>

    <linearGradient id="woodRail" x1="0" y1="0" x2="0" y2="1">
      <stop offset="0%" stop-color="#5D4037"/>
      <stop offset="20%" stop-color="#3E2723"/>
      <stop offset="80%" stop-color="#1E110A"/>
      <stop offset="100%" stop-color="#0A0402"/>
    </linearGradient>

    <linearGradient id="furGrad" x1="0%" y1="0%" x2="100%" y2="100%">
      <stop offset="0%" stop-color="#7A5643"/>
      <stop offset="50%" stop-color="#54382A"/>
      <stop offset="100%" stop-color="#301F16"/>
    </linearGradient>

    <linearGradient id="goldGrad" x1="0%" y1="0%" x2="100%" y2="100%">
      <stop offset="0%" stop-color="#FFF59D"/>
      <stop offset="40%" stop-color="#FBC02D"/>
      <stop offset="80%" stop-color="#F57F17"/>
      <stop offset="100%" stop-color="#FF6F00"/>
    </linearGradient>

    <linearGradient id="coneLight" x1="0" y1="0" x2="0" y2="1">
      <stop offset="0%" stop-color="#FFFFFF"/>
      <stop offset="50%" stop-color="#FFD54F" stop-opacity="0.2"/>
      <stop offset="100%" stop-color="#FFC107" stop-opacity="0"/>
    </linearGradient>

    <radialGradient id="cigarGlow" cx="50%" cy="50%" r="50%">
      <stop offset="0%" stop-color="#FFFFFF"/>
      <stop offset="30%" stop-color="#FFEA00"/>
      <stop offset="60%" stop-color="#FF3D00"/>
      <stop offset="100%" stop-color="#BF360C" stop-opacity="0"/>
    </radialGradient>

    <radialGradient id="eyeGlow" cx="50%" cy="50%" r="50%">
      <stop offset="0%" stop-color="#FFEA00"/>
      <stop offset="60%" stop-color="#FF5722"/>
      <stop offset="100%" stop-color="#BF360C"/>
    </radialGradient>

    <linearGradient id="metalSpike" x1="0%" y1="0%" x2="100%" y2="100%">
      <stop offset="0%" stop-color="#FFFFFF"/>
      <stop offset="30%" stop-color="#9E9E9E"/>
      <stop offset="70%" stop-color="#424242"/>
      <stop offset="100%" stop-color="#212121"/>
    </linearGradient>

    <!-- Filters -->
    <filter id="shadow" x="-30%" y="-30%" width="160%" height="160%">
      <feDropShadow dx="0" dy="12" stdDeviation="8" flood-color="#000" flood-opacity="0.8"/>
    </filter>
    
    <filter id="lightShadow" x="-20%" y="-20%" width="140%" height="140%">
      <feDropShadow dx="3" dy="6" stdDeviation="4" flood-color="#000" flood-opacity="0.6"/>
    </filter>
    
    <filter id="blur" x="-50%" y="-50%" width="200%" height="200%">
      <feGaussianBlur stdDeviation="8"/>
    </filter>

    <filter id="heavyBlur" x="-50%" y="-50%" width="200%" height="200%">
      <feGaussianBlur stdDeviation="15"/>
    </filter>
    
    <filter id="glow" x="-50%" y="-50%" width="200%" height="200%">
      <feGaussianBlur stdDeviation="4" result="blur"/>
      <feComposite in="SourceGraphic" in2="blur" operator="over"/>
    </filter>

    <!-- UI/Prop Templates -->
    <g id="chip">
      <ellipse cx="0" cy="0" rx="35" ry="12" fill="#0A0A0A"/>
      <path d="M -35 0 L -35 -6 C -35 -12.6, -19.3 -18, 0 -18 C 19.3 -18, 35 -12.6, 35 -6 L 35 0 Z" fill="#1A1A1A"/>
      <ellipse cx="0" cy="-6" rx="35" ry="12" fill="currentColor"/>
      <path d="M -25 -2 L -25 -8 M 25 -2 L 25 -8 M -12 4 L -12 -2 M 12 4 L 12 -2 M -32 -4 L -32 -10 M 32 -4 L 32 -10" stroke="#FFF" stroke-width="3" opacity="0.9"/>
      <ellipse cx="0" cy="-6" rx="22" ry="7.5" fill="#FFF" opacity="0.9"/>
      <ellipse cx="0" cy="-6" rx="15" ry="5" fill="none" stroke="currentColor" stroke-width="4"/>
      <ellipse cx="0" cy="-6" rx="22" ry="7.5" fill="#FFF" opacity="0.1"/>
    </g>

    <g id="card-base">
      <rect x="0" y="0" width="70" height="100" rx="5" fill="#FFF" stroke="#BCAAA4" stroke-width="1" filter="url(#lightShadow)"/>
      <rect x="4" y="4" width="62" height="92" rx="3" fill="none" stroke="#EFEBE9" stroke-width="1"/>
    </g>
  </defs>

  <!-- ================= BACKGROUND & ATMOSPHERE ================= -->
  <rect width="1000" height="800" fill="url(#wallpaper)"/>
  
  <!-- Bokeh / Ambient Casino Lights -->
  <circle cx="150" cy="200" r="60" fill="#FFC107" filter="url(#heavyBlur)" opacity="0.15"/>
  <circle cx="850" cy="250" r="70" fill="#D32F2F" filter="url(#heavyBlur)" opacity="0.15"/>

  <!-- Background Smoke -->
  <path d="M -50 400 Q 200 200 500 450 T 1100 250" fill="none" stroke="#E0E0E0" stroke-width="100" opacity="0.04" filter="url(#heavyBlur)"/>

  <!-- ================= THE POKER TABLE (BASE) ================= -->
  <!-- Outer Wooden Rail -->
  <ellipse cx="500" cy="850" rx="900" ry="340" fill="url(#woodRail)" stroke="#0d0603" stroke-width="15" filter="url(#shadow)"/>
  
  <!-- Leather Padding Edge -->
  <ellipse cx="500" cy="850" rx="860" ry="300" fill="#141414" stroke="#000" stroke-width="10"/>
  
  <!-- Green Felt Surface -->
  <ellipse cx="500" cy="850" rx="830" ry="275" fill="url(#tableGlow)"/>
  
  <!-- Casino Table Gold Inlay -->
  <ellipse cx="500" cy="850" rx="770" ry="230" fill="none" stroke="#FBC02D" stroke-width="3" opacity="0.5"/>
  <ellipse cx="500" cy="850" rx="755" ry="215" fill="none" stroke="#FBC02D" stroke-width="1" opacity="0.3"/>

  <!-- ================= HYENA CHARACTER (BEHIND TABLE) ================= -->
  
  <!-- Shoulders & Torso -->
  <path d="M 320 650 C 250 450, 380 380, 500 380 C 620 380, 750 450, 680 650 Z" fill="url(#furGrad)"/>
  <path d="M 380 650 C 350 500, 430 460, 500 460 C 570 460, 650 500, 620 650 Z" fill="#D7CCC8" opacity="0.8"/>

  <!-- Back Mane (Spiky and wild) -->
  <g filter="url(#lightShadow)">
    <path d="M 460 300 L 420 230 L 470 210 L 430 140 L 490 170 L 480 90 L 530 150 L 560 80 L 570 160 L 630 120 L 590 190 L 640 220 L 580 270 L 620 320 Z" fill="#150B06"/>
    <!-- Mane Highlights -->
    <path d="M 470 280 L 440 200 L 490 220 L 480 140 L 520 180 L 540 120 L 550 180 L 600 160 L 570 230 L 600 250 L 560 280 Z" fill="#3A2114"/>
  </g>

  <!-- Left Ear (Ragged) -->
  <path d="M 400 330 C 310 180, 240 250, 280 400 C 290 430, 340 400, 390 350 Z" fill="#6A4B3A" stroke="#211A16" stroke-width="4"/>
  <path d="M 380 330 C 320 230, 280 270, 305 385 Z" fill="#3D261E"/>
  <!-- Ear Tufts -->
  <path d="M 370 320 L 340 260 L 350 330 L 320 280 L 340 350 Z" fill="#8B6653"/>

  <!-- Right Ear (Torn, pierced) -->
  <path d="M 600 330 C 690 180, 760 250, 720 400 C 710 430, 660 400, 610 350 Z" fill="#6A4B3A" stroke="#211A16" stroke-width="4"/>
  <path d="M 620 330 C 680 230, 720 270, 695 385 Z" fill="#3D261E"/>
  <!-- Ear Tear -->
  <polygon points="735,290 680,320 710,345" fill="#140709"/> 
  <!-- Earring -->
  <ellipse cx="725" cy="370" rx="14" ry="18" fill="none" stroke="url(#goldGrad)" stroke-width="4" filter="url(#lightShadow)"/>
  <path d="M 630 320 L 660 260 L 650 330 L 680 280 L 660 350 Z" fill="#8B6653"/>

  <!-- Base Head Shape & Cheeks -->
  <path d="M 500 550 C 350 550, 280 470, 320 400 C 340 360, 380 340, 420 380 C 450 340, 550 340, 580 380 C 620 340, 660 360, 680 400 C 720 470, 650 550, 500 550 Z" fill="#604235"/>
  <path d="M 500 530 C 380 530, 310 470, 360 410 C 390 450, 440 480, 500 480 C 560 480, 610 450, 640 410 C 690 470, 620 530, 500 530 Z" fill="#7A5643"/>

  <!-- Sunken Cheekbones for degenerate look -->
  <ellipse cx="400" cy="420" rx="35" ry="20" fill="#332018" transform="rotate(-20, 400, 420)" opacity="0.6" filter="url(#blur)"/>
  <ellipse cx="600" cy="420" rx="35" ry="20" fill="#332018" transform="rotate(20, 600, 420)" opacity="0.6" filter="url(#blur)"/>

  <!-- Snout -->
  <path d="M 420 380 C 400 450, 450 460, 500 460 C 550 460, 600 450, 580 380 C 530 400, 470 400, 420 380 Z" fill="#BCAAA4"/>
  <path d="M 440 390 C 430 440, 460 450, 500 450 C 540 450, 570 440, 560 390 Z" fill="#EFEBE9"/>

  <!-- ================= THE MANIC FACE ================= -->

  <!-- Eye Sockets / Bags -->
  <path d="M 380 330 C 370 380, 470 400, 470 340 Z" fill="#2E1A11" opacity="0.8" filter="url(#blur)"/>
  <path d="M 620 320 C 630 380, 530 400, 530 330 Z" fill="#2E1A11" opacity="0.8" filter="url(#blur)"/>

  <!-- Left Eye (Squinting/Twitching) -->
  <path d="M 395 360 Q 430 340 465 360 Q 430 375 395 360 Z" fill="#FFFDE7" stroke="#1A110C" stroke-width="3"/>
  <ellipse cx="435" cy="358" rx="8" ry="5" fill="url(#eyeGlow)"/>
  <ellipse cx="435" cy="358" rx="3" ry="2" fill="#0A0502"/>
  <ellipse cx="437" cy="357" rx="1.5" ry="1" fill="#FFF"/>

  <!-- Right Eye (Wide Open, Dilated) -->
  <circle cx="560" cy="350" r="26" fill="#FFFDE7" stroke="#1A110C" stroke-width="4"/>
  <!-- Bloodshot veins -->
  <path d="M 534 350 Q 545 340 550 345 M 586 350 Q 575 340 570 345 M 560 324 Q 565 335 560 340 M 550 374 Q 555 365 558 360" fill="none" stroke="#D32F2F" stroke-width="1.5" opacity="0.6"/>
  <circle cx="560" cy="350" r="14" fill="url(#eyeGlow)"/>
  <circle cx="560" cy="350" r="6" fill="#0A0502"/>
  <!-- Catchlights -->
  <circle cx="565" cy="343" r="4" fill="#FFF"/>
  <circle cx="555" cy="355" r="2" fill="#FFF" opacity="0.8"/>

  <!-- Heavy Asymmetric Eyebrows -->
  <path d="M 380 340 Q 430 280 480 355" fill="none" stroke="#150B06" stroke-width="14" stroke-linecap="round"/>
  <path d="M 510 335 Q 570 250 630 310" fill="none" stroke="#150B06" stroke-width="18" stroke-linecap="round"/>

  <!-- Wet Dog-like Nose -->
  <path d="M 455 410 C 455 390, 545 390, 545 410 L 515 440 Q 500 450 485 440 Z" fill="#100A06"/>
  <ellipse cx="480" cy="415" rx="8" ry="4" fill="#FFF" opacity="0.4" transform="rotate(-15, 480, 415)"/>
  <ellipse cx="520" cy="415" rx="5" ry="3" fill="#FFF" opacity="0.2" transform="rotate(15, 520, 415)"/>
  <path d="M 475 435 Q 485 445 500 445 Q 515 445 525 435" fill="none" stroke="#000" stroke-width="3"/>

  <!-- Snout Whisker Spots -->
  <g fill="#4E342E" opacity="0.6">
    <circle cx="445" cy="420" r="1.5"/><circle cx="455" cy="430" r="2"/><circle cx="440" cy="440" r="1.5"/>
    <circle cx="555" cy="420" r="1.5"/><circle cx="545" cy="430" r="2"/><circle cx="560" cy="440" r="1.5"/>
  </g>

  <!-- ================= THE DEGENERATE GRIN ================= -->
  
  <!-- Dark Mouth Cavity -->
  <path d="M 350 450 Q 500 530 650 450 Q 500 610 350 450 Z" fill="#0A0402"/>
  <path d="M 430 520 C 480 570, 520 570, 570 520 C 520 540, 480 540, 430 520 Z" fill="#61091A" opacity="0.9"/>

  <!-- Upper Teeth (Thick, Carnivore) -->
  <g stroke="#3E2723" stroke-width="2">
    <path d="M 370 460 L 380 485 L 390 465 Z" fill="#FFFDE7"/>
    <path d="M 400 470 L 415 500 L 430 475 Z" fill="#FFFDE7"/>
    <path d="M 440 480 L 450 510 L 460 485 Z" fill="#FFFDE7"/>
    <!-- Central Gold Tooth -->
    <path d="M 470 485 L 485 525 L 500 490 Z" fill="url(#goldGrad)" stroke="#B8860B"/>
    <path d="M 480 495 L 485 490 L 490 495 L 485 500 Z" fill="#FFF"/> <!-- Sparkle -->
    <path d="M 510 490 L 525 520 L 540 485 Z" fill="#FFFDE7"/>
    <path d="M 550 480 L 565 510 L 580 475 Z" fill="#FFFDE7"/>
    <path d="M 590 470 L 600 495 L 610 465 Z" fill="#FFFDE7"/>
  </g>

  <!-- Lower Teeth -->
  <g fill="#FFF9C4" stroke="#3E2723" stroke-width="2">
    <path d="M 380 500 L 390 475 L 400 505 Z"/>
    <path d="M 410 510 L 420 485 L 430 515 Z"/>
    <path d="M 440 520 L 450 495 L 460 525 Z"/>
    <path d="M 470 530 L 485 505 L 500 535 Z"/>
    <path d="M 510 535 L 525 505 L 540 530 Z"/>
    <path d="M 550 525 L 565 495 L 580 520 Z"/>
    <path d="M 590 515 L 600 490 L 610 510 Z"/>
  </g>

  <!-- Lips / Grin outline -->
  <path d="M 340 450 Q 500 530 660 450" fill="none" stroke="#2D1E16" stroke-width="6" stroke-linecap="round"/>
  <path d="M 340 450 Q 500 610 660 450" fill="none" stroke="#2D1E16" stroke-width="8" stroke-linecap="round"/>

  <!-- Saliva / Drool Strings -->
  <g filter="url(#glow)">
    <path d="M 430 480 Q 500 480 520 490" fill="none" stroke="#B3E5FC" stroke-width="2" opacity="0.6"/>
    <path d="M 520 520 Q 560 500 580 490" fill="none" stroke="#B3E5FC" stroke-width="1.5" opacity="0.7"/>
    <path d="M 415 510 Q 425 580 420 620" fill="none" stroke="#B3E5FC" stroke-width="3" opacity="0.8"/>
    <path d="M 415 510 Q 420 580 420 620" fill="none" stroke="#FFF" stroke-width="1" opacity="0.9"/>
    <circle cx="420" cy="622" r="3" fill="#B3E5FC" opacity="0.8"/>
    
    <path d="M 590 490 Q 600 540 595 570" fill="none" stroke="#B3E5FC" stroke-width="2" opacity="0.7"/>
    <path d="M 590 490 Q 595 540 595 570" fill="none" stroke="#FFF" stroke-width="0.5" opacity="0.9"/>
    <circle cx="595" cy="572" r="2" fill="#B3E5FC" opacity="0.7"/>
  </g>

  <!-- Cigar clamped in right side of jaw -->
  <g transform="translate(600, 475) rotate(-15)" filter="url(#shadow)">
    <rect x="0" y="-8" width="95" height="18" rx="4" fill="#3E2723" stroke="#150B06" stroke-width="2"/>
    <rect x="0" y="-8" width="95" height="6" rx="2" fill="#5D4037" opacity="0.6"/>
    <!-- Cigar Band -->
    <rect x="20" y="-8" width="16" height="18" fill="#D32F2F" stroke="#150B06" stroke-width="1"/>
    <rect x="22" y="-6" width="12" height="14" fill="none" stroke="url(#goldGrad)" stroke-width="2"/>
    <!-- Ash -->
    <path d="M 95 -7 L 115 -5 L 118 6 L 95 8 Z" fill="#9E9E9E" stroke="#424242" stroke-width="1"/>
    <path d="M 100 -6 L 102 7 M 106 -6 L 108 7 M 112 -5 L 110 6" stroke="#757575" stroke-width="2"/>
    <!-- Glowing Tip -->
    <ellipse cx="116" cy="0" rx="6" ry="8" fill="url(#cigarGlow)" filter="url(#glow)"/>
    <ellipse cx="116" cy="0" rx="3" ry="4" fill="#FFF"/>
  </g>

  <!-- ================= ACCESSORIES ================= -->

  <!-- Heavy Leather Spiked Collar -->
  <g filter="url(#shadow)">
    <path d="M 320 560 Q 500 630 680 560 L 690 590 Q 500 670 310 590 Z" fill="#140D0A"/>
    <path d="M 325 565 Q 500 635 675 565" fill="none" stroke="#3A2318" stroke-width="2"/>
    
    <!-- Metal Spikes -->
    <polygon points="370,575 380,620 395,580" fill="url(#metalSpike)"/>
    <polygon points="430,590 440,640 455,595" fill="url(#metalSpike)"/>
    <polygon points="490,600 500,650 515,600" fill="url(#metalSpike)"/>
    <polygon points="550,595 560,640 575,590" fill="url(#metalSpike)"/>
    <polygon points="610,580 620,620 635,575" fill="url(#metalSpike)"/>
    
    <!-- Center Dangling Ring -->
    <ellipse cx="502" cy="650" rx="15" ry="10" fill="none" stroke="url(#metalSpike)" stroke-width="6"/>
    <path d="M 495 625 L 510 625 L 505 645 L 500 645 Z" fill="url(#metalSpike)"/>
  </g>

  <!-- Dealer Visor (Green Translucent) -->
  <g filter="url(#shadow)">
    <!-- Brim Shadow / Inner rim -->
    <path d="M 300 290 C 380 390, 620 390, 700 290 C 620 340, 380 340, 300 290 Z" fill="#0A2A0D"/>
    <!-- Brim Plastic -->
    <path d="M 290 280 C 380 390, 620 390, 710 280 C 620 310, 380 310, 290 280 Z" fill="#00C853" opacity="0.85" stroke="#1B5E20" stroke-width="3"/>
    <!-- Plastic Curvature Highlights -->
    <path d="M 310 285 C 390 375, 610 375, 690 285 C 610 300, 390 300, 310 285 Z" fill="#FFF" opacity="0.2"/>
    <path d="M 330 295 C 400 360, 600 360, 670 295 C 600 310, 400 310, 330 295 Z" fill="#FFF" opacity="0.1"/>
    <!-- White Edge Trim -->
    <path d="M 290 280 C 380 390, 620 390, 710 280" fill="none" stroke="#FFF" stroke-width="3" opacity="0.9"/>
    
    <!-- Head Strap -->
    <path d="M 280 270 C 330 220, 670 220, 720 270 L 710 280 C 660 235, 340 235, 290 280 Z" fill="#1A1A1A" stroke="#000" stroke-width="2"/>
    <!-- Spade Logo on Strap -->
    <path d="M 500 240 C 515 255, 515 265, 505 265 C 500 265, 500 260, 500 260 C 500 260, 500 265, 495 265 C 485 265, 485 255, 500 240 Z" fill="#FFF"/>
    <path d="M 498 265 L 495 275 L 505 275 L 502 265 Z" fill="#FFF"/>
  </g>

  <!-- Visor Cast Shadow on forehead -->
  <path d="M 330 310 C 420 370, 580 370, 670 310 C 600 280, 400 280, 330 310 Z" fill="#0A2A0D" opacity="0.5" style="mix-blend-mode: multiply;" filter="url(#blur)"/>

  <!-- Table green bounce light on Hyena's lower jaw/neck -->
  <path d="M 350 550 C 450 620, 550 620, 650 550 C 600 580, 400 580, 350 550 Z" fill="#2E7D32" opacity="0.3" filter="url(#heavyBlur)"/>
  
  <!-- Fur Spots overlay on main body -->
  <g fill="#21140E" opacity="0.7">
    <ellipse cx="340" cy="500" rx="14" ry="22" transform="rotate(-25, 340, 500)"/>
    <ellipse cx="380" cy="480" rx="10" ry="15" transform="rotate(-15, 380, 480)"/>
    <ellipse cx="640" cy="510" rx="16" ry="24" transform="rotate(35, 640, 510)"/>
    <ellipse cx="670" cy="560" rx="14" ry="18" transform="rotate(50, 670, 560)"/>
  </g>


  <!-- ================= TABLE PROPS (MIDGROUND) ================= -->
  
  <!-- Center Pot & The Flop -->
  <g filter="url(#shadow)">
    <!-- Dealer Button -->
    <g transform="translate(320, 650)">
      <ellipse cx="25" cy="15" rx="25" ry="10" fill="#FFF"/>
      <ellipse cx="25" cy="12" rx="25" ry="10" fill="#F5F5F5"/>
      <text x="25" y="16" transform="scale(1, 0.8)" fill="#000" font-family="Arial, sans-serif" font-weight="bold" font-size="9" text-anchor="middle" letter-spacing="1">DEALER</text>
    </g>

    <!-- Center Pot Chips (Scattered near flop) -->
    <use href="#chip" x="480" y="620" style="color: #1565C0" transform="rotate(10, 480, 620)"/>
    <use href="#chip" x="520" y="615" style="color: #C62828" transform="rotate(-15, 520, 615)"/>
    <use href="#chip" x="500" y="605" style="color: #2E7D32"/>
    <use href="#chip" x="495" y="630" style="color: #FBC02D"/>

    <!-- Flop Cards (A♠, K♠, K♦) -->
    <g transform="translate(400, 630) scale(0.9) skewX(-25) rotate(-8)">
      <!-- Card 1 -->
      <rect x="0" y="0" width="60" height="90" rx="4" fill="#FFF" stroke="#BCAAA4"/>
      <text x="8" y="20" fill="#111" font-family="Arial, sans-serif" font-weight="900" font-size="18">A</text>
      <text x="12" y="35" fill="#111" font-size="16" font-family="Arial, sans-serif">♠</text>
      <text x="30" y="60" fill="#111" font-size="30" text-anchor="middle" font-family="Arial, sans-serif">♠</text>
      <!-- Card 2 -->
      <rect x="65" y="0" width="60" height="90" rx="4" fill="#FFF" stroke="#BCAAA4"/>
      <text x="73" y="20" fill="#111" font-family="Arial, sans-serif" font-weight="900" font-size="18">K</text>
      <text x="77" y="35" fill="#111" font-size="16" font-family="Arial, sans-serif">♠</text>
      <text x="95" y="60" fill="#111" font-size="30" text-anchor="middle" font-family="Arial, sans-serif">♠</text>
      <!-- Card 3 -->
      <rect x="130" y="0" width="60" height="90" rx="4" fill="#FFF" stroke="#BCAAA4"/>
      <text x="138" y="20" fill="#C62828" font-family="Arial, sans-serif" font-weight="900" font-size="18">K</text>
      <text x="142" y="35" fill="#C62828" font-size="16" font-family="Arial, sans-serif">♦</text>
      <text x="160" y="60" fill="#C62828" font-size="30" text-anchor="middle" font-family="Arial, sans-serif">♦</text>
    </g>
  </g>

  <!-- Left Side Scattered Chips -->
  <g filter="url(#shadow)">
    <!-- Blue stack -->
    <g style="color: #1565C0" transform="translate(260, 750)">
      <use href="#chip" y="0"/><use href="#chip" y="-8"/><use href="#chip" y="-16"/><use href="#chip" y="-24"/>
    </g>
    <!-- Red stack -->
    <g style="color: #C62828" transform="translate(320, 730)">
      <use href="#chip" y="0"/><use href="#chip" y="-8"/><use href="#chip" y="-16"/><use href="#chip" y="-24"/><use href="#chip" y="-32"/><use href="#chip" y="-40"/>
    </g>
    <!-- Gold stack -->
    <g style="color: #FBC02D" transform="translate(380, 740)">
      <use href="#chip" y="0"/><use href="#chip" y="-8"/><use href="#chip" y="-16"/>
    </g>
  </g>


  <!-- ================= FOREGROUND: LEFT ARM GUARDING CHIPS ================= -->
  <g filter="url(#shadow)">
    <!-- Sweeping Arm coming from body onto table -->
    <path d="M 320 540 C 200 560, 50 680, 150 780 C 200 850, 260 760, 300 750 C 330 740, 280 660, 250 620 C 250 580, 280 550, 320 540 Z" fill="url(#furGrad)"/>
    
    <!-- Arm Fur Detail Lines -->
    <path d="M 230 630 C 210 680, 180 720, 160 760" fill="none" stroke="#21140E" stroke-width="4" opacity="0.5"/>
    <ellipse cx="260" cy="650" rx="15" ry="25" fill="#21140E" opacity="0.6" transform="rotate(-30, 260, 650)"/>
    <ellipse cx="200" cy="740" rx="12" ry="20" fill="#21140E" opacity="0.6" transform="rotate(-15, 200, 740)"/>
    
    <!-- Paw/Back of hand resting on chips -->
    <ellipse cx="320" cy="740" rx="55" ry="35" fill="#5D4037" transform="rotate(-15, 320, 740)"/>
    
    <!-- Fingers draped heavily over the red/gold stacks -->
    <g fill="#4E342E" stroke="#211A16" stroke-width="2">
      <!-- Index -->
      <path d="M 350 765 Q 355 795 375 790 Q 390 780 380 755 Z"/>
      <!-- Middle -->
      <path d="M 315 765 Q 310 805 340 805 Q 360 805 355 770 Z"/>
      <!-- Ring -->
      <path d="M 285 755 Q 280 790 305 790 Q 320 790 320 765 Z"/>
    </g>

    <!-- Sharp Claws -->
    <g fill="#1A110C">
      <path d="M 370 788 L 385 810 L 380 780 Z"/>
      <path d="M 335 805 L 335 835 L 345 802 Z"/>
      <path d="M 300 790 L 295 820 L 310 788 Z"/>
    </g>
    <!-- Talon Highlights -->
    <path d="M 375 790 L 382 805" stroke="#FFF" stroke-width="1" opacity="0.5"/>
    <path d="M 338 808 L 338 825" stroke="#FFF" stroke-width="1" opacity="0.5"/>
    <path d="M 303 795 L 300 812" stroke="#FFF" stroke-width="1" opacity="0.5"/>
  </g>


  <!-- ================= FOREGROUND: RIGHT ARM & ROYAL FLUSH ================= -->
  
  <!-- Right Arm Sweeping Forward -->
  <path d="M 680 540 C 800 560, 950 680, 850 780 C 800 850, 740 760, 700 750 C 670 740, 720 660, 750 620 C 750 580, 720 550, 680 540 Z" fill="url(#furGrad)" filter="url(#shadow)"/>
  
  <!-- Fur details right arm -->
  <ellipse cx="760" cy="650" rx="15" ry="25" fill="#21140E" opacity="0.6" transform="rotate(30, 760, 650)"/>
  <ellipse cx="820" cy="740" rx="12" ry="20" fill="#21140E" opacity="0.6" transform="rotate(15, 820, 740)"/>
  <ellipse cx="850" cy="680" rx="18" ry="12" fill="#21140E" opacity="0.6" transform="rotate(45, 850, 680)"/>

  <!-- The Royal Flush in Hearts -->
  <g filter="url(#shadow)">
    <!-- 10 of Hearts -->
    <g transform="translate(600, 610) rotate(-20)">
      <use href="#card-base"/>
      <text x="8" y="24" fill="#C62828" font-family="Arial Black, sans-serif" font-weight="900" font-size="20" letter-spacing="-1">10</text>
      <text x="16" y="42" fill="#C62828" font-family="Arial, sans-serif" font-size="18" text-anchor="middle">♥</text>
      <text x="35" y="70" fill="#C62828" font-family="Arial, sans-serif" font-size="45" text-anchor="middle">♥</text>
    </g>
    <!-- Jack of Hearts -->
    <g transform="translate(630, 595) rotate(-10)">
      <use href="#card-base"/>
      <text x="8" y="24" fill="#C62828" font-family="Arial Black, sans-serif" font-weight="900" font-size="20">J</text>
      <text x="14" y="42" fill="#C62828" font-family="Arial, sans-serif" font-size="18" text-anchor="middle">♥</text>
      <text x="35" y="70" fill="#C62828" font-family="Arial, sans-serif" font-size="45" text-anchor="middle">♥</text>
    </g>
    <!-- Queen of Hearts -->
    <g transform="translate(660, 585) rotate(0)">
      <use href="#card-base"/>
      <text x="8" y="24" fill="#C62828" font-family="Arial Black, sans-serif" font-weight="900" font-size="20">Q</text>
      <text x="15" y="42" fill="#C62828" font-family="Arial, sans-serif" font-size="18" text-anchor="middle">♥</text>
      <text x="35" y="70" fill="#C62828" font-family="Arial, sans-serif" font-size="45" text-anchor="middle">♥</text>
    </g>
    <!-- King of Hearts -->
    <g transform="translate(690, 585) rotate(10)">
      <use href="#card-base"/>
      <text x="8" y="24" fill="#C62828" font-family="Arial Black, sans-serif" font-weight="900" font-size="20">K</text>
      <text x="14" y="42" fill="#C62828" font-family="Arial, sans-serif" font-size="18" text-anchor="middle">♥</text>
      <text x="35" y="70" fill="#C62828" font-family="Arial, sans-serif" font-size="45" text-anchor="middle">♥</text>
    </g>
    <!-- Ace of Hearts -->
    <g transform="translate(720, 595) rotate(20)">
      <use href="#card-base"/>
      <text x="8" y="24" fill="#C62828" font-family="Arial Black, sans-serif" font-weight="900" font-size="20">A</text>
      <text x="14" y="42" fill="#C62828" font-family="Arial, sans-serif" font-size="18" text-anchor="middle">♥</text>
      <text x="35" y="70" fill="#C62828" font-family="Arial, sans-serif" font-size="45" text-anchor="middle">♥</text>
    </g>
  </g>

  <!-- Right Hand holding the base of the fanned cards -->
  <g filter="url(#shadow)">
    <!-- Base palm overlaying bottom of cards -->
    <path d="M 645 680 C 630 690, 640 730, 680 750 C 730 770, 780 750, 790 710 C 800 660, 750 645, 720 660 C 690 670, 660 670, 645 680 Z" fill="#5D4037"/>
    
    <!-- Massive Thumb securing the fan in front -->
    <path d="M 640 690 C 660 655, 720 650, 750 670 C 770 685, 760 715, 730 725 C 690 735, 630 725, 640 690 Z" fill="#4E342E" stroke="#211A16" stroke-width="3"/>
    
    <!-- Thumb Talon -->
    <path d="M 655 685 L 635 655 L 670 665 Z" fill="#1A110C"/>
    <path d="M 645 665 L 658 678" stroke="#FFF" stroke-width="1.5" opacity="0.6"/>
  </g>


  <!-- ================= RIGHT SIDE PROPS: WHISKEY GLASS ================= -->
  
  <g transform="translate(860, 630)" filter="url(#shadow)">
    <!-- Coaster -->
    <ellipse cx="40" cy="90" rx="45" ry="15" fill="#140D0A"/>
    <ellipse cx="40" cy="88" rx="43" ry="14" fill="#3A2318"/>
    
    <!-- Glass Back Edge -->
    <path d="M 5 10 L 75 10 L 65 85 L 15 85 Z" fill="#FFF" opacity="0.08"/>
    
    <!-- Amber Liquid -->
    <path d="M 11 40 L 69 40 L 63 80 L 17 80 Z" fill="#FF6F00" opacity="0.8"/>
    <ellipse cx="40" cy="40" rx="29" ry="6" fill="#FFA000" opacity="0.9"/>
    
    <!-- Internal Liquid Glow -->
    <ellipse cx="40" cy="50" rx="20" ry="15" fill="#FFCA28" opacity="0.4" filter="url(#blur)"/>
    
    <!-- Ice Cubes -->
    <rect x="25" y="45" width="22" height="22" rx="3" fill="#FFF" opacity="0.5" transform="rotate(15, 36, 56)"/>
    <path d="M 30 50 L 42 55" stroke="#FFF" stroke-width="2" opacity="0.6"/>
    <rect x="40" y="55" width="20" height="20" rx="2" fill="#FFF" opacity="0.4" transform="rotate(-20, 50, 65)"/>

    <!-- Glass Front & Refraction -->
    <path d="M 5 10 L 75 10 L 65 85 L 15 85 Z" fill="none" stroke="#FFF" stroke-width="2" opacity="0.5"/>
    <ellipse cx="40" cy="10" rx="35" ry="8" fill="none" stroke="#FFF" stroke-width="3" opacity="0.8"/>
    <ellipse cx="40" cy="85" rx="25" ry="6" fill="none" stroke="#FFF" stroke-width="2" opacity="0.4"/>
    
    <!-- Crisp Specular Highlights -->
    <path d="M 12 18 L 19 78" stroke="#FFF" stroke-width="5" stroke-linecap="round" opacity="0.9"/>
    <path d="M 68 18 L 61 78" stroke="#FFF" stroke-width="1.5" stroke-linecap="round" opacity="0.6"/>
  </g>


  <!-- ================= FOREGROUND LIGHTING & FX ================= -->

  <!-- Curling Cigar Smoke Overlay -->
  <g filter="url(#heavyBlur)" opacity="0.7">
    <path d="M 690 470 C 720 420, 650 350, 710 280 C 770 210, 660 120, 720 60" fill="none" stroke="#FFF" stroke-width="16"/>
    <path d="M 695 475 C 730 430, 660 360, 725 290 C 790 220, 670 130, 735 70" fill="none" stroke="#B0BEC5" stroke-width="8"/>
  </g>
  
  <!-- Floating Ash & Dust Particles -->
  <g fill="#FFF" filter="url(#glow)">
    <circle cx="700" cy="450" r="2.5" fill="#FF3D00"/>
    <circle cx="710" cy="420" r="1.5" fill="#FFEA00"/>
    <circle cx="680" cy="380" r="2" opacity="0.4"/>
    <circle cx="320" cy="380" r="3" opacity="0.2"/>
    <circle cx="350" cy="420" r="1.5" opacity="0.3"/>
    <circle cx="660" cy="280" r="4" opacity="0.1"/>
    <circle cx="210" cy="580" r="3" opacity="0.2"/>
    <circle cx="480" cy="250" r="2" opacity="0.3"/>
  </g>

  <!-- Volumetric Lamp Spotlight Cone -->
  <path d="M 300 -50 L 700 -50 L 1000 850 L 0 850 Z" fill="url(#coneLight)" style="mix-blend-mode: screen;"/>

  <!-- Final Heavy Cinematic Vignette -->
  <rect width="1000" height="800" fill="url(#vignette)" style="mix-blend-mode: multiply; pointer-events: none;"/>

</svg>