<svg xmlns="http://www.w3.org/2000/svg" viewBox="0 0 1000 800" width="100%" height="100%">
  <defs>
    <!-- Rich Wallpaper Pattern -->
    <pattern id="wallpaper" width="120" height="120" patternUnits="userSpaceOnUse" patternTransform="rotate(45)">
      <rect width="120" height="120" fill="#120608"/>
      <path d="M 60 0 L 120 60 L 60 120 L 0 60 Z" fill="#1a0a0c"/>
      <path d="M 60 10 L 110 60 L 60 110 L 10 60 Z" fill="none" stroke="#2a1014" stroke-width="2"/>
      <circle cx="60" cy="60" r="15" fill="#240c10"/>
      <circle cx="60" cy="60" r="5" fill="#3d141a"/>
    </pattern>

    <!-- Global Lighting & Gradients -->
    <radialGradient id="vignette" cx="50%" cy="50%" r="75%">
      <stop offset="30%" stop-color="#000" stop-opacity="0"/>
      <stop offset="85%" stop-color="#0a0502" stop-opacity="0.85"/>
      <stop offset="100%" stop-color="#000" stop-opacity="0.98"/>
    </radialGradient>
    
    <radialGradient id="tableLight" cx="50%" cy="850" r="600" gradientUnits="userSpaceOnUse">
      <stop offset="0%" stop-color="#4CAF50"/>
      <stop offset="30%" stop-color="#2E7D32"/>
      <stop offset="70%" stop-color="#0D3B10"/>
      <stop offset="100%" stop-color="#041205"/>
    </radialGradient>

    <!-- Character Gradients -->
    <linearGradient id="rimLight" x1="0%" y1="0%" x2="0%" y2="100%">
      <stop offset="0%" stop-color="#FFECB3" stop-opacity="0.6"/>
      <stop offset="15%" stop-color="#FFB300" stop-opacity="0.1"/>
      <stop offset="100%" stop-color="#000" stop-opacity="0"/>
    </linearGradient>

    <linearGradient id="furGrad" x1="0%" y1="0%" x2="0%" y2="100%">
      <stop offset="0%" stop-color="#8a614d"/>
      <stop offset="40%" stop-color="#5a3d2f"/>
      <stop offset="100%" stop-color="#2b1a13"/>
    </linearGradient>

    <radialGradient id="cigarGlow" cx="80%" cy="50%" r="50%">
      <stop offset="0%" stop-color="#FFF"/>
      <stop offset="15%" stop-color="#FFEA00"/>
      <stop offset="40%" stop-color="#FF3D00"/>
      <stop offset="80%" stop-color="#D50000" stop-opacity="0.8"/>
      <stop offset="100%" stop-color="#FF0000" stop-opacity="0"/>
    </radialGradient>
    
    <radialGradient id="cigarCastLight" cx="50%" cy="50%" r="50%">
      <stop offset="0%" stop-color="#FF5722" stop-opacity="0.35"/>
      <stop offset="100%" stop-color="#FF3D00" stop-opacity="0"/>
    </radialGradient>

    <radialGradient id="eyeIris" cx="50%" cy="50%" r="50%">
      <stop offset="0%" stop-color="#FFF59D"/>
      <stop offset="30%" stop-color="#FBC02D"/>
      <stop offset="80%" stop-color="#E65100"/>
      <stop offset="100%" stop-color="#880E4F"/>
    </radialGradient>

    <linearGradient id="metalSpike" x1="0%" y1="0%" x2="100%" y2="100%">
      <stop offset="0%" stop-color="#FFFFFF"/>
      <stop offset="20%" stop-color="#CFD8DC"/>
      <stop offset="50%" stop-color="#78909C"/>
      <stop offset="80%" stop-color="#37474F"/>
      <stop offset="100%" stop-color="#111"/>
    </linearGradient>

    <linearGradient id="whiskeyGrad" x1="0%" y1="100%" x2="100%" y2="0%">
      <stop offset="0%" stop-color="#BF360C"/>
      <stop offset="50%" stop-color="#FF8F00"/>
      <stop offset="100%" stop-color="#FFD54F"/>
    </linearGradient>

    <!-- Filters -->
    <filter id="shadowHeavy" x="-20%" y="-20%" width="150%" height="150%">
      <feDropShadow dx="0" dy="12" stdDeviation="8" flood-color="#000" flood-opacity="0.85"/>
    </filter>
    
    <filter id="shadowLight" x="-20%" y="-20%" width="140%" height="140%">
      <feDropShadow dx="3" dy="6" stdDeviation="4" flood-color="#000" flood-opacity="0.6"/>
    </filter>
    
    <filter id="glowSubtle">
      <feGaussianBlur stdDeviation="3" result="blur"/>
      <feComposite in="SourceGraphic" in2="blur" operator="over"/>
    </filter>

    <filter id="smokeGlow" x="-50%" y="-50%" width="200%" height="200%">
      <feGaussianBlur stdDeviation="15" result="blur1"/>
      <feGaussianBlur stdDeviation="30" result="blur2"/>
      <feMerge>
        <feMergeNode in="blur2"/>
        <feMergeNode in="blur1"/>
        <feMergeNode in="SourceGraphic"/>
      </feMerge>
    </filter>

    <filter id="visorOverlay">
      <feColorMatrix type="matrix" values="
        0.1 0 0 0 0
        0   0.8 0 0 0
        0   0 0.1 0 0
        0   0 0 0.7 0"/>
    </filter>

    <!-- Reusable Poker Chip -->
    <g id="chip">
      <ellipse cx="0" cy="0" rx="36" ry="12" fill="#151515"/>
      <path d="M -36 0 L -36 -7 C -36 -13, -20 -19, 0 -19 C 20 -19, 36 -13, 36 -7 L 36 0 Z" fill="#050505"/>
      <ellipse cx="0" cy="-7" rx="36" ry="12" fill="currentColor"/>
      <path d="M -36 -7 A 36 12 0 0 0 36 -7 A 36 12 0 0 0 -36 -7" fill="none" stroke="#000" stroke-width="1.5"/>
      <!-- Edge Stripes -->
      <g stroke="#FFF" stroke-width="4.5" opacity="0.85">
        <path d="M -22 -6 L -33 -6 M 22 -6 L 33 -6 M 0 -15 L 0 -19 M -16 -13 L -24 -16 M 16 -13 L 24 -16"/>
        <path d="M -22 3 L -33 3 M 22 3 L 33 3 M 0 -7 L 0 -2 M -16 -2 L -24 -4 M 16 -2 L 24 -4" stroke-width="3"/>
      </g>
      <!-- Center Sticker -->
      <ellipse cx="0" cy="-7" rx="22" ry="7.5" fill="#E0E0E0"/>
      <ellipse cx="0" cy="-7" rx="18" ry="6" fill="#111"/>
      <ellipse cx="0" cy="-7" rx="14" ry="4.5" fill="none" stroke="#FFC107" stroke-width="1"/>
    </g>

    <g id="flop-card">
      <rect width="70" height="100" rx="4" fill="#F8F9FA" stroke="#B0BEC5" stroke-width="1" filter="url(#shadowLight)"/>
      <rect x="4" y="4" width="62" height="92" rx="2" fill="none" stroke="#ECEFF1" stroke-width="1"/>
    </g>
  </defs>

  <!-- ================= BACKGROUND ================= -->
  <rect width="1000" height="800" fill="url(#wallpaper)"/>
  
  <!-- Smoky Atmosphere -->
  <path d="M -100 200 Q 300 0 600 250 T 1200 100" fill="none" stroke="#B0BEC5" stroke-width="120" opacity="0.04" filter="url(#smokeGlow)"/>
  <path d="M -200 500 Q 200 300 500 600 T 1100 400" fill="none" stroke="#78909C" stroke-width="150" opacity="0.05" filter="url(#smokeGlow)"/>

  <!-- Top-Down Volumetric Spotlight -->
  <polygon points="250,-50 750,-50 1200,900 -200,900" fill="#FFF" opacity="0.04" style="mix-blend-mode: overlay;"/>
  <polygon points="350,-50 650,-50 900,900 100,900" fill="#FFF" opacity="0.06"/>
  <circle cx="500" cy="-50" r="450" fill="#FFD54F" opacity="0.08" filter="url(#smokeGlow)"/>


  <!-- ================= BACK/SHOULDERS (HYENA Silhouette) ================= -->
  <g filter="url(#shadowHeavy)">
    <!-- Base Body Silhouette -->
    <path d="M 230 850 C 230 650, 310 520, 500 520 C 690 520, 770 650, 770 850 Z" fill="url(#furGrad)"/>
    
    <!-- Spiky Fur / Back Mane Overlap -->
    <path d="M 460 220 L 410 130 L 480 180 L 490 80 L 530 150 L 570 70 L 560 180 L 610 140 L 580 230 L 650 200 L 590 300 L 630 350 Z" fill="#140a07"/>
    <path d="M 470 240 L 440 160 L 490 190 L 500 110 L 530 170 L 550 120 L 540 190 L 590 160 L 560 240 Z" fill="#2d1c16"/>
  </g>

  <!-- Left Ear (Rounded, Hyena-style) -->
  <g filter="url(#shadowHeavy)">
    <path d="M 400 330 C 290 200, 240 310, 290 400 C 310 430, 360 410, 400 350 Z" fill="#5a3d2f" stroke="#1f130e" stroke-width="4"/>
    <path d="M 380 340 C 310 240, 280 320, 315 390 C 330 370, 340 350, 380 340 Z" fill="#2d1c16"/>
    <!-- Inner fluff -->
    <path d="M 370 330 C 340 280, 310 320, 330 370 Z" fill="#8a614d" opacity="0.7"/>
    <path d="M 270 350 L 290 330 L 285 365 Z" fill="#120608"/> <!-- Notch -->
  </g>

  <!-- Right Ear (Torn, Pierced) -->
  <g filter="url(#shadowHeavy)">
    <path d="M 600 330 C 710 200, 760 310, 710 400 C 690 430, 640 410, 600 350 Z" fill="#5a3d2f" stroke="#1f130e" stroke-width="4"/>
    <path d="M 620 340 C 690 240, 720 320, 685 390 C 670 370, 660 350, 620 340 Z" fill="#2d1c16"/>
    <path d="M 630 330 C 660 280, 690 320, 670 370 Z" fill="#8a614d" opacity="0.7"/>
    <!-- Massive Tear -->
    <polygon points="735,320 670,335 700,370" fill="#120608" stroke="#1f130e" stroke-width="3"/>
    <!-- Gold Earrings -->
    <circle cx="700" cy="385" r="14" fill="none" stroke="#FFC107" stroke-width="5" filter="url(#shadowLight)"/>
    <circle cx="725" cy="355" r="10" fill="none" stroke="#FFC107" stroke-width="4" filter="url(#shadowLight)"/>
  </g>


  <!-- ================= BASE HEAD & JOWLS ================= -->
  <!-- Wide, muscular cheekbones and jaws -->
  <path d="M 340 410 C 260 520, 380 600, 500 600 C 620 600, 740 520, 660 410 C 710 500, 620 570, 500 570 C 380 570, 290 500, 340 410 Z" fill="#4a3225"/>
  <path d="M 370 430 C 320 500, 420 550, 500 550 C 580 550, 680 500, 630 430 C 610 330, 570 280, 500 280 C 430 280, 390 330, 370 430 Z" fill="#785340"/>
  
  <!-- Forehead / Top Skull -->
  <path d="M 400 350 C 430 260, 570 260, 600 350 C 550 370, 450 370, 400 350 Z" fill="#604232"/>

  <!-- Hyena Spots (Organic & Random) -->
  <g fill="#211510" opacity="0.85">
    <!-- Body Spots -->
    <path d="M 320 680 Q 340 670 350 690 Q 330 710 310 690 Z"/>
    <path d="M 370 750 Q 390 740 410 760 Q 390 780 360 760 Z"/>
    <path d="M 650 670 Q 670 660 680 690 Q 660 710 640 690 Z"/>
    <path d="M 610 770 Q 630 750 640 780 Q 620 800 590 780 Z"/>
    <path d="M 270 790 Q 290 770 300 810 Q 280 820 260 800 Z"/>
    <path d="M 720 740 Q 740 720 750 760 Q 730 780 710 760 Z"/>
    
    <!-- Face/Cheek Spots -->
    <circle cx="380" cy="480" r="14"/>
    <path d="M 330 520 Q 350 510 360 530 Q 340 550 320 530 Z"/>
    <circle cx="360" cy="570" r="10"/>
    <circle cx="620" cy="490" r="15"/>
    <path d="M 670 530 Q 690 520 680 550 Q 650 560 660 540 Z"/>
    <circle cx="630" cy="580" r="12"/>
    <circle cx="430" cy="300" r="9"/>
    <circle cx="570" cy="290" r="11"/>
    <circle cx="600" cy="340" r="8"/>
    <circle cx="390" cy="350" r="8"/>
  </g>


  <!-- ================= MUZZLE & NOSE ================= -->
  <!-- Protruding Snout Base -->
  <path d="M 430 380 C 400 480, 440 530, 500 530 C 560 530, 600 480, 570 380 C 530 410, 470 410, 430 380 Z" fill="#A1887F"/>
  <path d="M 450 390 C 420 470, 460 510, 500 510 C 540 510, 580 470, 550 390 Z" fill="#D7CCC8"/>
  
  <!-- Snout Wrinkles (Snarling) -->
  <path d="M 460 410 Q 480 390 500 410 Q 520 390 540 410" fill="none" stroke="#5D4037" stroke-width="4" stroke-linecap="round"/>
  <path d="M 470 425 Q 485 410 500 425 Q 515 410 530 425" fill="none" stroke="#4E342E" stroke-width="3" stroke-linecap="round"/>

  <!-- Wet Dog/Hyena Nose -->
  <g filter="url(#shadowLight)">
    <path d="M 450 430 C 440 390, 560 390, 550 430 C 560 460, 530 480, 500 480 C 470 480, 440 460, 450 430 Z" fill="#110a08"/>
    <!-- Nostrils -->
    <path d="M 465 440 C 460 455, 480 450, 485 435 C 480 425, 470 430, 465 440 Z" fill="#000"/>
    <path d="M 535 440 C 540 455, 520 450, 515 435 C 520 425, 530 430, 535 440 Z" fill="#000"/>
    <!-- Center Slit -->
    <path d="M 500 450 L 500 480" stroke="#000" stroke-width="4" stroke-linecap="round"/>
    <!-- Nose Highlights (Wetness) -->
    <path d="M 465 415 Q 500 405 535 415" fill="none" stroke="#E0E0E0" stroke-width="4" stroke-linecap="round" opacity="0.6"/>
    <ellipse cx="480" cy="425" rx="8" ry="4" fill="#FFF" opacity="0.7" transform="rotate(-15, 480, 425)"/>
  </g>


  <!-- ================= MANIC EYES ================= -->
  <!-- Deep Dark Sockets -->
  <path d="M 370 330 C 350 400, 470 410, 470 340 Z" fill="#2d1c16" filter="url(#glowSubtle)"/>
  <path d="M 630 320 C 650 400, 530 410, 530 330 Z" fill="#2d1c16" filter="url(#glowSubtle)"/>
  
  <!-- Under-eye bags -->
  <path d="M 380 380 Q 420 420, 460 380" fill="none" stroke="#1f130e" stroke-width="6" stroke-linecap="round"/>
  <path d="M 540 380 Q 580 420, 620 375" fill="none" stroke="#1f130e" stroke-width="6" stroke-linecap="round"/>
  <path d="M 390 395 Q 420 430, 450 395" fill="none" stroke="#3e2723" stroke-width="3" stroke-linecap="round"/>
  <path d="M 550 395 Q 580 430, 610 390" fill="none" stroke="#3e2723" stroke-width="3" stroke-linecap="round"/>

  <!-- Left Eye (Twitching, Squinting tight) -->
  <g>
    <path d="M 400 355 Q 430 330 460 355 Q 430 370 400 355 Z" fill="#F9FBE7" stroke="#1A110C" stroke-width="5"/>
    <circle cx="435" cy="353" r="10" fill="url(#eyeIris)"/>
    <circle cx="435" cy="353" r="3" fill="#000"/> <!-- Pinprick pupil -->
    <circle cx="438" cy="350" r="2" fill="#FFF"/> <!-- Catchlight -->
  </g>

  <!-- Right Eye (Wide open, Bloodshot, Dilated) -->
  <g>
    <circle cx="570" cy="345" r="28" fill="#FFFDE7" stroke="#1A110C" stroke-width="5"/>
    <!-- Bloodshot Veins -->
    <path d="M 545 330 Q 555 340 550 355 M 595 340 Q 585 350 590 365 M 565 320 L 570 335" fill="none" stroke="#D32F2F" stroke-width="1.5" opacity="0.6"/>
    <circle cx="570" cy="345" r="16" fill="url(#eyeIris)"/>
    <circle cx="570" cy="345" r="12" fill="#000"/> <!-- Blown out pupil -->
    <circle cx="576" cy="336" r="4" fill="#FFF"/> <!-- Catchlight -->
    <circle cx="562" cy="352" r="1.5" fill="#FFF" opacity="0.8"/>
  </g>

  <!-- Expressive, Heavy Eyebrows -->
  <path d="M 370 340 Q 420 280 480 360" fill="none" stroke="#120608" stroke-width="16" stroke-linecap="round"/>
  <path d="M 520 350 Q 580 260 640 330" fill="none" stroke="#120608" stroke-width="18" stroke-linecap="round"/>


  <!-- ================= THE DEGENERATE GRIN ================= -->
  <!-- Deep Mouth Cavity -->
  <path d="M 350 440 C 440 600, 560 600, 650 440 C 560 570, 440 570, 350 440 Z" fill="#080301"/>
  
  <!-- Back Gums/Tongue Base -->
  <path d="M 410 500 C 460 560, 540 560, 590 500 C 540 530, 460 530, 410 500 Z" fill="#880E4F"/>

  <!-- Upper Gums -->
  <path d="M 360 445 C 450 510, 550 510, 640 445 C 550 480, 450 480, 360 445 Z" fill="#b71c1c"/>

  <!-- Jagged Carnivore Upper Teeth -->
  <g fill="#FFFDE7" stroke="#211510" stroke-width="2.5">
    <path d="M 375 455 L 385 485 L 395 460 Z"/>
    <path d="M 405 465 L 420 505 L 435 470 Z"/>
    <!-- Huge Canines -->
    <path d="M 445 475 L 465 535 L 480 480 Z"/>
    <path d="M 485 480 L 500 515 L 515 480 Z"/> <!-- Front Incisors -->
    <path d="M 520 480 L 540 535 L 555 475 Z"/>
    <path d="M 565 470 L 580 505 L 595 465 Z"/>
    <path d="M 605 460 L 615 485 L 625 455 Z"/>
  </g>

  <!-- Lower Gums -->
  <path d="M 370 480 C 460 580, 540 580, 630 480 C 540 610, 460 610, 370 480 Z" fill="#b71c1c"/>

  <!-- Lower Teeth (Overlapping the lips slightly) -->
  <g fill="#FFF9C4" stroke="#211510" stroke-width="2">
    <path d="M 400 515 L 415 485 L 425 525 Z"/>
    <path d="M 435 535 L 450 495 L 465 545 Z"/>
    <path d="M 475 550 L 490 515 L 505 550 Z"/>
    <path d="M 515 550 L 530 515 L 545 545 Z"/>
    <path d="M 555 535 L 570 495 L 585 525 Z"/>
    <path d="M 595 515 L 605 485 L 615 505 Z"/>
  </g>

  <!-- Thick Outer Lips (Grin Outline) -->
  <path d="M 340 435 C 440 590, 560 590, 660 435" fill="none" stroke="#120608" stroke-width="14" stroke-linecap="round"/>
  <path d="M 340 435 C 440 590, 560 590, 660 435" fill="none" stroke="#5a3d2f" stroke-width="5" stroke-linecap="round"/>
  <!-- Smile creases -->
  <path d="M 320 400 Q 330 440 360 460" fill="none" stroke="#120608" stroke-width="6" stroke-linecap="round"/>
  <path d="M 680 400 Q 670 440 640 460" fill="none" stroke="#120608" stroke-width="6" stroke-linecap="round"/>

  <!-- Gross Drool / Spit Strings -->
  <g fill="#81D4FA" opacity="0.6">
    <path d="M 415 515 Q 425 560 415 580 Q 405 560 415 515 Z"/>
    <path d="M 580 520 Q 590 560 585 590 Q 575 560 580 520 Z"/>
  </g>
  <path d="M 465 520 Q 470 540 465 555 M 535 520 Q 530 540 535 555" fill="none" stroke="#E1F5FE" stroke-width="2" opacity="0.8"/>

  
  <!-- ================= ACCESSORIES ================= -->

  <!-- Spiked Collar -->
  <g filter="url(#shadowHeavy)">
    <!-- Base Leather -->
    <path d="M 310 540 Q 500 660 690 540 L 710 580 Q 500 700 290 580 Z" fill="#140a07"/>
    <path d="M 300 560 Q 500 680 700 560" fill="none" stroke="#3e2723" stroke-width="4"/> <!-- Edge highlight -->
    
    <!-- 3D Metal Spikes -->
    <g stroke="#000" stroke-width="2">
      <path d="M 345 565 L 340 625 L 370 580 Z" fill="url(#metalSpike)"/>
      <path d="M 405 585 L 415 655 L 440 600 Z" fill="url(#metalSpike)"/>
      <path d="M 480 605 L 500 680 L 520 605 Z" fill="url(#metalSpike)"/>
      <path d="M 560 600 L 585 655 L 595 585 Z" fill="url(#metalSpike)"/>
      <path d="M 630 580 L 660 625 L 655 565 Z" fill="url(#metalSpike)"/>
    </g>
  </g>

  <!-- Glowing Cigar in Mouth -->
  <g transform="translate(600, 480) rotate(-25)" filter="url(#shadowHeavy)">
    <!-- Main Cylinder -->
    <rect x="-15" y="-14" width="110" height="28" rx="4" fill="#3E2723" stroke="#120608" stroke-width="3"/>
    <!-- Texture/Highlights -->
    <rect x="-15" y="-12" width="110" height="8" rx="2" fill="#5D4037" opacity="0.7"/>
    <path d="M 0 -14 L 20 14 M 20 -14 L 40 14 M 40 -14 L 60 14 M 60 -14 L 80 14" stroke="#2D1E16" stroke-width="2"/>
    
    <!-- Red & Gold Band -->
    <rect x="20" y="-14" width="22" height="28" fill="#B71C1C" stroke="#120608" stroke-width="2"/>
    <rect x="23" y="-11" width="16" height="22" fill="none" stroke="#FFC107" stroke-width="2"/>
    <circle cx="31" cy="0" r="4" fill="#FFC107"/>
    
    <!-- Flaky Ash -->
    <path d="M 95 -13 L 120 -10 L 125 0 L 118 12 L 95 13 Z" fill="#78909C" stroke="#263238" stroke-width="2"/>
    <path d="M 100 -12 L 105 12 M 110 -11 L 112 11" stroke="#455A64" stroke-width="2"/>
    
    <!-- Blazing Cherry (Tip) -->
    <ellipse cx="123" cy="0" rx="8" ry="12" fill="url(#cigarGlow)" filter="url(#glowSubtle)"/>
    <ellipse cx="123" cy="0" rx="4" ry="7" fill="#FFF"/>
  </g>

  <!-- Smoke Plumes from Cigar -->
  <g filter="url(#smokeGlow)" opacity="0.8">
    <path d="M 720 440 Q 780 380 740 300 T 800 150 T 700 50" fill="none" stroke="#FFF" stroke-width="16" stroke-linecap="round"/>
    <path d="M 730 445 Q 790 390 750 310 T 810 160 T 710 60" fill="none" stroke="#CFD8DC" stroke-width="8" stroke-linecap="round"/>
    <path d="M 710 430 Q 750 370 710 320 T 750 200" fill="none" stroke="#B0BEC5" stroke-width="12" stroke-linecap="round"/>
  </g>

  <!-- Orange Cast Light on Right Cheek from Cigar -->
  <circle cx="630" cy="460" r="80" fill="url(#cigarCastLight)" style="mix-blend-mode: color-dodge;"/>

  <!-- Dealer Visor (Green Translucent) -->
  <g filter="url(#shadowHeavy)">
    <!-- Back Brim Rim -->
    <path d="M 280 290 C 370 390, 630 390, 720 290 C 630 350, 370 350, 280 290 Z" fill="#0A2A0D"/>
    <!-- Plastic Shield -->
    <path d="M 270 275 C 370 410, 630 410, 730 275 C 630 325, 370 325, 270 275 Z" fill="#4CAF50" opacity="0.85" stroke="#1B5E20" stroke-width="3"/>
    <!-- Intense Glare/Reflection -->
    <path d="M 285 285 C 380 395, 620 395, 715 285 C 620 310, 380 310, 285 285 Z" fill="#FFF" opacity="0.25"/>
    <path d="M 310 320 Q 500 410 690 320" fill="none" stroke="#FFF" stroke-width="4" stroke-linecap="round" opacity="0.6"/>
    <!-- White Trim -->
    <path d="M 270 275 C 370 410, 630 410, 730 275" fill="none" stroke="#FFF" stroke-width="5" opacity="0.9"/>
    <!-- Black Head Strap -->
    <path d="M 260 265 C 320 210, 680 210, 740 265 L 730 275 C 670 225, 330 225, 270 275 Z" fill="#212121" stroke="#000" stroke-width="2"/>
    <rect x="290" y="235" width="20" height="30" rx="3" fill="#E0E0E0" transform="rotate(-28, 290, 235)"/>
  </g>

  <!-- Green Light Cast on Forehead (Visor Shadow/Spill) -->
  <path d="M 320 310 C 420 380, 580 380, 680 310 C 600 270, 400 270, 320 310 Z" fill="#4CAF50" opacity="0.35" style="mix-blend-mode: multiply;"/>


  <!-- ================= OVERHEAD RIM LIGHTING ================= -->
  <!-- Creates depth by simulating strong top bar light hitting the fur -->
  <rect width="1000" height="800" fill="url(#rimLight)" style="mix-blend-mode: overlay;"/>
  <path d="M 400 250 C 450 240, 550 240, 600 250 C 650 350, 720 300, 720 300 C 680 200, 550 220, 500 220 C 450 220, 320 200, 280 300 C 280 300, 350 350, 400 250 Z" fill="#FFF" opacity="0.15" filter="url(#glowSubtle)"/>


  <!-- ================= THE POKER TABLE ================= -->
  
  <!-- Massive Wooden Armrest -->
  <ellipse cx="500" cy="880" rx="950" ry="360" fill="#2D1E16" stroke="#0a0502" stroke-width="50" filter="url(#shadowHeavy)"/>
  <ellipse cx="500" cy="880" rx="950" ry="360" fill="none" stroke="#4E342E" stroke-width="20" opacity="0.7"/>
  
  <!-- Padded Inner Rail -->
  <ellipse cx="500" cy="880" rx="900" ry="310" fill="none" stroke="#120608" stroke-width="25"/>
  <ellipse cx="500" cy="880" rx="885" ry="295" fill="none" stroke="#000" stroke-width="15" opacity="0.8"/>

  <!-- Bright Green Felt -->
  <ellipse cx="500" cy="880" rx="870" ry="280" fill="url(#tableLight)"/>
  
  <!-- Classic Casino Table Markings -->
  <ellipse cx="500" cy="880" rx="800" ry="240" fill="none" stroke="#FBC02D" stroke-width="5" opacity="0.8"/>
  <ellipse cx="500" cy="880" rx="780" ry="220" fill="none" stroke="#FBC02D" stroke-width="2" opacity="0.4"/>
  <path d="M 300 680 C 400 650, 600 650, 700 680" fill="none" stroke="#FFF" stroke-width="3" stroke-dasharray="10 10" opacity="0.5"/>


  <!-- ================= MIDGROUND PROPS (DRINKS & CHIPS) ================= -->
  
  <!-- Heavy Crystal Whiskey Glass -->
  <g transform="translate(110, 640)" filter="url(#shadowHeavy)">
    <!-- Back Rim & Glass Base -->
    <path d="M 0 0 L 80 0 L 65 95 L 15 95 Z" fill="#FFF" opacity="0.05"/>
    <ellipse cx="40" cy="95" rx="25" ry="8" fill="#ECEFF1" opacity="0.3"/>
    <ellipse cx="40" cy="95" rx="30" ry="10" fill="none" stroke="#FFF" stroke-width="2" opacity="0.5"/>
    
    <!-- Amber Whiskey Liquid -->
    <path d="M 8 30 L 72 30 L 63 90 L 17 90 Z" fill="url(#whiskeyGrad)" opacity="0.95"/>
    <ellipse cx="40" cy="30" rx="32" ry="8" fill="#FFC107" opacity="0.9"/>
    
    <!-- Ice Cubes (Sharp, faceted) -->
    <g stroke="#FFF" stroke-width="1.5">
      <!-- Cube 1 -->
      <g transform="translate(25, 45) rotate(15)">
        <rect x="0" y="0" width="26" height="26" rx="2" fill="#E0F7FA" opacity="0.6"/>
        <path d="M 2 2 L 13 13 L 24 2 M 13 13 L 13 24" opacity="0.8"/>
      </g>
      <!-- Cube 2 -->
      <g transform="translate(45, 60) rotate(-20)">
        <rect x="0" y="0" width="24" height="24" rx="2" fill="#E0F7FA" opacity="0.5"/>
        <path d="M 2 2 L 12 12 L 22 2 M 12 12 L 12 22" opacity="0.8"/>
      </g>
    </g>

    <!-- Front Glass Highlights & Crystal Cuts -->
    <path d="M 0 0 L 80 0 L 65 95 L 15 95 Z" fill="none" stroke="#FFF" stroke-width="3" opacity="0.7"/>
    <ellipse cx="40" cy="0" rx="40" ry="10" fill="none" stroke="#FFF" stroke-width="4" opacity="0.9"/>
    <!-- Facet lines -->
    <path d="M 20 10 L 25 90 M 40 10 L 40 90 M 60 10 L 55 90" stroke="#FFF" stroke-width="2" opacity="0.3"/>
    <!-- Intense specular glare -->
    <path d="M 10 15 L 18 85" stroke="#FFF" stroke-width="6" opacity="0.8" stroke-linecap="round"/>
  </g>

  <!-- Poker Chip Stacks (Guarded by Left Paw) -->
  <g filter="url(#shadowHeavy)">
    <!-- Red Stack -->
    <g style="color: #C62828" transform="translate(360, 720)">
      <use href="#chip" y="0"/><use href="#chip" y="-12"/><use href="#chip" y="-24"/><use href="#chip" y="-36"/><use href="#chip" y="-48"/><use href="#chip" y="-60"/><use href="#chip" y="-72" transform="rotate(15, 0, -72)"/>
    </g>
    <!-- Blue Stack (Tilted slightly) -->
    <g style="color: #1565C0" transform="translate(280, 750) rotate(-8)">
      <use href="#chip" y="0"/><use href="#chip" y="-12"/><use href="#chip" y="-24"/><use href="#chip" y="-36"/><use href="#chip" y="-48"/>
    </g>
    <!-- Gold VIP Stack -->
    <g style="color: #FFB300" transform="translate(430, 755)">
      <use href="#chip" y="0"/><use href="#chip" y="-12"/><use href="#chip" y="-24" transform="translate(3,0)"/>
    </g>
    <!-- Scattered / Dropped Chips -->
    <use href="#chip" x="390" y="775" style="color: #2E7D32"/>
    <use href="#chip" x="480" y="740" style="color: #C62828" transform="rotate(25, 480, 740)"/>
    <use href="#chip" x="320" y="790" style="color: #1565C0" transform="rotate(-15, 320, 790)"/>
  </g>

  <!-- Left Paw (Massive, gripping the table/chips) -->
  <g filter="url(#shadowHeavy)">
    <!-- Thick Forearm -->
    <path d="M -50 1000 C 0 800, 150 710, 290 770 L 100 1000 Z" fill="url(#furGrad)"/>
    
    <!-- Spots on arm -->
    <path d="M 120 860 Q 140 850 150 880 Q 130 890 110 870 Z" fill="#211510" opacity="0.8"/>
    <circle cx="180" cy="800" r="18" fill="#211510" opacity="0.8"/>

    <!-- Main Knuckles -->
    <path d="M 230 760 C 270 740, 310 770, 290 820 C 260 850, 210 830, 210 790 Z" fill="#4a3225"/>

    <!-- Articulated Fingers -->
    <g fill="#3e2723" stroke="#120608" stroke-width="4">
      <!-- Index Finger -->
      <path d="M 270 760 C 310 740, 350 750, 350 780 C 350 810, 310 800, 280 790 Z"/>
      <!-- Middle Finger -->
      <path d="M 240 775 C 280 750, 330 770, 320 810 C 310 840, 270 820, 250 800 Z"/>
      <!-- Ring Finger -->
      <path d="M 210 795 C 250 780, 290 800, 280 840 C 270 870, 230 840, 220 820 Z"/>
    </g>

    <!-- Sharp Claws gouging the table -->
    <g fill="#111" stroke="#000" stroke-width="2">
      <path d="M 345 770 L 380 780 L 340 795 Z"/>
      <path d="M 315 800 L 350 825 L 305 825 Z"/>
      <path d="M 275 830 L 305 865 L 260 845 Z"/>
    </g>
    <!-- Claw Highlights -->
    <g fill="none" stroke="#78909C" stroke-width="1.5">
      <path d="M 345 775 L 370 780"/>
      <path d="M 315 805 L 340 820"/>
      <path d="M 275 835 L 295 855"/>
    </g>
  </g>

  <!-- Community Cards (The Flop) -->
  <g transform="translate(500, 680) scale(0.9, 0.6) skewX(-40) rotate(-10)" filter="url(#shadowHeavy)">
    <!-- Card 1: Ace of Spades -->
    <g transform="translate(-115, 0) rotate(-5)">
      <use href="#flop-card"/>
      <text x="12" y="28" fill="#111" font-family="Arial Black, sans-serif" font-weight="900" font-size="26">A</text>
      <text x="16" y="48" fill="#111" font-family="Arial, sans-serif" font-size="22">♠</text>
      <text x="35" y="70" fill="#111" font-family="Arial, sans-serif" font-size="44" text-anchor="middle">♠</text>
    </g>
    <!-- Card 2: King of Spades -->
    <g transform="translate(-35, 8) rotate(3)">
      <use href="#flop-card"/>
      <text x="12" y="28" fill="#111" font-family="Arial Black, sans-serif" font-weight="900" font-size="26">K</text>
      <text x="16" y="48" fill="#111" font-family="Arial, sans-serif" font-size="22">♠</text>
      <text x="35" y="70" fill="#111" font-family="Arial, sans-serif" font-size="44" text-anchor="middle">♠</text>
    </g>
    <!-- Card 3: King of Diamonds -->
    <g transform="translate(45, -2) rotate(12)">
      <use href="#flop-card"/>
      <text x="12" y="28" fill="#D32F2F" font-family="Arial Black, sans-serif" font-weight="900" font-size="26">K</text>
      <text x="16" y="48" fill="#D32F2F" font-family="Arial, sans-serif" font-size="22">♦</text>
      <text x="35" y="70" fill="#D32F2F" font-family="Arial, sans-serif" font-size="44" text-anchor="middle">♦</text>
    </g>
  </g>


  <!-- ================= FOREGROUND (RIGHT PAW & ROYAL FLUSH) ================= -->
  
  <!-- Right Arm coming from bottom right -->
  <path d="M 1050 1000 C 1000 750, 850 630, 680 730 L 780 1000 Z" fill="url(#furGrad)" filter="url(#shadowHeavy)"/>
  
  <!-- Fur Spots on right arm -->
  <g fill="#211510" opacity="0.8">
    <ellipse cx="860" cy="820" rx="26" ry="16" transform="rotate(-30, 860, 820)"/>
    <ellipse cx="800" cy="890" rx="20" ry="32" transform="rotate(20, 800, 890)"/>
    <ellipse cx="940" cy="910" rx="35" ry="22" transform="rotate(10, 940, 910)"/>
  </g>

  <!-- The Royal Flush (Hearts) - Angled up toward the viewer -->
  <g id="winning-hand" filter="url(#shadowHeavy)">
    <!-- Standard Card Def for hand -->
    <defs>
      <g id="hand-card">
        <rect width="90" height="140" rx="6" fill="#FFF" stroke="#CFD8DC" stroke-width="2"/>
        <rect x="5" y="5" width="80" height="130" rx="4" fill="none" stroke="#ECEFF1" stroke-width="2"/>
      </g>
    </defs>

    <!-- Fanning Left to Right -->
    <!-- 10 of Hearts -->
    <g transform="translate(560, 610) rotate(-20)">
      <use href="#hand-card"/>
      <text x="12" y="32" fill="#B71C1C" font-family="Arial Black, sans-serif" font-weight="900" font-size="28" letter-spacing="-2">10</text>
      <text x="24" y="55" fill="#B71C1C" font-family="Arial, sans-serif" font-size="24" text-anchor="middle">♥</text>
      <text x="45" y="100" fill="#B71C1C" font-family="Arial, sans-serif" font-size="56" text-anchor="middle">♥</text>
    </g>
    <!-- Jack of Hearts -->
    <g transform="translate(615, 575) rotate(-10)">
      <use href="#hand-card"/>
      <text x="12" y="32" fill="#B71C1C" font-family="Arial Black, sans-serif" font-weight="900" font-size="28">J</text>
      <text x="20" y="55" fill="#B71C1C" font-family="Arial, sans-serif" font-size="24" text-anchor="middle">♥</text>
      <text x="45" y="100" fill="#B71C1C" font-family="Arial, sans-serif" font-size="56" text-anchor="middle">♥</text>
    </g>
    <!-- Queen of Hearts -->
    <g transform="translate(675, 555) rotate(0)">
      <use href="#hand-card"/>
      <text x="12" y="32" fill="#B71C1C" font-family="Arial Black, sans-serif" font-weight="900" font-size="28">Q</text>
      <text x="22" y="55" fill="#B71C1C" font-family="Arial, sans-serif" font-size="24" text-anchor="middle">♥</text>
      <text x="45" y="100" fill="#B71C1C" font-family="Arial, sans-serif" font-size="56" text-anchor="middle">♥</text>
    </g>
    <!-- King of Hearts -->
    <g transform="translate(740, 560) rotate(10)">
      <use href="#hand-card"/>
      <text x="12" y="32" fill="#B71C1C" font-family="Arial Black, sans-serif" font-weight="900" font-size="28">K</text>
      <text x="21" y="55" fill="#B71C1C" font-family="Arial, sans-serif" font-size="24" text-anchor="middle">♥</text>
      <text x="45" y="100" fill="#B71C1C" font-family="Arial, sans-serif" font-size="56" text-anchor="middle">♥</text>
    </g>
    <!-- Ace of Hearts (Hero Card) -->
    <g transform="translate(800, 585) rotate(20)">
      <use href="#hand-card"/>
      <text x="12" y="32" fill="#B71C1C" font-family="Arial Black, sans-serif" font-weight="900" font-size="28">A</text>
      <text x="21" y="55" fill="#B71C1C" font-family="Arial, sans-serif" font-size="24" text-anchor="middle">♥</text>
      <text x="45" y="100" fill="#B71C1C" font-family="Arial, sans-serif" font-size="56" text-anchor="middle">♥</text>
    </g>
  </g>

  <!-- Right Hand Covering/Pinching the Cards -->
  <g filter="url(#shadowHeavy)">
    <!-- Base Palm Structure -->
    <path d="M 570 850 C 560 700, 720 670, 890 730 L 930 870 Z" fill="#4a3225"/>
    
    <!-- Fingers wrapping around the back of the cards -->
    <g fill="#3e2723" stroke="#120608" stroke-width="4">
      <path d="M 590 700 C 590 670, 640 670, 640 710 Z" transform="rotate(-25, 615, 690)"/>
      <path d="M 660 680 C 660 640, 710 640, 710 690 Z" transform="rotate(-10, 685, 670)"/>
      <path d="M 740 675 C 740 635, 790 635, 790 690 Z" transform="rotate(5, 765, 670)"/>
      <path d="M 820 695 C 820 655, 870 655, 870 710 Z" transform="rotate(20, 845, 690)"/>
    </g>

    <!-- The Huge Thumb over the front -->
    <path d="M 670 810 C 640 750, 700 700, 760 720 C 810 735, 820 780, 780 820 Z" fill="#4a3225" stroke="#120608" stroke-width="4"/>
    <path d="M 680 790 C 660 740, 710 710, 750 725" fill="none" stroke="#604232" stroke-width="3"/> <!-- Thumb Highlight -->
    
    <!-- Big Thumb Claw -->
    <path d="M 680 735 L 630 700 L 665 760 Z" fill="#111" stroke="#000" stroke-width="2"/>
    <path d="M 675 735 L 640 710" fill="none" stroke="#78909C" stroke-width="2"/>

    <!-- Finger Claws Peeking over the top edge of cards -->
    <g fill="#111" stroke="#000" stroke-width="2">
      <path d="M 585 675 L 565 635 L 605 660 Z"/>
      <path d="M 650 650 L 640 605 L 675 640 Z"/>
      <path d="M 735 645 L 740 600 L 760 645 Z"/>
      <path d="M 830 670 L 860 630 L 850 675 Z"/>
    </g>
    <!-- Highlights for the back claws -->
    <g fill="none" stroke="#78909C" stroke-width="1.5">
      <path d="M 585 670 L 575 645"/>
      <path d="M 650 645 L 645 620"/>
      <path d="M 740 640 L 742 615"/>
      <path d="M 835 665 L 850 640"/>
    </g>
  </g>


  <!-- ================= FOREGROUND FX (Dust, Depth & Vignette) ================= -->
  
  <!-- Airborne Casino Dust / Ash Motes -->
  <g fill="#FFF" filter="url(#glowSubtle)">
    <circle cx="300" cy="360" r="3" opacity="0.4"/>
    <circle cx="340" cy="430" r="2" opacity="0.2"/>
    <circle cx="680" cy="270" r="4" opacity="0.3"/>
    <circle cx="700" cy="220" r="2" opacity="0.5"/>
    <circle cx="220" cy="550" r="3" opacity="0.25"/>
    <circle cx="820" cy="460" r="2.5" opacity="0.35"/>
    <circle cx="480" cy="230" r="2.5" opacity="0.5"/>
    <circle cx="580" cy="180" r="1.5" opacity="0.4"/>
    <circle cx="420" cy="580" r="2" opacity="0.3"/>
    <circle cx="760" cy="620" r="3" opacity="0.4"/>
  </g>

  <!-- Heavy Dramatic Vignette Over Everything -->
  <rect width="1000" height="800" fill="url(#vignette)" style="mix-blend-mode: multiply;" pointer-events="none"/>

</svg>