<svg xmlns="http://www.w3.org/2000/svg" viewBox="0 0 1000 800" width="100%" height="100%">
  <defs>
    <!-- Background Wallpaper -->
    <pattern id="wallpaper" width="120" height="120" patternUnits="userSpaceOnUse">
      <rect width="120" height="120" fill="#140709"/>
      <path d="M 60 0 L 60 120 M 0 60 L 120 60" stroke="#1f0a0d" stroke-width="24"/>
      <path d="M 0 0 L 120 120 M 120 0 L 0 120" stroke="#2e0f14" stroke-width="3" opacity="0.4"/>
      <circle cx="60" cy="60" r="40" fill="none" stroke="#1f0a0d" stroke-width="5"/>
      <circle cx="60" cy="60" r="30" fill="none" stroke="#2e0f14" stroke-width="1" opacity="0.5"/>
    </pattern>

    <!-- Gradients -->
    <radialGradient id="vignette" cx="50%" cy="50%" r="75%">
      <stop offset="30%" stop-color="#000" stop-opacity="0"/>
      <stop offset="85%" stop-color="#050200" stop-opacity="0.85"/>
      <stop offset="100%" stop-color="#000" stop-opacity="0.98"/>
    </radialGradient>
    
    <radialGradient id="tableGlow" cx="50%" cy="850" r="550" gradientUnits="userSpaceOnUse">
      <stop offset="0%" stop-color="#2E7D32"/>
      <stop offset="30%" stop-color="#1B5E20"/>
      <stop offset="70%" stop-color="#0A2A0D"/>
      <stop offset="100%" stop-color="#020a03"/>
    </radialGradient>

    <linearGradient id="woodRail" x1="0" y1="0" x2="0" y2="1">
      <stop offset="0%" stop-color="#795548"/>
      <stop offset="5%" stop-color="#4E342E"/>
      <stop offset="15%" stop-color="#3E2723"/>
      <stop offset="80%" stop-color="#180e07"/>
      <stop offset="100%" stop-color="#000000"/>
    </linearGradient>

    <linearGradient id="woodHighlight" x1="0" y1="0" x2="0" y2="1">
      <stop offset="0%" stop-color="#FFD54F" stop-opacity="0.6"/>
      <stop offset="100%" stop-color="#FFD54F" stop-opacity="0"/>
    </linearGradient>

    <linearGradient id="cardGrad" x1="0%" y1="0%" x2="100%" y2="100%">
      <stop offset="0%" stop-color="#FFFFFF"/>
      <stop offset="50%" stop-color="#F5F5F5"/>
      <stop offset="100%" stop-color="#D7CCC8"/>
    </linearGradient>

    <linearGradient id="metalSpike" x1="0%" y1="0%" x2="100%" y2="100%">
      <stop offset="0%" stop-color="#FFFFFF"/>
      <stop offset="20%" stop-color="#B0BEC5"/>
      <stop offset="50%" stop-color="#546E7A"/>
      <stop offset="80%" stop-color="#263238"/>
      <stop offset="100%" stop-color="#11171a"/>
    </linearGradient>

    <radialGradient id="cigarGlow" cx="50%" cy="50%" r="50%">
      <stop offset="0%" stop-color="#FFFFFF"/>
      <stop offset="15%" stop-color="#FFF59D"/>
      <stop offset="40%" stop-color="#FF3D00"/>
      <stop offset="70%" stop-color="#B71C1C"/>
      <stop offset="100%" stop-color="#212121" stop-opacity="0"/>
    </radialGradient>

    <radialGradient id="eyeSclera" cx="50%" cy="50%" r="50%">
      <stop offset="0%" stop-color="#FFFDE7"/>
      <stop offset="70%" stop-color="#FFECB3"/>
      <stop offset="100%" stop-color="#E53935"/>
    </radialGradient>

    <radialGradient id="eyeIris" cx="50%" cy="50%" r="50%">
      <stop offset="0%" stop-color="#FFD54F"/>
      <stop offset="40%" stop-color="#F57F17"/>
      <stop offset="80%" stop-color="#D84315"/>
      <stop offset="100%" stop-color="#3E2723"/>
    </radialGradient>

    <linearGradient id="teethGrad" x1="0%" y1="0%" x2="0%" y2="100%">
      <stop offset="0%" stop-color="#3E2723"/>
      <stop offset="30%" stop-color="#FBC02D"/>
      <stop offset="60%" stop-color="#FFF9C4"/>
      <stop offset="100%" stop-color="#FFFFFF"/>
    </linearGradient>
    
    <linearGradient id="teethGradLower" x1="0%" y1="100%" x2="0%" y2="0%">
      <stop offset="0%" stop-color="#3E2723"/>
      <stop offset="30%" stop-color="#FBC02D"/>
      <stop offset="60%" stop-color="#FFF9C4"/>
      <stop offset="100%" stop-color="#FFFFFF"/>
    </linearGradient>

    <linearGradient id="whiskeyGrad" x1="0%" y1="0%" x2="0%" y2="100%">
      <stop offset="0%" stop-color="#FFCA28"/>
      <stop offset="40%" stop-color="#FF8F00"/>
      <stop offset="80%" stop-color="#D84315"/>
      <stop offset="100%" stop-color="#4E342E"/>
    </linearGradient>

    <!-- Filters -->
    <filter id="shadow" x="-30%" y="-30%" width="160%" height="160%">
      <feDropShadow dx="0" dy="12" stdDeviation="8" flood-color="#000" flood-opacity="0.8"/>
    </filter>
    
    <filter id="lightShadow" x="-20%" y="-20%" width="140%" height="140%">
      <feDropShadow dx="3" dy="6" stdDeviation="4" flood-color="#000" flood-opacity="0.6"/>
    </filter>
    
    <filter id="blur" x="-50%" y="-50%" width="200%" height="200%">
      <feGaussianBlur stdDeviation="8"/>
    </filter>
    
    <filter id="glow" x="-50%" y="-50%" width="200%" height="200%">
      <feGaussianBlur stdDeviation="5" result="blur"/>
      <feComposite in="SourceGraphic" in2="blur" operator="over"/>
    </filter>

    <filter id="intenseGlow" x="-50%" y="-50%" width="200%" height="200%">
      <feGaussianBlur stdDeviation="10" result="blur"/>
      <feComponentTransfer in="blur" result="glow">
        <feFuncA type="linear" slope="2"/>
      </feComponentTransfer>
      <feComposite in="SourceGraphic" in2="glow" operator="over"/>
    </filter>

    <filter id="smokeBlur">
      <feGaussianBlur stdDeviation="15"/>
    </filter>

    <!-- Reusable Components -->
    <g id="chip">
      <!-- Shadow and 3D base -->
      <ellipse cx="0" cy="0" rx="35" ry="14" fill="#050505"/>
      <path d="M -35 0 L -35 -6 C -35 -13, -19 -20, 0 -20 C 19 -20, 35 -13, 35 -6 L 35 0 Z" fill="#1a1a1a"/>
      <!-- Main Top Face -->
      <ellipse cx="0" cy="-6" rx="35" ry="14" fill="currentColor"/>
      <!-- Casino Edge Marks -->
      <path d="M -22 -6 L -33 -6 M 22 -6 L 33 -6 M -11 -16 L -16 -19 M 11 -16 L 16 -19 M -11 4 L -16 7 M 11 4 L 16 7" stroke="#FFF" stroke-width="4" stroke-linecap="round" opacity="0.9"/>
      <!-- Inner Rings -->
      <ellipse cx="0" cy="-6" rx="22" ry="8" fill="none" stroke="#FFF" stroke-width="1.5" opacity="0.6"/>
      <ellipse cx="0" cy="-6" rx="15" ry="5.5" fill="#111" opacity="0.3"/>
      <!-- Glossy highlight -->
      <path d="M -25 -8 C -10 -15, 10 -15, 25 -8" fill="none" stroke="#FFF" stroke-width="2" opacity="0.4" filter="url(#blur)"/>
    </g>

    <g id="flop-card">
      <rect width="65" height="95" rx="5" fill="url(#cardGrad)" stroke="#BCAAA4" stroke-width="1" filter="url(#lightShadow)"/>
      <rect x="3" y="3" width="59" height="89" rx="3" fill="none" stroke="#EFEBE9" stroke-width="1"/>
    </g>
  </defs>

  <!-- ================= BACKGROUND & ATMOSPHERE ================= -->
  <rect width="1000" height="800" fill="url(#wallpaper)"/>
  
  <!-- Thick Background Smoke (Layer 1) -->
  <path d="M -50 300 Q 200 100 450 350 T 1100 150" fill="none" stroke="#FFF" stroke-width="100" opacity="0.02" filter="url(#smokeBlur)"/>
  <path d="M -100 600 Q 300 400 700 700 T 1200 400" fill="none" stroke="#E0E0E0" stroke-width="120" opacity="0.015" filter="url(#smokeBlur)"/>

  <!-- Volumetric Lamp Spotlight (Warm Gold) -->
  <path d="M 400 -50 L 600 -50 L 950 850 L 50 850 Z" fill="#FFC107" opacity="0.04" style="mix-blend-mode: color-dodge;"/>
  <path d="M 450 -50 L 550 -50 L 750 850 L 250 850 Z" fill="#FFF" opacity="0.03" style="mix-blend-mode: overlay;"/>
  <!-- Top Light Source Glow -->
  <circle cx="500" cy="-100" r="450" fill="#FFC107" opacity="0.1" filter="url(#smokeBlur)"/>

  <!-- ================= HYENA CHARACTER (BACK/BODY) ================= -->
  
  <!-- Massive Shoulders & Torso -->
  <path d="M 230 850 C 180 580, 340 450, 500 450 C 660 450, 820 580, 770 850 Z" fill="#3D2B24"/>
  <path d="M 320 850 C 310 630, 410 540, 500 540 C 590 540, 690 630, 680 850 Z" fill="#D7CCC8" opacity="0.8"/>
  
  <!-- Body Fur Texture / Dark spots -->
  <g fill="#1A110C" opacity="0.6">
    <path d="M 270 600 Q 300 630 280 660 Q 250 620 270 600 Z"/>
    <path d="M 240 700 Q 280 720 260 760 Q 220 730 240 700 Z"/>
    <path d="M 730 610 Q 700 640 720 670 Q 750 630 730 610 Z"/>
    <path d="M 760 710 Q 720 730 740 770 Q 780 740 760 710 Z"/>
  </g>

  <!-- Back Mane (Wild, ragged, catching the backlight) -->
  <g filter="url(#lightShadow)">
    <path d="M 460 300 L 400 220 L 470 190 L 410 100 L 500 150 L 480 50 L 540 130 L 590 40 L 570 140 L 650 90 L 600 180 L 670 200 L 580 260 L 620 320 Z" fill="#1A110C"/>
    <!-- Mane highlights (Rim Light from above) -->
    <path d="M 480 50 L 540 130 L 590 40 L 570 140 L 650 90 L 600 180 L 670 200 L 620 180 L 570 120 L 520 100 Z" fill="#FFC107" opacity="0.15" filter="url(#glow)"/>
    <path d="M 470 250 L 420 150 L 480 190 L 490 80 L 530 150 L 570 60 L 560 160 L 620 120 L 570 220 Z" fill="#3E2723"/>
  </g>

  <!-- Left Ear (Ragged, rounded hyena shape) -->
  <g filter="url(#lightShadow)">
    <path d="M 390 310 C 290 150, 210 220, 260 390 C 280 430, 340 390, 390 330 Z" fill="#5D4037" stroke="#1A110C" stroke-width="4"/>
    <path d="M 370 310 C 310 200, 260 240, 290 370 Z" fill="#3E2723"/>
    <path d="M 360 300 C 320 230, 280 250, 305 350 Z" fill="#A1887F" opacity="0.5"/>
    <path d="M 320 200 C 350 250, 370 280, 380 310" fill="none" stroke="#FFC107" stroke-width="2" opacity="0.3" filter="url(#glow)"/> <!-- SSS Light -->
  </g>
  
  <!-- Right Ear (Torn, pierced, heavily backlit) -->
  <g filter="url(#lightShadow)">
    <path d="M 610 310 C 710 150, 790 220, 740 390 C 720 430, 660 390, 610 330 Z" fill="#5D4037" stroke="#1A110C" stroke-width="4"/>
    <!-- Subsurface scattering on ear -->
    <path d="M 610 310 C 710 150, 790 220, 740 390 C 720 430, 660 390, 610 330 Z" fill="#D84315" opacity="0.3" filter="url(#blur)"/>
    <path d="M 630 310 C 690 200, 740 240, 710 370 Z" fill="#3E2723"/>
    <path d="M 640 300 C 680 230, 720 250, 695 350 Z" fill="#A1887F" opacity="0.5"/>
    <!-- Ear Tear -->
    <path d="M 762 260 L 690 300 L 730 330 Z" fill="#140709"/> 
    <path d="M 690 300 L 730 330" stroke="#FFC107" stroke-width="1.5" opacity="0.5"/>
    <!-- Earrings -->
    <circle cx="745" cy="350" r="14" fill="none" stroke="#FFD54F" stroke-width="5" filter="url(#shadow)"/>
    <circle cx="745" cy="350" r="14" fill="none" stroke="#FFF" stroke-width="1" opacity="0.6"/>
    <circle cx="715" cy="385" r="8" fill="none" stroke="#FFD54F" stroke-width="4" filter="url(#shadow)"/>
  </g>

  <!-- Base Head Shape & Cheeks (Textured paths) -->
  <!-- Main Head -->
  <path d="M 350 380 Q 350 250 500 250 Q 650 250 650 380 Q 660 480 500 480 Q 340 480 350 380 Z" fill="#795548"/>
  <!-- Rim light on head -->
  <path d="M 350 350 Q 500 240 650 350" fill="none" stroke="#FFC107" stroke-width="6" opacity="0.3" filter="url(#glow)"/>
  
  <!-- Wide, furry jowls -->
  <path d="M 320 380 C 240 490, 390 570, 500 570 C 610 570, 760 490, 680 380 C 740 500, 590 600, 500 600 C 410 600, 260 500, 320 380 Z" fill="#5D4037"/>
  <path d="M 340 400 C 280 490, 410 550, 500 550 C 590 550, 720 490, 660 400 Z" fill="#6D4C41"/>
  
  <!-- Jowl Fur details/spikes -->
  <path d="M 290 430 L 260 460 L 310 470 L 280 510 L 340 500" fill="#4E342E"/>
  <path d="M 710 430 L 740 460 L 690 470 L 720 510 L 660 500" fill="#4E342E"/>

  <!-- Face Spots (Dynamic placement) -->
  <g fill="#211A16" opacity="0.85">
    <path d="M 360 480 Q 380 490 370 510 Q 350 500 360 480 Z"/>
    <path d="M 310 540 Q 340 530 330 560 Q 300 550 310 540 Z"/>
    <path d="M 640 480 Q 620 490 630 510 Q 650 500 640 480 Z"/>
    <path d="M 690 540 Q 660 530 670 560 Q 700 550 690 540 Z"/>
    <circle cx="410" cy="280" r="14"/>
    <circle cx="580" cy="275" r="16"/>
    <circle cx="620" cy="340" r="12"/>
    <circle cx="380" cy="345" r="12"/>
    <path d="M 430 450 Q 440 460 430 470 Q 420 460 430 450 Z"/>
    <path d="M 570 450 Q 560 460 570 470 Q 580 460 570 450 Z"/>
  </g>

  <!-- Muzzle/Snout -->
  <path d="M 410 380 C 390 490, 430 540, 500 540 C 570 540, 610 490, 590 380 C 530 400, 470 400, 410 380 Z" fill="#BCAAA4"/>
  <path d="M 430 390 C 410 480, 450 515, 500 515 C 550 515, 590 480, 570 390 Z" fill="#EFEBE9"/>
  <!-- Muzzle Ridge Highlight -->
  <path d="M 480 390 C 490 450, 510 450, 520 390 Z" fill="#FFF" opacity="0.15" filter="url(#glow)"/>
  <!-- Whisker Pores -->
  <g fill="#3E2723" opacity="0.6">
    <circle cx="450" cy="460" r="2.5"/> <circle cx="440" cy="475" r="2"/> <circle cx="460" cy="485" r="3"/>
    <circle cx="550" cy="460" r="2.5"/> <circle cx="560" cy="475" r="2"/> <circle cx="540" cy="485" r="3"/>
  </g>

  <!-- ================= THE MANIC FACE ================= -->

  <!-- Eye Sockets / Bags (Deep, tired, dark) -->
  <path d="M 370 330 C 360 400, 480 420, 480 340 Z" fill="#211A16" opacity="0.75" filter="url(#blur)"/>
  <path d="M 630 320 C 640 400, 520 420, 520 330 Z" fill="#211A16" opacity="0.75" filter="url(#blur)"/>
  
  <!-- Under-eye Stress Lines -->
  <path d="M 380 375 Q 425 415, 470 375" fill="none" stroke="#1A110C" stroke-width="6" stroke-linecap="round"/>
  <path d="M 390 390 Q 425 425, 460 390" fill="none" stroke="#211A16" stroke-width="3" stroke-linecap="round"/>
  <path d="M 530 385 Q 570 425, 615 380" fill="none" stroke="#1A110C" stroke-width="6" stroke-linecap="round"/>
  <path d="M 540 400 Q 570 435, 605 395" fill="none" stroke="#211A16" stroke-width="3" stroke-linecap="round"/>

  <!-- Left Eye (Twitching, Squinting tight) -->
  <path d="M 390 355 Q 430 320 470 355 Q 430 375 390 355 Z" fill="url(#eyeSclera)" stroke="#0a0503" stroke-width="4"/>
  <!-- Twitching veins/lines around left eye -->
  <path d="M 380 345 L 395 350 M 465 340 L 480 345" stroke="#000" stroke-width="2"/>
  
  <!-- Right Eye (Wide Open, Dilated, Bloodshot) -->
  <circle cx="570" cy="345" r="32" fill="url(#eyeSclera)" stroke="#0a0503" stroke-width="5"/>
  <!-- Heavy Bloodshot Veins (Right Eye) -->
  <g fill="none" stroke="#D32F2F" stroke-width="1.5" opacity="0.7">
    <path d="M 540 345 Q 550 330 555 340 T 560 335"/>
    <path d="M 600 345 Q 590 330 585 340 T 580 335"/>
    <path d="M 570 315 Q 565 325 570 330"/>
    <path d="M 545 365 Q 555 355 560 360"/>
    <path d="M 595 365 Q 585 355 580 360"/>
  </g>
  <!-- Bloodshot Rim -->
  <path d="M 538 345 A 32 32 0 0 1 602 345" fill="none" stroke="#B71C1C" stroke-width="4" opacity="0.6"/> 

  <!-- Irises & Pupils -->
  <!-- Left Iris (partially hidden) -->
  <circle cx="430" cy="355" r="10" fill="url(#eyeIris)"/>
  <circle cx="430" cy="355" r="4" fill="#050200"/>
  <!-- Right Iris (Huge, blown out pupil) -->
  <circle cx="570" cy="345" r="18" fill="url(#eyeIris)"/>
  <circle cx="570" cy="345" r="14" fill="#050200"/>
  
  <!-- Wet Eye Catchlights -->
  <circle cx="432" cy="352" r="2.5" fill="#FFF"/>
  <circle cx="575" cy="336" r="6" fill="#FFF" filter="url(#glow)"/>
  <circle cx="563" cy="350" r="2.5" fill="#FFF" opacity="0.8"/>

  <!-- Heavy, Expressive Eyebrows -->
  <path d="M 370 340 Q 430 270 490 355" fill="none" stroke="#0a0503" stroke-width="16" stroke-linecap="round" filter="url(#lightShadow)"/>
  <path d="M 510 345 Q 580 240 640 325" fill="none" stroke="#0a0503" stroke-width="18" stroke-linecap="round" filter="url(#lightShadow)"/>

  <!-- Nose (Wet, Textured, Dog-like) -->
  <path d="M 445 405 C 445 370, 555 370, 555 405 C 555 420, 530 460, 500 460 C 470 460, 445 420, 445 405 Z" fill="#110a07"/>
  <!-- Nostrils -->
  <ellipse cx="470" cy="425" rx="14" ry="6" fill="#000" transform="rotate(-20, 470, 425)"/>
  <ellipse cx="530" cy="425" rx="14" ry="6" fill="#000" transform="rotate(20, 530, 425)"/>
  <path d="M 500 435 L 500 460" stroke="#000" stroke-width="4"/>
  <!-- Nose Wet Specular Highlights -->
  <path d="M 460 395 C 480 385, 520 385, 540 395 C 530 405, 470 405, 460 395 Z" fill="#FFF" opacity="0.3" filter="url(#blur)"/>
  <ellipse cx="480" cy="400" rx="12" ry="5" fill="#FFF" opacity="0.6" transform="rotate(-10, 480, 400)"/>
  <circle cx="525" cy="405" r="3" fill="#FFF" opacity="0.5"/>

  <!-- ================= THE DEGENERATE GRIN ================= -->
  
  <!-- Dark Mouth Cavity -->
  <path d="M 330 430 C 440 590, 560 590, 670 430 C 560 660, 440 660, 330 430 Z" fill="#050200"/>
  
  <!-- Back Gums/Tongue (Subtle Depth) -->
  <path d="M 410 520 C 470 590, 530 590, 590 520 C 530 560, 470 560, 410 520 Z" fill="#600b2a" opacity="0.9"/>
  <!-- Tongue Highlight -->
  <path d="M 450 540 C 480 560, 520 560, 550 540" fill="none" stroke="#D81B60" stroke-width="8" stroke-linecap="round" filter="url(#blur)"/>

  <!-- Upper Teeth (Thick, Carnivore, Discolored) -->
  <g fill="url(#teethGrad)" stroke="#211A16" stroke-width="2.5" stroke-linejoin="round">
    <path d="M 350 440 L 375 485 L 385 450 Z"/>
    <path d="M 385 450 L 410 505 L 420 460 Z"/>
    <path d="M 425 465 L 450 525 L 465 475 Z"/>
    <path d="M 470 480 L 495 545 L 515 480 Z"/> <!-- Massive Central Canines -->
    <path d="M 520 475 L 545 525 L 560 465 Z"/>
    <path d="M 565 460 L 590 505 L 605 450 Z"/>
    <path d="M 610 445 L 635 485 L 645 440 Z"/>
  </g>
  <!-- Upper Teeth Speculars -->
  <g fill="#FFF" opacity="0.4">
    <path d="M 488 510 L 493 535 L 498 510 Z"/>
    <path d="M 527 500 L 535 520 L 540 500 Z"/>
  </g>

  <!-- Lower Teeth -->
  <g fill="url(#teethGradLower)" stroke="#211A16" stroke-width="2.5" stroke-linejoin="round">
    <path d="M 400 520 L 415 485 L 425 525 Z"/>
    <path d="M 435 535 L 455 490 L 465 545 Z"/>
    <path d="M 475 555 L 495 510 L 510 555 Z"/>
    <path d="M 520 550 L 540 490 L 555 540 Z"/>
    <path d="M 565 530 L 580 485 L 590 520 Z"/>
  </g>
  <!-- Lower Teeth Speculars -->
  <g fill="#FFF" opacity="0.4">
    <path d="M 488 525 L 493 515 L 498 525 Z"/>
  </g>

  <!-- Lips / Grin outline -->
  <path d="M 330 430 C 440 590, 560 590, 670 430" fill="none" stroke="#1f110b" stroke-width="14" stroke-linecap="round" filter="url(#lightShadow)"/>
  <path d="M 330 430 C 440 590, 560 590, 670 430" fill="none" stroke="#4a2c20" stroke-width="6" stroke-linecap="round"/>

  <!-- Thick Saliva / Drool (Disgusting but highly detailed) -->
  <g fill="#E1F5FE" opacity="0.85">
    <path d="M 395 505 Q 405 560 395 585 Q 385 560 395 505 Z"/>
    <path d="M 615 455 Q 625 520 610 540 Q 600 520 615 455 Z"/>
    <path d="M 465 535 Q 475 580 480 610 Q 465 580 465 535 Z"/>
  </g>
  <!-- Spit string stretches between jaws -->
  <path d="M 450 515 Q 460 535 450 555" fill="none" stroke="#E1F5FE" stroke-width="3" opacity="0.9"/>
  <path d="M 545 510 Q 535 530 545 545" fill="none" stroke="#E1F5FE" stroke-width="2" opacity="0.7"/>
  <!-- Saliva Specular Highlights (Makes it look wet/glassy) -->
  <g fill="#FFF">
    <path d="M 393 515 L 397 545 L 395 515 Z"/>
    <path d="M 613 465 L 617 500 L 615 465 Z"/>
    <path d="M 470 545 L 474 580 L 472 545 Z"/>
    <circle cx="395" cy="590" r="2.5"/>
    <circle cx="480" cy="615" r="3"/>
  </g>

  <!-- Cigar in Mouth (Overlapping the grin) -->
  <g transform="translate(600, 465) rotate(-22)" filter="url(#shadow)">
    <!-- Main Body -->
    <rect x="-15" y="-14" width="110" height="28" rx="6" fill="#3E2723" stroke="#1A110C" stroke-width="2"/>
    <!-- Cylinder Highlight/Texture -->
    <rect x="-15" y="-12" width="110" height="8" rx="3" fill="#5D4037" opacity="0.6"/>
    <path d="M -10 -6 L 90 6 M -10 0 L 90 12 M 20 -14 L 40 14" stroke="#211A16" stroke-width="1.5" opacity="0.5"/>
    <!-- Cigar Band (Gold & Red) -->
    <rect x="20" y="-15" width="22" height="30" fill="#B71C1C" stroke="#1A110C" stroke-width="1"/>
    <rect x="22" y="-13" width="18" height="26" fill="none" stroke="#FFD54F" stroke-width="2"/>
    <circle cx="31" cy="0" r="5" fill="#FFC107"/>
    <!-- Ash (Textured) -->
    <path d="M 95 -13 L 120 -10 L 125 10 L 95 13 Z" fill="#9E9E9E" stroke="#424242" stroke-width="1.5"/>
    <path d="M 100 -12 L 105 12 M 110 -11 L 112 11 M 115 -10 L 114 10" stroke="#757575" stroke-width="2.5"/>
    <path d="M 120 -5 L 128 5" stroke="#E0E0E0" stroke-width="2"/>
    <!-- Glowing Ember -->
    <ellipse cx="123" cy="0" rx="8" ry="12" fill="url(#cigarGlow)" filter="url(#intenseGlow)"/>
    <ellipse cx="123" cy="0" rx="4" ry="7" fill="#FFF"/>
    <!-- Falling Ash -->
    <circle cx="120" cy="25" r="3" fill="#9E9E9E" opacity="0.8"/>
    <circle cx="125" cy="40" r="1.5" fill="#BDBDBD" opacity="0.6"/>
  </g>

  <!-- Thick Smoke from Cigar (Multiple Layers) -->
  <g filter="url(#smokeBlur)" opacity="0.75">
    <!-- Main thick plume -->
    <path d="M 720 440 Q 780 370 730 280 T 800 150 T 700 50" fill="none" stroke="#FFF" stroke-width="20" stroke-linecap="round"/>
    <path d="M 725 445 Q 790 380 740 290 T 810 160 T 710 60" fill="none" stroke="#B0BEC5" stroke-width="12" stroke-linecap="round"/>
    <!-- Secondary wisps -->
    <path d="M 710 430 Q 680 380 710 330 T 680 200 T 750 100" fill="none" stroke="#FFF" stroke-width="8" stroke-linecap="round" opacity="0.6"/>
    <path d="M 735 450 Q 820 400 780 300" fill="none" stroke="#E0E0E0" stroke-width="15" stroke-linecap="round" opacity="0.5"/>
  </g>


  <!-- ================= ACCESSORIES ================= -->

  <!-- Dealer Visor (Green Translucent Hat) -->
  <g filter="url(#shadow)">
    <!-- Brim Shadow / Back Edge -->
    <path d="M 280 290 C 370 410, 630 410, 720 290 C 630 350, 370 350, 280 290 Z" fill="#0A2A0D"/>
    <!-- Brim Front (Translucent plastic effect) -->
    <path d="M 260 270 C 370 410, 630 410, 740 270 C 630 320, 370 320, 260 270 Z" fill="#2E7D32" opacity="0.9" stroke="#1B5E20" stroke-width="3"/>
    <!-- Specular Highlight on Plastic Curve -->
    <path d="M 290 280 C 390 390, 610 390, 710 280 C 610 310, 390 310, 290 280 Z" fill="#FFF" opacity="0.35" filter="url(#blur)"/>
    <!-- Crisp White Rim Line -->
    <path d="M 260 270 C 370 410, 630 410, 740 270" fill="none" stroke="#FFF" stroke-width="5" opacity="0.8"/>
    <!-- Leather Head Strap -->
    <path d="M 245 260 C 320 200, 680 200, 755 260 L 740 270 C 670 215, 330 215, 260 270 Z" fill="#111" stroke="#000" stroke-width="2"/>
    <!-- Strap Adjuster / Rivets -->
    <rect x="270" y="230" width="18" height="30" rx="3" fill="#FFF" transform="rotate(-35, 270, 230)"/>
    <circle cx="278" cy="235" r="3" fill="#111" transform="rotate(-35, 270, 230)"/>
    <circle cx="278" cy="255" r="3" fill="#111" transform="rotate(-35, 270, 230)"/>
  </g>

  <!-- Visor Green Light Cast on Forehead (Multiplying over skin) -->
  <path d="M 310 310 C 420 385, 580 385, 690 310 C 600 270, 400 270, 310 310 Z" fill="#1B5E20" opacity="0.4" style="mix-blend-mode: multiply;" filter="url(#blur)"/>


  <!-- ================= THE POKER TABLE (MIDGROUND) ================= -->
  
  <!-- Outer Wooden Rail (Rich Mahogany) -->
  <ellipse cx="500" cy="850" rx="950" ry="360" fill="url(#woodRail)" stroke="#0a0502" stroke-width="45" filter="url(#shadow)"/>
  
  <!-- Rail Highlights & Leather Padding Edge -->
  <ellipse cx="500" cy="850" rx="950" ry="360" fill="none" stroke="url(#woodHighlight)" stroke-width="12" opacity="0.8"/>
  <ellipse cx="500" cy="850" rx="900" ry="310" fill="none" stroke="#211A16" stroke-width="15" opacity="0.9"/>
  <!-- Specular rim on inner edge -->
  <ellipse cx="500" cy="850" rx="895" ry="305" fill="none" stroke="#FFF" stroke-width="3" opacity="0.15"/>

  <!-- Vibrant Green Felt Surface -->
  <ellipse cx="500" cy="850" rx="885" ry="295" fill="url(#tableGlow)"/>
  <!-- Subtle Felt Texture Overlay (Using overlapping thin strokes) -->
  <ellipse cx="500" cy="850" rx="885" ry="295" fill="none" stroke="#000" stroke-width="2" opacity="0.2" filter="url(#blur)"/>

  <!-- Casino Table Inlay Lines (Gold) -->
  <ellipse cx="500" cy="850" rx="810" ry="245" fill="none" stroke="#FBC02D" stroke-width="5" opacity="0.8"/>
  <ellipse cx="500" cy="850" rx="790" ry="225" fill="none" stroke="#FBC02D" stroke-width="2" opacity="0.4"/>


  <!-- ================= TABLE PROPS ================= -->
  
  <!-- Table Cast Shadows (Ambient Occlusion) -->
  <ellipse cx="180" cy="690" rx="60" ry="20" fill="#000" opacity="0.6" filter="url(#blur)"/>
  <ellipse cx="370" cy="730" rx="100" ry="30" fill="#000" opacity="0.6" filter="url(#blur)"/>
  <ellipse cx="500" cy="710" rx="120" ry="25" fill="#000" opacity="0.4" filter="url(#blur)"/>
  <!-- Whiskey Glass Amber Caustic Shadow -->
  <ellipse cx="190" cy="695" rx="45" ry="15" fill="#E65100" opacity="0.4" filter="url(#blur)"/>

  <!-- Heavy Crystal Whiskey Glass -->
  <g transform="translate(130, 610)">
    <!-- Back Glass edge -->
    <path d="M 10 0 L 90 0 L 80 95 L 20 95 Z" fill="#FFF" opacity="0.05"/>
    <ellipse cx="50" cy="95" rx="30" ry="10" fill="#FFF" opacity="0.15"/>
    
    <!-- Rich Amber Liquid -->
    <path d="M 17 35 L 83 35 L 75 90 L 25 90 Z" fill="url(#whiskeyGrad)" opacity="0.95"/>
    <!-- Liquid Meniscus / Top Surface -->
    <ellipse cx="50" cy="35" rx="33" ry="10" fill="#FFCA28" opacity="0.9"/>
    <ellipse cx="50" cy="35" rx="30" ry="8" fill="#FF8F00" opacity="0.5"/>
    <path d="M 17 35 Q 50 45 83 35" fill="none" stroke="#FFF" stroke-width="1.5" opacity="0.6"/>

    <!-- Realistic Ice Cubes (Submerged & Floating) -->
    <g opacity="0.8" stroke="#FFF" stroke-width="1">
      <!-- Cube 1 (Bottom) -->
      <rect x="25" y="55" width="28" height="28" rx="4" fill="#E0F7FA" transform="rotate(15, 39, 69)" opacity="0.6"/>
      <path d="M 29 60 L 45 65" stroke-width="2"/>
      <!-- Cube 2 (Floating, breaking surface) -->
      <rect x="45" y="25" width="26" height="26" rx="4" fill="#B2EBF2" transform="rotate(-25, 58, 38)"/>
      <path d="M 48 30 L 62 25" stroke-width="2"/>
      <path d="M 52 28 L 56 45" stroke-width="1.5"/>
    </g>

    <!-- Front Glass & Sharp Reflections -->
    <path d="M 10 0 L 90 0 L 80 95 L 20 95 Z" fill="none" stroke="#FFF" stroke-width="4" opacity="0.5" stroke-linejoin="round"/>
    <ellipse cx="50" cy="0" rx="40" ry="12" fill="none" stroke="#FFF" stroke-width="4" opacity="0.8"/>
    <!-- Heavy Base Glass -->
    <path d="M 20 95 L 80 95 L 77 110 L 23 110 Z" fill="#FFF" opacity="0.2"/>
    <ellipse cx="50" cy="110" rx="27" ry="8" fill="none" stroke="#FFF" stroke-width="3" opacity="0.6"/>
    
    <!-- Crisp White Specular Glare -->
    <path d="M 15 15 L 25 90" stroke="#FFF" stroke-width="5" stroke-linecap="round" opacity="0.9"/>
    <path d="M 85 15 L 77 75" stroke="#FFF" stroke-width="1.5" stroke-linecap="round" opacity="0.6"/>
  </g>

  <!-- Chips Stacks (Massive, Messy, High Stakes) -->
  <g filter="url(#shadow)">
    <!-- Back Red Stack -->
    <g style="color: #C62828" transform="translate(320, 700)">
      <use href="#chip" y="0"/> <use href="#chip" y="-12"/> <use href="#chip" y="-24"/>
      <use href="#chip" y="-36"/> <use href="#chip" y="-48"/> <use href="#chip" y="-60"/>
      <use href="#chip" y="-72"/> <use href="#chip" y="-84" transform="rotate(15, 0, -84)"/>
    </g>
    <!-- Blue Stack (Tilted) -->
    <g style="color: #1565C0" transform="translate(250, 725) rotate(-6)">
      <use href="#chip" y="0"/> <use href="#chip" y="-12"/> <use href="#chip" y="-24"/>
      <use href="#chip" y="-36"/> <use href="#chip" y="-48"/>
    </g>
    <!-- Black/Gold High Value Stack -->
    <g style="color: #FFC107" transform="translate(400, 730)">
      <use href="#chip" y="0"/> <use href="#chip" y="-12"/> <use href="#chip" y="-24"/>
      <use href="#chip" y="-36" transform="translate(4, 0)"/>
    </g>
    <!-- Scattered / Guarded Chips -->
    <use href="#chip" x="370" y="750" style="color: #2E7D32" transform="rotate(-20, 370, 750)"/>
    <use href="#chip" x="440" y="745" style="color: #C62828" transform="rotate(25, 440, 745)"/>
    <use href="#chip" x="290" y="760" style="color: #1565C0" transform="rotate(10, 290, 760)"/>
    <use href="#chip" x="350" y="765" style="color: #FFC107" transform="rotate(-5, 350, 765)"/>
    
    <!-- Falling Chips (Dynamic motion) -->
    <use href="#chip" x="430" y="660" style="color: #2E7D32" transform="rotate(40, 430, 660)" filter="url(#blur)"/>
    <use href="#chip" x="270" y="630" style="color: #C62828" transform="rotate(-30, 270, 630)" filter="url(#lightShadow)"/>
  </g>

  <!-- Spiked Collar (Now in Midground to overlap body but be under hands) -->
  <g filter="url(#shadow)">
    <!-- Leather Band -->
    <path d="M 300 550 Q 500 660 700 550 L 720 595 Q 500 710 280 595 Z" fill="#110a07"/>
    <!-- Collar Edge / Stitching -->
    <path d="M 290 565 Q 500 680 710 565" fill="none" stroke="#3E2723" stroke-width="4"/>
    <path d="M 290 565 Q 500 680 710 565" fill="none" stroke="#000" stroke-width="1" stroke-dasharray="6 4"/>
    
    <!-- Massive Metal Spikes (Polished, sharp) -->
    <g stroke="#000" stroke-width="1.5">
      <polygon points="340,580 335,650 365,588" fill="url(#metalSpike)"/>
      <polygon points="410,605 420,685 440,615" fill="url(#metalSpike)"/>
      <polygon points="490,620 500,705 520,620" fill="url(#metalSpike)"/>
      <polygon points="570,615 590,685 600,605" fill="url(#metalSpike)"/>
      <polygon points="645,588 675,650 670,580" fill="url(#metalSpike)"/>
    </g>
    <!-- Spike bases / Rings -->
    <ellipse cx="352" cy="584" rx="15" ry="6" fill="#424242" transform="rotate(-15, 352, 584)"/>
    <ellipse cx="425" cy="610" rx="16" ry="7" fill="#424242" transform="rotate(-5, 425, 610)"/>
    <ellipse cx="505" cy="620" rx="18" ry="7" fill="#424242"/>
    <ellipse cx="585" cy="610" rx="16" ry="7" fill="#424242" transform="rotate(5, 585, 610)"/>
    <ellipse cx="658" cy="584" rx="15" ry="6" fill="#424242" transform="rotate(15, 658, 584)"/>
  </g>

  <!-- Left Arm & Paw (Guarding the pot, articulated fingers) -->
  <g filter="url(#shadow)">
    <!-- Arm coming from offscreen -->
    <path d="M -50 950 C 0 780, 150 720, 270 780 L 120 950 Z" fill="#4E342E"/>
    <!-- Fur rim light -->
    <path d="M 150 720 C 200 735, 240 755, 270 780" fill="none" stroke="#FFC107" stroke-width="4" opacity="0.3" filter="url(#glow)"/>
    
    <!-- Back of hand / Knuckles -->
    <path d="M 230 760 Q 280 750 300 780 Q 320 810 270 830 Q 220 810 230 760 Z" fill="#3D2B24"/>
    
    <!-- Articulated Fingers (Wrapping over chips) -->
    <g fill="#211A16" stroke="#0a0502" stroke-width="3">
      <!-- Index Finger -->
      <path d="M 290 770 Q 330 750 350 775 Q 360 790 330 805 Q 300 790 290 770 Z"/>
      <!-- Middle Finger -->
      <path d="M 275 785 Q 320 770 335 800 Q 340 820 310 825 Q 280 810 275 785 Z"/>
      <!-- Ring Finger -->
      <path d="M 255 800 Q 295 790 305 825 Q 305 845 275 845 Q 250 825 255 800 Z"/>
    </g>
    <!-- Knuckle highlights -->
    <circle cx="285" cy="780" r="5" fill="#FFF" opacity="0.1"/>
    <circle cx="270" cy="795" r="5" fill="#FFF" opacity="0.1"/>
    <circle cx="250" cy="810" r="5" fill="#FFF" opacity="0.1"/>

    <!-- Razor Sharp Claws gripping -->
    <g fill="#0a0502">
      <path d="M 345 780 L 380 790 L 340 800 Z"/>
      <path d="M 330 810 L 360 830 L 320 825 Z"/>
      <path d="M 300 835 L 320 865 L 285 845 Z"/>
    </g>
    <!-- Claw Specular Glints -->
    <path d="M 348 784 L 375 790" stroke="#FFF" stroke-width="1.5" opacity="0.6"/>
    <path d="M 330 814 L 355 828" stroke="#FFF" stroke-width="1.5" opacity="0.6"/>
  </g>

  <!-- Community Cards (The Flop - A♠ K♠ K♦) -->
  <g transform="translate(520, 680) scale(1, 0.7) skewX(-40) rotate(-15)" filter="url(#shadow)">
    <!-- Card 1 (A♠) -->
    <g transform="translate(-130, -5) rotate(-8)">
      <use href="#flop-card"/>
      <text x="10" y="26" fill="#111" font-family="Arial Black, Impact, sans-serif" font-weight="900" font-size="24">A</text>
      <text x="13" y="46" fill="#111" font-family="Arial, sans-serif" font-size="20">♠</text>
      <text x="32" y="70" fill="#111" font-family="Arial, sans-serif" font-size="44" text-anchor="middle">♠</text>
    </g>
    <!-- Card 2 (K♠) -->
    <g transform="translate(-50, 5) rotate(2)">
      <use href="#flop-card"/>
      <text x="10" y="26" fill="#111" font-family="Arial Black, Impact, sans-serif" font-weight="900" font-size="24">K</text>
      <text x="12" y="46" fill="#111" font-family="Arial, sans-serif" font-size="20">♠</text>
      <text x="32" y="70" fill="#111" font-family="Arial, sans-serif" font-size="44" text-anchor="middle">♠</text>
    </g>
    <!-- Card 3 (K♦) -->
    <g transform="translate(30, -5) rotate(12)">
      <use href="#flop-card"/>
      <text x="10" y="26" fill="#D32F2F" font-family="Arial Black, Impact, sans-serif" font-weight="900" font-size="24">K</text>
      <text x="12" y="46" fill="#D32F2F" font-family="Arial, sans-serif" font-size="20">♦</text>
      <text x="32" y="70" fill="#D32F2F" font-family="Arial, sans-serif" font-size="44" text-anchor="middle">♦</text>
    </g>
  </g>


  <!-- ================= FOREGROUND (RIGHT PAW & WINNING HAND) ================= -->
  
  <!-- Right Arm coming up -->
  <path d="M 1050 950 C 1000 720, 850 630, 680 740 L 760 950 Z" fill="#4E342E" filter="url(#shadow)"/>
  
  <!-- Right Arm Fur Spots -->
  <g fill="#211A16" opacity="0.8">
    <path d="M 850 780 Q 870 770 880 790 Q 860 800 850 780 Z"/>
    <path d="M 800 840 Q 820 820 830 850 Q 810 870 800 840 Z"/>
    <path d="M 910 860 Q 940 850 930 880 Q 900 890 910 860 Z"/>
  </g>

  <!-- The Royal Flush (Hearts) -->
  <g id="winning-hand" filter="url(#shadow)">
    <!-- 10 of Hearts -->
    <g transform="translate(560, 620) rotate(-26)">
      <rect width="75" height="115" rx="6" fill="url(#cardGrad)" stroke="#BCAAA4" stroke-width="1"/>
      <rect x="3" y="3" width="69" height="109" rx="4" fill="none" stroke="#EFEBE9" stroke-width="1"/>
      <text x="7" y="26" fill="#D32F2F" font-family="Arial Black, Impact, sans-serif" font-weight="900" font-size="24" letter-spacing="-2">10</text>
      <text x="21" y="48" fill="#D32F2F" font-family="Arial, sans-serif" font-size="22" text-anchor="middle">♥</text>
      <text x="37" y="85" fill="#D32F2F" font-family="Arial, sans-serif" font-size="52" text-anchor="middle">♥</text>
    </g>
    <!-- Jack of Hearts -->
    <g transform="translate(615, 580) rotate(-14)">
      <rect width="75" height="115" rx="6" fill="url(#cardGrad)" stroke="#BCAAA4" stroke-width="1" filter="url(#lightShadow)"/>
      <rect x="3" y="3" width="69" height="109" rx="4" fill="none" stroke="#EFEBE9" stroke-width="1"/>
      <text x="10" y="26" fill="#D32F2F" font-family="Arial Black, Impact, sans-serif" font-weight="900" font-size="24">J</text>
      <text x="18" y="48" fill="#D32F2F" font-family="Arial, sans-serif" font-size="22" text-anchor="middle">♥</text>
      <text x="37" y="85" fill="#D32F2F" font-family="Arial, sans-serif" font-size="52" text-anchor="middle">♥</text>
    </g>
    <!-- Queen of Hearts -->
    <g transform="translate(675, 560) rotate(-2)">
      <rect width="75" height="115" rx="6" fill="url(#cardGrad)" stroke="#BCAAA4" stroke-width="1" filter="url(#lightShadow)"/>
      <rect x="3" y="3" width="69" height="109" rx="4" fill="none" stroke="#EFEBE9" stroke-width="1"/>
      <text x="10" y="26" fill="#D32F2F" font-family="Arial Black, Impact, sans-serif" font-weight="900" font-size="24">Q</text>
      <text x="18" y="48" fill="#D32F2F" font-family="Arial, sans-serif" font-size="22" text-anchor="middle">♥</text>
      <text x="37" y="85" fill="#D32F2F" font-family="Arial, sans-serif" font-size="52" text-anchor="middle">♥</text>
    </g>
    <!-- King of Hearts -->
    <g transform="translate(735, 565) rotate(10)">
      <rect width="75" height="115" rx="6" fill="url(#cardGrad)" stroke="#BCAAA4" stroke-width="1" filter="url(#lightShadow)"/>
      <rect x="3" y="3" width="69" height="109" rx="4" fill="none" stroke="#EFEBE9" stroke-width="1"/>
      <text x="10" y="26" fill="#D32F2F" font-family="Arial Black, Impact, sans-serif" font-weight="900" font-size="24">K</text>
      <text x="18" y="48" fill="#D32F2F" font-family="Arial, sans-serif" font-size="22" text-anchor="middle">♥</text>
      <text x="37" y="85" fill="#D32F2F" font-family="Arial, sans-serif" font-size="52" text-anchor="middle">♥</text>
    </g>
    <!-- Ace of Hearts -->
    <g transform="translate(790, 590) rotate(22)">
      <rect width="75" height="115" rx="6" fill="url(#cardGrad)" stroke="#BCAAA4" stroke-width="1" filter="url(#lightShadow)"/>
      <rect x="3" y="3" width="69" height="109" rx="4" fill="none" stroke="#EFEBE9" stroke-width="1"/>
      <text x="10" y="26" fill="#D32F2F" font-family="Arial Black, Impact, sans-serif" font-weight="900" font-size="24">A</text>
      <text x="18" y="48" fill="#D32F2F" font-family="Arial, sans-serif" font-size="22" text-anchor="middle">♥</text>
      <text x="37" y="85" fill="#D32F2F" font-family="Arial, sans-serif" font-size="52" text-anchor="middle">♥</text>
    </g>
  </g>

  <!-- Right Paw Covering and Gripping the Cards -->
  <g filter="url(#shadow)">
    <!-- Base Hand / Palm showing slightly behind -->
    <path d="M 570 850 C 560 720, 690 680, 880 750 L 930 860 Z" fill="#3D2B24"/>
    
    <!-- Articulated Fingers Wrapping Behind Cards -->
    <g fill="#211A16" stroke="#0a0502" stroke-width="3">
      <!-- Pinky -->
      <path d="M 570 690 Q 590 660 620 680 Q 640 700 620 730 Z"/>
      <!-- Ring -->
      <path d="M 630 660 Q 660 630 690 650 Q 710 680 680 710 Z"/>
      <!-- Middle -->
      <path d="M 700 640 Q 730 610 760 640 Q 780 670 750 700 Z"/>
      <!-- Index -->
      <path d="M 780 650 Q 810 620 840 650 Q 860 680 830 710 Z"/>
    </g>

    <!-- Finger Claws piercing over the top of the cards -->
    <g fill="#0a0502">
      <!-- Pinky Claw -->
      <path d="M 590 675 L 565 640 L 605 655 Z"/>
      <!-- Ring Claw -->
      <path d="M 660 645 L 650 600 L 685 630 Z"/>
      <!-- Middle Claw -->
      <path d="M 730 635 L 735 590 L 760 625 Z"/>
      <!-- Index Claw -->
      <path d="M 810 645 L 830 600 L 845 640 Z"/>
    </g>
    <!-- Claw Glints -->
    <path d="M 575 645 L 595 665 M 655 608 L 675 635 M 740 600 L 755 625 M 832 608 L 842 638" stroke="#FFF" stroke-width="1.5" opacity="0.6"/>

    <!-- The Big Thumb firmly pressing the front card -->
    <path d="M 670 800 C 640 740, 700 700, 760 720 C 810 735, 830 780, 790 820 C 750 860, 690 840, 670 800 Z" fill="#4E342E" stroke="#1A110C" stroke-width="4"/>
    <path d="M 680 780 C 670 740, 720 720, 750 735" fill="none" stroke="#FFC107" stroke-width="3" opacity="0.3" filter="url(#glow)"/>
    
    <!-- Thumb Knuckle Details -->
    <path d="M 720 730 Q 740 740 730 770" fill="none" stroke="#211A16" stroke-width="3"/>
    <circle cx="750" cy="740" r="6" fill="#FFF" opacity="0.1"/>

    <!-- Massive Thumb Claw -->
    <path d="M 700 725 L 650 680 L 680 745 Z" fill="#0a0502"/>
    <!-- Thumb Claw Specular -->
    <path d="M 662 688 L 688 730" stroke="#FFF" stroke-width="2" opacity="0.8"/>
  </g>

  <!-- ================= FOREGROUND LIGHTING / FX ================= -->
  
  <!-- Floating Dust Particles (Illuminated by spotlight) -->
  <g fill="#FFF" filter="url(#glow)">
    <circle cx="320" cy="380" r="3.5" opacity="0.5"/>
    <circle cx="350" cy="430" r="2" opacity="0.3"/>
    <circle cx="660" cy="270" r="4" opacity="0.4"/>
    <circle cx="680" cy="220" r="2.5" opacity="0.6"/>
    <circle cx="210" cy="580" r="3" opacity="0.3"/>
    <circle cx="780" cy="460" r="3.5" opacity="0.4"/>
    <circle cx="480" cy="240" r="2" opacity="0.5"/>
    <circle cx="550" cy="180" r="4" opacity="0.2"/>
    <circle cx="850" cy="350" r="2.5" opacity="0.3"/>
    <circle cx="400" cy="150" r="3" opacity="0.4"/>
  </g>

  <!-- Intense Dark Vignette (Frames the composition and forces focus) -->
  <rect width="1000" height="800" fill="url(#vignette)" style="mix-blend-mode: multiply;" pointer-events="none"/>

</svg>