<svg xmlns="http://www.w3.org/2000/svg" viewBox="0 0 1000 800" width="100%" height="100%" style="background-color: #080305;">
  <defs>
    <!-- Background Wallpaper -->
    <pattern id="wallpaper" width="160" height="160" patternUnits="userSpaceOnUse" patternTransform="rotate(15)">
      <rect width="160" height="160" fill="#0c0406"/>
      <path d="M 80 0 L 80 160 M 0 80 L 160 80" stroke="#140609" stroke-width="30"/>
      <path d="M 0 0 L 160 160 M 160 0 L 0 160" stroke="#1c090e" stroke-width="4" opacity="0.5"/>
      <circle cx="80" cy="80" r="55" fill="none" stroke="#140609" stroke-width="8"/>
      <circle cx="80" cy="80" r="40" fill="none" stroke="#1c090e" stroke-width="2" opacity="0.6"/>
      <path d="M 80 10 L 90 25 L 80 40 L 70 25 Z M 80 120 L 90 135 L 80 150 L 70 135 Z M 10 80 L 25 70 L 40 80 L 25 90 Z M 120 80 L 135 70 L 150 80 L 135 90 Z" fill="#140609"/>
    </pattern>

    <!-- Gradients -->
    <radialGradient id="vignette" cx="50%" cy="50%" r="75%">
      <stop offset="40%" stop-color="#000" stop-opacity="0"/>
      <stop offset="85%" stop-color="#050200" stop-opacity="0.85"/>
      <stop offset="100%" stop-color="#000" stop-opacity="0.98"/>
    </radialGradient>
    
    <radialGradient id="tableGlow" cx="50%" cy="850" r="550" gradientUnits="userSpaceOnUse">
      <stop offset="0%" stop-color="#4CAF50"/>
      <stop offset="25%" stop-color="#2E7D32"/>
      <stop offset="60%" stop-color="#1B5E20"/>
      <stop offset="85%" stop-color="#0A2A0D"/>
      <stop offset="100%" stop-color="#020a03"/>
    </radialGradient>

    <radialGradient id="royalFlushGlow" cx="700" cy="650" r="250" gradientUnits="userSpaceOnUse">
      <stop offset="0%" stop-color="#FFD54F" stop-opacity="0.4"/>
      <stop offset="50%" stop-color="#FF8F00" stop-opacity="0.1"/>
      <stop offset="100%" stop-color="#FFD54F" stop-opacity="0"/>
    </radialGradient>

    <linearGradient id="woodRail" x1="0" y1="0" x2="0" y2="1">
      <stop offset="0%" stop-color="#8D6E63"/>
      <stop offset="8%" stop-color="#5D4037"/>
      <stop offset="20%" stop-color="#3E2723"/>
      <stop offset="70%" stop-color="#1A110C"/>
      <stop offset="100%" stop-color="#000000"/>
    </linearGradient>

    <linearGradient id="woodHighlight" x1="0" y1="0" x2="0" y2="1">
      <stop offset="0%" stop-color="#FFECB3" stop-opacity="0.8"/>
      <stop offset="15%" stop-color="#FFCA28" stop-opacity="0.2"/>
      <stop offset="100%" stop-color="#FFD54F" stop-opacity="0"/>
    </linearGradient>

    <linearGradient id="cardGrad" x1="0%" y1="0%" x2="100%" y2="100%">
      <stop offset="0%" stop-color="#FFFFFF"/>
      <stop offset="40%" stop-color="#FAFAFA"/>
      <stop offset="80%" stop-color="#E0E0E0"/>
      <stop offset="100%" stop-color="#BDBDBD"/>
    </linearGradient>

    <linearGradient id="metalSpike" x1="0%" y1="0%" x2="100%" y2="100%">
      <stop offset="0%" stop-color="#FFFFFF"/>
      <stop offset="20%" stop-color="#CFD8DC"/>
      <stop offset="45%" stop-color="#78909C"/>
      <stop offset="75%" stop-color="#37474F"/>
      <stop offset="100%" stop-color="#11171a"/>
    </linearGradient>
    
    <linearGradient id="goldFoil" x1="0%" y1="100%" x2="100%" y2="0%">
      <stop offset="0%" stop-color="#FF8F00"/>
      <stop offset="30%" stop-color="#FFD54F"/>
      <stop offset="50%" stop-color="#FFF8E1"/>
      <stop offset="70%" stop-color="#FFC107"/>
      <stop offset="100%" stop-color="#FF6F00"/>
    </linearGradient>

    <radialGradient id="cigarGlow" cx="50%" cy="50%" r="50%">
      <stop offset="0%" stop-color="#FFFFFF"/>
      <stop offset="15%" stop-color="#FFF59D"/>
      <stop offset="40%" stop-color="#FF3D00"/>
      <stop offset="70%" stop-color="#B71C1C"/>
      <stop offset="100%" stop-color="#212121" stop-opacity="0"/>
    </radialGradient>

    <radialGradient id="eyeSclera" cx="50%" cy="50%" r="50%">
      <stop offset="0%" stop-color="#FFFDE7"/>
      <stop offset="60%" stop-color="#FFECB3"/>
      <stop offset="90%" stop-color="#E53935"/>
      <stop offset="100%" stop-color="#8E0000"/>
    </radialGradient>

    <radialGradient id="eyeIris" cx="50%" cy="50%" r="50%">
      <stop offset="0%" stop-color="#FFD54F"/>
      <stop offset="30%" stop-color="#F57F17"/>
      <stop offset="70%" stop-color="#D84315"/>
      <stop offset="100%" stop-color="#3E2723"/>
    </radialGradient>

    <linearGradient id="teethGrad" x1="0%" y1="0%" x2="0%" y2="100%">
      <stop offset="0%" stop-color="#3E2723"/>
      <stop offset="25%" stop-color="#FBC02D"/>
      <stop offset="50%" stop-color="#FFF9C4"/>
      <stop offset="90%" stop-color="#FFFFFF"/>
      <stop offset="100%" stop-color="#E0E0E0"/>
    </linearGradient>
    
    <linearGradient id="teethGradLower" x1="0%" y1="100%" x2="0%" y2="0%">
      <stop offset="0%" stop-color="#3E2723"/>
      <stop offset="25%" stop-color="#FBC02D"/>
      <stop offset="50%" stop-color="#FFF9C4"/>
      <stop offset="90%" stop-color="#FFFFFF"/>
      <stop offset="100%" stop-color="#E0E0E0"/>
    </linearGradient>

    <linearGradient id="whiskeyGrad" x1="0%" y1="0%" x2="0%" y2="100%">
      <stop offset="0%" stop-color="#FFCA28"/>
      <stop offset="35%" stop-color="#FF8F00"/>
      <stop offset="70%" stop-color="#D84315"/>
      <stop offset="100%" stop-color="#3E2723"/>
    </linearGradient>

    <linearGradient id="droolGrad" x1="0%" y1="0%" x2="0%" y2="100%">
      <stop offset="0%" stop-color="#FFFFFF" stop-opacity="0.9"/>
      <stop offset="40%" stop-color="#E1F5FE" stop-opacity="0.6"/>
      <stop offset="100%" stop-color="#81D4FA" stop-opacity="0.1"/>
    </linearGradient>

    <linearGradient id="clawGrad" x1="0%" y1="0%" x2="100%" y2="100%">
      <stop offset="0%" stop-color="#3E2723"/>
      <stop offset="40%" stop-color="#1A110C"/>
      <stop offset="100%" stop-color="#0a0502"/>
    </linearGradient>

    <!-- Filters -->
    <filter id="shadow" x="-30%" y="-30%" width="160%" height="160%">
      <feDropShadow dx="0" dy="16" stdDeviation="12" flood-color="#000" flood-opacity="0.85"/>
    </filter>
    
    <filter id="lightShadow" x="-20%" y="-20%" width="140%" height="140%">
      <feDropShadow dx="3" dy="8" stdDeviation="6" flood-color="#000" flood-opacity="0.7"/>
    </filter>
    
    <filter id="blur" x="-50%" y="-50%" width="200%" height="200%">
      <feGaussianBlur stdDeviation="8"/>
    </filter>
    
    <filter id="glow" x="-50%" y="-50%" width="200%" height="200%">
      <feGaussianBlur stdDeviation="6" result="blur"/>
      <feComposite in="SourceGraphic" in2="blur" operator="over"/>
    </filter>

    <filter id="intenseGlow" x="-50%" y="-50%" width="200%" height="200%">
      <feGaussianBlur stdDeviation="12" result="blur"/>
      <feComponentTransfer in="blur" result="glow">
        <feFuncA type="linear" slope="2.5"/>
      </feComponentTransfer>
      <feComposite in="SourceGraphic" in2="glow" operator="over"/>
    </filter>

    <filter id="smokeBlur" x="-50%" y="-50%" width="200%" height="200%">
      <feGaussianBlur stdDeviation="20"/>
    </filter>

    <!-- Reusable Components -->
    <g id="chip">
      <!-- Shadow and 3D base -->
      <ellipse cx="0" cy="0" rx="35" ry="14" fill="#050505"/>
      <path d="M -35 0 L -35 -7 C -35 -14, -19 -21, 0 -21 C 19 -21, 35 -14, 35 -7 L 35 0 Z" fill="#1a1a1a"/>
      <!-- Main Top Face -->
      <ellipse cx="0" cy="-7" rx="35" ry="14" fill="currentColor"/>
      <!-- Casino Edge Marks -->
      <g stroke="#FFF" stroke-width="4.5" stroke-linecap="round" opacity="0.95">
        <path d="M -22 -7 L -33 -7 M 22 -7 L 33 -7"/>
        <path d="M -11 -17 L -16 -20 M 11 -17 L 16 -20"/>
        <path d="M -11 3 L -16 6 M 11 3 L 16 6"/>
      </g>
      <!-- Gold Inner Foil -->
      <ellipse cx="0" cy="-7" rx="20" ry="8" fill="none" stroke="url(#goldFoil)" stroke-width="2.5" opacity="0.8"/>
      <ellipse cx="0" cy="-7" rx="14" ry="5.5" fill="#111" opacity="0.4"/>
      <!-- Inner Star -->
      <polygon points="0,-10 2,-8 5,-8 3,-5 4,-2 0,-4 -4,-2 -3,-5 -5,-8 -2,-8" fill="url(#goldFoil)" opacity="0.9"/>
      <!-- Glossy highlight -->
      <path d="M -25 -9 C -10 -16, 10 -16, 25 -9" fill="none" stroke="#FFF" stroke-width="2" opacity="0.5" filter="url(#glow)"/>
    </g>

    <g id="flop-card">
      <rect width="65" height="95" rx="5" fill="url(#cardGrad)" stroke="#9E9E9E" stroke-width="1" filter="url(#lightShadow)"/>
      <rect x="3" y="3" width="59" height="89" rx="3" fill="none" stroke="#E0E0E0" stroke-width="1.5"/>
      <!-- Center elegant geometric diamond -->
      <path d="M 32.5 25 L 45 47.5 L 32.5 70 L 20 47.5 Z" fill="#F5F5F5" stroke="#E0E0E0" stroke-width="1"/>
    </g>
    
    <g id="court-bg">
      <rect x="18" y="18" width="39" height="79" fill="none" stroke="#EF5350" stroke-width="1" opacity="0.2"/>
      <path d="M 18 18 L 57 97 M 57 18 L 18 97" stroke="#EF5350" stroke-width="1" opacity="0.1"/>
      <circle cx="37.5" cy="57.5" r="15" fill="#EF5350" opacity="0.05"/>
    </g>
  </defs>

  <!-- ================= BACKGROUND & ATMOSPHERE ================= -->
  <rect width="1000" height="800" fill="url(#wallpaper)"/>
  
  <!-- Thick Background Smoke (Layer 1) -->
  <g filter="url(#smokeBlur)" opacity="0.6">
    <path d="M -50 300 Q 200 50 450 350 T 1100 150" fill="none" stroke="#FFF" stroke-width="120" opacity="0.03"/>
    <path d="M -100 600 Q 300 300 700 700 T 1200 400" fill="none" stroke="#81D4FA" stroke-width="150" opacity="0.02"/>
    <path d="M 400 800 Q 600 400 900 600 T 1100 100" fill="none" stroke="#FFCA28" stroke-width="100" opacity="0.02"/>
  </g>

  <!-- Dramatic Lighting (Cinematic Orange/Teal) -->
  <!-- Top Warm Spotlight -->
  <polygon points="400,-50 600,-50 1000,900 0,900" fill="#FFC107" opacity="0.04" style="mix-blend-mode: color-dodge;"/>
  <polygon points="450,-50 550,-50 800,900 200,900" fill="#FFF" opacity="0.03" style="mix-blend-mode: overlay;"/>
  <!-- Left Cyan Rim Source -->
  <circle cx="-100" cy="400" r="600" fill="#00E5FF" opacity="0.05" filter="url(#smokeBlur)"/>
  <!-- Top Glow -->
  <circle cx="500" cy="-50" r="500" fill="#FFC107" opacity="0.08" filter="url(#smokeBlur)"/>

  <!-- ================= HYENA CHARACTER (BACK/BODY) ================= -->
  
  <!-- Massive Shoulders & Torso -->
  <path d="M 230 850 C 180 580, 340 450, 500 450 C 660 450, 820 580, 770 850 Z" fill="#2D1B14"/>
  <path d="M 320 850 C 310 630, 410 540, 500 540 C 590 540, 690 630, 680 850 Z" fill="#8D6E63" opacity="0.6"/>
  
  <!-- Left Cyan Rim Light on Body -->
  <path d="M 230 850 C 180 580, 340 450, 500 450" fill="none" stroke="#00E5FF" stroke-width="10" opacity="0.3" filter="url(#glow)"/>
  <path d="M 230 850 C 180 580, 340 450, 400 450" fill="none" stroke="#B2EBF2" stroke-width="3" opacity="0.5"/>

  <!-- Body Fur Texture / Dark spots -->
  <g fill="#140A06" opacity="0.7">
    <path d="M 270 600 Q 300 640 275 670 Q 240 620 270 600 Z"/>
    <path d="M 240 700 Q 285 730 255 770 Q 210 730 240 700 Z"/>
    <path d="M 730 610 Q 690 650 715 680 Q 760 630 730 610 Z"/>
    <path d="M 760 710 Q 710 740 735 780 Q 790 740 760 710 Z"/>
    <path d="M 300 750 Q 340 780 310 810 Q 280 770 300 750 Z"/>
    <path d="M 690 750 Q 650 780 680 810 Q 710 770 690 750 Z"/>
  </g>

  <!-- Back Mane (Wild, ragged, catching the backlight) -->
  <g filter="url(#lightShadow)">
    <path d="M 450 300 L 380 230 L 460 200 L 390 100 L 490 160 L 480 40 L 540 140 L 610 30 L 580 150 L 670 90 L 610 200 L 690 220 L 590 270 L 640 330 Z" fill="#140A06"/>
    <!-- Mane highlights (Rim Light from above right) -->
    <path d="M 480 40 L 540 140 L 610 30 L 580 150 L 670 90 L 610 200 L 690 220 L 590 270 L 640 330" fill="none" stroke="#FFC107" stroke-width="6" opacity="0.25" filter="url(#glow)"/>
    <path d="M 610 30 L 580 150 L 670 90 L 610 200 L 690 220 L 640 210" fill="none" stroke="#FFE082" stroke-width="2" opacity="0.6"/>
    <!-- Cyan Rim on Left Mane -->
    <path d="M 450 300 L 380 230 L 460 200 L 390 100 L 490 160 L 480 40" fill="none" stroke="#00E5FF" stroke-width="4" opacity="0.4" filter="url(#glow)"/>
  </g>

  <!-- Left Ear (Ragged, rounded hyena shape, Cyan rimmed) -->
  <g filter="url(#lightShadow)">
    <path d="M 390 310 C 290 150, 210 220, 260 390 C 280 430, 340 390, 390 330 Z" fill="#4E342E" stroke="#140A06" stroke-width="4"/>
    <path d="M 370 310 C 310 200, 260 240, 290 370 Z" fill="#2D1B14"/>
    <path d="M 360 300 C 320 230, 280 250, 305 350 Z" fill="#795548" opacity="0.6"/>
    <!-- Left Ear Cyan Rim -->
    <path d="M 390 310 C 290 150, 210 220, 260 390" fill="none" stroke="#00E5FF" stroke-width="6" opacity="0.4" filter="url(#glow)"/>
    <path d="M 310 200 C 250 230, 260 320, 260 390" fill="none" stroke="#B2EBF2" stroke-width="2" opacity="0.6"/>
  </g>
  
  <!-- Right Ear (Torn, pierced, heavily backlit warm) -->
  <g filter="url(#lightShadow)">
    <path d="M 610 310 C 710 150, 790 220, 740 390 C 720 430, 660 390, 610 330 Z" fill="#4E342E" stroke="#140A06" stroke-width="4"/>
    <!-- Subsurface scattering on ear -->
    <path d="M 610 310 C 710 150, 790 220, 740 390 C 720 430, 660 390, 610 330 Z" fill="#D84315" opacity="0.4" filter="url(#blur)"/>
    <path d="M 630 310 C 690 200, 740 240, 710 370 Z" fill="#2D1B14"/>
    <path d="M 640 300 C 680 230, 720 250, 695 350 Z" fill="#795548" opacity="0.6"/>
    <!-- Right Ear Warm Rim -->
    <path d="M 610 310 C 710 150, 790 220, 740 390" fill="none" stroke="#FFC107" stroke-width="6" opacity="0.4" filter="url(#glow)"/>
    <!-- Ear Tear -->
    <path d="M 762 260 L 690 300 L 730 330 Z" fill="#080305"/> 
    <path d="M 690 300 L 730 330" stroke="#FFD54F" stroke-width="2" opacity="0.8"/>
    <!-- Earrings -->
    <circle cx="745" cy="350" r="14" fill="none" stroke="url(#goldFoil)" stroke-width="5" filter="url(#shadow)"/>
    <circle cx="745" cy="350" r="14" fill="none" stroke="#FFF" stroke-width="1.5" opacity="0.7"/>
    <circle cx="715" cy="385" r="8" fill="none" stroke="url(#goldFoil)" stroke-width="4" filter="url(#shadow)"/>
    <circle cx="715" cy="385" r="8" fill="none" stroke="#FFF" stroke-width="1" opacity="0.7"/>
  </g>

  <!-- Base Head Shape & Cheeks (Textured paths) -->
  <g>
    <!-- Main Head -->
    <path d="M 350 380 Q 350 250 500 250 Q 650 250 650 380 Q 660 480 500 480 Q 340 480 350 380 Z" fill="#6D4C41"/>
    <!-- Top head rim highlight -->
    <path d="M 350 350 Q 500 240 650 350" fill="none" stroke="#FFC107" stroke-width="8" opacity="0.25" filter="url(#glow)"/>
    
    <!-- Wide, jagged jowls -->
    <path d="M 320 380 C 230 490, 390 580, 500 580 C 610 580, 770 490, 680 380 C 740 510, 590 610, 500 610 C 410 610, 260 510, 320 380 Z" fill="#4E342E"/>
    <!-- Jowl fur spikes (Left) -->
    <path d="M 310 400 L 270 420 L 315 440 L 260 470 L 320 480 L 280 520 L 350 510" fill="#3E2723"/>
    <!-- Jowl fur spikes (Right) -->
    <path d="M 690 400 L 730 420 L 685 440 L 740 470 L 680 480 L 720 520 L 650 510" fill="#3E2723"/>
    
    <path d="M 340 400 C 280 490, 410 560, 500 560 C 590 560, 720 490, 660 400 Z" fill="#5D4037"/>

    <!-- Left Jowl Cyan Rim -->
    <path d="M 320 380 C 230 490, 390 580, 500 580" fill="none" stroke="#00E5FF" stroke-width="6" opacity="0.25" filter="url(#blur)"/>
    <path d="M 310 400 L 270 420 M 315 440 L 260 470 M 320 480 L 280 520" stroke="#00E5FF" stroke-width="2" opacity="0.5"/>

    <!-- Face Spots (Dynamic placement) -->
    <g fill="#1A110C" opacity="0.85">
      <path d="M 360 480 Q 380 490 370 510 Q 350 500 360 480 Z"/>
      <path d="M 310 540 Q 340 530 330 560 Q 300 550 310 540 Z"/>
      <path d="M 640 480 Q 620 490 630 510 Q 650 500 640 480 Z"/>
      <path d="M 690 540 Q 660 530 670 560 Q 700 550 690 540 Z"/>
      <circle cx="410" cy="280" r="14"/>
      <circle cx="580" cy="275" r="16"/>
      <circle cx="620" cy="340" r="12"/>
      <circle cx="380" cy="345" r="12"/>
      <path d="M 430 450 Q 440 460 430 470 Q 420 460 430 450 Z"/>
      <path d="M 570 450 Q 560 460 570 470 Q 580 460 570 450 Z"/>
    </g>

    <!-- Muzzle/Snout -->
    <path d="M 410 380 C 390 490, 430 540, 500 540 C 570 540, 610 490, 590 380 C 530 400, 470 400, 410 380 Z" fill="#A1887F"/>
    <path d="M 430 390 C 410 480, 450 515, 500 515 C 550 515, 590 480, 570 390 Z" fill="#D7CCC8"/>
    <!-- Muzzle Ridge Highlight -->
    <path d="M 480 390 C 490 450, 510 450, 520 390 Z" fill="#FFF" opacity="0.25" filter="url(#glow)"/>
    <!-- Whisker Pores -->
    <g fill="#2D1B14" opacity="0.7">
      <circle cx="450" cy="460" r="3"/> <circle cx="440" cy="475" r="2.5"/> <circle cx="460" cy="485" r="3.5"/>
      <circle cx="435" cy="455" r="2"/> <circle cx="475" cy="470" r="2"/>
      <circle cx="550" cy="460" r="3"/> <circle cx="560" cy="475" r="2.5"/> <circle cx="540" cy="485" r="3.5"/>
      <circle cx="565" cy="455" r="2"/> <circle cx="525" cy="470" r="2"/>
    </g>
    <!-- Stray Whiskers -->
    <g fill="none" stroke="#EFEBE9" stroke-width="1.5" opacity="0.6">
      <path d="M 440 475 Q 380 490 350 480"/>
      <path d="M 435 455 Q 370 460 340 440"/>
      <path d="M 560 475 Q 620 490 650 480"/>
      <path d="M 565 455 Q 630 460 660 440"/>
    </g>
  </g>

  <!-- ================= THE MANIC FACE ================= -->

  <!-- Eye Sockets / Bags (Deep, tired, dark) -->
  <path d="M 360 320 C 350 410, 480 430, 480 340 Z" fill="#140A06" opacity="0.8" filter="url(#blur)"/>
  <path d="M 640 310 C 650 410, 520 430, 520 330 Z" fill="#140A06" opacity="0.8" filter="url(#blur)"/>
  
  <!-- Under-eye Stress Lines -->
  <g fill="none" stroke-linecap="round">
    <path d="M 375 375 Q 425 420, 470 375" stroke="#0a0502" stroke-width="8"/>
    <path d="M 385 390 Q 425 430, 460 390" stroke="#1A110C" stroke-width="4"/>
    <path d="M 525 385 Q 570 430, 625 380" stroke="#0a0502" stroke-width="8"/>
    <path d="M 535 400 Q 570 440, 615 395" stroke="#1A110C" stroke-width="4"/>
  </g>

  <!-- Left Eye (Twitching, Squinting tight) -->
  <path d="M 390 355 Q 430 320 470 355 Q 430 375 390 355 Z" fill="url(#eyeSclera)" stroke="#050200" stroke-width="5"/>
  <!-- Twitching veins/lines around left eye -->
  <path d="M 375 345 L 395 352 M 465 340 L 485 345 M 430 315 L 435 325" stroke="#000" stroke-width="2.5"/>
  
  <!-- Right Eye (Wide Open, Dilated, Bloodshot) -->
  <circle cx="570" cy="345" r="34" fill="url(#eyeSclera)" stroke="#050200" stroke-width="6"/>
  
  <!-- Intense Bloodshot Veins (Right Eye) -->
  <g fill="none" stroke="#D32F2F" stroke-linecap="round" opacity="0.85">
    <path d="M 536 345 Q 545 330 555 340 T 560 335" stroke-width="2"/>
    <path d="M 604 345 Q 595 330 585 340 T 580 335" stroke-width="2"/>
    <path d="M 570 311 Q 565 325 570 330" stroke-width="2"/>
    <path d="M 540 365 Q 555 355 560 360" stroke-width="1.5"/>
    <path d="M 598 365 Q 585 355 580 360" stroke-width="1.5"/>
    <path d="M 585 315 Q 575 320 578 330" stroke-width="1"/>
    <path d="M 550 320 Q 560 325 558 335" stroke-width="1"/>
    <path d="M 575 375 Q 570 365 575 355" stroke-width="1.5"/>
  </g>
  <!-- Thick Bloodshot Rim -->
  <path d="M 536 345 A 34 34 0 0 1 604 345" fill="none" stroke="#B71C1C" stroke-width="5" opacity="0.75"/> 
  <path d="M 536 345 A 34 34 0 0 0 604 345" fill="none" stroke="#8E0000" stroke-width="4" opacity="0.6"/> 

  <!-- Irises & Pupils -->
  <!-- Left Iris (partially hidden) -->
  <circle cx="430" cy="355" r="10" fill="url(#eyeIris)"/>
  <circle cx="430" cy="355" r="5" fill="#000"/>
  <!-- Right Iris (Huge, blown out pupil) -->
  <circle cx="570" cy="345" r="20" fill="url(#eyeIris)"/>
  <circle cx="570" cy="345" r="15" fill="#000"/>
  
  <!-- Wet Eye Catchlights -->
  <circle cx="432" cy="352" r="2.5" fill="#FFF"/>
  <circle cx="576" cy="334" r="7" fill="#FFF" filter="url(#glow)"/>
  <circle cx="562" cy="350" r="3" fill="#FFF" opacity="0.9"/>
  <!-- Sweat Beads on Forehead/Face -->
  <g fill="#FFF" opacity="0.6" filter="url(#blur)">
    <ellipse cx="400" cy="280" rx="4" ry="7" transform="rotate(-15, 400, 280)"/>
    <ellipse cx="450" cy="260" rx="3" ry="5" transform="rotate(-5, 450, 260)"/>
    <ellipse cx="580" cy="270" rx="5" ry="8" transform="rotate(10, 580, 270)"/>
    <ellipse cx="630" cy="380" rx="3" ry="6" transform="rotate(20, 630, 380)"/>
    <ellipse cx="340" cy="420" rx="4" ry="8" transform="rotate(-25, 340, 420)"/>
  </g>
  <g fill="#FFF" opacity="0.9">
    <ellipse cx="401" cy="281" rx="1.5" ry="3" transform="rotate(-15, 401, 281)"/>
    <ellipse cx="581" cy="271" rx="2" ry="4" transform="rotate(10, 581, 271)"/>
    <ellipse cx="341" cy="421" rx="1.5" ry="3" transform="rotate(-25, 341, 421)"/>
  </g>

  <!-- Heavy, Expressive Eyebrows -->
  <path d="M 360 340 Q 430 260 490 355" fill="none" stroke="#050200" stroke-width="18" stroke-linecap="round" filter="url(#lightShadow)"/>
  <path d="M 510 345 Q 580 230 650 325" fill="none" stroke="#050200" stroke-width="20" stroke-linecap="round" filter="url(#lightShadow)"/>
  <!-- Eyebrow Fur details -->
  <path d="M 370 325 L 390 290 M 420 290 L 440 280 M 470 320 L 485 300" stroke="#1A110C" stroke-width="4" stroke-linecap="round"/>
  <path d="M 530 310 L 550 280 M 580 260 L 600 240 M 630 290 L 650 270" stroke="#1A110C" stroke-width="5" stroke-linecap="round"/>

  <!-- Nose (Wet, Textured, Dog-like) -->
  <path d="M 440 405 C 440 365, 560 365, 560 405 C 560 425, 530 465, 500 465 C 470 465, 440 425, 440 405 Z" fill="#0c0704"/>
  <!-- Nostrils -->
  <ellipse cx="468" cy="425" rx="15" ry="7" fill="#000" transform="rotate(-20, 468, 425)"/>
  <ellipse cx="532" cy="425" rx="15" ry="7" fill="#000" transform="rotate(20, 532, 425)"/>
  <path d="M 500 435 L 500 465" stroke="#000" stroke-width="5"/>
  <!-- Nose Wet Specular Highlights -->
  <path d="M 460 395 C 480 380, 520 380, 540 395 C 530 410, 470 410, 460 395 Z" fill="#FFF" opacity="0.35" filter="url(#blur)"/>
  <ellipse cx="475" cy="398" rx="14" ry="6" fill="#FFF" opacity="0.8" transform="rotate(-12, 475, 398)"/>
  <circle cx="528" cy="403" r="4" fill="#FFF" opacity="0.7"/>

  <!-- ================= THE DEGENERATE GRIN ================= -->
  
  <!-- Dark Mouth Cavity -->
  <path d="M 330 430 C 440 600, 560 600, 670 430 C 560 680, 440 680, 330 430 Z" fill="#050200"/>
  
  <!-- Back Gums/Tongue (Subtle Depth) -->
  <path d="M 400 520 C 460 600, 540 600, 600 520 C 540 570, 460 570, 400 520 Z" fill="#4a061d" opacity="0.95"/>
  <!-- Tongue Highlight -->
  <path d="M 440 540 C 480 570, 520 570, 560 540" fill="none" stroke="#D81B60" stroke-width="10" stroke-linecap="round" filter="url(#blur)"/>

  <!-- Upper Teeth (Thick, Carnivore, Discolored) -->
  <g fill="url(#teethGrad)" stroke="#1A110C" stroke-width="3" stroke-linejoin="round">
    <polygon points="350,440 375,485 385,450"/>
    <polygon points="385,450 410,505 420,460"/>
    <polygon points="425,465 450,525 465,475"/>
    <polygon points="470,480 495,550 515,480"/> <!-- Massive Central Canine L -->
    <polygon points="520,475 545,530 560,465"/> <!-- Massive Central Canine R -->
    <polygon points="565,460 590,505 605,450"/>
    <polygon points="610,445 635,485 645,440"/>
  </g>
  <!-- Upper Teeth Speculars -->
  <g fill="#FFF" opacity="0.5">
    <path d="M 486 510 L 492 540 L 496 510 Z"/>
    <path d="M 526 500 L 535 525 L 538 500 Z"/>
    <path d="M 440 490 L 448 515 L 452 490 Z"/>
  </g>

  <!-- Lower Teeth -->
  <g fill="url(#teethGradLower)" stroke="#1A110C" stroke-width="3" stroke-linejoin="round">
    <polygon points="390,520 410,480 425,525"/>
    <polygon points="435,535 455,485 465,545"/>
    <polygon points="475,555 495,505 510,555"/>
    <polygon points="520,550 540,485 555,540"/>
    <polygon points="565,530 580,480 590,520"/>
  </g>
  <!-- Lower Teeth Speculars -->
  <g fill="#FFF" opacity="0.5">
    <path d="M 488 535 L 493 515 L 498 535 Z"/>
    <path d="M 533 530 L 538 505 L 543 530 Z"/>
  </g>

  <!-- Lips / Grin outline -->
  <path d="M 330 430 C 440 600, 560 600, 670 430" fill="none" stroke="#120906" stroke-width="16" stroke-linecap="round" filter="url(#lightShadow)"/>
  <path d="M 330 430 C 440 600, 560 600, 670 430" fill="none" stroke="#3E2723" stroke-width="8" stroke-linecap="round"/>
  <path d="M 350 450 C 450 580, 550 580, 650 450" fill="none" stroke="#795548" stroke-width="2" stroke-linecap="round" opacity="0.6"/>

  <!-- Thick Saliva / Drool (Disgusting but highly detailed) -->
  <g fill="url(#droolGrad)">
    <!-- Dripping from corners -->
    <path d="M 385 510 Q 395 570 380 600 Q 405 570 405 515 Z" filter="url(#shadow)"/>
    <path d="M 625 455 Q 640 530 620 560 Q 605 530 610 460 Z" filter="url(#shadow)"/>
    <path d="M 460 545 Q 470 590 475 625 Q 485 590 480 550 Z" filter="url(#shadow)"/>
    <path d="M 515 550 Q 525 580 530 610 Q 540 580 535 545 Z" filter="url(#shadow)"/>
  </g>
  <!-- Spit string stretches between jaws -->
  <path d="M 445 520 Q 455 545 440 565" fill="none" stroke="url(#droolGrad)" stroke-width="4"/>
  <path d="M 555 510 Q 540 535 550 555" fill="none" stroke="url(#droolGrad)" stroke-width="3"/>
  <!-- Saliva Specular Highlights (Makes it look wet/glassy) -->
  <g fill="#FFF">
    <path d="M 385 515 L 383 550 L 387 515 Z"/>
    <path d="M 618 470 L 616 510 L 620 470 Z"/>
    <path d="M 470 555 L 473 595 L 475 555 Z"/>
    <path d="M 525 560 L 528 590 L 530 560 Z"/>
    <!-- Drips -->
    <circle cx="380" cy="610" r="3"/>
    <circle cx="476" cy="635" r="3.5"/>
    <circle cx="530" cy="620" r="2.5"/>
    <circle cx="620" cy="570" r="3"/>
  </g>

  <!-- Cigar in Mouth (Overlapping the grin) -->
  <g transform="translate(600, 465) rotate(-22)" filter="url(#shadow)">
    <!-- Main Body -->
    <rect x="-15" y="-14" width="115" height="28" rx="6" fill="#3E2723" stroke="#1A110C" stroke-width="2.5"/>
    <!-- Cylinder Highlight/Texture -->
    <rect x="-15" y="-12" width="115" height="8" rx="3" fill="#6D4C41" opacity="0.7"/>
    <path d="M -10 -6 L 95 6 M -10 0 L 95 12 M 20 -14 L 45 14 M 40 -14 L 65 14" stroke="#211A16" stroke-width="2" opacity="0.5"/>
    <!-- Cigar Band (Gold & Red) -->
    <rect x="20" y="-15" width="24" height="30" fill="#B71C1C" stroke="#140A06" stroke-width="1.5"/>
    <rect x="22" y="-13" width="20" height="26" fill="none" stroke="url(#goldFoil)" stroke-width="2"/>
    <circle cx="32" cy="0" r="6" fill="url(#goldFoil)"/>
    <!-- Ash (Textured) -->
    <path d="M 100 -13 L 125 -10 L 130 10 L 100 13 Z" fill="#9E9E9E" stroke="#424242" stroke-width="2"/>
    <path d="M 105 -12 L 110 12 M 115 -11 L 117 11 M 120 -10 L 119 10" stroke="#757575" stroke-width="2.5"/>
    <path d="M 125 -5 L 132 5" stroke="#E0E0E0" stroke-width="2"/>
    <!-- Glowing Ember -->
    <ellipse cx="128" cy="0" rx="9" ry="13" fill="url(#cigarGlow)" filter="url(#intenseGlow)"/>
    <ellipse cx="128" cy="0" rx="5" ry="8" fill="#FFF"/>
    <!-- Falling Ash -->
    <circle cx="125" cy="25" r="3" fill="#BDBDBD" opacity="0.9"/>
    <circle cx="130" cy="40" r="2" fill="#9E9E9E" opacity="0.7"/>
    <circle cx="120" cy="55" r="1.5" fill="#757575" opacity="0.5"/>
  </g>

  <!-- Thick Smoke from Cigar (Multiple Layers) -->
  <g opacity="0.8">
    <g filter="url(#smokeBlur)">
      <!-- Main thick plume -->
      <path d="M 720 440 Q 800 350 720 250 T 820 100 T 700 0" fill="none" stroke="#FFF" stroke-width="25" stroke-linecap="round"/>
      <path d="M 725 445 Q 810 360 730 260 T 830 110 T 710 10" fill="none" stroke="#B0BEC5" stroke-width="16" stroke-linecap="round"/>
      <!-- Secondary wisps -->
      <path d="M 710 430 Q 670 370 710 310 T 670 180 T 750 80" fill="none" stroke="#FFF" stroke-width="12" stroke-linecap="round" opacity="0.7"/>
      <path d="M 735 450 Q 840 380 780 280 T 850 150" fill="none" stroke="#E0E0E0" stroke-width="18" stroke-linecap="round" opacity="0.6"/>
    </g>
    <!-- Sharp crisp smoke threads inside the blur -->
    <path d="M 722 438 Q 780 370 725 280 T 805 130" fill="none" stroke="#FFF" stroke-width="3" stroke-linecap="round" opacity="0.6" filter="url(#glow)"/>
    <path d="M 715 435 Q 680 380 715 320" fill="none" stroke="#FFF" stroke-width="2" stroke-linecap="round" opacity="0.5"/>
  </g>


  <!-- ================= ACCESSORIES ================= -->

  <!-- Dealer Visor (Green Translucent Hat) -->
  <g filter="url(#shadow)">
    <!-- Brim Shadow / Back Edge -->
    <path d="M 280 290 C 370 420, 630 420, 720 290 C 630 360, 370 360, 280 290 Z" fill="#0A2A0D"/>
    <!-- Brim Front (Translucent plastic effect) -->
    <path d="M 260 270 C 370 420, 630 420, 740 270 C 630 330, 370 330, 260 270 Z" fill="#2E7D32" opacity="0.9" stroke="#1B5E20" stroke-width="4"/>
    <!-- Specular Highlight on Plastic Curve -->
    <path d="M 290 280 C 390 400, 610 400, 710 280 C 610 320, 390 320, 290 280 Z" fill="#FFF" opacity="0.4" filter="url(#blur)"/>
    <!-- Crisp White Rim Line -->
    <path d="M 260 270 C 370 420, 630 420, 740 270" fill="none" stroke="#FFF" stroke-width="6" opacity="0.85"/>
    <path d="M 260 270 C 370 420, 630 420, 740 270" fill="none" stroke="#E8F5E9" stroke-width="2"/>
    <!-- Leather Head Strap -->
    <path d="M 245 260 C 320 190, 680 190, 755 260 L 740 270 C 670 205, 330 205, 260 270 Z" fill="#111" stroke="#000" stroke-width="2"/>
    <!-- Strap Adjuster / Rivets -->
    <rect x="268" y="228" width="20" height="34" rx="4" fill="#E0E0E0" transform="rotate(-35, 268, 228)"/>
    <circle cx="278" cy="235" r="3.5" fill="#111" transform="rotate(-35, 268, 228)"/>
    <circle cx="278" cy="255" r="3.5" fill="#111" transform="rotate(-35, 268, 228)"/>
  </g>

  <!-- Visor Green Light Cast on Forehead (Multiplying over skin) -->
  <path d="M 305 315 C 420 395, 580 395, 695 315 C 600 270, 400 270, 305 315 Z" fill="#1B5E20" opacity="0.45" style="mix-blend-mode: multiply;" filter="url(#blur)"/>
  <!-- Sharp green rim on forehead immediately under visor -->
  <path d="M 310 305 C 410 370, 590 370, 690 305" fill="none" stroke="#4CAF50" stroke-width="5" opacity="0.6" filter="url(#glow)"/>


  <!-- ================= THE POKER TABLE (MIDGROUND) ================= -->
  
  <!-- Outer Wooden Rail (Rich Mahogany) -->
  <ellipse cx="500" cy="850" rx="950" ry="360" fill="url(#woodRail)" stroke="#050201" stroke-width="50" filter="url(#shadow)"/>
  
  <!-- Rail Highlights & Leather Padding Edge -->
  <ellipse cx="500" cy="850" rx="950" ry="360" fill="none" stroke="url(#woodHighlight)" stroke-width="16" opacity="0.9"/>
  <ellipse cx="500" cy="850" rx="900" ry="310" fill="none" stroke="#1A110C" stroke-width="20" opacity="0.95"/>
  <!-- Specular rim on inner edge -->
  <ellipse cx="500" cy="850" rx="890" ry="300" fill="none" stroke="#FFF" stroke-width="4" opacity="0.2"/>

  <!-- Vibrant Green Felt Surface -->
  <ellipse cx="500" cy="850" rx="880" ry="290" fill="url(#tableGlow)"/>
  <!-- Subtle Felt Texture Overlay (Using overlapping thin strokes) -->
  <ellipse cx="500" cy="850" rx="880" ry="290" fill="none" stroke="#000" stroke-width="3" opacity="0.25" filter="url(#blur)"/>

  <!-- Casino Table Inlay Lines (Gold) -->
  <ellipse cx="500" cy="850" rx="800" ry="240" fill="none" stroke="url(#goldFoil)" stroke-width="6" opacity="0.85"/>
  <ellipse cx="500" cy="850" rx="780" ry="220" fill="none" stroke="url(#goldFoil)" stroke-width="2" opacity="0.5"/>


  <!-- ================= TABLE PROPS ================= -->
  
  <!-- Table Cast Shadows (Ambient Occlusion) -->
  <ellipse cx="180" cy="690" rx="70" ry="25" fill="#000" opacity="0.7" filter="url(#blur)"/>
  <ellipse cx="370" cy="730" rx="110" ry="35" fill="#000" opacity="0.7" filter="url(#blur)"/>
  <ellipse cx="520" cy="710" rx="130" ry="30" fill="#000" opacity="0.5" filter="url(#blur)"/>
  <!-- Whiskey Glass Amber Caustic Shadow -->
  <ellipse cx="195" cy="695" rx="55" ry="18" fill="#FF8F00" opacity="0.6" filter="url(#blur)" style="mix-blend-mode: color-dodge;"/>

  <!-- Heavy Crystal Whiskey Glass -->
  <g transform="translate(130, 600)">
    <!-- Back Glass edge -->
    <path d="M 10 0 L 90 0 L 80 95 L 20 95 Z" fill="#FFF" opacity="0.05"/>
    <ellipse cx="50" cy="95" rx="30" ry="10" fill="#FFF" opacity="0.15"/>
    
    <!-- Rich Amber Liquid -->
    <path d="M 17 35 L 83 35 L 75 90 L 25 90 Z" fill="url(#whiskeyGrad)" opacity="0.95"/>
    <!-- Refracted liquid back edge -->
    <path d="M 25 90 Q 50 100 75 90" fill="none" stroke="#FF6F00" stroke-width="4" opacity="0.8"/>
    <!-- Liquid Meniscus / Top Surface -->
    <ellipse cx="50" cy="35" rx="33" ry="10" fill="#FFCA28" opacity="0.9"/>
    <ellipse cx="50" cy="35" rx="30" ry="8" fill="#FF8F00" opacity="0.6"/>
    <path d="M 17 35 Q 50 45 83 35" fill="none" stroke="#FFF" stroke-width="2" opacity="0.7"/>

    <!-- Realistic Ice Cubes (Submerged & Floating) -->
    <g opacity="0.85" stroke="#FFF" stroke-width="1.5">
      <!-- Cube 1 (Bottom) -->
      <rect x="25" y="55" width="28" height="28" rx="4" fill="#E0F7FA" transform="rotate(15, 39, 69)" opacity="0.5"/>
      <path d="M 29 60 L 45 65" stroke-width="2.5"/>
      <!-- Cube 2 (Floating, breaking surface) -->
      <rect x="45" y="25" width="26" height="26" rx="4" fill="#B2EBF2" transform="rotate(-25, 58, 38)"/>
      <path d="M 48 30 L 62 25" stroke-width="2.5"/>
      <path d="M 52 28 L 56 45" stroke-width="2"/>
    </g>

    <!-- Front Glass & Sharp Reflections -->
    <path d="M 10 0 L 90 0 L 80 95 L 20 95 Z" fill="none" stroke="#FFF" stroke-width="4" opacity="0.6" stroke-linejoin="round"/>
    <ellipse cx="50" cy="0" rx="40" ry="12" fill="none" stroke="#FFF" stroke-width="5" opacity="0.9"/>
    <!-- Heavy Base Glass -->
    <path d="M 20 95 L 80 95 L 77 115 L 23 115 Z" fill="#FFF" opacity="0.25"/>
    <ellipse cx="50" cy="115" rx="27" ry="8" fill="none" stroke="#FFF" stroke-width="4" opacity="0.7"/>
    
    <!-- Crisp White Specular Glare -->
    <path d="M 16 15 L 25 90" stroke="#FFF" stroke-width="6" stroke-linecap="round" opacity="0.9"/>
    <path d="M 84 15 L 77 75" stroke="#FFF" stroke-width="2" stroke-linecap="round" opacity="0.6"/>
    <!-- Glass cut texture lines -->
    <path d="M 30 95 L 35 112 M 50 95 L 50 115 M 70 95 L 65 112" stroke="#FFF" stroke-width="2" opacity="0.5"/>
  </g>

  <!-- Chips Stacks (Massive, Messy, High Stakes) -->
  <g filter="url(#shadow)">
    <!-- Back Red Stack -->
    <g style="color: #C62828" transform="translate(320, 690)">
      <use href="#chip" y="0"/> <use href="#chip" y="-12"/> <use href="#chip" y="-24"/>
      <use href="#chip" y="-36"/> <use href="#chip" y="-48"/> <use href="#chip" y="-60"/>
      <use href="#chip" y="-72"/> <use href="#chip" y="-84"/> <use href="#chip" y="-96" transform="rotate(15, 0, -96)"/>
    </g>
    <!-- Blue Stack (Tilted) -->
    <g style="color: #1565C0" transform="translate(250, 715) rotate(-6)">
      <use href="#chip" y="0"/> <use href="#chip" y="-12"/> <use href="#chip" y="-24"/>
      <use href="#chip" y="-36"/> <use href="#chip" y="-48"/> <use href="#chip" y="-60" transform="rotate(-8, 0, -60)"/>
    </g>
    <!-- Black/Gold High Value Stack -->
    <g style="color: #212121" transform="translate(400, 720)">
      <use href="#chip" y="0"/> <use href="#chip" y="-12"/> <use href="#chip" y="-24"/>
      <use href="#chip" y="-36"/> <use href="#chip" y="-48" transform="translate(5, 0)"/>
    </g>
    <!-- Scattered / Guarded Chips -->
    <use href="#chip" x="370" y="740" style="color: #2E7D32" transform="rotate(-20, 370, 740)"/>
    <use href="#chip" x="440" y="735" style="color: #C62828" transform="rotate(25, 440, 735)"/>
    <use href="#chip" x="290" y="750" style="color: #1565C0" transform="rotate(10, 290, 750)"/>
    <use href="#chip" x="350" y="755" style="color: #212121" transform="rotate(-5, 350, 755)"/>
    <use href="#chip" x="480" y="745" style="color: #FFC107" transform="rotate(-15, 480, 745)"/>
    
    <!-- Falling Chips (Dynamic motion) -->
    <use href="#chip" x="430" y="650" style="color: #2E7D32" transform="rotate(40, 430, 650)" filter="url(#blur)"/>
    <use href="#chip" x="260" y="620" style="color: #C62828" transform="rotate(-30, 260, 620)" filter="url(#lightShadow)"/>
  </g>

  <!-- Spiked Collar (Now in Midground to overlap body but be under hands) -->
  <g filter="url(#shadow)">
    <!-- Leather Band -->
    <path d="M 290 550 Q 500 660 710 550 L 730 600 Q 500 720 270 600 Z" fill="#140A06"/>
    <!-- Collar Edge / Stitching -->
    <path d="M 280 565 Q 500 680 720 565" fill="none" stroke="#3E2723" stroke-width="5"/>
    <path d="M 280 565 Q 500 680 720 565" fill="none" stroke="#000" stroke-width="2" stroke-dasharray="8 6"/>
    <path d="M 275 585 Q 500 700 725 585" fill="none" stroke="#3E2723" stroke-width="5"/>
    
    <!-- Massive Metal Spikes (Polished, sharp) -->
    <g stroke="#050200" stroke-width="2" stroke-linejoin="round">
      <polygon points="340,580 325,660 365,595" fill="url(#metalSpike)"/>
      <polygon points="410,605 410,700 440,620" fill="url(#metalSpike)"/>
      <polygon points="490,620 495,720 520,620" fill="url(#metalSpike)"/>
      <polygon points="570,615 595,700 600,605" fill="url(#metalSpike)"/>
      <polygon points="650,588 685,660 675,580" fill="url(#metalSpike)"/>
    </g>
    <!-- Highlight edges on spikes to make them pop -->
    <g stroke="#FFF" stroke-width="1.5" opacity="0.7">
      <path d="M 340 580 L 325 660"/>
      <path d="M 410 605 L 410 700"/>
      <path d="M 490 620 L 495 720"/>
      <path d="M 570 615 L 595 700"/>
      <path d="M 650 588 L 685 660"/>
    </g>
    
    <!-- Spike bases / Rings -->
    <ellipse cx="352" cy="587" rx="16" ry="7" fill="#424242" transform="rotate(-15, 352, 587)"/>
    <ellipse cx="425" cy="612" rx="18" ry="8" fill="#424242" transform="rotate(-5, 425, 612)"/>
    <ellipse cx="505" cy="620" rx="20" ry="8" fill="#424242"/>
    <ellipse cx="585" cy="610" rx="18" ry="8" fill="#424242" transform="rotate(5, 585, 610)"/>
    <ellipse cx="662" cy="584" rx="16" ry="7" fill="#424242" transform="rotate(15, 662, 584)"/>
  </g>

  <!-- Left Arm & Paw (Guarding the pot, articulated fingers) -->
  <g filter="url(#shadow)">
    <!-- Arm coming from offscreen -->
    <path d="M -50 950 C 0 770, 150 710, 270 770 L 120 950 Z" fill="#3E2723"/>
    <!-- Fur rim light (Cyan) -->
    <path d="M 150 710 C 200 725, 240 745, 270 770" fill="none" stroke="#00E5FF" stroke-width="5" opacity="0.4" filter="url(#glow)"/>
    
    <!-- Back of hand / Knuckles -->
    <path d="M 230 750 Q 280 740 300 770 Q 320 800 270 820 Q 220 800 230 750 Z" fill="#2D1B14"/>
    
    <!-- Articulated Fingers (Wrapping over chips) -->
    <g fill="#1A110C" stroke="#050200" stroke-width="4">
      <!-- Index Finger -->
      <path d="M 290 760 Q 330 740 350 765 Q 360 780 330 795 Q 300 780 290 760 Z"/>
      <!-- Middle Finger -->
      <path d="M 275 775 Q 320 760 335 790 Q 340 810 310 815 Q 280 800 275 775 Z"/>
      <!-- Ring Finger -->
      <path d="M 255 790 Q 295 780 305 815 Q 305 835 275 835 Q 250 815 255 790 Z"/>
    </g>
    <!-- Knuckle highlights -->
    <circle cx="285" cy="770" r="5" fill="#FFF" opacity="0.15"/>
    <circle cx="270" cy="785" r="5" fill="#FFF" opacity="0.15"/>
    <circle cx="250" cy="800" r="5" fill="#FFF" opacity="0.15"/>

    <!-- Razor Sharp Claws gripping -->
    <g fill="url(#clawGrad)" stroke="#050200" stroke-width="1.5">
      <polygon points="345,770 385,780 340,790"/>
      <polygon points="330,800 365,820 320,815"/>
      <polygon points="300,825 325,855 285,835"/>
    </g>
    <!-- Claw Specular Glints -->
    <path d="M 348 774 L 378 780" stroke="#FFF" stroke-width="2" opacity="0.7"/>
    <path d="M 330 804 L 358 818" stroke="#FFF" stroke-width="2" opacity="0.7"/>
    <path d="M 298 830 L 318 850" stroke="#FFF" stroke-width="2" opacity="0.7"/>
  </g>

  <!-- Community Cards (The Flop - A♠ K♠ K♦) -->
  <!-- Adding a dark shadow underneath the cards specifically -->
  <g transform="translate(520, 680) scale(1, 0.7) skewX(-40) rotate(-15)">
    <rect x="-140" y="0" width="220" height="100" fill="#000" opacity="0.5" filter="url(#blur)"/>
  </g>
  <g transform="translate(520, 680) scale(1, 0.7) skewX(-40) rotate(-15)">
    <!-- Card 1 (A♠) -->
    <g transform="translate(-130, -5) rotate(-8)">
      <use href="#flop-card"/>
      <text x="10" y="26" fill="#212121" font-family="Arial, sans-serif" font-weight="900" font-size="24">A</text>
      <text x="13" y="46" fill="#212121" font-family="Arial, sans-serif" font-size="20">♠</text>
      <text x="32" y="65" fill="#212121" font-family="Arial, sans-serif" font-size="50" text-anchor="middle">♠</text>
    </g>
    <!-- Card 2 (K♠) -->
    <g transform="translate(-50, 5) rotate(2)">
      <use href="#flop-card"/>
      <use href="#court-bg"/>
      <text x="10" y="26" fill="#212121" font-family="Arial, sans-serif" font-weight="900" font-size="24">K</text>
      <text x="12" y="46" fill="#212121" font-family="Arial, sans-serif" font-size="20">♠</text>
      <text x="37.5" y="70" fill="#212121" font-family="Arial, sans-serif" font-size="40" text-anchor="middle">♠</text>
    </g>
    <!-- Card 3 (K♦) -->
    <g transform="translate(30, -5) rotate(12)">
      <use href="#flop-card"/>
      <use href="#court-bg"/>
      <text x="10" y="26" fill="#D32F2F" font-family="Arial, sans-serif" font-weight="900" font-size="24">K</text>
      <text x="12" y="46" fill="#D32F2F" font-family="Arial, sans-serif" font-size="20">♦</text>
      <text x="37.5" y="70" fill="#D32F2F" font-family="Arial, sans-serif" font-size="40" text-anchor="middle">♦</text>
    </g>
  </g>


  <!-- ================= FOREGROUND (RIGHT PAW & WINNING HAND) ================= -->
  
  <!-- Right Arm coming up -->
  <path d="M 1050 950 C 1000 700, 850 610, 680 720 L 760 950 Z" fill="#3E2723" filter="url(#shadow)"/>
  
  <!-- Right Arm Fur Spots -->
  <g fill="#1A110C" opacity="0.85">
    <path d="M 850 760 Q 870 750 880 770 Q 860 780 850 760 Z"/>
    <path d="M 800 820 Q 820 800 830 830 Q 810 850 800 820 Z"/>
    <path d="M 910 840 Q 940 830 930 860 Q 900 870 910 840 Z"/>
    <path d="M 750 780 Q 770 760 780 790 Q 760 810 750 780 Z"/>
  </g>

  <!-- Epic Glow behind the Royal Flush to draw the eye -->
  <circle cx="700" cy="650" r="200" fill="url(#royalFlushGlow)" style="mix-blend-mode: screen;"/>

  <!-- The Royal Flush (Hearts) -->
  <g id="winning-hand" filter="url(#shadow)">
    <!-- 10 of Hearts -->
    <g transform="translate(560, 620) rotate(-26)">
      <rect width="85" height="125" rx="6" fill="url(#cardGrad)" stroke="#BDBDBD" stroke-width="1.5"/>
      <rect x="4" y="4" width="77" height="117" rx="4" fill="none" stroke="#E0E0E0" stroke-width="1.5"/>
      <text x="8" y="28" fill="#D32F2F" font-family="Arial, sans-serif" font-weight="900" font-size="26" letter-spacing="-2">10</text>
      <text x="21" y="52" fill="#D32F2F" font-family="Arial, sans-serif" font-size="24" text-anchor="middle">♥</text>
      <text x="42.5" y="90" fill="#D32F2F" font-family="Arial, sans-serif" font-size="55" text-anchor="middle">♥</text>
    </g>
    <!-- Jack of Hearts -->
    <g transform="translate(615, 580) rotate(-14)">
      <rect width="85" height="125" rx="6" fill="url(#cardGrad)" stroke="#BDBDBD" stroke-width="1.5" filter="url(#lightShadow)"/>
      <rect x="4" y="4" width="77" height="117" rx="4" fill="none" stroke="#E0E0E0" stroke-width="1.5"/>
      <use href="#court-bg" transform="scale(1.1) translate(0, 2)"/>
      <text x="12" y="28" fill="#D32F2F" font-family="Arial, sans-serif" font-weight="900" font-size="26">J</text>
      <text x="20" y="52" fill="#D32F2F" font-family="Arial, sans-serif" font-size="24" text-anchor="middle">♥</text>
      <text x="42.5" y="90" fill="#D32F2F" font-family="Arial, sans-serif" font-size="55" text-anchor="middle">♥</text>
    </g>
    <!-- Queen of Hearts -->
    <g transform="translate(675, 560) rotate(-2)">
      <rect width="85" height="125" rx="6" fill="url(#cardGrad)" stroke="#BDBDBD" stroke-width="1.5" filter="url(#lightShadow)"/>
      <rect x="4" y="4" width="77" height="117" rx="4" fill="none" stroke="#E0E0E0" stroke-width="1.5"/>
      <use href="#court-bg" transform="scale(1.1) translate(0, 2)"/>
      <text x="12" y="28" fill="#D32F2F" font-family="Arial, sans-serif" font-weight="900" font-size="26">Q</text>
      <text x="20" y="52" fill="#D32F2F" font-family="Arial, sans-serif" font-size="24" text-anchor="middle">♥</text>
      <text x="42.5" y="90" fill="#D32F2F" font-family="Arial, sans-serif" font-size="55" text-anchor="middle">♥</text>
    </g>
    <!-- King of Hearts -->
    <g transform="translate(735, 565) rotate(10)">
      <rect width="85" height="125" rx="6" fill="url(#cardGrad)" stroke="#BDBDBD" stroke-width="1.5" filter="url(#lightShadow)"/>
      <rect x="4" y="4" width="77" height="117" rx="4" fill="none" stroke="#E0E0E0" stroke-width="1.5"/>
      <use href="#court-bg" transform="scale(1.1) translate(0, 2)"/>
      <text x="12" y="28" fill="#D32F2F" font-family="Arial, sans-serif" font-weight="900" font-size="26">K</text>
      <text x="20" y="52" fill="#D32F2F" font-family="Arial, sans-serif" font-size="24" text-anchor="middle">♥</text>
      <text x="42.5" y="90" fill="#D32F2F" font-family="Arial, sans-serif" font-size="55" text-anchor="middle">♥</text>
    </g>
    <!-- Ace of Hearts -->
    <g transform="translate(790, 590) rotate(22)">
      <rect width="85" height="125" rx="6" fill="url(#cardGrad)" stroke="#BDBDBD" stroke-width="1.5" filter="url(#lightShadow)"/>
      <rect x="4" y="4" width="77" height="117" rx="4" fill="none" stroke="#E0E0E0" stroke-width="1.5"/>
      <text x="12" y="28" fill="#D32F2F" font-family="Arial, sans-serif" font-weight="900" font-size="26">A</text>
      <text x="20" y="52" fill="#D32F2F" font-family="Arial, sans-serif" font-size="24" text-anchor="middle">♥</text>
      <text x="42.5" y="90" fill="#D32F2F" font-family="Arial, sans-serif" font-size="70" text-anchor="middle">♥</text>
    </g>
  </g>

  <!-- Right Paw Covering and Gripping the Cards -->
  <g filter="url(#shadow)">
    <!-- Base Hand / Palm showing slightly behind -->
    <path d="M 570 850 C 560 700, 690 660, 880 730 L 930 860 Z" fill="#2D1B14"/>
    
    <!-- Articulated Fingers Wrapping Behind Cards -->
    <g fill="#1A110C" stroke="#050200" stroke-width="4">
      <!-- Pinky -->
      <path d="M 570 690 Q 590 660 620 680 Q 640 700 620 730 Z"/>
      <!-- Ring -->
      <path d="M 630 660 Q 660 630 690 650 Q 710 680 680 710 Z"/>
      <!-- Middle -->
      <path d="M 700 640 Q 730 610 760 640 Q 780 670 750 700 Z"/>
      <!-- Index -->
      <path d="M 780 650 Q 810 620 840 650 Q 860 680 830 710 Z"/>
    </g>

    <!-- Finger Claws piercing over the top of the cards -->
    <g fill="url(#clawGrad)" stroke="#050200" stroke-width="1.5">
      <!-- Pinky Claw -->
      <polygon points="590,675 565,635 605,655"/>
      <!-- Ring Claw -->
      <polygon points="660,645 650,595 685,630"/>
      <!-- Middle Claw -->
      <polygon points="730,635 735,585 760,625"/>
      <!-- Index Claw -->
      <polygon points="810,645 830,595 845,640"/>
    </g>
    <!-- Claw Glints -->
    <g stroke="#FFF" stroke-width="2" opacity="0.7">
      <path d="M 575,645 L 595,665"/>
      <path d="M 655,608 L 675,635"/>
      <path d="M 740,600 L 755,625"/>
      <path d="M 832,608 L 842,638"/>
    </g>

    <!-- The Big Thumb firmly pressing the front card -->
    <path d="M 670 800 C 640 740, 700 700, 760 720 C 810 735, 830 780, 790 820 C 750 860, 690 840, 670 800 Z" fill="#3E2723" stroke="#050200" stroke-width="5"/>
    <path d="M 680 780 C 670 740, 720 720, 750 735" fill="none" stroke="#FFC107" stroke-width="4" opacity="0.3" filter="url(#glow)"/>
    
    <!-- Thumb Knuckle Details -->
    <path d="M 720 730 Q 740 740 730 770" fill="none" stroke="#1A110C" stroke-width="4" stroke-linecap="round"/>
    <circle cx="750" cy="740" r="6" fill="#FFF" opacity="0.2"/>

    <!-- Massive Thumb Claw -->
    <path d="M 700 725 L 650 675 L 680 745 Z" fill="url(#clawGrad)" stroke="#050200" stroke-width="2"/>
    <!-- Thumb Claw Specular -->
    <path d="M 662 688 L 688 730" stroke="#FFF" stroke-width="2.5" opacity="0.8"/>
  </g>

  <!-- ================= FOREGROUND LIGHTING / FX ================= -->
  
  <!-- Floating Dust Particles (Illuminated by spotlights) -->
  <g fill="#FFF" filter="url(#glow)">
    <circle cx="320" cy="380" r="3.5" opacity="0.6"/>
    <circle cx="350" cy="430" r="2" opacity="0.4"/>
    <circle cx="660" cy="270" r="4.5" opacity="0.5"/>
    <circle cx="680" cy="220" r="2.5" opacity="0.7"/>
    <circle cx="210" cy="580" r="3" opacity="0.4"/>
    <circle cx="780" cy="460" r="3.5" opacity="0.5"/>
    <circle cx="480" cy="240" r="2.5" opacity="0.6"/>
    <circle cx="550" cy="180" r="4" opacity="0.3"/>
    <circle cx="850" cy="350" r="2.5" opacity="0.4"/>
    <circle cx="400" cy="150" r="3" opacity="0.5"/>
    <circle cx="580" cy="540" r="2" opacity="0.8"/>
    <circle cx="630" cy="510" r="3" opacity="0.5"/>
  </g>

  <!-- Intense Dark Vignette (Frames the composition and forces focus) -->
  <rect width="1000" height="800" fill="url(#vignette)" style="mix-blend-mode: multiply;" pointer-events="none"/>

</svg>