<svg xmlns="http://www.w3.org/2000/svg" viewBox="0 0 1000 800" width="100%" height="100%" style="background-color: #0d0608;">
  <defs>
    <!-- Complex Casino Wallpaper Pattern -->
    <pattern id="wallpaper" width="100" height="100" patternUnits="userSpaceOnUse">
      <rect width="100" height="100" fill="#140709"/>
      <path d="M 50 0 L 100 50 L 50 100 L 0 50 Z" fill="none" stroke="#1f0a0d" stroke-width="2"/>
      <path d="M 50 15 L 85 50 L 50 85 L 15 50 Z" fill="none" stroke="#2e0f14" stroke-width="1" opacity="0.6"/>
      <circle cx="50" cy="50" r="20" fill="none" stroke="#1f0a0d" stroke-width="4"/>
      <circle cx="50" cy="50" r="15" fill="none" stroke="#2e0f14" stroke-width="1" opacity="0.4"/>
      <circle cx="0" cy="0" r="20" fill="none" stroke="#1f0a0d" stroke-width="4"/>
      <circle cx="100" cy="0" r="20" fill="none" stroke="#1f0a0d" stroke-width="4"/>
      <circle cx="0" cy="100" r="20" fill="none" stroke="#1f0a0d" stroke-width="4"/>
      <circle cx="100" cy="100" r="20" fill="none" stroke="#1f0a0d" stroke-width="4"/>
    </pattern>

    <!-- Essential Gradients -->
    <radialGradient id="vignette" cx="50%" cy="50%" r="70%">
      <stop offset="40%" stop-color="#000" stop-opacity="0"/>
      <stop offset="85%" stop-color="#030102" stop-opacity="0.8"/>
      <stop offset="100%" stop-color="#000" stop-opacity="0.98"/>
    </radialGradient>
    
    <radialGradient id="tableGlow" cx="50%" cy="850" r="600" gradientUnits="userSpaceOnUse">
      <stop offset="0%" stop-color="#388E3C"/>
      <stop offset="25%" stop-color="#2E7D32"/>
      <stop offset="60%" stop-color="#1B5E20"/>
      <stop offset="85%" stop-color="#0A2A0D"/>
      <stop offset="100%" stop-color="#030f05"/>
    </radialGradient>

    <linearGradient id="woodRail" x1="0" y1="0" x2="0" y2="1">
      <stop offset="0%" stop-color="#5D4037"/>
      <stop offset="8%" stop-color="#8D6E63"/>
      <stop offset="15%" stop-color="#4E342E"/>
      <stop offset="50%" stop-color="#3E2723"/>
      <stop offset="80%" stop-color="#1a0f0a"/>
      <stop offset="100%" stop-color="#000"/>
    </linearGradient>

    <linearGradient id="cardGrad" x1="0%" y1="0%" x2="100%" y2="100%">
      <stop offset="0%" stop-color="#FFFFFF"/>
      <stop offset="50%" stop-color="#FDFDFD"/>
      <stop offset="90%" stop-color="#EFEBE9"/>
      <stop offset="100%" stop-color="#D7CCC8"/>
    </linearGradient>

    <linearGradient id="metalSpike" x1="0%" y1="0%" x2="100%" y2="100%">
      <stop offset="0%" stop-color="#FFFFFF"/>
      <stop offset="15%" stop-color="#ECEFF1"/>
      <stop offset="40%" stop-color="#90A4AE"/>
      <stop offset="70%" stop-color="#37474F"/>
      <stop offset="100%" stop-color="#111"/>
    </linearGradient>

    <radialGradient id="cigarGlow" cx="50%" cy="50%" r="50%">
      <stop offset="0%" stop-color="#FFF"/>
      <stop offset="20%" stop-color="#FFF59D"/>
      <stop offset="40%" stop-color="#FF5722"/>
      <stop offset="70%" stop-color="#D32F2F"/>
      <stop offset="100%" stop-color="#212121" stop-opacity="0"/>
    </radialGradient>

    <radialGradient id="eyeScleraLeft" cx="50%" cy="50%" r="50%">
      <stop offset="0%" stop-color="#FFFDE7"/>
      <stop offset="70%" stop-color="#FFECB3"/>
      <stop offset="100%" stop-color="#D32F2F"/>
    </radialGradient>

    <radialGradient id="eyeScleraRight" cx="50%" cy="50%" r="50%">
      <stop offset="0%" stop-color="#FFFDE7"/>
      <stop offset="50%" stop-color="#FFCC80"/>
      <stop offset="90%" stop-color="#C62828"/>
      <stop offset="100%" stop-color="#880E4F"/>
    </radialGradient>

    <radialGradient id="eyeIris" cx="40%" cy="40%" r="60%">
      <stop offset="0%" stop-color="#FFF59D"/>
      <stop offset="30%" stop-color="#FBC02D"/>
      <stop offset="60%" stop-color="#E65100"/>
      <stop offset="90%" stop-color="#3E2723"/>
      <stop offset="100%" stop-color="#110703"/>
    </radialGradient>

    <linearGradient id="teethGrad" x1="0%" y1="0%" x2="0%" y2="100%">
      <stop offset="0%" stop-color="#3E2723"/>
      <stop offset="25%" stop-color="#FBC02D"/>
      <stop offset="55%" stop-color="#FFF9C4"/>
      <stop offset="95%" stop-color="#FFFFFF"/>
      <stop offset="100%" stop-color="#E0E0E0"/>
    </linearGradient>

    <linearGradient id="whiskeyGrad" x1="0%" y1="0%" x2="0%" y2="100%">
      <stop offset="0%" stop-color="#FFCA28"/>
      <stop offset="30%" stop-color="#FF8F00"/>
      <stop offset="70%" stop-color="#D84315"/>
      <stop offset="100%" stop-color="#3E2723"/>
    </linearGradient>

    <linearGradient id="visorGrad" x1="0%" y1="0%" x2="0%" y2="100%">
      <stop offset="0%" stop-color="#4CAF50" stop-opacity="0.8"/>
      <stop offset="50%" stop-color="#2E7D32" stop-opacity="0.9"/>
      <stop offset="100%" stop-color="#1B5E20" stop-opacity="0.95"/>
    </linearGradient>

    <!-- Cinematic Filters -->
    <filter id="shadow" x="-30%" y="-30%" width="160%" height="160%">
      <feDropShadow dx="0" dy="15" stdDeviation="10" flood-color="#000" flood-opacity="0.85"/>
    </filter>
    
    <filter id="lightShadow" x="-20%" y="-20%" width="140%" height="140%">
      <feDropShadow dx="3" dy="6" stdDeviation="4" flood-color="#000" flood-opacity="0.6"/>
    </filter>
    
    <filter id="blur" x="-50%" y="-50%" width="200%" height="200%">
      <feGaussianBlur stdDeviation="8"/>
    </filter>
    
    <filter id="glow" x="-50%" y="-50%" width="200%" height="200%">
      <feGaussianBlur stdDeviation="6" result="blur"/>
      <feComposite in="SourceGraphic" in2="blur" operator="over"/>
    </filter>

    <filter id="intenseGlow" x="-50%" y="-50%" width="200%" height="200%">
      <feGaussianBlur stdDeviation="12" result="blur"/>
      <feComponentTransfer in="blur" result="glow">
        <feFuncA type="linear" slope="2.5"/>
      </feComponentTransfer>
      <feComposite in="SourceGraphic" in2="glow" operator="over"/>
    </filter>

    <filter id="smokeBlur" x="-50%" y="-50%" width="200%" height="200%">
      <feGaussianBlur stdDeviation="20"/>
    </filter>

    <!-- Vector Paths for Card Suits (Ensures perfect rendering everywhere) -->
    <g id="suit-heart">
      <path d="M 0,-5 C 0,-15 -15,-15 -15,-5 C -15,5 0,15 0,15 C 0,15 15,5 15,-5 C 15,-15 0,-15 0,-5 Z" fill="#D32F2F"/>
    </g>
    <g id="suit-spade">
      <path d="M 0,-15 C 0,-15 -15,0 -15,5 C -15,12 -5,12 0,6 C 5,12 15,12 15,5 C 15,0 0,-15 0,-15 Z M -3,6 L -6,15 L 6,15 L 3,6 Z" fill="#111"/>
    </g>
    <g id="suit-diamond">
      <path d="M 0,-15 L 12,0 L 0,15 L -12,0 Z" fill="#D32F2F"/>
    </g>

    <!-- Poker Chip Component -->
    <g id="chip">
      <ellipse cx="0" cy="0" rx="35" ry="12" fill="#030303"/>
      <path d="M -35 0 L -35 -7 C -35 -14, -19 -20, 0 -20 C 19 -20, 35 -14, 35 -7 L 35 0 Z" fill="#1a1a1a"/>
      <!-- Chip Rim Detail (Vertical ridges) -->
      <path d="M -35 -4 L -35 0 M -30 -6 L -30 2 M -20 -8 L -20 4 M -10 -9 L -10 5 M 0 -9.5 L 0 5 M 10 -9 L 10 5 M 20 -8 L 20 4 M 30 -6 L 30 2 M 35 -4 L 35 0" stroke="#000" stroke-width="1.5" opacity="0.8"/>
      
      <!-- Top Face -->
      <ellipse cx="0" cy="-7" rx="35" ry="12" fill="currentColor"/>
      
      <!-- Edge Marks -->
      <path d="M -22 -6 L -33 -6 M 22 -6 L 33 -6 M -11 -15 L -16 -18 M 11 -15 L 16 -18 M -11 3 L -16 6 M 11 3 L 16 6" stroke="#FFF" stroke-width="4.5" stroke-linecap="round" opacity="0.95"/>
      <path d="M -22 -6 L -33 -6 M 22 -6 L 33 -6 M -11 -15 L -16 -18 M 11 -15 L 16 -18 M -11 3 L -16 6 M 11 3 L 16 6" stroke="#000" stroke-width="1.5" stroke-linecap="round" opacity="0.4" transform="translate(0, 1.5)"/>
      
      <!-- Inner Rings -->
      <ellipse cx="0" cy="-7" rx="22" ry="7" fill="none" stroke="#FFF" stroke-width="1.5" opacity="0.7"/>
      <ellipse cx="0" cy="-7" rx="14" ry="4.5" fill="#111" opacity="0.4"/>
      
      <!-- Center Star/Logo abstract -->
      <path d="M 0 -10.5 L 2 -8 L 5 -8 L 3 -6 L 4 -3.5 L 0 -5 L -4 -3.5 L -3 -6 L -5 -8 L -2 -8 Z" fill="#FFF" opacity="0.6"/>
      
      <!-- Glossy highlight -->
      <path d="M -25 -9 C -10 -15, 10 -15, 25 -9" fill="none" stroke="#FFF" stroke-width="2.5" opacity="0.4" filter="url(#blur)"/>
    </g>

    <g id="flop-card">
      <rect width="70" height="100" rx="6" fill="url(#cardGrad)" stroke="#BCAAA4" stroke-width="1.5" filter="url(#lightShadow)"/>
      <rect x="4" y="4" width="62" height="92" rx="4" fill="none" stroke="#D7CCC8" stroke-width="1"/>
      <!-- Inner crisp border -->
      <rect x="8" y="8" width="54" height="84" rx="2" fill="none" stroke="#EFEBE9" stroke-width="0.5"/>
    </g>
  </defs>

  <!-- ================= BACKGROUND & ATMOSPHERE ================= -->
  <rect width="1000" height="800" fill="url(#wallpaper)"/>
  
  <!-- Ambient Deep Shadow -->
  <radialGradient id="bgShadow" cx="50%" cy="50%" r="50%">
    <stop offset="40%" stop-color="#000" stop-opacity="0"/>
    <stop offset="100%" stop-color="#000" stop-opacity="0.8"/>
  </radialGradient>
  <rect width="1000" height="800" fill="url(#bgShadow)"/>

  <!-- Thick Background Smoke (Cinematic Layers) -->
  <path d="M -50 300 Q 200 50 450 350 T 1100 150" fill="none" stroke="#B0BEC5" stroke-width="140" opacity="0.04" filter="url(#smokeBlur)"/>
  <path d="M -100 500 Q 300 300 700 600 T 1200 300" fill="none" stroke="#90A4AE" stroke-width="180" opacity="0.05" filter="url(#smokeBlur)"/>
  <path d="M 200 800 Q 500 400 800 800" fill="none" stroke="#FFF" stroke-width="100" opacity="0.02" filter="url(#smokeBlur)"/>

  <!-- Volumetric Lamp Spotlight (Warm Gold/Orange) -->
  <polygon points="400,-50 600,-50 1050,850 -50,850" fill="#FFB300" opacity="0.06" style="mix-blend-mode: color-dodge;"/>
  <polygon points="450,-50 550,-50 850,850 150,850" fill="#FFF" opacity="0.04" style="mix-blend-mode: overlay;"/>
  <circle cx="500" cy="-50" r="450" fill="#FFC107" opacity="0.12" filter="url(#smokeBlur)"/>

  <!-- ================= HYENA CHARACTER (BACK/BODY) ================= -->
  
  <!-- Massive Shoulders & Torso -->
  <path d="M 180 850 C 130 550, 320 420, 500 420 C 680 420, 870 550, 820 850 Z" fill="#2D1C15"/>
  <path d="M 280 850 C 270 600, 390 510, 500 510 C 610 510, 730 600, 720 850 Z" fill="#A1887F" opacity="0.6"/>
  
  <!-- Shaggy Body Fur Texture (Jagged Paths) -->
  <g fill="#160C08" opacity="0.8">
    <polygon points="250,550 280,600 240,580" />
    <polygon points="210,650 250,710 220,680" />
    <polygon points="280,750 320,810 270,780" />
    <polygon points="750,550 720,600 760,580" />
    <polygon points="790,650 750,710 780,680" />
    <polygon points="720,750 680,810 730,780" />
  </g>

  <!-- Back Mane (Wild, spiky, catching the backlight) -->
  <g filter="url(#shadow)">
    <path d="M 440 280 L 390 190 L 460 210 L 430 110 L 490 160 L 490 50 L 530 140 L 580 60 L 560 150 L 630 120 L 590 200 L 660 230 L 580 270 L 620 330 Z" fill="#160C08"/>
    <!-- Mane Rim Highlights (Warm Gold) -->
    <path d="M 490 50 L 530 140 L 580 60 L 560 150 L 630 120 L 590 200 L 660 230 L 610 200 L 550 140 L 510 110 Z" fill="none" stroke="#FFC107" stroke-width="4" opacity="0.4" filter="url(#glow)"/>
    <path d="M 490 50 L 530 140 L 580 60 L 560 150 L 630 120" fill="none" stroke="#FFF" stroke-width="1.5" opacity="0.6"/>
    <!-- Inner Mane Texture -->
    <path d="M 470 230 L 440 150 L 480 180 L 500 90 L 520 160 L 560 100 L 550 170 L 600 150 L 560 220 Z" fill="#3E2723"/>
  </g>

  <!-- Left Ear (Ragged, furry edges) -->
  <g filter="url(#lightShadow)">
    <path d="M 390 310 C 330 180, 240 180, 240 330 C 240 390, 310 400, 390 350 Z" fill="#4E342E" stroke="#160C08" stroke-width="5"/>
    <path d="M 370 310 C 330 220, 270 230, 270 340 Z" fill="#2D1C15"/>
    <path d="M 360 300 C 330 240, 290 250, 290 330 Z" fill="#8D6E63" opacity="0.5"/>
    <!-- Ear Fur Tufts -->
    <path d="M 240 300 L 210 290 L 245 320 M 240 340 L 205 350 L 250 360" fill="#4E342E"/>
    <!-- SSS Light -->
    <path d="M 280 230 C 330 240, 360 280, 380 310" fill="none" stroke="#FFB300" stroke-width="3" opacity="0.4" filter="url(#glow)"/>
  </g>
  
  <!-- Right Ear (Torn, pierced, heavily backlit) -->
  <g filter="url(#lightShadow)">
    <path d="M 610 310 C 670 180, 760 180, 760 330 C 760 390, 690 400, 610 350 Z" fill="#4E342E" stroke="#160C08" stroke-width="5"/>
    <!-- Subsurface scattering on ear -->
    <path d="M 610 310 C 670 180, 760 180, 760 330 C 760 390, 690 400, 610 350 Z" fill="#D84315" opacity="0.4" filter="url(#blur)"/>
    <path d="M 630 310 C 670 220, 730 230, 730 340 Z" fill="#2D1C15"/>
    <path d="M 640 300 C 670 240, 710 250, 710 330 Z" fill="#8D6E63" opacity="0.5"/>
    <!-- Ear Fur Tufts -->
    <path d="M 760 300 L 790 290 L 755 320 M 760 340 L 795 350 L 750 360" fill="#4E342E"/>
    <!-- Ear Tear -->
    <path d="M 770 270 L 690 310 L 735 340 Z" fill="#0d0608"/> 
    <path d="M 690 310 L 735 340" stroke="#FFB300" stroke-width="2" opacity="0.6"/>
    <!-- Triple Gold Earrings -->
    <circle cx="750" cy="355" r="16" fill="none" stroke="#FFD54F" stroke-width="6" filter="url(#shadow)"/>
    <circle cx="750" cy="355" r="16" fill="none" stroke="#FFF" stroke-width="1.5" opacity="0.8"/>
    <circle cx="715" cy="390" r="10" fill="none" stroke="#FFD54F" stroke-width="5" filter="url(#shadow)"/>
    <circle cx="715" cy="390" r="10" fill="none" stroke="#FFF" stroke-width="1" opacity="0.8"/>
    <circle cx="680" cy="410" r="7" fill="none" stroke="#FFD54F" stroke-width="4"/>
  </g>

  <!-- ================= BASE HEAD & JOWLS ================= -->
  
  <!-- Base Head Shape -->
  <path d="M 360 360 C 360 220, 640 220, 640 360 C 660 480, 500 490, 500 490 C 500 490, 340 480, 360 360 Z" fill="#6D4C41"/>
  <!-- Top Rim light on head -->
  <path d="M 380 310 C 440 240, 560 240, 620 310" fill="none" stroke="#FFC107" stroke-width="8" opacity="0.4" filter="url(#glow)"/>
  
  <!-- Wide, furry, rugged jowls -->
  <path d="M 330 380 C 220 500, 370 600, 500 600 C 630 600, 780 500, 670 380 C 720 520, 590 630, 500 630 C 410 630, 280 520, 330 380 Z" fill="#4E342E"/>
  <path d="M 350 400 C 280 500, 400 580, 500 580 C 600 580, 720 500, 650 400 Z" fill="#5D4037"/>
  
  <!-- Dynamic Jowl Fur Spikes (Left) -->
  <polygon points="310,430 260,460 330,480" fill="#3E2723"/>
  <polygon points="320,490 270,530 350,530" fill="#3E2723"/>
  <polygon points="340,550 300,590 380,570" fill="#3E2723"/>
  <!-- Dynamic Jowl Fur Spikes (Right) -->
  <polygon points="690,430 740,460 670,480" fill="#3E2723"/>
  <polygon points="680,490 730,530 650,530" fill="#3E2723"/>
  <polygon points="660,550 700,590 620,570" fill="#3E2723"/>

  <!-- Classic Hyena Face Spots -->
  <g fill="#1A110C" opacity="0.85">
    <circle cx="360" cy="480" r="14" />
    <ellipse cx="320" cy="540" rx="12" ry="16" transform="rotate(20, 320, 540)"/>
    <ellipse cx="380" cy="570" rx="10" ry="14" transform="rotate(-15, 380, 570)"/>
    <circle cx="640" cy="480" r="15" />
    <ellipse cx="680" cy="540" rx="14" ry="18" transform="rotate(-20, 680, 540)"/>
    <ellipse cx="620" cy="570" rx="10" ry="14" transform="rotate(15, 620, 570)"/>
    <circle cx="410" cy="270" r="14"/>
    <circle cx="590" cy="265" r="16"/>
    <ellipse cx="630" cy="330" rx="10" ry="14" transform="rotate(-30, 630, 330)"/>
    <ellipse cx="370" cy="335" rx="10" ry="14" transform="rotate(30, 370, 335)"/>
  </g>

  <!-- Prominent Muzzle/Snout Structure -->
  <path d="M 420 370 C 380 490, 420 550, 500 550 C 580 550, 620 490, 580 370 C 530 400, 470 400, 420 370 Z" fill="#8D6E63"/>
  <path d="M 440 380 C 410 480, 440 520, 500 520 C 560 520, 590 480, 560 380 Z" fill="#D7CCC8"/>
  
  <!-- Muzzle Ridge / Bridge Highlight -->
  <path d="M 480 380 C 490 460, 510 460, 520 380 Z" fill="#FFF" opacity="0.2" filter="url(#glow)"/>
  
  <!-- Whisker Pores & Root Dots -->
  <g fill="#3E2723" opacity="0.7">
    <circle cx="450" cy="450" r="3"/> <circle cx="435" cy="465" r="2.5"/> <circle cx="460" cy="475" r="3.5"/>
    <circle cx="440" cy="485" r="2"/> <circle cx="455" cy="495" r="3"/>
    <circle cx="550" cy="450" r="3"/> <circle cx="565" cy="465" r="2.5"/> <circle cx="540" cy="475" r="3.5"/>
    <circle cx="560" cy="485" r="2"/> <circle cx="545" cy="495" r="3"/>
  </g>
  <!-- Whiskers (Wild, broken, catching light) -->
  <g fill="none" stroke="#EFEBE9" stroke-width="1.5" opacity="0.6">
    <path d="M 435 465 Q 350 450 300 480" />
    <path d="M 440 485 Q 360 490 310 520" />
    <path d="M 455 495 Q 380 520 330 560" />
    <path d="M 565 465 Q 650 450 700 480" />
    <path d="M 560 485 Q 640 490 690 520" />
    <path d="M 545 495 Q 620 520 670 560" />
  </g>


  <!-- ================= THE MANIC EYES ================= -->

  <!-- Deep, Exhausted Eye Sockets (Dark rings) -->
  <path d="M 360 330 C 340 420, 480 440, 480 340 Z" fill="#211A16" opacity="0.85" filter="url(#blur)"/>
  <path d="M 640 320 C 660 420, 520 440, 520 330 Z" fill="#1A0A0C" opacity="0.9" filter="url(#blur)"/>
  
  <!-- Under-eye Stress / Wrinkle Lines -->
  <path d="M 370 380 Q 425 430, 480 380" fill="none" stroke="#160C08" stroke-width="8" stroke-linecap="round"/>
  <path d="M 380 395 Q 425 440, 470 395" fill="none" stroke="#2D1C15" stroke-width="4" stroke-linecap="round"/>
  <path d="M 520 380 Q 575 430, 630 380" fill="none" stroke="#160C08" stroke-width="8" stroke-linecap="round"/>
  <path d="M 530 395 Q 575 440, 620 395" fill="none" stroke="#3E1111" stroke-width="4" stroke-linecap="round"/>

  <!-- LEFT EYE (Squinting, Twitching, Suspicious) -->
  <path d="M 385 355 Q 430 325 475 355 Q 430 375 385 355 Z" fill="url(#eyeScleraLeft)" stroke="#050200" stroke-width="4"/>
  <!-- Left Eye Twitch Veins -->
  <path d="M 375 345 L 395 352 M 465 345 L 485 350" stroke="#000" stroke-width="2.5"/>
  <path d="M 385 355 Q 400 345 410 350" fill="none" stroke="#C62828" stroke-width="1.5" opacity="0.6"/>
  <!-- Left Iris & Pupil -->
  <circle cx="430" cy="355" r="11" fill="url(#eyeIris)"/>
  <circle cx="430" cy="355" r="4.5" fill="#000"/>

  <!-- RIGHT EYE (Massive, Blown Out, Bloodshot, Manic) -->
  <circle cx="575" cy="345" r="35" fill="url(#eyeScleraRight)" stroke="#050200" stroke-width="6"/>
  <!-- Heavy Bloodshot Veins (Right Eye) -->
  <g fill="none" stroke="#B71C1C" stroke-width="2" opacity="0.8">
    <path d="M 540 345 Q 550 325 560 340 T 565 330"/>
    <path d="M 610 345 Q 600 325 590 340 T 585 330"/>
    <path d="M 575 310 Q 570 325 575 335"/>
    <path d="M 545 370 Q 555 355 560 365 T 570 355"/>
    <path d="M 605 370 Q 595 355 590 365 T 580 355"/>
    <path d="M 540 330 Q 555 335 550 345"/>
    <path d="M 610 330 Q 595 335 600 345"/>
  </g>
  <!-- Bloodshot Rim -->
  <path d="M 540 345 A 35 35 0 0 1 610 345" fill="none" stroke="#880E4F" stroke-width="5" opacity="0.7"/> 

  <!-- Right Iris & Pupil (Dilated) -->
  <circle cx="575" cy="345" r="20" fill="url(#eyeIris)"/>
  <circle cx="575" cy="345" r="16" fill="#000"/>
  
  <!-- Wet Eye Catchlights (Sharp & Glossy) -->
  <circle cx="432" cy="352" r="3" fill="#FFF"/>
  <circle cx="582" cy="336" r="7" fill="#FFF" filter="url(#glow)"/>
  <circle cx="568" cy="352" r="3" fill="#FFF" opacity="0.9"/>
  <!-- Wet rim glint on the bottom eyelid -->
  <path d="M 550 375 A 35 35 0 0 0 600 375" fill="none" stroke="#FFF" stroke-width="2" opacity="0.5"/>

  <!-- Expressive Eyebrows (Thick, Dark, Asymmetrical) -->
  <!-- Left brow down -->
  <path d="M 360 335 Q 430 280 490 355" fill="none" stroke="#0A0502" stroke-width="18" stroke-linecap="round" filter="url(#lightShadow)"/>
  <path d="M 365 335 Q 430 285 485 355" fill="none" stroke="#3E2723" stroke-width="6" stroke-linecap="round"/>
  <!-- Right brow way up -->
  <path d="M 510 340 Q 580 230 650 320" fill="none" stroke="#0A0502" stroke-width="20" stroke-linecap="round" filter="url(#lightShadow)"/>
  <path d="M 515 340 Q 580 235 645 320" fill="none" stroke="#3E2723" stroke-width="6" stroke-linecap="round"/>

  <!-- Dog-like Wet Nose -->
  <path d="M 445 405 C 445 365, 555 365, 555 405 C 555 425, 530 465, 500 465 C 470 465, 445 425, 445 405 Z" fill="#0A0502"/>
  <!-- Nostrils -->
  <ellipse cx="468" cy="425" rx="15" ry="7" fill="#000" transform="rotate(-25, 468, 425)"/>
  <ellipse cx="532" cy="425" rx="15" ry="7" fill="#000" transform="rotate(25, 532, 425)"/>
  <!-- Nose split line -->
  <path d="M 500 435 L 500 465" stroke="#000" stroke-width="4" stroke-linecap="round"/>
  <!-- Nose Specular Highlights (Makes it look very wet) -->
  <path d="M 460 395 C 480 380, 520 380, 540 395 C 530 410, 470 410, 460 395 Z" fill="#FFF" opacity="0.25" filter="url(#blur)"/>
  <ellipse cx="480" cy="398" rx="14" ry="6" fill="#FFF" opacity="0.65" transform="rotate(-12, 480, 398)"/>
  <circle cx="528" cy="402" r="4" fill="#FFF" opacity="0.5"/>


  <!-- ================= THE DEGENERATE GRIN ================= -->
  
  <!-- Dark Mouth Cavity -->
  <path d="M 320 430 C 430 610, 570 610, 680 430 C 570 680, 430 680, 320 430 Z" fill="#050100" filter="url(#shadow)"/>
  
  <!-- Back Gums & Tongue -->
  <path d="M 400 520 C 470 600, 530 600, 600 520 C 530 570, 470 570, 400 520 Z" fill="#4A0011" opacity="0.95"/>
  <!-- Tongue Top Edge Highlight -->
  <path d="M 440 545 C 470 570, 530 570, 560 545" fill="none" stroke="#D81B60" stroke-width="10" stroke-linecap="round" filter="url(#blur)"/>

  <!-- Carnivore Teeth (Individually shaped for maximum impact) -->
  <g fill="url(#teethGrad)" stroke="#160C08" stroke-width="3" stroke-linejoin="round">
    <!-- UPPER TEETH -->
    <polygon points="340,440 370,490 380,450" />
    <polygon points="380,450 410,510 420,460" />
    <polygon points="420,460 450,530 465,475" />
    <!-- Massive Left Canine -->
    <polygon points="465,475 490,560 515,480" /> 
    <!-- Massive Right Canine -->
    <polygon points="515,480 545,555 560,470" />
    <polygon points="560,470 590,520 600,455" />
    <polygon points="600,455 625,500 635,445" />
    <polygon points="635,445 655,480 660,435" />
    
    <!-- LOWER TEETH -->
    <polygon points="380,530 395,490 410,540" />
    <polygon points="410,540 435,485 450,550" />
    <!-- Lower Left Canine -->
    <polygon points="450,550 475,480 495,565" />
    <!-- Lower Right Canine -->
    <polygon points="505,565 525,480 545,555" />
    <polygon points="545,555 570,495 585,540" />
    <polygon points="585,540 605,505 615,530" />
  </g>

  <!-- Teeth Specular Glints -->
  <g fill="#FFF" opacity="0.6">
    <!-- Upper canines -->
    <polygon points="480,520 486,545 492,520" />
    <polygon points="530,515 536,540 542,515" />
    <!-- Lower canines -->
    <polygon points="470,515 475,495 480,515" />
    <polygon points="520,515 525,495 530,515" />
  </g>

  <!-- Lips / Grin outline -->
  <path d="M 320 430 C 430 610, 570 610, 680 430" fill="none" stroke="#160905" stroke-width="16" stroke-linecap="round" filter="url(#lightShadow)"/>
  <path d="M 320 430 C 430 610, 570 610, 680 430" fill="none" stroke="#3E1C14" stroke-width="6" stroke-linecap="round"/>

  <!-- Thick Saliva / Drool (Disgusting, beautifully rendered) -->
  <g fill="#E1F5FE" opacity="0.8">
    <path d="M 385 510 Q 395 580 380 605 Q 370 580 385 510 Z"/>
    <path d="M 605 470 Q 615 540 600 565 Q 590 540 605 470 Z"/>
    <path d="M 460 550 Q 470 610 480 640 Q 465 610 460 550 Z"/>
  </g>
  <!-- Spit strings stretching across the jaw -->
  <path d="M 440 515 Q 460 545 445 565" fill="none" stroke="#E1F5FE" stroke-width="4" opacity="0.8"/>
  <path d="M 540 510 Q 525 535 545 555" fill="none" stroke="#E1F5FE" stroke-width="3" opacity="0.7"/>
  <path d="M 480 485 Q 500 525 515 485" fill="none" stroke="#E1F5FE" stroke-width="2.5" opacity="0.6"/>
  
  <!-- Saliva Specular Highlights (Makes it look glass-wet) -->
  <g fill="#FFF">
    <path d="M 383 520 L 387 565 L 385 520 Z" stroke="#FFF" stroke-width="1.5"/>
    <path d="M 603 480 L 607 525 L 605 480 Z" stroke="#FFF" stroke-width="1.5"/>
    <path d="M 466 565 L 471 605 L 468 565 Z" stroke="#FFF" stroke-width="1.5"/>
    <circle cx="380" cy="610" r="3.5"/>
    <circle cx="600" cy="570" r="3"/>
    <circle cx="480" cy="646" r="4"/>
  </g>

  <!-- Giant Cigar in Mouth (Overlapping the grin) -->
  <g transform="translate(600, 465) rotate(-24)" filter="url(#shadow)">
    <!-- Main Body -->
    <rect x="-20" y="-15" width="120" height="30" rx="8" fill="#3E2723" stroke="#160C08" stroke-width="2.5"/>
    <!-- Cylinder Highlight/Texture -->
    <rect x="-20" y="-12" width="120" height="8" rx="4" fill="#6D4C41" opacity="0.7"/>
    <!-- Leaf wrapping lines -->
    <path d="M -15 -8 L 95 8 M -15 0 L 95 15 M 15 -15 L 45 15 L 75 -15 L 100 15" fill="none" stroke="#211A16" stroke-width="2" opacity="0.6"/>
    <!-- Cigar Band (Gold & Red) -->
    <rect x="25" y="-16" width="24" height="32" fill="#B71C1C" stroke="#160C08" stroke-width="1.5"/>
    <rect x="28" y="-14" width="18" height="28" fill="none" stroke="#FFD54F" stroke-width="2"/>
    <circle cx="37" cy="0" r="6" fill="#FFC107"/>
    <path d="M 35 -6 L 39 6" stroke="#FFF" stroke-width="1"/>
    
    <!-- Ash (Textured) -->
    <path d="M 100 -14 L 130 -10 L 135 10 L 100 14 Z" fill="#9E9E9E" stroke="#424242" stroke-width="2"/>
    <path d="M 105 -13 L 110 13 M 115 -12 L 118 12 M 122 -11 L 121 11 M 126 -10 L 128 10" stroke="#757575" stroke-width="2.5"/>
    <path d="M 125 -6 L 133 6" stroke="#E0E0E0" stroke-width="2"/>
    
    <!-- Glowing Ember -->
    <ellipse cx="132" cy="0" rx="8" ry="12" fill="url(#cigarGlow)" filter="url(#intenseGlow)"/>
    <ellipse cx="132" cy="0" rx="4" ry="7" fill="#FFF"/>
    <!-- Ember Crackles -->
    <path d="M 128 -5 L 132 0 L 129 5 M 134 -4 L 136 2" fill="none" stroke="#FFF" stroke-width="1.5"/>
    
    <!-- Falling Ash Particles -->
    <circle cx="130" cy="25" r="3.5" fill="#9E9E9E" opacity="0.9"/>
    <circle cx="135" cy="45" r="2" fill="#BDBDBD" opacity="0.7"/>
    <circle cx="120" cy="35" r="1.5" fill="#757575" opacity="0.8"/>
  </g>

  <!-- Thick Ethereal Smoke from Cigar -->
  <g filter="url(#smokeBlur)" opacity="0.8">
    <!-- Main dense plume -->
    <path d="M 720 440 Q 780 370 730 280 T 800 150 T 680 0" fill="none" stroke="#FFF" stroke-width="25" stroke-linecap="round"/>
    <!-- Blueish secondary layer -->
    <path d="M 725 445 Q 790 380 740 290 T 810 160 T 690 10" fill="none" stroke="#90A4AE" stroke-width="15" stroke-linecap="round"/>
    <!-- Wispy tendrils -->
    <path d="M 710 430 Q 680 380 710 330 T 680 200 T 750 80" fill="none" stroke="#FFF" stroke-width="10" stroke-linecap="round" opacity="0.7"/>
    <path d="M 740 450 Q 830 400 780 300 T 820 150" fill="none" stroke="#E0E0E0" stroke-width="18" stroke-linecap="round" opacity="0.6"/>
  </g>


  <!-- ================= ACCESSORIES (DEALER VISOR) ================= -->

  <!-- Green Translucent Dealer Visor -->
  <g filter="url(#shadow)">
    <!-- Brim Shadow / Inner edge -->
    <path d="M 270 290 C 370 420, 630 420, 730 290 C 630 360, 370 360, 270 290 Z" fill="#0A2A0D"/>
    
    <!-- Brim Front (Translucent green plastic) -->
    <path d="M 250 270 C 370 420, 630 420, 750 270 C 630 330, 370 330, 250 270 Z" fill="url(#visorGrad)" stroke="#1B5E20" stroke-width="3"/>
    
    <!-- Plastic Curve Specular Reflection -->
    <path d="M 280 280 C 390 400, 610 400, 720 280 C 610 320, 390 320, 280 280 Z" fill="#FFF" opacity="0.4" filter="url(#blur)"/>
    <path d="M 320 290 C 400 370, 600 370, 680 290" fill="none" stroke="#FFF" stroke-width="6" opacity="0.5" filter="url(#blur)"/>
    
    <!-- Crisp White Rim Line -->
    <path d="M 250 270 C 370 420, 630 420, 750 270" fill="none" stroke="#FFF" stroke-width="5" opacity="0.9"/>
    
    <!-- Leather Head Strap -->
    <path d="M 235 255 C 320 190, 680 190, 765 255 L 750 270 C 670 210, 330 210, 250 270 Z" fill="#111" stroke="#000" stroke-width="2"/>
    <!-- Strap Adjuster / Brass Rivets -->
    <rect x="260" y="225" width="20" height="34" rx="4" fill="#FFC107" transform="rotate(-38, 260, 225)"/>
    <circle cx="268" cy="230" r="3.5" fill="#3E2723" transform="rotate(-38, 260, 225)"/>
    <circle cx="268" cy="254" r="3.5" fill="#3E2723" transform="rotate(-38, 260, 225)"/>
  </g>

  <!-- Green Light Cast on Forehead (Multiplying over the fur) -->
  <path d="M 300 310 C 420 395, 580 395, 700 310 C 600 270, 400 270, 300 310 Z" fill="#2E7D32" opacity="0.5" style="mix-blend-mode: multiply;" filter="url(#blur)"/>


  <!-- ================= THE POKER TABLE (MIDGROUND) ================= -->
  
  <!-- Outer Wooden Rail (Rich Polished Mahogany) -->
  <ellipse cx="500" cy="850" rx="980" ry="380" fill="url(#woodRail)" stroke="#050201" stroke-width="50" filter="url(#shadow)"/>
  
  <!-- Rail Highlights & Leather Padding Edge -->
  <ellipse cx="500" cy="850" rx="980" ry="380" fill="none" stroke="#FFCC80" stroke-width="12" opacity="0.3"/>
  <ellipse cx="500" cy="850" rx="930" ry="330" fill="none" stroke="#160C08" stroke-width="18" opacity="0.95"/>
  <ellipse cx="500" cy="850" rx="920" ry="320" fill="none" stroke="#FFF" stroke-width="3" opacity="0.2"/>

  <!-- Vibrant Green Felt Surface -->
  <ellipse cx="500" cy="850" rx="910" ry="310" fill="url(#tableGlow)"/>
  
  <!-- Casino Table Inlay Lines (Gold) -->
  <ellipse cx="500" cy="850" rx="830" ry="260" fill="none" stroke="#FBC02D" stroke-width="6" opacity="0.85"/>
  <ellipse cx="500" cy="850" rx="810" ry="240" fill="none" stroke="#FFC107" stroke-width="2" opacity="0.5"/>


  <!-- ================= TABLE PROPS ================= -->
  
  <!-- Table Cast Shadows (Ambient Occlusion) -->
  <ellipse cx="170" cy="700" rx="70" ry="25" fill="#000" opacity="0.7" filter="url(#blur)"/>
  <ellipse cx="360" cy="740" rx="110" ry="35" fill="#000" opacity="0.7" filter="url(#blur)"/>
  <ellipse cx="500" cy="720" rx="130" ry="30" fill="#000" opacity="0.5" filter="url(#blur)"/>
  <!-- Whiskey Glass Amber Caustic Refraction Shadow -->
  <ellipse cx="180" cy="705" rx="55" ry="20" fill="#E65100" opacity="0.5" filter="url(#blur)"/>

  <!-- Heavy Crystal Whiskey Glass -->
  <g transform="translate(120, 610)">
    <!-- Back Glass edge -->
    <path d="M 5 0 L 95 0 L 85 100 L 15 100 Z" fill="#FFF" opacity="0.08"/>
    <ellipse cx="50" cy="100" rx="35" ry="12" fill="#FFF" opacity="0.15"/>
    
    <!-- Rich Amber Liquid -->
    <path d="M 12 35 L 88 35 L 80 95 L 20 95 Z" fill="url(#whiskeyGrad)" opacity="0.95"/>
    <!-- Liquid Meniscus / Top Surface -->
    <ellipse cx="50" cy="35" rx="38" ry="12" fill="#FFCA28" opacity="0.9"/>
    <ellipse cx="50" cy="35" rx="35" ry="10" fill="#FF8F00" opacity="0.5"/>
    <path d="M 12 35 Q 50 48 88 35" fill="none" stroke="#FFF" stroke-width="2" opacity="0.6"/>

    <!-- Realistic Ice Cubes (Submerged & Floating) -->
    <g opacity="0.85" stroke="#FFF" stroke-width="1.5">
      <!-- Cube 1 (Bottom, warped by liquid) -->
      <rect x="22" y="55" width="32" height="32" rx="5" fill="#E0F7FA" transform="rotate(15, 38, 71)" opacity="0.5"/>
      <path d="M 28 60 L 48 65" stroke-width="2"/>
      <path d="M 32 62 L 35 80" stroke-width="1.5"/>
      <!-- Cube 2 (Floating, breaking surface) -->
      <rect x="42" y="22" width="30" height="30" rx="5" fill="#B2EBF2" transform="rotate(-25, 57, 37)"/>
      <path d="M 45 28 L 62 22" stroke-width="2.5"/>
      <path d="M 50 25 L 55 45" stroke-width="2"/>
    </g>

    <!-- Front Glass & Sharp Reflections -->
    <path d="M 5 0 L 95 0 L 85 100 L 15 100 Z" fill="none" stroke="#FFF" stroke-width="5" opacity="0.6" stroke-linejoin="round"/>
    <ellipse cx="50" cy="0" rx="45" ry="15" fill="none" stroke="#FFF" stroke-width="5" opacity="0.9"/>
    
    <!-- Heavy Base Crystal -->
    <path d="M 15 100 L 85 100 L 80 115 L 20 115 Z" fill="#FFF" opacity="0.25"/>
    <ellipse cx="50" cy="115" rx="30" ry="10" fill="none" stroke="#FFF" stroke-width="4" opacity="0.7"/>
    <!-- Base cut glass detail -->
    <path d="M 25 105 L 35 110 M 45 105 L 50 112 M 65 105 L 60 112 M 75 105 L 70 110" stroke="#FFF" stroke-width="2" opacity="0.5"/>
    
    <!-- Crisp White Specular Glare -->
    <path d="M 12 15 L 22 95" stroke="#FFF" stroke-width="6" stroke-linecap="round" opacity="0.95"/>
    <path d="M 88 15 L 80 75" stroke="#FFF" stroke-width="2" stroke-linecap="round" opacity="0.6"/>
  </g>

  <!-- Chips Stacks (Massive, Messy, High Stakes) -->
  <g filter="url(#shadow)">
    <!-- Back Red Stack -->
    <g style="color: #D32F2F" transform="translate(310, 710)">
      <use href="#chip" y="0"/> <use href="#chip" y="-13"/> <use href="#chip" y="-26"/>
      <use href="#chip" y="-39"/> <use href="#chip" y="-52"/> <use href="#chip" y="-65"/>
      <use href="#chip" y="-78"/> <use href="#chip" y="-91" transform="rotate(12, 0, -91)"/>
    </g>
    <!-- Blue Stack (Tilted) -->
    <g style="color: #1976D2" transform="translate(240, 735) rotate(-5)">
      <use href="#chip" y="0"/> <use href="#chip" y="-13"/> <use href="#chip" y="-26"/>
      <use href="#chip" y="-39"/> <use href="#chip" y="-52"/>
    </g>
    <!-- Black/Gold High Value Stack -->
    <g style="color: #FFA000" transform="translate(390, 740)">
      <use href="#chip" y="0"/> <use href="#chip" y="-13"/> <use href="#chip" y="-26"/>
      <use href="#chip" y="-39" transform="translate(5, 0)"/>
    </g>
    <!-- Scattered Chips -->
    <use href="#chip" x="360" y="760" style="color: #388E3C" transform="rotate(-22, 360, 760)"/>
    <use href="#chip" x="430" y="755" style="color: #D32F2F" transform="rotate(25, 430, 755)"/>
    <use href="#chip" x="280" y="770" style="color: #1976D2" transform="rotate(10, 280, 770)"/>
    <use href="#chip" x="340" y="775" style="color: #FFA000" transform="rotate(-5, 340, 775)"/>
    
    <!-- Dynamic Motion (Falling Chip) -->
    <use href="#chip" x="420" y="670" style="color: #388E3C" transform="rotate(45, 420, 670)" filter="url(#blur)"/>
  </g>

  <!-- Community Cards (The Flop - A♠ K♠ K♦) -->
  <g transform="translate(510, 680) scale(1, 0.75) skewX(-35) rotate(-12)" filter="url(#shadow)">
    <!-- Card 1 (A♠) -->
    <g transform="translate(-140, 0) rotate(-6)">
      <use href="#flop-card"/>
      <text x="12" y="28" fill="#111" font-family="Arial, Helvetica, sans-serif" font-weight="bold" font-size="22">A</text>
      <use href="#suit-spade" x="18" y="44" transform="scale(0.8)"/>
      <use href="#suit-spade" x="35" y="65" transform="scale(1.8)"/>
    </g>
    <!-- Card 2 (K♠) -->
    <g transform="translate(-55, 10) rotate(3)">
      <use href="#flop-card"/>
      <text x="12" y="28" fill="#111" font-family="Arial, Helvetica, sans-serif" font-weight="bold" font-size="22">K</text>
      <use href="#suit-spade" x="18" y="44" transform="scale(0.8)"/>
      <use href="#suit-spade" x="35" y="65" transform="scale(1.8)"/>
    </g>
    <!-- Card 3 (K♦) -->
    <g transform="translate(30, 0) rotate(12)">
      <use href="#flop-card"/>
      <text x="12" y="28" fill="#D32F2F" font-family="Arial, Helvetica, sans-serif" font-weight="bold" font-size="22">K</text>
      <use href="#suit-diamond" x="18" y="44" transform="scale(0.8)"/>
      <use href="#suit-diamond" x="35" y="65" transform="scale(1.8)"/>
    </g>
  </g>

  <!-- Spiked Collar (Midground overlap) -->
  <g filter="url(#shadow)">
    <!-- Leather Band -->
    <path d="M 290 560 Q 500 680 710 560 L 730 610 Q 500 735 270 610 Z" fill="#0A0502"/>
    <!-- Collar Edge / Stitching -->
    <path d="M 280 575 Q 500 700 720 575" fill="none" stroke="#3E2723" stroke-width="5"/>
    <path d="M 280 575 Q 500 700 720 575" fill="none" stroke="#000" stroke-width="1.5" stroke-dasharray="8 5"/>
    
    <!-- Massive Metal Spikes (Polished, sharp) -->
    <g stroke="#000" stroke-width="2">
      <polygon points="330,590 320,670 360,600" fill="url(#metalSpike)"/>
      <polygon points="405,620 410,710 440,630" fill="url(#metalSpike)"/>
      <polygon points="490,635 500,730 525,635" fill="url(#metalSpike)"/>
      <polygon points="575,630 595,710 610,620" fill="url(#metalSpike)"/>
      <polygon points="655,600 690,670 685,590" fill="url(#metalSpike)"/>
    </g>
    <!-- Spike bases / Rings -->
    <ellipse cx="345" cy="595" rx="18" ry="7" fill="#37474F" transform="rotate(-15, 345, 595)"/>
    <ellipse cx="423" cy="625" rx="20" ry="8" fill="#37474F" transform="rotate(-5, 423, 625)"/>
    <ellipse cx="508" cy="635" rx="22" ry="8" fill="#37474F"/>
    <ellipse cx="592" cy="625" rx="20" ry="8" fill="#37474F" transform="rotate(5, 592, 625)"/>
    <ellipse cx="670" cy="595" rx="18" ry="7" fill="#37474F" transform="rotate(15, 670, 595)"/>
  </g>

  <!-- Left Arm & Paw (Guarding the pot, articulated fingers) -->
  <g filter="url(#shadow)">
    <!-- Arm coming from offscreen -->
    <path d="M -50 950 C 0 760, 160 700, 280 770 L 120 950 Z" fill="#2D1C15"/>
    <path d="M 160 700 C 220 720, 260 740, 280 770" fill="none" stroke="#FFC107" stroke-width="5" opacity="0.3" filter="url(#glow)"/>
    
    <!-- Arm Fur Texture Spikes -->
    <polygon points="120,705 140,670 160,700" fill="#2D1C15"/>
    <polygon points="190,725 210,690 230,735" fill="#2D1C15"/>
    <polygon points="250,755 280,720 270,765" fill="#2D1C15"/>

    <!-- Back of hand / Knuckles -->
    <path d="M 220 750 Q 280 730 310 770 Q 330 810 270 830 Q 210 810 220 750 Z" fill="#3E2723"/>
    
    <!-- Articulated Fingers (Wrapping over chips) -->
    <g fill="#160C08" stroke="#050200" stroke-width="4">
      <!-- Index Finger -->
      <path d="M 290 760 Q 340 730 360 765 Q 370 785 330 805 Q 300 785 290 760 Z"/>
      <!-- Middle Finger -->
      <path d="M 270 775 Q 330 750 345 790 Q 355 815 315 825 Q 280 805 270 775 Z"/>
      <!-- Ring Finger -->
      <path d="M 250 790 Q 300 775 315 815 Q 315 840 275 845 Q 240 820 250 790 Z"/>
    </g>
    <!-- Knuckle highlights -->
    <circle cx="285" cy="770" r="6" fill="#FFF" opacity="0.15"/>
    <circle cx="265" cy="785" r="6" fill="#FFF" opacity="0.15"/>
    <circle cx="245" cy="800" r="6" fill="#FFF" opacity="0.15"/>

    <!-- Razor Sharp Claws gripping -->
    <g fill="#0A0502">
      <polygon points="350,770 395,780 345,795" />
      <polygon points="335,800 375,825 325,820" />
      <polygon points="305,825 335,860 290,840" />
    </g>
    <!-- Claw Specular Glints -->
    <path d="M 353,774 L 388,780 M 338,805 L 368,822 M 308,832 L 328,855" stroke="#FFF" stroke-width="2" opacity="0.7"/>
  </g>


  <!-- ================= FOREGROUND (RIGHT PAW & WINNING HAND) ================= -->
  
  <!-- Right Arm coming up -->
  <path d="M 1050 950 C 1000 700, 840 610, 660 720 L 740 950 Z" fill="#2D1C15" filter="url(#shadow)"/>
  
  <!-- Right Arm Fur Spikes -->
  <polygon points="860,635 840,590 820,625" fill="#2D1C15"/>
  <polygon points="780,660 740,610 740,670" fill="#2D1C15"/>
  <polygon points="700,690 660,650 680,705" fill="#2D1C15"/>

  <!-- Right Arm Fur Spots -->
  <g fill="#160C08" opacity="0.85">
    <ellipse cx="850" cy="770" rx="12" ry="18" transform="rotate(-15, 850, 770)"/>
    <ellipse cx="800" cy="830" rx="14" ry="20" transform="rotate(20, 800, 830)"/>
    <ellipse cx="910" cy="860" rx="16" ry="14" transform="rotate(-30, 910, 860)"/>
  </g>

  <!-- The Royal Flush (Hearts) -->
  <g id="winning-hand" filter="url(#shadow)">
    <!-- 10 of Hearts -->
    <g transform="translate(540, 620) rotate(-28)">
      <rect width="80" height="120" rx="6" fill="url(#cardGrad)" stroke="#BCAAA4" stroke-width="1.5"/>
      <rect x="5" y="5" width="70" height="110" rx="3" fill="none" stroke="#D7CCC8" stroke-width="1"/>
      <text x="10" y="28" fill="#D32F2F" font-family="Arial, Helvetica, sans-serif" font-weight="bold" font-size="24" letter-spacing="-2">10</text>
      <use href="#suit-heart" x="22" y="45" transform="scale(0.8)"/>
      <use href="#suit-heart" x="40" y="70" transform="scale(2)"/>
    </g>
    <!-- Jack of Hearts -->
    <g transform="translate(600, 580) rotate(-16)">
      <rect width="80" height="120" rx="6" fill="url(#cardGrad)" stroke="#BCAAA4" stroke-width="1.5" filter="url(#lightShadow)"/>
      <rect x="5" y="5" width="70" height="110" rx="3" fill="none" stroke="#D7CCC8" stroke-width="1"/>
      <text x="12" y="28" fill="#D32F2F" font-family="Arial, Helvetica, sans-serif" font-weight="bold" font-size="24">J</text>
      <use href="#suit-heart" x="18" y="45" transform="scale(0.8)"/>
      <use href="#suit-heart" x="40" y="70" transform="scale(2)"/>
    </g>
    <!-- Queen of Hearts -->
    <g transform="translate(660, 555) rotate(-4)">
      <rect width="80" height="120" rx="6" fill="url(#cardGrad)" stroke="#BCAAA4" stroke-width="1.5" filter="url(#lightShadow)"/>
      <rect x="5" y="5" width="70" height="110" rx="3" fill="none" stroke="#D7CCC8" stroke-width="1"/>
      <text x="12" y="28" fill="#D32F2F" font-family="Arial, Helvetica, sans-serif" font-weight="bold" font-size="24">Q</text>
      <use href="#suit-heart" x="18" y="45" transform="scale(0.8)"/>
      <use href="#suit-heart" x="40" y="70" transform="scale(2)"/>
    </g>
    <!-- King of Hearts -->
    <g transform="translate(725, 560) rotate(8)">
      <rect width="80" height="120" rx="6" fill="url(#cardGrad)" stroke="#BCAAA4" stroke-width="1.5" filter="url(#lightShadow)"/>
      <rect x="5" y="5" width="70" height="110" rx="3" fill="none" stroke="#D7CCC8" stroke-width="1"/>
      <text x="12" y="28" fill="#D32F2F" font-family="Arial, Helvetica, sans-serif" font-weight="bold" font-size="24">K</text>
      <use href="#suit-heart" x="18" y="45" transform="scale(0.8)"/>
      <use href="#suit-heart" x="40" y="70" transform="scale(2)"/>
    </g>
    <!-- Ace of Hearts -->
    <g transform="translate(785, 585) rotate(20)">
      <rect width="80" height="120" rx="6" fill="url(#cardGrad)" stroke="#BCAAA4" stroke-width="1.5" filter="url(#lightShadow)"/>
      <rect x="5" y="5" width="70" height="110" rx="3" fill="none" stroke="#D7CCC8" stroke-width="1"/>
      <text x="12" y="28" fill="#D32F2F" font-family="Arial, Helvetica, sans-serif" font-weight="bold" font-size="24">A</text>
      <use href="#suit-heart" x="18" y="45" transform="scale(0.8)"/>
      <use href="#suit-heart" x="40" y="70" transform="scale(2)"/>
    </g>
  </g>

  <!-- Right Paw Covering and Gripping the Cards -->
  <g filter="url(#shadow)">
    <!-- Base Hand / Palm behind -->
    <path d="M 550 850 C 530 700, 680 660, 890 730 L 940 860 Z" fill="#3E2723"/>
    
    <!-- Articulated Fingers Wrapping Behind Cards -->
    <g fill="#160C08" stroke="#0A0502" stroke-width="4">
      <!-- Pinky -->
      <path d="M 550 690 Q 580 650 610 670 Q 630 690 600 730 Z"/>
      <!-- Ring -->
      <path d="M 610 650 Q 640 610 670 635 Q 690 665 660 700 Z"/>
      <!-- Middle -->
      <path d="M 680 630 Q 710 590 740 620 Q 760 655 730 690 Z"/>
      <!-- Index -->
      <path d="M 760 640 Q 790 600 820 630 Q 840 665 810 700 Z"/>
    </g>

    <!-- Massive Finger Claws piercing over the top of the cards -->
    <g fill="#050201">
      <polygon points="575,670 545,630 590,645" />
      <polygon points="640,635 625,585 665,615" />
      <polygon points="710,625 710,575 745,610" />
      <polygon points="790,635 810,585 825,625" />
    </g>
    <!-- Claw Glints -->
    <path d="M 560,640 L 582,660 M 635,595 L 658,622 M 720,585 L 738,615 M 815,595 L 820,625" stroke="#FFF" stroke-width="2" opacity="0.8"/>

    <!-- The Big Thumb firmly pressing the front card -->
    <path d="M 650 810 C 620 740, 690 690, 750 710 C 810 730, 830 780, 780 830 C 740 870, 670 850, 650 810 Z" fill="#2D1C15" stroke="#160C08" stroke-width="5"/>
    <!-- Thumb Highlight -->
    <path d="M 660 790 C 650 740, 710 710, 740 730" fill="none" stroke="#FFC107" stroke-width="4" opacity="0.3" filter="url(#glow)"/>
    
    <!-- Thumb Knuckle Details -->
    <path d="M 710 720 Q 730 735 720 770" fill="none" stroke="#160C08" stroke-width="4" stroke-linecap="round"/>
    <circle cx="740" cy="735" r="7" fill="#FFF" opacity="0.15"/>

    <!-- Massive Thumb Claw -->
    <polygon points="685,715 630,665 665,740" fill="#050201"/>
    <!-- Thumb Claw Specular -->
    <path d="M 643,678 L 674,725" stroke="#FFF" stroke-width="2.5" opacity="0.9"/>
  </g>


  <!-- ================= FOREGROUND LIGHTING & DUST FX ================= -->
  
  <!-- Floating Dust Motes (Illuminated by spotlight, adding intense atmosphere) -->
  <g fill="#FFF" filter="url(#glow)">
    <circle cx="320" cy="380" r="4" opacity="0.6"/>
    <circle cx="350" cy="430" r="2.5" opacity="0.4"/>
    <circle cx="660" cy="270" r="5" opacity="0.5"/>
    <circle cx="680" cy="220" r="3" opacity="0.7"/>
    <circle cx="210" cy="580" r="3.5" opacity="0.4"/>
    <circle cx="780" cy="460" r="4.5" opacity="0.5"/>
    <circle cx="480" cy="240" r="2.5" opacity="0.6"/>
    <circle cx="550" cy="180" r="4.5" opacity="0.3"/>
    <circle cx="850" cy="350" r="3" opacity="0.4"/>
    <circle cx="400" cy="150" r="3.5" opacity="0.5"/>
    <circle cx="620" cy="100" r="2" opacity="0.6"/>
    <circle cx="300" cy="250" r="4" opacity="0.3"/>
    <circle cx="530" cy="280" r="2.5" opacity="0.8"/>
  </g>

  <!-- Intense Dark Vignette (Frames the composition, multiplies shadows) -->
  <rect width="1000" height="800" fill="url(#vignette)" style="mix-blend-mode: multiply;" pointer-events="none"/>

</svg>