<svg xmlns="http://www.w3.org/2000/svg" viewBox="0 0 1000 800" width="100%" height="100%" style="background-color: #080305;">
  <defs>
    <!-- Complex Casino Wallpaper Pattern -->
    <pattern id="wallpaper" width="120" height="120" patternUnits="userSpaceOnUse">
      <rect width="120" height="120" fill="#0f0406"/>
      <path d="M 60 0 L 120 60 L 60 120 L 0 60 Z" fill="none" stroke="#1c070a" stroke-width="2"/>
      <path d="M 60 20 L 100 60 L 60 100 L 20 60 Z" fill="none" stroke="#2a0a10" stroke-width="1.5" opacity="0.7"/>
      <circle cx="60" cy="60" r="25" fill="none" stroke="#1c070a" stroke-width="5"/>
      <circle cx="60" cy="60" r="16" fill="none" stroke="#2a0a10" stroke-width="1" opacity="0.5"/>
      <circle cx="0" cy="0" r="25" fill="none" stroke="#1c070a" stroke-width="5"/>
      <circle cx="120" cy="0" r="25" fill="none" stroke="#1c070a" stroke-width="5"/>
      <circle cx="0" cy="120" r="25" fill="none" stroke="#1c070a" stroke-width="5"/>
      <circle cx="120" cy="120" r="25" fill="none" stroke="#1c070a" stroke-width="5"/>
    </pattern>

    <!-- Essential Gradients -->
    <radialGradient id="vignette" cx="50%" cy="50%" r="75%">
      <stop offset="35%" stop-color="#000" stop-opacity="0"/>
      <stop offset="80%" stop-color="#020101" stop-opacity="0.85"/>
      <stop offset="100%" stop-color="#000" stop-opacity="0.98"/>
    </radialGradient>
    
    <radialGradient id="tableGlow" cx="50%" cy="850" r="550" gradientUnits="userSpaceOnUse">
      <stop offset="0%" stop-color="#388E3C"/>
      <stop offset="30%" stop-color="#2E7D32"/>
      <stop offset="65%" stop-color="#1B5E20"/>
      <stop offset="90%" stop-color="#0A2A0D"/>
      <stop offset="100%" stop-color="#020a03"/>
    </radialGradient>

    <linearGradient id="woodRail" x1="0" y1="0" x2="0" y2="1">
      <stop offset="0%" stop-color="#4A2E25"/>
      <stop offset="10%" stop-color="#795548"/>
      <stop offset="20%" stop-color="#3E2723"/>
      <stop offset="60%" stop-color="#26140F"/>
      <stop offset="90%" stop-color="#110805"/>
      <stop offset="100%" stop-color="#000"/>
    </linearGradient>

    <linearGradient id="cardGrad" x1="0%" y1="0%" x2="100%" y2="100%">
      <stop offset="0%" stop-color="#FFFFFF"/>
      <stop offset="60%" stop-color="#F5F5F5"/>
      <stop offset="95%" stop-color="#E0E0E0"/>
      <stop offset="100%" stop-color="#BDBDBD"/>
    </linearGradient>

    <radialGradient id="cigarGlow" cx="50%" cy="50%" r="50%">
      <stop offset="0%" stop-color="#FFF"/>
      <stop offset="15%" stop-color="#FFEA00"/>
      <stop offset="35%" stop-color="#FF3D00"/>
      <stop offset="65%" stop-color="#B71C1C"/>
      <stop offset="100%" stop-color="#212121" stop-opacity="0"/>
    </radialGradient>

    <radialGradient id="eyeScleraLeft" cx="50%" cy="50%" r="50%">
      <stop offset="0%" stop-color="#FFFDE7"/>
      <stop offset="70%" stop-color="#FFE082"/>
      <stop offset="100%" stop-color="#D32F2F"/>
    </radialGradient>

    <radialGradient id="eyeScleraRight" cx="50%" cy="50%" r="50%">
      <stop offset="0%" stop-color="#FFFDE7"/>
      <stop offset="40%" stop-color="#FFCC80"/>
      <stop offset="85%" stop-color="#C62828"/>
      <stop offset="100%" stop-color="#4A0011"/>
    </radialGradient>

    <radialGradient id="eyeIris" cx="45%" cy="45%" r="60%">
      <stop offset="0%" stop-color="#FFF59D"/>
      <stop offset="25%" stop-color="#FFB300"/>
      <stop offset="60%" stop-color="#E65100"/>
      <stop offset="90%" stop-color="#4E342E"/>
      <stop offset="100%" stop-color="#0A0502"/>
    </radialGradient>

    <linearGradient id="teethGrad" x1="0%" y1="0%" x2="0%" y2="100%">
      <stop offset="0%" stop-color="#4E342E"/>
      <stop offset="15%" stop-color="#FBC02D"/>
      <stop offset="45%" stop-color="#FFF9C4"/>
      <stop offset="85%" stop-color="#FFFFFF"/>
      <stop offset="100%" stop-color="#CFD8DC"/>
    </linearGradient>

    <linearGradient id="whiskeyGrad" x1="0%" y1="0%" x2="0%" y2="100%">
      <stop offset="0%" stop-color="#FFCA28"/>
      <stop offset="25%" stop-color="#FF8F00"/>
      <stop offset="60%" stop-color="#E65100"/>
      <stop offset="85%" stop-color="#BF360C"/>
      <stop offset="100%" stop-color="#3E2723"/>
    </linearGradient>

    <linearGradient id="visorGrad" x1="0%" y1="0%" x2="0%" y2="100%">
      <stop offset="0%" stop-color="#66BB6A" stop-opacity="0.85"/>
      <stop offset="40%" stop-color="#388E3C" stop-opacity="0.95"/>
      <stop offset="100%" stop-color="#1B5E20" stop-opacity="1"/>
    </linearGradient>

    <!-- Cinematic Filters -->
    <filter id="shadow" x="-30%" y="-30%" width="160%" height="160%">
      <feDropShadow dx="0" dy="18" stdDeviation="12" flood-color="#000" flood-opacity="0.85"/>
    </filter>
    
    <filter id="cardShadow" x="-30%" y="-30%" width="160%" height="160%">
      <feDropShadow dx="-4" dy="8" stdDeviation="6" flood-color="#000" flood-opacity="0.75"/>
    </filter>
    
    <filter id="lightShadow" x="-20%" y="-20%" width="140%" height="140%">
      <feDropShadow dx="4" dy="6" stdDeviation="5" flood-color="#000" flood-opacity="0.65"/>
    </filter>
    
    <filter id="blur" x="-50%" y="-50%" width="200%" height="200%">
      <feGaussianBlur stdDeviation="6"/>
    </filter>
    
    <filter id="glow" x="-50%" y="-50%" width="200%" height="200%">
      <feGaussianBlur stdDeviation="8" result="blur"/>
      <feComposite in="SourceGraphic" in2="blur" operator="over"/>
    </filter>

    <filter id="intenseGlow" x="-50%" y="-50%" width="200%" height="200%">
      <feGaussianBlur stdDeviation="12" result="blur"/>
      <feComponentTransfer in="blur" result="glow">
        <feFuncA type="linear" slope="3"/>
      </feComponentTransfer>
      <feComposite in="SourceGraphic" in2="glow" operator="over"/>
    </filter>

    <filter id="smokeBlur" x="-50%" y="-50%" width="200%" height="200%">
      <feGaussianBlur stdDeviation="25"/>
    </filter>

    <!-- Vector Paths for Card Suits -->
    <g id="suit-heart">
      <path d="M 0,-4 C 0,-14 -16,-14 -16,-4 C -16,6 0,16 0,16 C 0,16 16,6 16,-4 C 16,-14 0,-14 0,-4 Z" fill="#D32F2F"/>
    </g>
    <g id="suit-spade">
      <path d="M 0,-16 C 0,-16 -16,0 -16,6 C -16,13 -5,13 0,6 C 5,13 16,13 16,6 C 16,0 0,-16 0,-16 Z M -3,6 L -7,16 L 7,16 L 3,6 Z" fill="#111"/>
    </g>
    <g id="suit-diamond">
      <path d="M 0,-16 L 13,0 L 0,16 L -13,0 Z" fill="#D32F2F"/>
    </g>

    <!-- Advanced Poker Chip Component -->
    <g id="chip">
      <!-- Shadow edge -->
      <path d="M -35 0 L -35 -8 A 35 12 0 0 1 35 -8 L 35 0 A 35 12 0 0 1 -35 0 Z" fill="currentColor"/>
      <path d="M -35 0 L -35 -8 A 35 12 0 0 1 35 -8 L 35 0 A 35 12 0 0 1 -35 0 Z" fill="#000" opacity="0.6"/>
      <path d="M -35 0 A 35 12 0 0 0 35 0" fill="none" stroke="#000" stroke-width="1.5" opacity="0.8"/>
      
      <!-- Side Ridges -->
      <path d="M -28 -3 L -28 3 M -18 -6 L -18 4 M -8 -7 L -8 5 M 2 -8 L 2 5 M 12 -7 L 12 5 M 22 -6 L 22 4 M 32 -3 L 32 2" stroke="#FFF" stroke-width="3.5" opacity="0.9"/>
      
      <!-- Top Face -->
      <path d="M -35 -8 A 35 12 0 0 0 35 -8 A 35 12 0 0 0 -35 -8" fill="currentColor"/>
      
      <!-- Edge Marks Top -->
      <path d="M -23 -7 L -34 -7 M 23 -7 L 34 -7 M -12 -16 L -18 -19 M 12 -16 L 18 -19 M -12 2 L -18 5 M 12 2 L 18 5" stroke="#FFF" stroke-width="5" stroke-linecap="round"/>
      <path d="M -23 -7 L -34 -7 M 23 -7 L 34 -7 M -12 -16 L -18 -19 M 12 -16 L 18 -19 M -12 2 L -18 5 M 12 2 L 18 5" stroke="#000" stroke-width="2" stroke-linecap="round" opacity="0.3" transform="translate(0, 1.5)"/>
      
      <!-- Inner Rings -->
      <ellipse cx="0" cy="-8" rx="20" ry="7" fill="none" stroke="#FFF" stroke-width="1.5" opacity="0.6"/>
      <ellipse cx="0" cy="-8" rx="14" ry="5" fill="#111" opacity="0.5"/>
      <path d="M 0 -11 L 2 -9 L 5 -9 L 3 -7 L 4 -4 L 0 -6 L -4 -4 L -3 -7 L -5 -9 L -2 -9 Z" fill="#FFF" opacity="0.8"/>
      
      <!-- Glossy Top Highlight -->
      <path d="M -25 -10 A 25 8 0 0 1 25 -10" fill="none" stroke="#FFF" stroke-width="2.5" opacity="0.5" filter="url(#blur)"/>
    </g>

    <g id="flop-card">
      <rect width="70" height="100" rx="4" fill="url(#cardGrad)" stroke="#A1887F" stroke-width="1.5" filter="url(#cardShadow)"/>
      <rect x="4" y="4" width="62" height="92" rx="3" fill="none" stroke="#D7CCC8" stroke-width="1"/>
      <rect x="8" y="8" width="54" height="84" rx="2" fill="none" stroke="#EFEBE9" stroke-width="0.5"/>
    </g>
  </defs>

  <!-- ================= BACKGROUND & ATMOSPHERE ================= -->
  <rect width="1000" height="800" fill="url(#wallpaper)"/>
  
  <radialGradient id="bgShadow" cx="50%" cy="50%" r="60%">
    <stop offset="30%" stop-color="#000" stop-opacity="0"/>
    <stop offset="100%" stop-color="#000" stop-opacity="0.85"/>
  </radialGradient>
  <rect width="1000" height="800" fill="url(#bgShadow)"/>

  <!-- Thick Background Smoke (Cinematic Layers) -->
  <path d="M -100 200 Q 300 0 600 400 T 1200 200" fill="none" stroke="#81D4FA" stroke-width="160" opacity="0.04" filter="url(#smokeBlur)" style="mix-blend-mode: color-dodge;"/>
  <path d="M 0 600 Q 400 300 800 700 T 1200 500" fill="none" stroke="#FFCC80" stroke-width="200" opacity="0.04" filter="url(#smokeBlur)" style="mix-blend-mode: overlay;"/>
  <path d="M -50 300 Q 200 50 450 350 T 1100 150" fill="none" stroke="#B0BEC5" stroke-width="140" opacity="0.05" filter="url(#smokeBlur)"/>

  <!-- Volumetric Lamp Spotlight & Backlight Halo -->
  <circle cx="500" cy="400" r="380" fill="#FFC107" opacity="0.1" filter="url(#smokeBlur)" style="mix-blend-mode: color-dodge;"/>
  <polygon points="350,-50 650,-50 1100,850 -100,850" fill="#FFB300" opacity="0.07" style="mix-blend-mode: color-dodge;"/>
  <polygon points="450,-50 550,-50 850,850 150,850" fill="#FFF" opacity="0.05" style="mix-blend-mode: overlay;"/>

  <!-- ================= HYENA CHARACTER (BACK/BODY) ================= -->
  
  <!-- Massive Shoulders & Torso -->
  <path d="M 180 850 C 130 550, 320 420, 500 420 C 680 420, 870 550, 820 850 Z" fill="#1C110C"/>
  <path d="M 280 850 C 270 600, 390 510, 500 510 C 610 510, 730 600, 720 850 Z" fill="#6D4C41" opacity="0.5"/>
  
  <!-- Shaggy Body Fur Texture (Curved, flowing paths) -->
  <path d="M 250 500 Q 180 550 220 620 Q 150 680 210 750 Q 140 800 240 850 L 500 850 L 500 500 Z" fill="#0D0705"/>
  <path d="M 750 500 Q 820 550 780 620 Q 850 680 790 750 Q 860 800 760 850 L 500 850 L 500 500 Z" fill="#0D0705"/>
  <path d="M 280 550 Q 230 600 270 660 Q 220 720 280 780" fill="none" stroke="#2D1C15" stroke-width="8" stroke-linecap="round"/>
  <path d="M 720 550 Q 770 600 730 660 Q 780 720 720 780" fill="none" stroke="#2D1C15" stroke-width="8" stroke-linecap="round"/>

  <!-- Back Mane (Wild, catching the backlight) -->
  <g filter="url(#shadow)">
    <path d="M 460 270 L 400 180 L 450 200 L 430 100 L 490 150 L 490 40 L 530 130 L 580 50 L 560 140 L 640 110 L 590 190 L 670 220 L 580 260 L 620 330 Z" fill="#0D0705"/>
    <path d="M 490 40 L 530 130 L 580 50 L 560 140 L 640 110 L 590 190 L 670 220 L 610 200 L 550 140 L 510 110 Z" fill="none" stroke="#FFC107" stroke-width="5" opacity="0.5" filter="url(#glow)"/>
    <path d="M 490 40 L 530 130 L 580 50 L 560 140 L 640 110" fill="none" stroke="#FFF" stroke-width="2" opacity="0.7"/>
    <path d="M 470 230 L 440 150 L 480 180 L 500 90 L 520 160 L 560 100 L 550 170 L 600 150 L 560 220 Z" fill="#3E2723"/>
  </g>

  <!-- Left Ear (Ragged, furry edges) -->
  <g filter="url(#lightShadow)">
    <path d="M 390 310 C 330 180, 240 180, 240 330 C 240 390, 310 400, 390 350 Z" fill="#3E2723" stroke="#0D0705" stroke-width="6"/>
    <path d="M 370 310 C 330 220, 270 230, 270 340 Z" fill="#1C110C"/>
    <path d="M 360 300 C 330 240, 290 250, 290 330 Z" fill="#8D6E63" opacity="0.4"/>
    <path d="M 240 300 Q 200 290 245 320 M 240 340 Q 190 350 250 360" fill="none" stroke="#3E2723" stroke-width="8" stroke-linecap="round"/>
    <path d="M 280 230 C 330 240, 360 280, 380 310" fill="none" stroke="#FFB300" stroke-width="4" opacity="0.5" filter="url(#glow)"/>
  </g>
  
  <!-- Right Ear (Torn, pierced, heavily backlit) -->
  <g filter="url(#lightShadow)">
    <path d="M 610 310 C 670 180, 760 180, 760 330 C 760 390, 690 400, 610 350 Z" fill="#3E2723" stroke="#0D0705" stroke-width="6"/>
    <path d="M 610 310 C 670 180, 760 180, 760 330 C 760 390, 690 400, 610 350 Z" fill="#D84315" opacity="0.5" filter="url(#blur)"/>
    <path d="M 630 310 C 670 220, 730 230, 730 340 Z" fill="#1C110C"/>
    <path d="M 640 300 C 670 240, 710 250, 710 330 Z" fill="#8D6E63" opacity="0.4"/>
    <path d="M 760 300 Q 800 290 755 320 M 760 340 Q 810 350 750 360" fill="none" stroke="#3E2723" stroke-width="8" stroke-linecap="round"/>
    <!-- Ear Tear -->
    <path d="M 770 270 L 690 310 L 735 340 Z" fill="#080305"/> 
    <path d="M 690 310 L 735 340" stroke="#FFC107" stroke-width="3" opacity="0.8" filter="url(#glow)"/>
    <!-- Gold Earrings -->
    <circle cx="750" cy="355" r="18" fill="none" stroke="#FFD54F" stroke-width="7" filter="url(#shadow)"/>
    <circle cx="750" cy="355" r="18" fill="none" stroke="#FFF" stroke-width="2"/>
    <circle cx="715" cy="390" r="12" fill="none" stroke="#FFD54F" stroke-width="6" filter="url(#shadow)"/>
    <circle cx="715" cy="390" r="12" fill="none" stroke="#FFF" stroke-width="1.5"/>
    <circle cx="680" cy="410" r="8" fill="none" stroke="#FFD54F" stroke-width="4"/>
  </g>

  <!-- ================= BASE HEAD & JOWLS ================= -->
  
  <path d="M 360 360 C 360 220, 640 220, 640 360 C 660 480, 500 490, 500 490 C 500 490, 340 480, 360 360 Z" fill="#5D4037"/>
  <path d="M 380 310 C 440 240, 560 240, 620 310" fill="none" stroke="#FFC107" stroke-width="10" opacity="0.5" filter="url(#glow)"/>
  
  <!-- Wide, furry, rugged jowls (Using organic overlapping curves) -->
  <path d="M 330 380 C 220 500, 370 600, 500 600 C 630 600, 780 500, 670 380 C 720 520, 590 630, 500 630 C 410 630, 280 520, 330 380 Z" fill="#3E2723"/>
  <path d="M 350 400 C 280 500, 400 580, 500 580 C 600 580, 720 500, 650 400 Z" fill="#4E342E"/>
  
  <!-- Dynamic Jowl Fur Tufts -->
  <path d="M 320 430 Q 230 450 240 470 Q 290 480 325 480 Z" fill="#2D1C15"/>
  <path d="M 325 480 Q 220 500 230 540 Q 280 540 340 535 Z" fill="#2D1C15"/>
  <path d="M 340 535 Q 250 570 280 610 Q 330 590 380 575 Z" fill="#2D1C15"/>
  <path d="M 680 430 Q 770 450 760 470 Q 710 480 675 480 Z" fill="#2D1C15"/>
  <path d="M 675 480 Q 780 500 770 540 Q 720 540 660 535 Z" fill="#2D1C15"/>
  <path d="M 660 535 Q 750 570 720 610 Q 670 590 620 575 Z" fill="#2D1C15"/>

  <!-- Face Spots -->
  <g fill="#0D0705" opacity="0.9">
    <circle cx="360" cy="480" r="14" />
    <ellipse cx="320" cy="540" rx="12" ry="16" transform="rotate(20, 320, 540)"/>
    <ellipse cx="380" cy="570" rx="10" ry="14" transform="rotate(-15, 380, 570)"/>
    <circle cx="640" cy="480" r="15" />
    <ellipse cx="680" cy="540" rx="14" ry="18" transform="rotate(-20, 680, 540)"/>
    <ellipse cx="620" cy="570" rx="10" ry="14" transform="rotate(15, 620, 570)"/>
    <circle cx="410" cy="270" r="15"/>
    <circle cx="590" cy="265" r="17"/>
    <ellipse cx="630" cy="330" rx="11" ry="15" transform="rotate(-30, 630, 330)"/>
    <ellipse cx="370" cy="335" rx="11" ry="15" transform="rotate(30, 370, 335)"/>
  </g>

  <!-- Muzzle Structure -->
  <path d="M 420 370 C 380 490, 420 550, 500 550 C 580 550, 620 490, 580 370 C 530 400, 470 400, 420 370 Z" fill="#795548"/>
  <path d="M 440 380 C 410 480, 440 520, 500 520 C 560 520, 590 480, 560 380 Z" fill="#BCAAA4"/>
  <path d="M 480 380 C 490 460, 510 460, 520 380 Z" fill="#FFF" opacity="0.25" filter="url(#glow)"/>
  
  <!-- Whisker Pores & Roots -->
  <g fill="#3E2723" opacity="0.8">
    <circle cx="450" cy="450" r="3.5"/> <circle cx="435" cy="465" r="3"/> <circle cx="460" cy="475" r="4"/>
    <circle cx="440" cy="485" r="2.5"/> <circle cx="455" cy="495" r="3.5"/>
    <circle cx="550" cy="450" r="3.5"/> <circle cx="565" cy="465" r="3"/> <circle cx="540" cy="475" r="4"/>
    <circle cx="560" cy="485" r="2.5"/> <circle cx="545" cy="495" r="3.5"/>
  </g>
  <g fill="none" stroke="#EFEBE9" stroke-width="2" stroke-linecap="round" opacity="0.7">
    <path d="M 435 465 Q 350 450 280 480" />
    <path d="M 440 485 Q 360 490 290 530" />
    <path d="M 455 495 Q 380 520 310 570" />
    <path d="M 565 465 Q 650 450 720 480" />
    <path d="M 560 485 Q 640 490 710 530" />
    <path d="M 545 495 Q 620 520 690 570" />
  </g>


  <!-- ================= THE MANIC EYES ================= -->
  <path d="M 360 330 C 340 420, 480 440, 480 340 Z" fill="#1C0E0B" opacity="0.9" filter="url(#blur)"/>
  <path d="M 640 320 C 660 430, 510 450, 510 330 Z" fill="#120506" opacity="0.95" filter="url(#blur)"/>
  
  <path d="M 370 380 Q 425 430, 480 380" fill="none" stroke="#0D0705" stroke-width="8" stroke-linecap="round"/>
  <path d="M 380 395 Q 425 440, 470 395" fill="none" stroke="#2D1C15" stroke-width="4" stroke-linecap="round"/>
  <path d="M 520 380 Q 575 430, 630 380" fill="none" stroke="#0D0705" stroke-width="10" stroke-linecap="round"/>
  <path d="M 530 395 Q 575 440, 620 395" fill="none" stroke="#3E1111" stroke-width="5" stroke-linecap="round"/>

  <!-- LEFT EYE (Squinting) -->
  <path d="M 385 355 Q 430 325 475 355 Q 430 375 385 355 Z" fill="url(#eyeScleraLeft)" stroke="#050200" stroke-width="5"/>
  <path d="M 375 345 L 395 352 M 465 345 L 485 350" stroke="#000" stroke-width="3"/>
  <path d="M 385 355 Q 400 345 410 350" fill="none" stroke="#C62828" stroke-width="2" opacity="0.7"/>
  <!-- Eyelid overlapping -->
  <path d="M 375 345 Q 430 315 485 355 Q 430 335 375 345 Z" fill="#2D1C15"/>
  <circle cx="430" cy="355" r="11" fill="url(#eyeIris)"/>
  <circle cx="430" cy="355" r="5" fill="#000"/>

  <!-- RIGHT EYE (Massive, Manic) -->
  <path d="M 520 345 C 520 270, 630 270, 630 345 C 630 410, 520 410, 520 345 Z" fill="url(#eyeScleraRight)" stroke="#050200" stroke-width="6"/>
  <!-- Intense Bloodshot Veins -->
  <g fill="none" stroke="#B71C1C" stroke-width="2.5" opacity="0.85" stroke-linecap="round">
    <path d="M 530 345 Q 545 320 555 340 T 565 330"/>
    <path d="M 620 345 Q 605 320 595 340 T 585 330"/>
    <path d="M 575 305 Q 570 325 575 335"/>
    <path d="M 535 370 Q 550 350 560 365 T 570 355"/>
    <path d="M 615 370 Q 600 350 590 365 T 580 355"/>
    <path d="M 530 330 Q 550 335 550 345"/>
    <path d="M 620 330 Q 600 335 600 345"/>
  </g>
  <path d="M 520 345 C 520 270, 630 270, 630 345 C 630 410, 520 410, 520 345 Z" fill="none" stroke="#880E4F" stroke-width="7" opacity="0.8"/> 

  <circle cx="575" cy="345" r="20" fill="url(#eyeIris)"/>
  <circle cx="575" cy="345" r="15" fill="#000"/>
  <!-- Jagged pupil burst -->
  <path d="M 575 328 L 579 315 L 583 328 M 592 345 L 605 348 L 592 351 M 575 362 L 571 375 L 567 362 M 558 345 L 545 342 L 558 339" fill="#0A0502"/>
  
  <!-- Wet Catchlights -->
  <circle cx="432" cy="352" r="3.5" fill="#FFF"/>
  <circle cx="582" cy="336" r="7" fill="#FFF"/>
  <circle cx="582" cy="336" r="12" fill="#FFF" opacity="0.4" filter="url(#glow)"/>
  <circle cx="568" cy="355" r="3.5" fill="#FFF" opacity="0.9"/>
  <path d="M 540 380 C 560 390, 590 390, 610 380" fill="none" stroke="#FFF" stroke-width="3" opacity="0.6"/>

  <!-- Expressive Eyebrows -->
  <path d="M 355 335 Q 430 275 490 355" fill="none" stroke="#080402" stroke-width="20" stroke-linecap="round" filter="url(#lightShadow)"/>
  <path d="M 360 335 Q 430 280 485 355" fill="none" stroke="#2D1C15" stroke-width="8" stroke-linecap="round"/>
  <path d="M 505 340 Q 580 220 655 320" fill="none" stroke="#080402" stroke-width="24" stroke-linecap="round" filter="url(#lightShadow)"/>
  <path d="M 510 340 Q 580 225 650 320" fill="none" stroke="#2D1C15" stroke-width="8" stroke-linecap="round"/>

  <!-- Wet Dog Nose -->
  <path d="M 445 405 C 445 365, 555 365, 555 405 C 555 425, 530 470, 500 470 C 470 470, 445 425, 445 405 Z" fill="#0A0502"/>
  <ellipse cx="468" cy="425" rx="16" ry="8" fill="#000" transform="rotate(-25, 468, 425)"/>
  <ellipse cx="532" cy="425" rx="16" ry="8" fill="#000" transform="rotate(25, 532, 425)"/>
  <path d="M 500 435 L 500 470" stroke="#000" stroke-width="5" stroke-linecap="round"/>
  <!-- Specular Nose Highlights -->
  <ellipse cx="480" cy="390" rx="16" ry="6" fill="#FFF" opacity="0.65" transform="rotate(-15, 480, 390)" filter="url(#glow)"/>
  <ellipse cx="530" cy="395" rx="8" ry="4" fill="#FFF" opacity="0.4" transform="rotate(15, 530, 395)"/>
  <circle cx="528" cy="402" r="4" fill="#FFF" opacity="0.6"/>


  <!-- ================= THE DEGENERATE GRIN ================= -->
  
  <path d="M 320 430 C 430 620, 570 620, 680 430 C 570 680, 430 680, 320 430 Z" fill="#030000" filter="url(#shadow)"/>
  
  <path d="M 400 520 C 470 610, 530 610, 600 520 C 530 570, 470 570, 400 520 Z" fill="#3B000D" opacity="0.95"/>
  <path d="M 440 545 C 470 570, 530 570, 560 545" fill="none" stroke="#D81B60" stroke-width="12" stroke-linecap="round" filter="url(#blur)"/>

  <!-- Carnivore Teeth (Curved menacing paths) -->
  <g fill="url(#teethGrad)" stroke="#160C08" stroke-width="2" stroke-linejoin="round">
    <!-- UPPER -->
    <path d="M 340 440 Q 360 480 370 490 Q 375 460 380 450 Z"/>
    <path d="M 380 450 Q 400 500 410 510 Q 415 480 420 460 Z"/>
    <path d="M 420 460 Q 440 520 450 530 Q 460 490 465 475 Z"/>
    <!-- Massive Left Canine -->
    <path d="M 465 475 Q 490 520 495 570 Q 505 510 515 480 Z"/> 
    <!-- Massive Right Canine -->
    <path d="M 515 480 Q 525 510 535 565 Q 550 510 560 470 Z"/>
    <path d="M 560 470 Q 575 510 590 520 Q 595 480 600 455 Z"/>
    <path d="M 600 455 Q 615 490 625 500 Q 630 470 635 445 Z"/>
    <path d="M 635 445 Q 645 470 655 480 Q 655 460 660 435 Z"/>
    
    <!-- LOWER -->
    <path d="M 380 530 Q 390 500 395 490 Q 405 510 410 540 Z"/>
    <path d="M 410 540 Q 425 500 435 485 Q 445 520 450 550 Z"/>
    <!-- Lower Left Canine -->
    <path d="M 450 550 Q 465 490 475 480 Q 485 520 495 565 Z"/>
    <!-- Lower Right Canine -->
    <path d="M 505 565 Q 515 520 525 480 Q 535 490 545 555 Z"/>
    <path d="M 545 555 Q 560 510 570 495 Q 580 520 585 540 Z"/>
    <path d="M 585 540 Q 595 515 605 505 Q 610 520 615 530 Z"/>
  </g>

  <!-- Teeth Highlights -->
  <g fill="#FFF" opacity="0.7">
    <path d="M 482 520 L 488 550 L 493 520 Z"/>
    <path d="M 530 520 L 536 550 L 542 520 Z"/>
    <path d="M 470 515 L 475 495 L 480 515 Z"/>
    <path d="M 520 515 L 525 495 L 530 515 Z"/>
  </g>

  <!-- Lips Outline -->
  <path d="M 320 430 C 430 620, 570 620, 680 430" fill="none" stroke="#080302" stroke-width="18" stroke-linecap="round" filter="url(#lightShadow)"/>
  <path d="M 320 430 C 430 620, 570 620, 680 430" fill="none" stroke="#2D1C15" stroke-width="8" stroke-linecap="round"/>

  <!-- Thick Stringy Saliva -->
  <g fill="#E1F5FE" opacity="0.7">
    <path d="M 385 510 Q 395 560 380 620 Q 370 560 385 510 Z"/>
    <path d="M 605 470 Q 615 540 595 580 Q 585 540 605 470 Z"/>
    <path d="M 460 550 Q 475 620 480 650 Q 460 620 460 550 Z"/>
  </g>
  <g fill="none" stroke="#FFF" stroke-width="2.5" opacity="0.9" stroke-linecap="round">
    <path d="M 383 515 Q 390 560 381 615"/>
    <path d="M 603 475 Q 610 540 596 575"/>
    <path d="M 464 555 Q 472 620 478 645"/>
    <path d="M 465 475 Q 480 510 450 550"/>
    <path d="M 560 470 Q 540 510 545 555"/>
    <path d="M 495 565 Q 515 540 535 560"/>
  </g>
  <g fill="#FFF" opacity="0.9">
    <circle cx="380" cy="623" r="4"/>
    <circle cx="594" cy="585" r="4.5"/>
    <circle cx="481" cy="655" r="5"/>
    <circle cx="454" cy="535" r="2.5"/>
    <circle cx="542" cy="535" r="3"/>
    <circle cx="515" cy="548" r="2.5"/>
  </g>

  <!-- Giant Cigar -->
  <g transform="translate(600, 465) rotate(-22)" filter="url(#shadow)">
    <rect x="-20" y="-16" width="125" height="32" rx="8" fill="#4E342E" stroke="#160C08" stroke-width="3"/>
    <rect x="-15" y="-12" width="115" height="10" rx="5" fill="#795548" opacity="0.8"/>
    <!-- Leaf Wrapping -->
    <path d="M -15 -16 L 15 16 M -5 -16 L 25 16 M 15 -16 L 45 16 M 35 -16 L 65 16 M 55 -16 L 85 16 M 75 -16 L 105 16" fill="none" stroke="#2D1C15" stroke-width="3" opacity="0.7"/>
    
    <!-- Cigar Band -->
    <rect x="25" y="-17" width="26" height="34" fill="#B71C1C" stroke="#160C08" stroke-width="2"/>
    <rect x="28" y="-15" width="20" height="30" fill="none" stroke="#FFD54F" stroke-width="2.5"/>
    <circle cx="38" cy="0" r="7" fill="#FFC107"/>
    <path d="M 35 -7 L 41 7" stroke="#FFF" stroke-width="1.5"/>
    
    <!-- Ash -->
    <path d="M 105 -15 L 125 -10 L 130 10 L 105 15 Z" fill="#757575" stroke="#424242" stroke-width="2"/>
    <path d="M 110 -13 L 115 13 M 118 -12 L 122 12 M 125 -10 L 128 10" stroke="#9E9E9E" stroke-width="2.5"/>
    
    <!-- Intense Glowing Ember -->
    <polygon points="125,-10 140,-5 136,8 130,10" fill="url(#cigarGlow)" filter="url(#intenseGlow)"/>
    <polygon points="127,-8 136,-2 134,5 130,8" fill="#FFF"/>
    <path d="M 132 -6 L 136 0 L 133 6" fill="none" stroke="#FFF" stroke-width="2"/>
    
    <circle cx="135" cy="25" r="4" fill="#9E9E9E" opacity="0.9"/>
    <circle cx="140" cy="45" r="2.5" fill="#BDBDBD" opacity="0.7"/>
  </g>

  <!-- Thick Ethereal Smoke -->
  <g filter="url(#smokeBlur)" opacity="0.85">
    <path d="M 720 440 Q 780 370 730 280 T 800 150 T 680 0" fill="none" stroke="#FFF" stroke-width="28" stroke-linecap="round"/>
    <path d="M 725 445 Q 790 380 740 290 T 810 160 T 690 10" fill="none" stroke="#81D4FA" stroke-width="18" stroke-linecap="round"/>
    <path d="M 710 430 Q 680 380 710 330 T 680 200 T 750 80" fill="none" stroke="#FFF" stroke-width="12" stroke-linecap="round" opacity="0.8"/>
  </g>


  <!-- ================= ACCESSORIES (DEALER VISOR & SWEAT) ================= -->

  <!-- Green Translucent Dealer Visor -->
  <g filter="url(#shadow)">
    <!-- Brim Inner Shadow -->
    <path d="M 270 290 C 370 420, 630 420, 730 290 C 630 360, 370 360, 270 290 Z" fill="#0A2A0D"/>
    <!-- Brim Plastic -->
    <path d="M 250 270 C 370 420, 630 420, 750 270 C 630 330, 370 330, 250 270 Z" fill="url(#visorGrad)" stroke="#1B5E20" stroke-width="3"/>
    
    <!-- Plastic Specular Curves -->
    <path d="M 280 280 C 390 400, 610 400, 720 280 C 610 320, 390 320, 280 280 Z" fill="#FFF" opacity="0.35" filter="url(#blur)"/>
    <path d="M 320 290 C 400 370, 600 370, 680 290" fill="none" stroke="#FFF" stroke-width="5" opacity="0.8" filter="url(#blur)"/>
    <path d="M 350 295 C 420 350, 580 350, 650 295" fill="none" stroke="#FFF" stroke-width="2" opacity="0.95"/>
    
    <!-- White Rim Line -->
    <path d="M 250 270 C 370 420, 630 420, 750 270" fill="none" stroke="#FFF" stroke-width="6" opacity="0.95"/>
    
    <!-- Leather Strap -->
    <path d="M 235 255 C 320 190, 680 190, 765 255 L 750 270 C 670 210, 330 210, 250 270 Z" fill="#0D0705" stroke="#000" stroke-width="2"/>
    <!-- Rivets -->
    <rect x="260" y="225" width="20" height="34" rx="4" fill="#FFC107" transform="rotate(-38, 260, 225)"/>
    <circle cx="268" cy="230" r="4" fill="#3E2723" transform="rotate(-38, 260, 225)"/>
    <circle cx="268" cy="254" r="4" fill="#3E2723" transform="rotate(-38, 260, 225)"/>
  </g>

  <!-- Green Light Cast on Forehead -->
  <path d="M 300 310 C 420 395, 580 395, 700 310 C 600 270, 400 270, 300 310 Z" fill="#388E3C" opacity="0.6" style="mix-blend-mode: multiply;" filter="url(#blur)"/>

  <!-- Manic Sweat Drops -->
  <g fill="#FFF" opacity="0.8" filter="url(#glow)">
    <path d="M 380 280 Q 386 295 380 310 Q 374 295 380 280 Z"/>
    <path d="M 620 255 Q 626 270 620 285 Q 614 270 620 255 Z"/>
    <path d="M 450 330 Q 454 345 450 360 Q 446 345 450 330 Z"/>
    <path d="M 330 445 Q 335 460 330 475 Q 325 460 330 445 Z"/>
    <path d="M 660 480 Q 665 495 660 510 Q 655 495 660 480 Z"/>
  </g>
  <g fill="#FFF">
    <circle cx="381.5" cy="300" r="2"/>
    <circle cx="621.5" cy="275" r="2.5"/>
    <circle cx="451.5" cy="350" r="1.5"/>
    <circle cx="331.5" cy="465" r="2"/>
    <circle cx="661.5" cy="500" r="2"/>
  </g>

  <!-- Green Table Bounce Lighting (Underside of Face) -->
  <path d="M 330 600 C 410 660, 590 660, 670 600 C 590 630, 410 630, 330 600 Z" fill="#4CAF50" opacity="0.35" filter="url(#blur)"/>


  <!-- ================= THE POKER TABLE (MIDGROUND) ================= -->
  
  <ellipse cx="500" cy="850" rx="980" ry="380" fill="url(#woodRail)" stroke="#050201" stroke-width="50" filter="url(#shadow)"/>
  <ellipse cx="500" cy="850" rx="980" ry="380" fill="none" stroke="#FFCC80" stroke-width="12" opacity="0.3"/>
  <ellipse cx="500" cy="850" rx="930" ry="330" fill="none" stroke="#160C08" stroke-width="18" opacity="0.95"/>
  <ellipse cx="500" cy="850" rx="920" ry="320" fill="none" stroke="#FFF" stroke-width="3" opacity="0.25"/>

  <ellipse cx="500" cy="850" rx="910" ry="310" fill="url(#tableGlow)"/>
  
  <ellipse cx="500" cy="850" rx="830" ry="260" fill="none" stroke="#FBC02D" stroke-width="6" opacity="0.85"/>
  <ellipse cx="500" cy="850" rx="810" ry="240" fill="none" stroke="#FFC107" stroke-width="2" opacity="0.5"/>


  <!-- ================= TABLE PROPS ================= -->
  
  <!-- Table Cast Shadows & Caustics -->
  <ellipse cx="170" cy="710" rx="80" ry="30" fill="#000" opacity="0.8" filter="url(#blur)"/>
  <ellipse cx="360" cy="740" rx="110" ry="35" fill="#000" opacity="0.75" filter="url(#blur)"/>
  <ellipse cx="500" cy="720" rx="130" ry="30" fill="#000" opacity="0.6" filter="url(#blur)"/>
  <!-- Whiskey Glass Orange Caustic Reflection -->
  <ellipse cx="180" cy="715" rx="65" ry="25" fill="#FF6F00" opacity="0.5" filter="url(#glow)"/>
  <ellipse cx="160" cy="710" rx="40" ry="15" fill="#FFC107" opacity="0.7" filter="url(#blur)"/>

  <!-- Crystal Whiskey Glass -->
  <g transform="translate(120, 610)">
    <!-- Back Edge -->
    <path d="M 5 0 L 95 0 L 85 100 L 15 100 Z" fill="#FFF" opacity="0.1"/>
    <ellipse cx="50" cy="100" rx="35" ry="12" fill="#FFF" opacity="0.2"/>
    
    <!-- Rich Amber Liquid -->
    <path d="M 12 35 L 88 35 L 80 95 L 20 95 Z" fill="url(#whiskeyGrad)" opacity="0.95"/>
    <ellipse cx="50" cy="35" rx="38" ry="12" fill="#FFCA28" opacity="0.95"/>
    <ellipse cx="50" cy="35" rx="35" ry="10" fill="#FF8F00" opacity="0.6"/>
    <path d="M 12 35 Q 50 48 88 35" fill="none" stroke="#FFF" stroke-width="2.5" opacity="0.7"/>

    <!-- Floating Ice Cubes -->
    <g opacity="0.85" stroke="#FFF" stroke-width="2">
      <path d="M 22 55 Q 38 52 50 65 L 45 80 L 25 75 Z" fill="#E0F7FA" opacity="0.6"/>
      <path d="M 28 60 L 45 68 M 32 62 L 35 78" stroke-width="1.5"/>
      <path d="M 42 22 Q 55 18 68 28 L 65 45 L 45 40 Z" fill="#B2EBF2"/>
      <path d="M 45 28 L 60 25 M 50 25 L 53 43" stroke-width="2.5"/>
    </g>

    <!-- Front Glass Highlights -->
    <path d="M 5 0 L 95 0 L 85 100 L 15 100 Z" fill="none" stroke="#FFF" stroke-width="6" opacity="0.7" stroke-linejoin="round"/>
    <ellipse cx="50" cy="0" rx="45" ry="15" fill="none" stroke="#FFF" stroke-width="5" opacity="0.95"/>
    
    <!-- Heavy Base Crystal -->
    <path d="M 15 100 L 85 100 L 80 120 L 20 120 Z" fill="#FFF" opacity="0.3"/>
    <ellipse cx="50" cy="120" rx="30" ry="10" fill="none" stroke="#FFF" stroke-width="5" opacity="0.8"/>
    <path d="M 25 105 L 35 115 M 45 105 L 50 118 M 65 105 L 60 118 M 75 105 L 70 115" stroke="#FFF" stroke-width="3" opacity="0.6"/>
    
    <!-- Crisp Glare Reflections -->
    <path d="M 12 15 Q 18 50 22 95" fill="none" stroke="#FFF" stroke-width="6" stroke-linecap="round" opacity="0.95"/>
    <path d="M 88 15 Q 82 50 80 95" fill="none" stroke="#FFF" stroke-width="2" stroke-linecap="round" opacity="0.6"/>
    <path d="M 30 10 Q 50 20 70 10" fill="none" stroke="#FFF" stroke-width="4" stroke-linecap="round" opacity="0.8"/>
  </g>

  <!-- Chips Stacks -->
  <g filter="url(#shadow)">
    <!-- Red Stack -->
    <g style="color: #D32F2F" transform="translate(310, 710)">
      <use href="#chip" y="0"/> <use href="#chip" y="-14"/> <use href="#chip" y="-28"/>
      <use href="#chip" y="-42"/> <use href="#chip" y="-56"/> <use href="#chip" y="-70"/>
      <use href="#chip" y="-84"/> <use href="#chip" y="-98" transform="rotate(12, 0, -98)"/>
    </g>
    <!-- Blue Stack -->
    <g style="color: #1976D2" transform="translate(240, 735) rotate(-6)">
      <use href="#chip" y="0"/> <use href="#chip" y="-14"/> <use href="#chip" y="-28"/>
      <use href="#chip" y="-42"/> <use href="#chip" y="-56"/>
    </g>
    <!-- Black/Gold Stack -->
    <g style="color: #212121" transform="translate(390, 740)">
      <use href="#chip" y="0"/> <use href="#chip" y="-14"/> <use href="#chip" y="-28"/>
      <use href="#chip" y="-42" transform="translate(5, 0)"/>
    </g>
    <!-- Scattered Chips -->
    <use href="#chip" x="360" y="760" style="color: #388E3C" transform="rotate(-22, 360, 760)"/>
    <use href="#chip" x="430" y="755" style="color: #D32F2F" transform="rotate(25, 430, 755)"/>
    <use href="#chip" x="280" y="770" style="color: #1976D2" transform="rotate(10, 280, 770)"/>
    <use href="#chip" x="340" y="775" style="color: #212121" transform="rotate(-5, 340, 775)"/>
    <!-- Falling Chip -->
    <use href="#chip" x="420" y="670" style="color: #388E3C" transform="rotate(45, 420, 670)" filter="url(#blur)"/>
  </g>

  <!-- Community Cards (The Flop - A♠ K♠ K♦) -->
  <g transform="translate(510, 680) scale(1, 0.75) skewX(-35) rotate(-12)" filter="url(#shadow)">
    <!-- A♠ -->
    <g transform="translate(-140, 0) rotate(-6)">
      <use href="#flop-card"/>
      <text x="12" y="28" fill="#111" font-family="Arial, Helvetica, sans-serif" font-weight="bold" font-size="24">A</text>
      <use href="#suit-spade" x="18" y="46" transform="scale(0.8)"/>
      <use href="#suit-spade" x="35" y="66" transform="scale(1.8)"/>
    </g>
    <!-- K♠ -->
    <g transform="translate(-55, 10) rotate(3)">
      <use href="#flop-card"/>
      <text x="12" y="28" fill="#111" font-family="Arial, Helvetica, sans-serif" font-weight="bold" font-size="24">K</text>
      <use href="#suit-spade" x="18" y="46" transform="scale(0.8)"/>
      <use href="#suit-spade" x="35" y="66" transform="scale(1.8)"/>
    </g>
    <!-- K♦ -->
    <g transform="translate(30, 0) rotate(12)">
      <use href="#flop-card"/>
      <text x="12" y="28" fill="#D32F2F" font-family="Arial, Helvetica, sans-serif" font-weight="bold" font-size="24">K</text>
      <use href="#suit-diamond" x="18" y="46" transform="scale(0.8)"/>
      <use href="#suit-diamond" x="35" y="66" transform="scale(1.8)"/>
    </g>
  </g>

  <!-- Spiked Collar (Polished with geometric lighting split) -->
  <g filter="url(#shadow)">
    <path d="M 290 560 Q 500 680 710 560 L 730 610 Q 500 735 270 610 Z" fill="#0A0502"/>
    <path d="M 280 575 Q 500 700 720 575" fill="none" stroke="#3E2723" stroke-width="5"/>
    <path d="M 280 575 Q 500 700 720 575" fill="none" stroke="#000" stroke-width="2" stroke-dasharray="10 6"/>
    
    <g stroke="#000" stroke-width="2">
      <!-- Spike 1 -->
      <polygon points="325,593 320,670 345,595" fill="#ECEFF1"/>
      <polygon points="345,595 320,670 360,600" fill="#37474F"/>
      <!-- Spike 2 -->
      <polygon points="415,623 410,710 425,625" fill="#ECEFF1"/>
      <polygon points="425,625 410,710 440,630" fill="#37474F"/>
      <!-- Spike 3 -->
      <polygon points="495,635 500,730 510,635" fill="#ECEFF1"/>
      <polygon points="510,635 500,730 525,635" fill="#37474F"/>
      <!-- Spike 4 -->
      <polygon points="585,628 595,710 600,625" fill="#ECEFF1"/>
      <polygon points="600,625 595,710 610,620" fill="#37474F"/>
      <!-- Spike 5 -->
      <polygon points="665,598 690,670 675,593" fill="#ECEFF1"/>
      <polygon points="675,593 690,670 685,590" fill="#37474F"/>
    </g>
    <!-- Spike bases -->
    <ellipse cx="345" cy="595" rx="20" ry="8" fill="#263238" transform="rotate(-15, 345, 595)"/>
    <ellipse cx="423" cy="625" rx="22" ry="9" fill="#263238" transform="rotate(-5, 423, 625)"/>
    <ellipse cx="508" cy="635" rx="24" ry="9" fill="#263238"/>
    <ellipse cx="592" cy="625" rx="22" ry="9" fill="#263238" transform="rotate(5, 592, 625)"/>
    <ellipse cx="670" cy="595" rx="20" ry="8" fill="#263238" transform="rotate(15, 670, 595)"/>
  </g>

  <!-- Left Arm & Paw (Guarding the pot) -->
  <g filter="url(#shadow)">
    <!-- Arm Base & Green Bounce -->
    <path d="M -50 950 C 0 760, 160 700, 280 770 L 120 950 Z" fill="#1C110C"/>
    <path d="M 160 700 C 220 720, 260 740, 280 770" fill="none" stroke="#4CAF50" stroke-width="10" opacity="0.4" filter="url(#blur)"/>
    
    <!-- Arm Fur -->
    <path d="M 120 705 Q 150 660 160 700 Q 200 680 210 725 Q 260 710 270 765" fill="#1C110C"/>

    <!-- Back of Hand -->
    <path d="M 220 750 Q 280 730 310 770 Q 330 810 270 830 Q 210 810 220 750 Z" fill="#2D1C15"/>
    
    <!-- Articulated Fingers -->
    <path d="M 290 760 Q 330 730 350 760 Q 365 780 340 800 Q 310 780 290 760 Z" fill="#1C110C" stroke="#050200" stroke-width="4"/>
    <path d="M 320 755 Q 340 760 345 775" fill="none" stroke="#3E2723" stroke-width="2"/> <!-- knuckle -->
    
    <path d="M 270 775 Q 320 750 340 785 Q 355 810 320 825 Q 280 805 270 775 Z" fill="#1C110C" stroke="#050200" stroke-width="4"/>
    <path d="M 310 775 Q 330 780 335 795" fill="none" stroke="#3E2723" stroke-width="2"/>
    
    <path d="M 250 790 Q 300 775 315 815 Q 315 840 275 845 Q 240 820 250 790 Z" fill="#1C110C" stroke="#050200" stroke-width="4"/>
    
    <!-- Knuckle Catchlights -->
    <circle cx="285" cy="770" r="7" fill="#FFF" opacity="0.2"/>
    <circle cx="265" cy="785" r="7" fill="#FFF" opacity="0.2"/>
    <circle cx="245" cy="800" r="7" fill="#FFF" opacity="0.2"/>

    <!-- Razor Sharp Claws -->
    <g fill="#050201">
      <path d="M 345 795 Q 380 790 395 810 Q 370 820 340 805 Z"/>
      <path d="M 335 815 Q 370 815 380 840 Q 350 840 325 825 Z"/>
      <path d="M 310 835 Q 340 840 345 870 Q 320 860 300 845 Z"/>
    </g>
    <!-- Claw Specular Glints -->
    <path d="M 355 800 Q 375 795 390 808 M 345 823 Q 365 823 375 838 M 318 842 Q 335 845 340 865" fill="none" stroke="#FFF" stroke-width="2" opacity="0.8"/>
  </g>


  <!-- ================= FOREGROUND (RIGHT PAW & ROYAL FLUSH) ================= -->
  
  <path d="M 1050 950 C 1000 700, 840 610, 660 720 L 740 950 Z" fill="#1C110C" filter="url(#shadow)"/>
  
  <!-- Right Arm Green Bounce -->
  <path d="M 660 720 C 750 780, 800 830, 820 880" fill="none" stroke="#4CAF50" stroke-width="12" opacity="0.4" filter="url(#blur)"/>
  <path d="M 650 810 C 670 850, 680 870, 700 920" fill="none" stroke="#4CAF50" stroke-width="6" opacity="0.5" filter="url(#blur)"/>

  <!-- Right Arm Fur & Spots -->
  <path d="M 860 635 Q 840 580 820 625 Q 770 590 740 670 Q 680 630 680 705" fill="#1C110C"/>
  <g fill="#0D0705" opacity="0.9">
    <ellipse cx="850" cy="770" rx="14" ry="20" transform="rotate(-15, 850, 770)"/>
    <ellipse cx="800" cy="830" rx="16" ry="22" transform="rotate(20, 800, 830)"/>
    <ellipse cx="910" cy="860" rx="18" ry="16" transform="rotate(-30, 910, 860)"/>
  </g>

  <!-- The Royal Flush (Hearts) -->
  <g id="winning-hand" filter="url(#cardShadow)">
    <g filter="url(#glow)">
      <!-- Golden aura behind the winning hand -->
      <rect x="785" y="585" width="80" height="120" rx="6" fill="none" stroke="#FFD54F" stroke-width="4" transform="rotate(20, 785, 585)" opacity="0.5"/>
    </g>
    <!-- 10 of Hearts -->
    <g transform="translate(540, 620) rotate(-28)">
      <rect width="80" height="120" rx="6" fill="url(#cardGrad)" stroke="#BCAAA4" stroke-width="1.5"/>
      <rect x="5" y="5" width="70" height="110" rx="3" fill="none" stroke="#D7CCC8" stroke-width="1"/>
      <text x="10" y="32" fill="#D32F2F" font-family="Arial, Helvetica, sans-serif" font-weight="bold" font-size="28" letter-spacing="-2">10</text>
      <use href="#suit-heart" x="22" y="50" transform="scale(0.8)"/>
      <use href="#suit-heart" x="40" y="75" transform="scale(2.2)"/>
    </g>
    <!-- Jack of Hearts -->
    <g transform="translate(600, 580) rotate(-16)">
      <rect width="80" height="120" rx="6" fill="url(#cardGrad)" stroke="#BCAAA4" stroke-width="1.5"/>
      <rect x="5" y="5" width="70" height="110" rx="3" fill="none" stroke="#D7CCC8" stroke-width="1"/>
      <text x="12" y="32" fill="#D32F2F" font-family="Arial, Helvetica, sans-serif" font-weight="bold" font-size="28">J</text>
      <use href="#suit-heart" x="18" y="50" transform="scale(0.8)"/>
      <use href="#suit-heart" x="40" y="75" transform="scale(2.2)"/>
    </g>
    <!-- Queen of Hearts -->
    <g transform="translate(660, 555) rotate(-4)">
      <rect width="80" height="120" rx="6" fill="url(#cardGrad)" stroke="#BCAAA4" stroke-width="1.5"/>
      <rect x="5" y="5" width="70" height="110" rx="3" fill="none" stroke="#D7CCC8" stroke-width="1"/>
      <text x="12" y="32" fill="#D32F2F" font-family="Arial, Helvetica, sans-serif" font-weight="bold" font-size="28">Q</text>
      <use href="#suit-heart" x="18" y="50" transform="scale(0.8)"/>
      <use href="#suit-heart" x="40" y="75" transform="scale(2.2)"/>
    </g>
    <!-- King of Hearts -->
    <g transform="translate(725, 560) rotate(8)">
      <rect width="80" height="120" rx="6" fill="url(#cardGrad)" stroke="#BCAAA4" stroke-width="1.5"/>
      <rect x="5" y="5" width="70" height="110" rx="3" fill="none" stroke="#D7CCC8" stroke-width="1"/>
      <text x="12" y="32" fill="#D32F2F" font-family="Arial, Helvetica, sans-serif" font-weight="bold" font-size="28">K</text>
      <use href="#suit-heart" x="18" y="50" transform="scale(0.8)"/>
      <use href="#suit-heart" x="40" y="75" transform="scale(2.2)"/>
    </g>
    <!-- Ace of Hearts -->
    <g transform="translate(785, 585) rotate(20)">
      <rect width="80" height="120" rx="6" fill="url(#cardGrad)" stroke="#BCAAA4" stroke-width="1.5"/>
      <rect x="5" y="5" width="70" height="110" rx="3" fill="none" stroke="#D7CCC8" stroke-width="1"/>
      <text x="12" y="32" fill="#D32F2F" font-family="Arial, Helvetica, sans-serif" font-weight="bold" font-size="28">A</text>
      <use href="#suit-heart" x="18" y="50" transform="scale(0.8)"/>
      <use href="#suit-heart" x="40" y="75" transform="scale(2.2)"/>
    </g>
  </g>

  <!-- Right Paw Gripping the Cards -->
  <g filter="url(#shadow)">
    <path d="M 550 850 C 530 700, 680 660, 890 730 L 940 860 Z" fill="#2D1C15"/>
    
    <!-- Fingers Behind -->
    <g fill="#1C110C" stroke="#080402" stroke-width="4">
      <path d="M 550 690 Q 580 650 610 670 Q 630 690 600 730 Z"/>
      <path d="M 610 650 Q 640 610 670 635 Q 690 665 660 700 Z"/>
      <path d="M 680 630 Q 710 590 740 620 Q 760 655 730 690 Z"/>
      <path d="M 760 640 Q 790 600 820 630 Q 840 665 810 700 Z"/>
    </g>

    <!-- Finger Claws Piercing Forward -->
    <g fill="#050201">
      <path d="M 575 670 Q 555 640 590 645 Z"/>
      <path d="M 640 635 Q 635 595 665 615 Z"/>
      <path d="M 710 625 Q 720 585 745 610 Z"/>
      <path d="M 790 635 Q 815 595 825 625 Z"/>
    </g>
    <path d="M 565 650 Q 575 660 585 660 M 642 610 Q 652 620 660 625 M 720 600 Q 730 610 740 615 M 805 610 Q 815 620 820 625" fill="none" stroke="#FFF" stroke-width="2" opacity="0.9"/>

    <!-- The Big Thumb firmly pressing the front card -->
    <path d="M 680 790 Q 640 750 670 710 Q 720 680 760 710 Q 800 740 780 800 Q 750 830 680 790 Z" fill="#2D1C15" stroke="#080402" stroke-width="5"/>
    <path d="M 690 780 Q 660 750 680 720 Q 720 700 750 720 Q 780 750 760 790 Z" fill="#3E2723"/>
    
    <path d="M 690 770 Q 650 720 710 700" fill="none" stroke="#FFC107" stroke-width="6" opacity="0.4" filter="url(#glow)"/>
    
    <!-- Joint wrinkles -->
    <path d="M 700 750 Q 720 740 740 755" fill="none" stroke="#1C110C" stroke-width="4" stroke-linecap="round"/>
    <path d="M 710 760 Q 725 750 735 765" fill="none" stroke="#1C110C" stroke-width="2.5" stroke-linecap="round"/>
    <circle cx="740" cy="735" r="8" fill="#FFF" opacity="0.2"/>

    <!-- Massive Thumb Claw -->
    <path d="M 670 710 Q 650 670 630 660 Q 650 680 660 720 Z" fill="#050201"/>
    <path d="M 645 675 Q 655 690 660 710" fill="none" stroke="#FFF" stroke-width="2" opacity="0.9"/>
  </g>


  <!-- ================= FOREGROUND LIGHTING & DUST FX ================= -->
  
  <!-- Floating Dust Motes -->
  <g fill="#FFF" filter="url(#glow)">
    <circle cx="320" cy="380" r="4" opacity="0.7"/>
    <circle cx="350" cy="430" r="2.5" opacity="0.5"/>
    <circle cx="660" cy="270" r="5" opacity="0.6"/>
    <circle cx="680" cy="220" r="3" opacity="0.8"/>
    <circle cx="210" cy="580" r="3.5" opacity="0.5"/>
    <circle cx="780" cy="460" r="4.5" opacity="0.6"/>
    <circle cx="480" cy="240" r="2.5" opacity="0.7"/>
    <circle cx="550" cy="180" r="4.5" opacity="0.4"/>
    <circle cx="850" cy="350" r="3" opacity="0.5"/>
    <circle cx="400" cy="150" r="3.5" opacity="0.6"/>
    <circle cx="620" cy="100" r="2" opacity="0.7"/>
    <circle cx="300" cy="250" r="4" opacity="0.4"/>
    <circle cx="530" cy="280" r="2.5" opacity="0.9"/>
    <circle cx="500" cy="480" r="2" opacity="0.8"/>
    <circle cx="720" cy="530" r="3" opacity="0.6"/>
  </g>

  <!-- Intense Dark Vignette to Frame Composition -->
  <rect width="1000" height="800" fill="url(#vignette)" style="mix-blend-mode: multiply;" pointer-events="none"/>

</svg>