<svg xmlns="http://www.w3.org/2000/svg" viewBox="0 0 1000 800" width="100%" height="100%" style="background-color: #070304; font-family: 'Arial Black', Impact, sans-serif;">
  <defs>
    <!-- Detailed Casino Wallpaper Pattern -->
    <pattern id="wallpaper" width="120" height="120" patternUnits="userSpaceOnUse" patternTransform="rotate(15)">
      <rect width="120" height="120" fill="#140709"/>
      <path d="M 60 0 L 120 60 L 60 120 L 0 60 Z" fill="none" stroke="#250B10" stroke-width="3"/>
      <path d="M 60 10 L 110 60 L 60 110 L 10 60 Z" fill="none" stroke="#381018" stroke-width="1.5" opacity="0.8"/>
      <path d="M 60 20 L 100 60 L 60 100 L 20 60 Z" fill="#1A070B"/>
      <!-- Suit ornaments -->
      <path d="M 60 45 C 55 35 45 35 45 45 C 45 55 60 65 60 65 C 60 65 75 55 75 45 C 75 35 65 35 60 45 Z" fill="#250B10"/>
      <circle cx="60" cy="60" r="30" fill="none" stroke="#250B10" stroke-width="1"/>
    </pattern>

    <!-- Essential Gradients -->
    <radialGradient id="vignette" cx="50%" cy="50%" r="75%">
      <stop offset="30%" stop-color="#000" stop-opacity="0"/>
      <stop offset="70%" stop-color="#050102" stop-opacity="0.6"/>
      <stop offset="100%" stop-color="#000" stop-opacity="0.95"/>
    </radialGradient>
    
    <radialGradient id="tableGlow" cx="50%" cy="850" r="500" gradientUnits="userSpaceOnUse">
      <stop offset="0%" stop-color="#1DB954"/>
      <stop offset="30%" stop-color="#128C3E"/>
      <stop offset="65%" stop-color="#0A5222"/>
      <stop offset="90%" stop-color="#041F0C"/>
      <stop offset="100%" stop-color="#010A03"/>
    </radialGradient>

    <linearGradient id="woodRail" x1="0" y1="0" x2="0" y2="1">
      <stop offset="0%" stop-color="#4E2A1E"/>
      <stop offset="4%" stop-color="#7B422B"/>
      <stop offset="10%" stop-color="#9A5636"/>
      <stop offset="18%" stop-color="#4E2A1E"/>
      <stop offset="40%" stop-color="#2D140D"/>
      <stop offset="80%" stop-color="#0F0503"/>
      <stop offset="100%" stop-color="#000"/>
    </linearGradient>

    <linearGradient id="leatherPad" x1="0" y1="0" x2="0" y2="1">
      <stop offset="0%" stop-color="#111"/>
      <stop offset="20%" stop-color="#2a2a2a"/>
      <stop offset="50%" stop-color="#151515"/>
      <stop offset="100%" stop-color="#000"/>
    </linearGradient>

    <linearGradient id="cardGrad" x1="0%" y1="0%" x2="100%" y2="100%">
      <stop offset="0%" stop-color="#FFFFFF"/>
      <stop offset="40%" stop-color="#F8F9FA"/>
      <stop offset="85%" stop-color="#DEE2E6"/>
      <stop offset="100%" stop-color="#ADB5BD"/>
    </linearGradient>

    <linearGradient id="metalSpike" x1="0%" y1="0%" x2="100%" y2="100%">
      <stop offset="0%" stop-color="#FFF"/>
      <stop offset="20%" stop-color="#CFD8DC"/>
      <stop offset="50%" stop-color="#78909C"/>
      <stop offset="80%" stop-color="#37474F"/>
      <stop offset="100%" stop-color="#111"/>
    </linearGradient>

    <radialGradient id="cigarGlow" cx="70%" cy="50%" r="50%">
      <stop offset="0%" stop-color="#FFF"/>
      <stop offset="15%" stop-color="#FFEE58"/>
      <stop offset="40%" stop-color="#FF5722"/>
      <stop offset="75%" stop-color="#BF360C"/>
      <stop offset="100%" stop-color="#212121" stop-opacity="0"/>
    </radialGradient>

    <radialGradient id="eyeScleraRight" cx="50%" cy="50%" r="50%">
      <stop offset="0%" stop-color="#FFFDE7"/>
      <stop offset="40%" stop-color="#FFECB3"/>
      <stop offset="70%" stop-color="#FF8A65"/>
      <stop offset="90%" stop-color="#C62828"/>
      <stop offset="100%" stop-color="#4A0000"/>
    </radialGradient>

    <radialGradient id="eyeIris" cx="40%" cy="40%" r="60%">
      <stop offset="0%" stop-color="#FFF59D"/>
      <stop offset="25%" stop-color="#FBC02D"/>
      <stop offset="50%" stop-color="#E65100"/>
      <stop offset="80%" stop-color="#4E342E"/>
      <stop offset="100%" stop-color="#110703"/>
    </radialGradient>

    <linearGradient id="teethGrad" x1="0%" y1="0%" x2="0%" y2="100%">
      <stop offset="0%" stop-color="#FFF9C4"/>
      <stop offset="40%" stop-color="#FFF"/>
      <stop offset="80%" stop-color="#E0E0E0"/>
      <stop offset="100%" stop-color="#9E9E9E"/>
    </linearGradient>

    <linearGradient id="whiskeyGrad" x1="0%" y1="0%" x2="100%" y2="100%">
      <stop offset="0%" stop-color="#FFC107"/>
      <stop offset="30%" stop-color="#FF8F00"/>
      <stop offset="70%" stop-color="#D84315"/>
      <stop offset="100%" stop-color="#3E2723"/>
    </linearGradient>

    <linearGradient id="visorGrad" x1="0%" y1="0%" x2="0%" y2="100%">
      <stop offset="0%" stop-color="#4CAF50" stop-opacity="0.6"/>
      <stop offset="50%" stop-color="#1B5E20" stop-opacity="0.85"/>
      <stop offset="100%" stop-color="#0A2A0D" stop-opacity="0.95"/>
    </linearGradient>

    <radialGradient id="visorGlow" cx="50%" cy="50%" r="50%">
      <stop offset="0%" stop-color="#4CAF50" stop-opacity="0.7"/>
      <stop offset="100%" stop-color="#4CAF50" stop-opacity="0"/>
    </radialGradient>

    <radialGradient id="volumetricLight" cx="50%" cy="0%" r="100%">
      <stop offset="0%" stop-color="#FFD54F" stop-opacity="0.15"/>
      <stop offset="50%" stop-color="#FFB300" stop-opacity="0.05"/>
      <stop offset="100%" stop-color="#000" stop-opacity="0"/>
    </radialGradient>

    <!-- Cinematic Filters -->
    <filter id="shadow" x="-30%" y="-30%" width="160%" height="160%">
      <feDropShadow dx="0" dy="18" stdDeviation="12" flood-color="#000" flood-opacity="0.9"/>
    </filter>
    
    <filter id="lightShadow" x="-20%" y="-20%" width="140%" height="140%">
      <feDropShadow dx="2" dy="8" stdDeviation="6" flood-color="#000" flood-opacity="0.75"/>
    </filter>

    <filter id="cardShadow" x="-20%" y="-20%" width="140%" height="140%">
      <feDropShadow dx="-4" dy="4" stdDeviation="3" flood-color="#000" flood-opacity="0.6"/>
    </filter>
    
    <filter id="blur" x="-50%" y="-50%" width="200%" height="200%">
      <feGaussianBlur stdDeviation="8"/>
    </filter>
    
    <filter id="glow" x="-50%" y="-50%" width="200%" height="200%">
      <feGaussianBlur stdDeviation="6" result="blur"/>
      <feComposite in="SourceGraphic" in2="blur" operator="over"/>
    </filter>

    <filter id="intenseGlow" x="-50%" y="-50%" width="200%" height="200%">
      <feGaussianBlur stdDeviation="10" result="blur"/>
      <feComponentTransfer in="blur" result="glow">
        <feFuncA type="linear" slope="3"/>
      </feComponentTransfer>
      <feComposite in="SourceGraphic" in2="glow" operator="over"/>
    </filter>

    <filter id="smokeBlur" x="-50%" y="-50%" width="200%" height="200%">
      <feGaussianBlur stdDeviation="25"/>
    </filter>

    <!-- Vector Paths for Card Suits -->
    <g id="suit-heart">
      <path d="M 0,-4 C 0,-16 -16,-16 -16,-4 C -16,6 0,16 0,16 C 0,16 16,6 16,-4 C 16,-16 0,-16 0,-4 Z" fill="#D32F2F"/>
    </g>
    <g id="suit-spade">
      <path d="M 0,-16 C 0,-16 -16,-1 -16,4 C -16,11 -6,11 0,5 C 6,11 16,11 16,4 C 16,-1 0,-16 0,-16 Z M -4,5 L -7,15 L 7,15 L 4,5 Z" fill="#111"/>
    </g>
    <g id="suit-diamond">
      <path d="M 0,-16 L 12,0 L 0,16 L -12,0 Z" fill="#D32F2F"/>
    </g>
    <g id="suit-club">
      <path d="M 0,2 C -5,2 -8,-1 -8,-5 C -8,-9 -4,-12 0,-12 C 4,-12 8,-9 8,-5 C 8,-1 5,2 0,2 Z M -6,5 C -11,5 -15,8 -15,12 C -15,16 -11,19 -6,19 C -2,19 0,16 0,12 L 0,5 L -6,5 Z M 6,5 L 0,5 L 0,12 C 0,16 2,19 6,19 C 11,19 15,16 15,12 C 15,8 11,5 6,5 Z M -3,12 L -6,22 L 6,22 L 3,12 Z" fill="#111" transform="translate(0, -6)"/>
    </g>

    <!-- Detailed 3D Poker Chip -->
    <g id="chip">
      <!-- Shadow & Base Thickness -->
      <ellipse cx="0" cy="0" rx="38" ry="14" fill="#030303"/>
      <path d="M -38 0 L -38 -8 C -38 -15, -21 -22, 0 -22 C 21 -22, 38 -15, 38 -8 L 38 0 Z" fill="#1A1A1A"/>
      <!-- Side Ridges -->
      <path d="M -38 -4 L -38 0 M -32 -6 L -32 2 M -22 -8 L -22 4 M -12 -9 L -12 5 M 0 -10 L 0 5 M 12 -9 L 12 5 M 22 -8 L 22 4 M 32 -6 L 32 2 M 38 -4 L 38 0" stroke="#000" stroke-width="2" opacity="0.8"/>
      <!-- Top Face -->
      <ellipse cx="0" cy="-8" rx="38" ry="14" fill="currentColor"/>
      <!-- Colored Edge Marks -->
      <path d="M -24 -7 L -36 -7 M 24 -7 L 36 -7 M -12 -17 L -18 -20 M 12 -17 L 18 -20 M -12 3 L -18 6 M 12 3 L 18 6" stroke="#FFF" stroke-width="5" stroke-linecap="round" opacity="0.95"/>
      <path d="M -24 -7 L -36 -7 M 24 -7 L 36 -7 M -12 -17 L -18 -20 M 12 -17 L 18 -20 M -12 3 L -18 6 M 12 3 L 18 6" stroke="#000" stroke-width="1.5" stroke-linecap="round" opacity="0.5" transform="translate(0, 1.5)"/>
      <!-- Inner Design -->
      <ellipse cx="0" cy="-8" rx="24" ry="8" fill="none" stroke="#FFF" stroke-width="2" opacity="0.8"/>
      <ellipse cx="0" cy="-8" rx="16" ry="5.5" fill="#111" opacity="0.5"/>
      <!-- Logo abstract -->
      <path d="M 0 -12 L 2 -9 L 5 -9 L 3 -7 L 4 -4 L 0 -6 L -4 -4 L -3 -7 L -5 -9 L -2 -9 Z" fill="#FFF" opacity="0.7"/>
      <!-- Top Gloss -->
      <path d="M -28 -10 C -12 -17, 12 -17, 28 -10" fill="none" stroke="#FFF" stroke-width="3" opacity="0.5" filter="url(#blur)"/>
    </g>

    <g id="flop-card">
      <rect width="80" height="116" rx="8" fill="url(#cardGrad)" stroke="#BCAAA4" stroke-width="1.5"/>
      <rect x="5" y="5" width="70" height="106" rx="4" fill="none" stroke="#D7CCC8" stroke-width="1"/>
    </g>
  </defs>

  <!-- ================= BACKGROUND & ATMOSPHERE ================= -->
  <rect width="1000" height="800" fill="url(#wallpaper)"/>
  
  <!-- Ambient Shadow overlay -->
  <radialGradient id="bgShadow" cx="50%" cy="50%" r="60%">
    <stop offset="30%" stop-color="#000" stop-opacity="0"/>
    <stop offset="100%" stop-color="#000" stop-opacity="0.85"/>
  </radialGradient>
  <rect width="1000" height="800" fill="url(#bgShadow)"/>

  <!-- Thick Ethereal Smoke -->
  <path d="M -100 250 Q 250 150 450 350 T 1100 50" fill="none" stroke="#B0BEC5" stroke-width="160" opacity="0.05" filter="url(#smokeBlur)"/>
  <path d="M 0 600 Q 400 400 800 550 T 1200 200" fill="none" stroke="#90A4AE" stroke-width="200" opacity="0.06" filter="url(#smokeBlur)"/>
  <path d="M 100 100 Q 500 300 900 150" fill="none" stroke="#FFF" stroke-width="120" opacity="0.03" filter="url(#smokeBlur)"/>

  <!-- Volumetric Spotlight -->
  <polygon points="350,-50 650,-50 1100,850 -100,850" fill="url(#volumetricLight)" style="mix-blend-mode: screen;"/>
  <polygon points="400,-50 600,-50 900,850 100,850" fill="#FFF" opacity="0.03" style="mix-blend-mode: overlay;"/>

  <!-- ================= HYENA CHARACTER ================= -->
  
  <!-- Back / Torso -->
  <path d="M 150 850 C 100 500, 300 400, 500 400 C 700 400, 900 500, 850 850 Z" fill="#20110B"/>
  <path d="M 250 850 C 240 550, 380 480, 500 480 C 620 480, 760 550, 750 850 Z" fill="#3D261D"/>
  
  <!-- Back Mane & Spikes (Rim Lit) -->
  <g filter="url(#shadow)">
    <!-- Base dark mane -->
    <path d="M 460 250 L 400 180 L 460 190 L 440 90 L 490 140 L 490 30 L 530 110 L 580 40 L 560 130 L 640 90 L 590 180 L 670 200 L 580 250 Z" fill="#130905"/>
    <path d="M 430 350 L 350 280 L 420 310 L 380 420 Z" fill="#130905"/>
    <path d="M 570 350 L 650 280 L 580 310 L 620 420 Z" fill="#130905"/>
    
    <!-- Warm Gold Rim Highlights on Mane -->
    <path d="M 490 30 L 530 110 L 580 40 L 560 130 L 640 90 L 590 180 L 670 200 L 620 180 L 550 120 L 510 90" fill="none" stroke="#FFC107" stroke-width="5" opacity="0.6" filter="url(#glow)"/>
    <path d="M 490 30 L 530 110 L 580 40 L 560 130 L 640 90" fill="none" stroke="#FFF" stroke-width="2" opacity="0.8"/>
  </g>

  <!-- Base Head, Skull, and Ears -->
  <g id="ears">
    <!-- Left Ear (Notched, furry) -->
    <path d="M 390 280 C 310 140, 210 160, 220 320 C 225 390, 310 400, 390 340 Z" fill="#3A2218" stroke="#130905" stroke-width="6" filter="url(#lightShadow)"/>
    <path d="M 370 290 C 310 200, 250 210, 260 330 Z" fill="#20110B"/>
    <path d="M 360 285 C 310 220, 270 230, 280 320 Z" fill="#5C3A21" opacity="0.6"/>
    <!-- Left Ear SSS Rim Light -->
    <path d="M 270 200 C 330 200, 360 250, 380 280" fill="none" stroke="#FFB300" stroke-width="4" opacity="0.5" filter="url(#glow)"/>
    
    <!-- Right Ear (Torn, heavily pierced, manic) -->
    <path d="M 610 280 C 690 140, 790 160, 780 320 C 775 390, 690 400, 610 340 Z" fill="#3A2218" stroke="#130905" stroke-width="6" filter="url(#lightShadow)"/>
    <path d="M 610 280 C 690 140, 790 160, 780 320 Z" fill="#D84315" opacity="0.5" filter="url(#blur)"/> <!-- SSS -->
    <path d="M 630 290 C 690 200, 750 210, 740 330 Z" fill="#20110B"/>
    <path d="M 640 285 C 690 220, 730 230, 720 320 Z" fill="#5C3A21" opacity="0.6"/>
    
    <!-- Right Ear Tears -->
    <polygon points="760,250 680,290 730,320" fill="#070304" filter="url(#blur)"/>
    <path d="M 680 290 L 730 320" stroke="#FFB300" stroke-width="2" opacity="0.8"/>
    
    <!-- Gold Earrings -->
    <circle cx="755" cy="330" r="18" fill="none" stroke="#FFD54F" stroke-width="8" filter="url(#shadow)"/>
    <circle cx="755" cy="330" r="18" fill="none" stroke="#FFF" stroke-width="2" opacity="0.8"/>
    <circle cx="715" cy="375" r="12" fill="none" stroke="#FFD54F" stroke-width="6" filter="url(#shadow)"/>
    <circle cx="715" cy="375" r="12" fill="none" stroke="#FFF" stroke-width="1.5" opacity="0.8"/>
    <circle cx="675" cy="405" r="8" fill="none" stroke="#FFD54F" stroke-width="4"/>
  </g>

  <!-- Head Base & Furry Jowls -->
  <path d="M 370 330 C 360 200, 640 200, 630 330 C 650 480, 500 480, 500 480 C 500 480, 350 480, 370 330 Z" fill="#4A2F24"/>
  
  <!-- Jowls (Massive, wide, scruffy) -->
  <path d="M 340 370 C 200 480, 350 620, 500 620 C 650 620, 800 480, 660 370 C 700 520, 580 650, 500 650 C 420 650, 300 520, 340 370 Z" fill="#3D261D"/>
  <path d="M 360 390 C 260 480, 380 590, 500 590 C 620 590, 740 480, 640 390 Z" fill="#4A2F24"/>
  
  <!-- Spiky Fur on Jowls -->
  <g fill="#2A1812">
    <path d="M 310 420 Q 230 450 320 480 Q 250 510 340 540 Q 290 580 370 570 Z"/>
    <path d="M 690 420 Q 770 450 680 480 Q 750 510 660 540 Q 710 580 630 570 Z"/>
  </g>

  <!-- Characteristic Hyena Spots -->
  <g fill="#110906" opacity="0.85">
    <circle cx="350" cy="470" r="16"/>
    <circle cx="650" cy="470" r="18"/>
    <ellipse cx="310" cy="530" rx="14" ry="20" transform="rotate(25, 310, 530)"/>
    <ellipse cx="690" cy="530" rx="16" ry="22" transform="rotate(-25, 690, 530)"/>
    <ellipse cx="380" cy="570" rx="12" ry="16" transform="rotate(-15, 380, 570)"/>
    <ellipse cx="620" cy="570" rx="12" ry="16" transform="rotate(15, 620, 570)"/>
    <circle cx="410" cy="250" r="14"/>
    <circle cx="590" cy="245" r="15"/>
    <ellipse cx="640" cy="310" rx="12" ry="16" transform="rotate(-35, 640, 310)"/>
    <ellipse cx="360" cy="315" rx="10" ry="14" transform="rotate(35, 360, 315)"/>
  </g>

  <!-- Prominent Snout Bridge -->
  <path d="M 430 350 C 370 470, 420 540, 500 540 C 580 540, 630 470, 570 350 C 530 380, 470 380, 430 350 Z" fill="#6A4B3A"/>
  <path d="M 450 370 C 400 480, 440 520, 500 520 C 560 520, 600 480, 550 370 Z" fill="#917362"/>
  <path d="M 480 370 C 485 450, 515 450, 520 370 Z" fill="#FFF" opacity="0.15" filter="url(#glow)"/>

  <!-- Whisker Pores & Crazy Whiskers -->
  <g fill="#2A1812" opacity="0.8">
    <circle cx="455" cy="445" r="3.5"/> <circle cx="435" cy="460" r="3"/> <circle cx="465" cy="475" r="4"/>
    <circle cx="440" cy="485" r="2.5"/> <circle cx="455" cy="500" r="3.5"/>
    <circle cx="545" cy="445" r="3.5"/> <circle cx="565" cy="460" r="3"/> <circle cx="535" cy="475" r="4"/>
    <circle cx="560" cy="485" r="2.5"/> <circle cx="545" cy="500" r="3.5"/>
  </g>
  <g fill="none" stroke="#D7CCC8" stroke-width="2" opacity="0.7">
    <path d="M 435 460 Q 320 440 250 490" />
    <path d="M 440 485 Q 340 480 270 530" />
    <path d="M 455 500 Q 360 520 300 580 M 465 475 Q 350 460 290 510"/>
    <path d="M 565 460 Q 680 440 750 490" />
    <path d="M 560 485 Q 660 480 730 530" />
    <path d="M 545 500 Q 640 520 700 580 M 535 475 Q 650 460 710 510"/>
  </g>

  <!-- ================= THE MANIC EYES ================= -->

  <!-- Deep, exhausted eye sockets -->
  <path d="M 340 310 C 310 420, 480 450, 490 330 Z" fill="#180C08" opacity="0.8" filter="url(#blur)"/>
  <path d="M 660 300 C 690 420, 520 450, 510 320 Z" fill="#180508" opacity="0.9" filter="url(#blur)"/>
  
  <!-- Under-eye bags and stress wrinkles -->
  <path d="M 360 380 Q 425 440, 480 380 M 370 400 Q 425 455, 470 400" fill="none" stroke="#130905" stroke-width="6" stroke-linecap="round"/>
  <path d="M 520 380 Q 575 440, 640 380 M 530 400 Q 575 455, 630 400" fill="none" stroke="#1F070A" stroke-width="7" stroke-linecap="round"/>

  <!-- LEFT EYE (Squinting, Twitching) -->
  <path d="M 380 350 Q 430 320 480 350 Q 430 375 380 350 Z" fill="#FFFDE7" stroke="#070304" stroke-width="5"/>
  <path d="M 370 340 L 395 348 M 465 342 L 490 347" stroke="#000" stroke-width="3"/>
  <path d="M 385 350 Q 410 340 420 345" fill="none" stroke="#C62828" stroke-width="2" opacity="0.6"/>
  <circle cx="430" cy="350" r="12" fill="url(#eyeIris)"/>
  <circle cx="430" cy="350" r="4" fill="#000"/>

  <!-- RIGHT EYE (Massive, Blown Out, Bloodshot, Terrifying) -->
  <circle cx="580" cy="340" r="42" fill="url(#eyeScleraRight)" stroke="#070304" stroke-width="7"/>
  <!-- Intense Veins -->
  <g fill="none" stroke="#B71C1C" stroke-width="2.5" opacity="0.85">
    <path d="M 540 340 Q 555 315 565 335 T 570 325"/>
    <path d="M 620 340 Q 605 315 595 335 T 590 325"/>
    <path d="M 580 300 Q 575 320 580 330"/>
    <path d="M 545 370 Q 560 350 565 360 T 575 350"/>
    <path d="M 615 370 Q 600 350 595 360 T 585 350"/>
    <path d="M 540 330 Q 555 335 550 345"/>
    <path d="M 620 330 Q 605 335 610 345"/>
  </g>
  <path d="M 540 340 A 42 42 0 0 1 620 340" fill="none" stroke="#880E4F" stroke-width="6" opacity="0.8"/> 

  <circle cx="580" cy="340" r="22" fill="url(#eyeIris)"/>
  <circle cx="580" cy="340" r="16" fill="#000"/> <!-- Dilated pupil -->
  
  <!-- Wet Eye Catchlights -->
  <circle cx="433" cy="346" r="3.5" fill="#FFF"/>
  <circle cx="588" cy="328" r="8" fill="#FFF" filter="url(#glow)"/>
  <circle cx="572" cy="348" r="3.5" fill="#FFF" opacity="0.9"/>
  <!-- Wet rim glints -->
  <path d="M 545 375 A 42 42 0 0 0 615 375" fill="none" stroke="#FFF" stroke-width="2.5" opacity="0.6"/>
  <path d="M 390 362 Q 430 375 470 362" fill="none" stroke="#FFF" stroke-width="1.5" opacity="0.5"/>

  <!-- Asymmetrical Expressive Eyebrows -->
  <path d="M 350 330 Q 430 270 490 350" fill="none" stroke="#0A0502" stroke-width="22" stroke-linecap="round" filter="url(#lightShadow)"/>
  <path d="M 355 330 Q 430 275 485 350" fill="none" stroke="#2A1812" stroke-width="8" stroke-linecap="round"/>
  
  <path d="M 510 340 Q 580 200 660 310" fill="none" stroke="#0A0502" stroke-width="24" stroke-linecap="round" filter="url(#lightShadow)"/>
  <path d="M 515 340 Q 580 205 655 310" fill="none" stroke="#2A1812" stroke-width="8" stroke-linecap="round"/>

  <!-- Dog/Hyena Wet Nose -->
  <path d="M 440 395 C 440 350, 560 350, 560 395 C 560 425, 535 465, 500 465 C 465 465, 440 425, 440 395 Z" fill="#070302"/>
  <ellipse cx="465" cy="420" rx="16" ry="8" fill="#000" transform="rotate(-25, 465, 420)"/>
  <ellipse cx="535" cy="420" rx="16" ry="8" fill="#000" transform="rotate(25, 535, 420)"/>
  <path d="M 500 435 L 500 465" stroke="#000" stroke-width="5" stroke-linecap="round"/>
  
  <!-- Nose Specular Shines -->
  <path d="M 460 385 C 480 370, 520 370, 540 385 C 530 400, 470 400, 460 385 Z" fill="#FFF" opacity="0.3" filter="url(#blur)"/>
  <ellipse cx="480" cy="388" rx="15" ry="7" fill="#FFF" opacity="0.7" transform="rotate(-15, 480, 388)"/>
  <circle cx="530" cy="395" r="4.5" fill="#FFF" opacity="0.6"/>

  <!-- ================= THE DEGENERATE GRIN & CIGAR ================= -->
  
  <!-- Deep Mouth Cavity -->
  <path d="M 310 430 C 430 630, 570 630, 690 430 C 570 700, 430 700, 310 430 Z" fill="#050100" filter="url(#shadow)"/>
  
  <!-- Gums & Tongue -->
  <path d="M 390 520 C 460 620, 540 620, 610 520 C 540 580, 460 580, 390 520 Z" fill="#4A0011"/>
  <path d="M 430 550 C 460 580, 540 580, 570 550" fill="none" stroke="#D81B60" stroke-width="12" stroke-linecap="round" filter="url(#blur)"/>

  <!-- Sharp, Carnivorous Teeth (Beautifully curved paths) -->
  <g fill="url(#teethGrad)" stroke="#110906" stroke-width="3.5" stroke-linejoin="round">
    <!-- Upper Teeth -->
    <path d="M 330 440 Q 360 480 370 450 Z"/>
    <path d="M 370 450 Q 400 500 410 460 Z"/>
    <path d="M 410 460 Q 440 520 455 470 Z"/>
    <!-- Massive Left Canine -->
    <path d="M 455 470 C 475 550, 490 560, 505 475 Z"/>
    <!-- Massive Right Canine -->
    <path d="M 505 475 C 520 560, 540 550, 555 465 Z"/>
    <path d="M 555 465 Q 580 510 590 450 Z"/>
    <path d="M 590 450 Q 615 490 625 440 Z"/>
    <path d="M 625 440 Q 645 470 650 435 Z"/>
    
    <!-- Lower Teeth -->
    <path d="M 370 530 Q 390 490 405 540 Z"/>
    <path d="M 405 540 Q 425 480 440 550 Z"/>
    <!-- Lower Left Canine -->
    <path d="M 440 550 C 465 470, 480 475, 495 565 Z"/>
    <!-- Lower Right Canine -->
    <path d="M 505 565 C 520 475, 535 470, 550 555 Z"/>
    <path d="M 550 555 Q 570 490 585 540 Z"/>
    <path d="M 585 540 Q 600 500 610 530 Z"/>
  </g>

  <!-- Specular glints on teeth -->
  <g fill="#FFF" opacity="0.65">
    <path d="M 470 510 L 476 540 L 482 510 Z"/>
    <path d="M 530 505 L 536 535 L 542 505 Z"/>
    <path d="M 460 510 L 465 485 L 470 510 Z"/>
    <path d="M 520 510 L 525 485 L 530 510 Z"/>
  </g>

  <!-- Thick Saliva / Drool (Ethereal, stringy, wet) -->
  <g fill="#E1F5FE" opacity="0.8" style="mix-blend-mode: screen;">
    <path d="M 375 510 Q 385 590 370 615 Q 360 590 375 510 Z"/>
    <path d="M 615 470 Q 625 550 610 575 Q 600 550 615 470 Z"/>
    <path d="M 450 550 Q 460 620 470 650 Q 455 620 450 550 Z"/>
    <path d="M 550 550 Q 540 600 530 630 Q 555 600 550 550 Z"/>
  </g>
  <!-- Spit strings -->
  <path d="M 430 515 Q 450 550 435 570" fill="none" stroke="#B3E5FC" stroke-width="4" opacity="0.8"/>
  <path d="M 545 505 Q 530 540 550 560" fill="none" stroke="#B3E5FC" stroke-width="3.5" opacity="0.7"/>
  <path d="M 480 485 Q 500 530 515 485" fill="none" stroke="#B3E5FC" stroke-width="2.5" opacity="0.6"/>
  
  <!-- Saliva Specular Highlights (Crisp White) -->
  <g stroke="#FFF" stroke-width="2" stroke-linecap="round">
    <path d="M 373 520 L 377 570" />
    <path d="M 613 480 L 617 530" />
    <path d="M 456 565 L 461 615" />
    <path d="M 546 560 L 536 600" />
  </g>
  <g fill="#FFF">
    <circle cx="370" cy="620" r="4"/>
    <circle cx="610" cy="580" r="4"/>
    <circle cx="470" cy="656" r="4.5"/>
    <circle cx="530" cy="635" r="3"/>
  </g>

  <!-- Giant Lit Cigar firmly in the corner of the mouth -->
  <g transform="translate(615, 470) rotate(-28)" filter="url(#shadow)">
    <rect x="-25" y="-18" width="140" height="36" rx="10" fill="#3E2723" stroke="#130905" stroke-width="3"/>
    <rect x="-20" y="-14" width="130" height="10" rx="5" fill="#5D4037" opacity="0.8"/>
    <!-- Leaf veins -->
    <path d="M -20 -10 L 105 10 M -20 0 L 105 18 M 20 -18 L 55 18 L 90 -18 L 115 18" fill="none" stroke="#1D100B" stroke-width="2" opacity="0.7"/>
    <!-- Band -->
    <rect x="30" y="-19" width="30" height="38" fill="#B71C1C" stroke="#130905" stroke-width="2"/>
    <rect x="34" y="-16" width="22" height="32" fill="none" stroke="#FFD54F" stroke-width="2.5"/>
    <circle cx="45" cy="0" r="7" fill="#FFC107"/>
    <!-- Ash -->
    <path d="M 115 -16 L 150 -12 L 155 12 L 115 16 Z" fill="#9E9E9E" stroke="#424242" stroke-width="2.5"/>
    <path d="M 120 -15 L 125 15 M 130 -14 L 133 14 M 140 -13 L 139 13 M 145 -12 L 147 12" stroke="#757575" stroke-width="3"/>
    <path d="M 135 -8 L 145 8" stroke="#E0E0E0" stroke-width="2"/>
    <!-- Ember -->
    <ellipse cx="152" cy="0" rx="10" ry="14" fill="url(#cigarGlow)" filter="url(#intenseGlow)"/>
    <ellipse cx="152" cy="0" rx="5" ry="8" fill="#FFF"/>
    <!-- Crackles -->
    <path d="M 148 -6 L 153 0 L 149 6 M 155 -5 L 157 3" fill="none" stroke="#FFF" stroke-width="2"/>
    <!-- Particles -->
    <circle cx="150" cy="30" r="4" fill="#9E9E9E"/>
    <circle cx="155" cy="55" r="2.5" fill="#BDBDBD"/>
  </g>

  <!-- Lips / Grin outline (overlaps cigar slightly at the base) -->
  <path d="M 310 430 C 430 630, 570 630, 690 430" fill="none" stroke="#110705" stroke-width="18" stroke-linecap="round" filter="url(#lightShadow)"/>
  <path d="M 310 430 C 430 630, 570 630, 690 430" fill="none" stroke="#3D1A12" stroke-width="7" stroke-linecap="round"/>

  <!-- Thick Ethereal Smoke Plumes from Cigar -->
  <g filter="url(#smokeBlur)" opacity="0.85">
    <path d="M 740 430 Q 820 350 760 250 T 840 100 T 700 -50" fill="none" stroke="#FFF" stroke-width="35" stroke-linecap="round"/>
    <path d="M 745 435 Q 830 360 770 260 T 850 110 T 710 -40" fill="none" stroke="#90A4AE" stroke-width="20" stroke-linecap="round"/>
    <path d="M 730 420 Q 690 360 730 300 T 690 180 T 770 50" fill="none" stroke="#FFF" stroke-width="15" stroke-linecap="round" opacity="0.7"/>
    <path d="M 760 440 Q 860 380 800 280 T 850 120" fill="none" stroke="#CFD8DC" stroke-width="25" stroke-linecap="round" opacity="0.6"/>
  </g>

  <!-- ================= ACCESSORIES (DEALER VISOR) ================= -->

  <!-- Green Translucent Visor -->
  <g filter="url(#shadow)">
    <!-- Brim inner shadow -->
    <path d="M 260 270 C 370 410, 630 410, 740 270 C 630 340, 370 340, 260 270 Z" fill="#041F0C"/>
    
    <!-- Translucent Plastic Brim -->
    <path d="M 240 250 C 370 410, 630 410, 760 250 C 630 310, 370 310, 240 250 Z" fill="url(#visorGrad)" stroke="#1B5E20" stroke-width="4"/>
    
    <!-- Glowing edge cast on plastic -->
    <path d="M 240 250 C 370 410, 630 410, 760 250" fill="none" stroke="#4CAF50" stroke-width="8" opacity="0.6" filter="url(#glow)"/>
    
    <!-- Plastic Curve Specular Glare -->
    <path d="M 280 260 C 400 390, 600 390, 720 260 C 600 300, 400 300, 280 260 Z" fill="#FFF" opacity="0.45" filter="url(#blur)"/>
    <path d="M 330 275 C 410 360, 590 360, 670 275" fill="none" stroke="#FFF" stroke-width="7" opacity="0.6" filter="url(#blur)"/>
    
    <!-- Crisp White Rim Outline -->
    <path d="M 240 250 C 370 410, 630 410, 760 250" fill="none" stroke="#FFF" stroke-width="4" opacity="0.95"/>
    
    <!-- Leather Head Strap -->
    <path d="M 225 235 C 320 170, 680 170, 775 235 L 760 250 C 670 190, 330 190, 240 250 Z" fill="#111" stroke="#000" stroke-width="3"/>
    
    <!-- Brass Adjuster Rivets -->
    <rect x="250" y="205" width="22" height="38" rx="5" fill="#FFC107" transform="rotate(-38, 250, 205)"/>
    <circle cx="258" cy="210" r="4" fill="#3E2723" transform="rotate(-38, 250, 205)"/>
    <circle cx="258" cy="238" r="4" fill="#3E2723" transform="rotate(-38, 250, 205)"/>
    
    <!-- Ace of Spades tucked into the strap -->
    <g transform="translate(680, 165) rotate(25)" filter="url(#cardShadow)">
      <rect width="45" height="65" rx="3" fill="#FFF" stroke="#BCAAA4" stroke-width="1"/>
      <text x="6" y="18" fill="#111" font-size="14" font-weight="bold">A</text>
      <use href="#suit-spade" x="10" y="28" transform="scale(0.5)"/>
      <use href="#suit-spade" x="22" y="40" transform="scale(1.1)"/>
    </g>
  </g>

  <!-- Green Light Cast on Forehead/Mane (Multiply for fur texture) -->
  <path d="M 280 290 C 410 380, 590 380, 720 290 C 600 240, 400 240, 280 290 Z" fill="#1DB954" opacity="0.6" style="mix-blend-mode: multiply;" filter="url(#blur)"/>

  <!-- ================= THE POKER TABLE ================= -->
  
  <!-- Outer Wooden Rail -->
  <ellipse cx="500" cy="850" rx="980" ry="380" fill="url(#woodRail)" stroke="#050201" stroke-width="40" filter="url(#shadow)"/>
  <ellipse cx="500" cy="850" rx="980" ry="380" fill="none" stroke="#FFB300" stroke-width="10" opacity="0.25"/>
  
  <!-- Leather Armrest Padding -->
  <ellipse cx="500" cy="850" rx="940" ry="340" fill="none" stroke="url(#leatherPad)" stroke-width="25"/>
  <ellipse cx="500" cy="850" rx="927" ry="327" fill="none" stroke="#FFF" stroke-width="2" opacity="0.15"/>

  <!-- Emerald Green Felt -->
  <ellipse cx="500" cy="850" rx="915" ry="315" fill="url(#tableGlow)"/>
  
  <!-- Casino Inlay Graphics -->
  <ellipse cx="500" cy="850" rx="840" ry="260" fill="none" stroke="#FBC02D" stroke-width="7" opacity="0.8"/>
  <ellipse cx="500" cy="850" rx="815" ry="235" fill="none" stroke="#FFC107" stroke-width="3" opacity="0.5"/>
  <!-- Decorative diamonds on inlay -->
  <path d="M 500 580 L 510 590 L 500 600 L 490 590 Z" fill="#FBC02D"/>
  <path d="M 250 670 L 260 680 L 250 690 L 240 680 Z" fill="#FBC02D" transform="rotate(35, 250, 670)"/>
  <path d="M 750 670 L 760 680 L 750 690 L 740 680 Z" fill="#FBC02D" transform="rotate(-35, 750, 670)"/>

  <!-- Table Cast Shadows (Props) -->
  <ellipse cx="160" cy="710" rx="80" ry="25" fill="#000" opacity="0.75" filter="url(#blur)"/>
  <ellipse cx="360" cy="745" rx="120" ry="35" fill="#000" opacity="0.75" filter="url(#blur)"/>
  <ellipse cx="510" cy="730" rx="140" ry="35" fill="#000" opacity="0.6" filter="url(#blur)"/>
  <!-- Whiskey Glass Amber Caustic Refraction Shadow -->
  <ellipse cx="170" cy="715" rx="65" ry="20" fill="#E65100" opacity="0.6" filter="url(#blur)"/>

  <!-- Heavy Crystal Whiskey Glass -->
  <g transform="translate(100, 600)">
    <!-- Back Glass -->
    <path d="M 10 0 L 110 0 L 95 110 L 25 110 Z" fill="#FFF" opacity="0.08"/>
    <ellipse cx="60" cy="110" rx="40" ry="14" fill="#FFF" opacity="0.15"/>
    
    <!-- Amber Whiskey -->
    <path d="M 18 35 L 102 35 L 90 105 L 30 105 Z" fill="url(#whiskeyGrad)" opacity="0.95"/>
    <!-- Liquid Surface -->
    <ellipse cx="60" cy="35" rx="42" ry="14" fill="#FFC107" opacity="0.9"/>
    <ellipse cx="60" cy="35" rx="38" ry="10" fill="#FF8F00" opacity="0.5"/>
    <path d="M 18 35 Q 60 50 102 35" fill="none" stroke="#FFF" stroke-width="2" opacity="0.7"/>

    <!-- Ice Cubes -->
    <g opacity="0.9" stroke="#FFF" stroke-width="2">
      <!-- Bottom Ice -->
      <path d="M 30 70 L 65 80 L 60 105 L 25 95 Z" fill="#E0F7FA" opacity="0.5"/>
      <path d="M 30 70 L 40 55 L 75 65 L 65 80 Z" fill="#B2EBF2" opacity="0.7"/>
      <!-- Top Ice breaking surface -->
      <path d="M 50 25 L 80 15 L 90 35 L 60 45 Z" fill="#B2EBF2"/>
      <path d="M 60 45 L 90 35 L 85 55 L 55 65 Z" fill="#80DEEA" opacity="0.8"/>
      <path d="M 50 25 L 60 45 M 80 15 L 90 35" stroke-width="2.5"/>
    </g>

    <!-- Front Glass & Sharp Reflections -->
    <path d="M 10 0 L 110 0 L 95 110 L 25 110 Z" fill="none" stroke="#FFF" stroke-width="6" opacity="0.7" stroke-linejoin="round"/>
    <ellipse cx="60" cy="0" rx="50" ry="16" fill="none" stroke="#FFF" stroke-width="6" opacity="0.9"/>
    
    <!-- Heavy Base Crystal -->
    <path d="M 25 110 L 95 110 L 88 128 L 32 128 Z" fill="#FFF" opacity="0.3"/>
    <ellipse cx="60" cy="128" rx="33" ry="12" fill="none" stroke="#FFF" stroke-width="4" opacity="0.8"/>
    <!-- Cut glass details -->
    <path d="M 35 115 L 45 122 M 55 115 L 60 124 M 75 115 L 70 124 M 85 115 L 80 122" stroke="#FFF" stroke-width="2.5" opacity="0.6"/>
    
    <!-- Specular Glare -->
    <path d="M 18 15 L 30 100" stroke="#FFF" stroke-width="8" stroke-linecap="round" opacity="0.95"/>
    <path d="M 102 15 L 92 85" stroke="#FFF" stroke-width="3" stroke-linecap="round" opacity="0.6"/>
  </g>

  <!-- Chips Stacks (High Stakes) -->
  <g filter="url(#shadow)">
    <!-- Red Stack -->
    <g style="color: #D32F2F" transform="translate(300, 715)">
      <use href="#chip" y="0"/> <use href="#chip" y="-14"/> <use href="#chip" y="-28"/>
      <use href="#chip" y="-42"/> <use href="#chip" y="-56"/> <use href="#chip" y="-70"/>
      <use href="#chip" y="-84"/> <use href="#chip" y="-98" transform="rotate(15, 0, -98)"/>
    </g>
    <!-- Blue Stack -->
    <g style="color: #1976D2" transform="translate(220, 745) rotate(-6)">
      <use href="#chip" y="0"/> <use href="#chip" y="-14"/> <use href="#chip" y="-28"/>
      <use href="#chip" y="-42"/> <use href="#chip" y="-56"/>
    </g>
    <!-- Black/Gold Value Stack -->
    <g style="color: #FFA000" transform="translate(390, 745)">
      <use href="#chip" y="0"/> <use href="#chip" y="-14"/> <use href="#chip" y="-28"/>
      <use href="#chip" y="-42" transform="translate(6, 0)"/>
    </g>
    <!-- Scattered Chips -->
    <use href="#chip" x="360" y="770" style="color: #388E3C" transform="rotate(-25, 360, 770)"/>
    <use href="#chip" x="440" y="760" style="color: #D32F2F" transform="rotate(30, 440, 760)"/>
    <use href="#chip" x="270" y="780" style="color: #1976D2" transform="rotate(12, 270, 780)"/>
    <use href="#chip" x="340" y="785" style="color: #FFA000" transform="rotate(-8, 340, 785)"/>
    
    <!-- Motion Chip falling -->
    <use href="#chip" x="420" y="660" style="color: #388E3C" transform="rotate(55, 420, 660)" filter="url(#blur)"/>
  </g>

  <!-- Community Cards (The Flop - A♠ K♠ Q♠) -->
  <g transform="translate(520, 690) scale(1, 0.75) skewX(-40) rotate(-10)" filter="url(#shadow)">
    <!-- Card 1 (A♠) -->
    <g transform="translate(-160, 0) rotate(-8)">
      <use href="#flop-card"/>
      <text x="12" y="30" fill="#111" font-size="26">A</text>
      <use href="#suit-spade" x="20" y="48" transform="scale(0.8)"/>
      <use href="#suit-spade" x="40" y="72" transform="scale(2)"/>
    </g>
    <!-- Card 2 (K♠) -->
    <g transform="translate(-70, 10) rotate(2)">
      <use href="#flop-card"/>
      <text x="12" y="30" fill="#111" font-size="26">K</text>
      <use href="#suit-spade" x="20" y="48" transform="scale(0.8)"/>
      <use href="#suit-spade" x="40" y="72" transform="scale(2)"/>
    </g>
    <!-- Card 3 (Q♠) -->
    <g transform="translate(20, -5) rotate(14)">
      <use href="#flop-card"/>
      <text x="12" y="30" fill="#111" font-size="26">Q</text>
      <use href="#suit-spade" x="20" y="48" transform="scale(0.8)"/>
      <use href="#suit-spade" x="40" y="72" transform="scale(2)"/>
    </g>
  </g>

  <!-- Spiked Collar -->
  <g filter="url(#shadow)">
    <!-- Thick Leather Band -->
    <path d="M 280 560 Q 500 690 720 560 L 745 615 Q 500 750 255 615 Z" fill="#110502"/>
    <path d="M 270 575 Q 500 710 730 575" fill="none" stroke="#3D261D" stroke-width="6"/>
    <path d="M 270 575 Q 500 710 730 575" fill="none" stroke="#000" stroke-width="2" stroke-dasharray="10 6"/>
    
    <!-- Massive Polished Metal Spikes -->
    <g stroke="#000" stroke-width="2">
      <polygon points="320,590 310,680 355,605" fill="url(#metalSpike)"/>
      <polygon points="400,625 405,725 440,635" fill="url(#metalSpike)"/>
      <polygon points="490,645 500,750 530,645" fill="url(#metalSpike)"/>
      <polygon points="585,635 605,725 620,625" fill="url(#metalSpike)"/>
      <polygon points="665,605 705,680 695,590" fill="url(#metalSpike)"/>
    </g>
    <!-- Spike bases -->
    <ellipse cx="338" cy="597" rx="20" ry="8" fill="#37474F" transform="rotate(-18, 338, 597)"/>
    <ellipse cx="420" cy="630" rx="22" ry="9" fill="#37474F" transform="rotate(-6, 420, 630)"/>
    <ellipse cx="510" cy="645" rx="24" ry="9" fill="#37474F"/>
    <ellipse cx="602" cy="630" rx="22" ry="9" fill="#37474F" transform="rotate(6, 602, 630)"/>
    <ellipse cx="680" cy="597" rx="20" ry="8" fill="#37474F" transform="rotate(18, 680, 597)"/>
  </g>

  <!-- Left Arm & Paw (Guarding Chips) -->
  <g filter="url(#shadow)">
    <!-- Arm -->
    <path d="M -70 950 C -10 740, 160 690, 290 770 L 110 950 Z" fill="#20110B"/>
    <path d="M 160 690 C 230 710, 270 740, 290 770" fill="none" stroke="#FFC107" stroke-width="6" opacity="0.35" filter="url(#glow)"/>
    
    <!-- Arm Fur -->
    <path d="M 120 700 Q 140 660 160 695 Q 200 720 220 685 Q 240 730 270 715 Z" fill="#20110B"/>

    <!-- Hand Base -->
    <path d="M 210 740 Q 280 720 320 770 Q 340 820 270 840 Q 200 810 210 740 Z" fill="#3D261D"/>
    
    <!-- Articulated Fingers -->
    <g fill="#130905" stroke="#050100" stroke-width="5">
      <!-- Index -->
      <path d="M 290 755 C 360 720, 380 770, 340 805 C 310 790, 290 770, 290 755 Z"/>
      <!-- Middle -->
      <path d="M 265 770 C 340 740, 360 800, 320 830 C 285 810, 270 780, 265 770 Z"/>
      <!-- Ring -->
      <path d="M 240 785 C 310 765, 330 830, 280 850 C 245 825, 240 800, 240 785 Z"/>
    </g>
    <!-- Knuckle Details -->
    <circle cx="285" cy="765" r="7" fill="#FFF" opacity="0.15"/>
    <circle cx="260" cy="785" r="7" fill="#FFF" opacity="0.15"/>
    <circle cx="235" cy="805" r="7" fill="#FFF" opacity="0.15"/>

    <!-- Claws (Sharp, gnarly) -->
    <g fill="#070302">
      <path d="M 360 765 C 410 775, 415 790, 355 795 Z"/>
      <path d="M 345 795 C 390 820, 395 835, 335 825 Z"/>
      <path d="M 315 820 C 350 860, 350 870, 300 845 Z"/>
    </g>
    <path d="M 363 771 L 400 782 M 348 802 L 382 825 M 318 828 L 342 858" stroke="#FFF" stroke-width="2.5" opacity="0.8"/>
  </g>


  <!-- ================= FOREGROUND (RIGHT PAW & ROYAL FLUSH) ================= -->
  
  <!-- Right Arm -->
  <path d="M 1080 950 C 1020 680, 850 600, 650 720 L 730 950 Z" fill="#20110B" filter="url(#shadow)"/>
  
  <!-- Right Arm Fur -->
  <path d="M 870 630 Q 840 580 820 620 Q 770 655 730 605 Q 730 670 680 650 Z" fill="#20110B"/>

  <!-- Right Arm Spots -->
  <g fill="#110906" opacity="0.85">
    <ellipse cx="860" cy="760" rx="14" ry="20" transform="rotate(-20, 860, 760)"/>
    <ellipse cx="800" cy="830" rx="16" ry="24" transform="rotate(25, 800, 830)"/>
    <ellipse cx="930" cy="850" rx="18" ry="16" transform="rotate(-35, 930, 850)"/>
  </g>

  <!-- The Winning Hand: Royal Flush (Hearts) -->
  <g id="winning-hand" filter="url(#shadow)">
    <!-- 10 of Hearts -->
    <g transform="translate(510, 610) rotate(-24)">
      <rect width="90" height="135" rx="8" fill="url(#cardGrad)" stroke="#BCAAA4" stroke-width="1.5"/>
      <rect x="6" y="6" width="78" height="123" rx="4" fill="none" stroke="#D7CCC8" stroke-width="1.5"/>
      <text x="10" y="32" fill="#D32F2F" font-size="28" letter-spacing="-2">10</text>
      <use href="#suit-heart" x="24" y="52" transform="scale(0.9)"/>
      <use href="#suit-heart" x="45" y="80" transform="scale(2.2)"/>
    </g>
    <!-- Jack of Hearts -->
    <g transform="translate(580, 565) rotate(-12)" filter="url(#cardShadow)">
      <rect width="90" height="135" rx="8" fill="url(#cardGrad)" stroke="#BCAAA4" stroke-width="1.5"/>
      <rect x="6" y="6" width="78" height="123" rx="4" fill="none" stroke="#D7CCC8" stroke-width="1.5"/>
      <text x="14" y="32" fill="#D32F2F" font-size="28">J</text>
      <use href="#suit-heart" x="20" y="52" transform="scale(0.9)"/>
      <use href="#suit-heart" x="45" y="80" transform="scale(2.2)"/>
    </g>
    <!-- Queen of Hearts -->
    <g transform="translate(650, 535) rotate(0)" filter="url(#cardShadow)">
      <rect width="90" height="135" rx="8" fill="url(#cardGrad)" stroke="#BCAAA4" stroke-width="1.5"/>
      <rect x="6" y="6" width="78" height="123" rx="4" fill="none" stroke="#D7CCC8" stroke-width="1.5"/>
      <text x="14" y="32" fill="#D32F2F" font-size="28">Q</text>
      <use href="#suit-heart" x="20" y="52" transform="scale(0.9)"/>
      <use href="#suit-heart" x="45" y="80" transform="scale(2.2)"/>
    </g>
    <!-- King of Hearts -->
    <g transform="translate(725, 530) rotate(12)" filter="url(#cardShadow)">
      <rect width="90" height="135" rx="8" fill="url(#cardGrad)" stroke="#BCAAA4" stroke-width="1.5"/>
      <rect x="6" y="6" width="78" height="123" rx="4" fill="none" stroke="#D7CCC8" stroke-width="1.5"/>
      <text x="14" y="32" fill="#D32F2F" font-size="28">K</text>
      <use href="#suit-heart" x="20" y="52" transform="scale(0.9)"/>
      <use href="#suit-heart" x="45" y="80" transform="scale(2.2)"/>
    </g>
    <!-- Ace of Hearts -->
    <g transform="translate(795, 550) rotate(24)" filter="url(#cardShadow)">
      <rect width="90" height="135" rx="8" fill="url(#cardGrad)" stroke="#BCAAA4" stroke-width="1.5"/>
      <rect x="6" y="6" width="78" height="123" rx="4" fill="none" stroke="#D7CCC8" stroke-width="1.5"/>
      <text x="14" y="32" fill="#D32F2F" font-size="28">A</text>
      <use href="#suit-heart" x="20" y="52" transform="scale(0.9)"/>
      <use href="#suit-heart" x="45" y="80" transform="scale(2.2)"/>
    </g>
  </g>

  <!-- Right Paw Gripping Cards -->
  <g filter="url(#shadow)">
    <!-- Base Palm Back -->
    <path d="M 530 850 C 510 680, 680 640, 910 730 L 960 860 Z" fill="#3D261D"/>
    
    <!-- Fingers Wrapping Cards -->
    <g fill="#130905" stroke="#070302" stroke-width="5">
      <!-- Pinky -->
      <path d="M 530 690 C 560 630, 600 660, 590 720 Z"/>
      <!-- Ring -->
      <path d="M 590 640 C 630 580, 670 610, 650 690 Z"/>
      <!-- Middle -->
      <path d="M 660 620 C 700 560, 740 590, 720 680 Z"/>
      <!-- Index -->
      <path d="M 740 630 C 780 570, 820 600, 800 690 Z"/>
    </g>

    <!-- Finger Claws Piercing Over -->
    <g fill="#050100">
      <path d="M 565 650 C 530 600, 540 590, 580 625 Z"/>
      <path d="M 625 615 C 600 550, 615 540, 655 590 Z"/>
      <path d="M 695 605 C 685 530, 700 525, 730 585 Z"/>
      <path d="M 775 620 C 790 550, 805 555, 810 605 Z"/>
    </g>
    <!-- Claw Glints -->
    <path d="M 552 622 L 572 642 M 615 565 L 642 600 M 695 550 L 718 590 M 788 570 L 802 610" stroke="#FFF" stroke-width="2.5" opacity="0.85"/>

    <!-- The Big Thumb Pressing Front -->
    <path d="M 630 820 C 600 730, 680 680, 750 700 C 820 720, 840 780, 780 840 C 730 890, 650 870, 630 820 Z" fill="#20110B" stroke="#130905" stroke-width="6"/>
    <!-- Thumb Highlight -->
    <path d="M 640 800 C 630 730, 700 700, 740 720" fill="none" stroke="#FFC107" stroke-width="5" opacity="0.4" filter="url(#glow)"/>
    
    <!-- Thumb Detail -->
    <path d="M 700 710 Q 730 725 715 770" fill="none" stroke="#110906" stroke-width="5" stroke-linecap="round"/>
    <circle cx="735" cy="725" r="8" fill="#FFF" opacity="0.15"/>

    <!-- Thumb Claw -->
    <path d="M 675 705 C 600 640, 620 630, 650 730 Z" fill="#050100"/>
    <path d="M 630 660 L 660 715" stroke="#FFF" stroke-width="3" opacity="0.9"/>
  </g>

  <!-- ================= FOREGROUND LIGHTING & DUST FX ================= -->
  
  <!-- Floating Dust Motes (Adds massive atmosphere) -->
  <g fill="#FFF" filter="url(#glow)">
    <circle cx="320" cy="380" r="5" opacity="0.6"/>
    <circle cx="360" cy="450" r="3" opacity="0.4"/>
    <circle cx="680" cy="270" r="6" opacity="0.5"/>
    <circle cx="700" cy="210" r="3.5" opacity="0.7"/>
    <circle cx="210" cy="580" r="4" opacity="0.4"/>
    <circle cx="800" cy="460" r="5" opacity="0.5"/>
    <circle cx="480" cy="240" r="3" opacity="0.6"/>
    <circle cx="550" cy="180" r="5" opacity="0.3"/>
    <circle cx="850" cy="350" r="3.5" opacity="0.4"/>
    <circle cx="400" cy="130" r="4" opacity="0.5"/>
    <circle cx="620" cy="100" r="2.5" opacity="0.6"/>
    <circle cx="280" cy="250" r="4.5" opacity="0.3"/>
    <circle cx="520" cy="290" r="3" opacity="0.8"/>
  </g>

  <!-- Intense Framing Vignette -->
  <rect width="1000" height="800" fill="url(#vignette)" style="mix-blend-mode: multiply;" pointer-events="none"/>

</svg>