<svg xmlns="http://www.w3.org/2000/svg" viewBox="0 0 1000 800" width="100%" height="100%" style="background-color: #050203;">
  <defs>
    <!-- Complex Casino Wallpaper Pattern -->
    <pattern id="wallpaper" width="120" height="120" patternUnits="userSpaceOnUse" patternTransform="rotate(15)">
      <rect width="120" height="120" fill="#0b0305"/>
      <path d="M 60 0 L 120 60 L 60 120 L 0 60 Z" fill="none" stroke="#160508" stroke-width="2"/>
      <path d="M 60 20 L 100 60 L 60 100 L 20 60 Z" fill="none" stroke="#21070d" stroke-width="1.5" opacity="0.8"/>
      <circle cx="60" cy="60" r="24" fill="none" stroke="#160508" stroke-width="4"/>
      <path d="M 60 44 L 64 56 L 76 60 L 64 64 L 60 76 L 56 64 L 44 60 L 56 56 Z" fill="#21070d" opacity="0.5"/>
    </pattern>

    <!-- Essential Gradients -->
    <radialGradient id="vignette" cx="50%" cy="50%" r="75%">
      <stop offset="30%" stop-color="#000" stop-opacity="0"/>
      <stop offset="75%" stop-color="#020101" stop-opacity="0.8"/>
      <stop offset="100%" stop-color="#000" stop-opacity="1"/>
    </radialGradient>
    
    <radialGradient id="tableGlow" cx="50%" cy="850" r="600" gradientUnits="userSpaceOnUse">
      <stop offset="0%" stop-color="#4CAF50"/>
      <stop offset="15%" stop-color="#2E7D32"/>
      <stop offset="45%" stop-color="#1B5E20"/>
      <stop offset="75%" stop-color="#0A2A0D"/>
      <stop offset="100%" stop-color="#010502"/>
    </radialGradient>

    <!-- God Ray Gradients -->
    <linearGradient id="rayTeal" x1="0%" y1="0%" x2="100%" y2="100%">
      <stop offset="0%" stop-color="#00E5FF" stop-opacity="0.15"/>
      <stop offset="100%" stop-color="#00838F" stop-opacity="0"/>
    </linearGradient>
    
    <linearGradient id="rayGold" x1="100%" y1="0%" x2="0%" y2="100%">
      <stop offset="0%" stop-color="#FFC107" stop-opacity="0.2"/>
      <stop offset="100%" stop-color="#FF5722" stop-opacity="0"/>
    </linearGradient>

    <linearGradient id="woodRail" x1="0" y1="0" x2="0" y2="1">
      <stop offset="0%" stop-color="#795548"/>
      <stop offset="5%" stop-color="#8D6E63"/>
      <stop offset="10%" stop-color="#4E342E"/>
      <stop offset="40%" stop-color="#2D1C15"/>
      <stop offset="80%" stop-color="#0f0704"/>
      <stop offset="100%" stop-color="#000"/>
    </linearGradient>

    <linearGradient id="cardGrad" x1="0%" y1="0%" x2="100%" y2="100%">
      <stop offset="0%" stop-color="#FFFFFF"/>
      <stop offset="30%" stop-color="#F5F5F5"/>
      <stop offset="80%" stop-color="#E0E0E0"/>
      <stop offset="100%" stop-color="#BDBDBD"/>
    </linearGradient>

    <linearGradient id="goldFoil" x1="0%" y1="0%" x2="100%" y2="100%">
      <stop offset="0%" stop-color="#FFF8E1"/>
      <stop offset="25%" stop-color="#FFCA28"/>
      <stop offset="50%" stop-color="#FFECB3"/>
      <stop offset="75%" stop-color="#FF8F00"/>
      <stop offset="100%" stop-color="#E65100"/>
    </linearGradient>

    <radialGradient id="cigarGlow" cx="50%" cy="50%" r="50%">
      <stop offset="0%" stop-color="#FFFFFF"/>
      <stop offset="20%" stop-color="#FFF176"/>
      <stop offset="45%" stop-color="#FF5722"/>
      <stop offset="70%" stop-color="#b71c1c"/>
      <stop offset="100%" stop-color="#212121" stop-opacity="0"/>
    </radialGradient>

    <radialGradient id="eyeScleraLeft" cx="50%" cy="50%" r="50%">
      <stop offset="0%" stop-color="#FFFDE7"/>
      <stop offset="70%" stop-color="#FFE082"/>
      <stop offset="100%" stop-color="#C62828"/>
    </radialGradient>

    <radialGradient id="eyeScleraRight" cx="45%" cy="45%" r="65%">
      <stop offset="0%" stop-color="#FFFFFF"/>
      <stop offset="25%" stop-color="#FFF9C4"/>
      <stop offset="55%" stop-color="#FFB300"/>
      <stop offset="80%" stop-color="#D32F2F"/>
      <stop offset="100%" stop-color="#4A148C"/>
    </radialGradient>

    <radialGradient id="eyeIris" cx="40%" cy="40%" r="60%">
      <stop offset="0%" stop-color="#FFF59D"/>
      <stop offset="30%" stop-color="#FF9800"/>
      <stop offset="65%" stop-color="#D84315"/>
      <stop offset="90%" stop-color="#3E2723"/>
      <stop offset="100%" stop-color="#000"/>
    </radialGradient>

    <linearGradient id="teethGrad" x1="0%" y1="0%" x2="0%" y2="100%">
      <stop offset="0%" stop-color="#3E2723"/>
      <stop offset="15%" stop-color="#FBC02D"/>
      <stop offset="40%" stop-color="#FFF9C4"/>
      <stop offset="75%" stop-color="#FFFFFF"/>
      <stop offset="100%" stop-color="#B0BEC5"/>
    </linearGradient>

    <linearGradient id="goldToothGrad" x1="0%" y1="0%" x2="100%" y2="100%">
      <stop offset="0%" stop-color="#FFFDE7"/>
      <stop offset="20%" stop-color="#FFCA28"/>
      <stop offset="50%" stop-color="#FF8F00"/>
      <stop offset="85%" stop-color="#E65100"/>
      <stop offset="100%" stop-color="#3E2723"/>
    </linearGradient>

    <linearGradient id="whiskeyGrad" x1="0%" y1="0%" x2="0%" y2="100%">
      <stop offset="0%" stop-color="#FFD54F"/>
      <stop offset="20%" stop-color="#FF9800"/>
      <stop offset="60%" stop-color="#E64A19"/>
      <stop offset="100%" stop-color="#3E2723"/>
    </linearGradient>

    <!-- Cinematic Filters -->
    <filter id="shadow" x="-30%" y="-30%" width="160%" height="160%">
      <feDropShadow dx="0" dy="15" stdDeviation="10" flood-color="#000" flood-opacity="0.9"/>
    </filter>
    
    <filter id="glow" x="-50%" y="-50%" width="200%" height="200%">
      <feGaussianBlur stdDeviation="5" result="blur"/>
      <feComposite in="SourceGraphic" in2="blur" operator="over"/>
    </filter>

    <filter id="intenseGlow" x="-50%" y="-50%" width="200%" height="200%">
      <feGaussianBlur stdDeviation="8" result="blur"/>
      <feComponentTransfer in="blur" result="glow">
        <feFuncA type="linear" slope="2.5"/>
      </feComponentTransfer>
      <feComposite in="SourceGraphic" in2="glow" operator="over"/>
    </filter>

    <filter id="blur" x="-50%" y="-50%" width="200%" height="200%">
      <feGaussianBlur stdDeviation="6"/>
    </filter>
    
    <filter id="bokehBlur" x="-50%" y="-50%" width="200%" height="200%">
      <feGaussianBlur stdDeviation="20"/>
    </filter>
    
    <filter id="smokeBlur" x="-50%" y="-50%" width="200%" height="200%">
      <feGaussianBlur stdDeviation="12"/>
    </filter>

    <filter id="heavySmoke" x="-50%" y="-50%" width="200%" height="200%">
      <feGaussianBlur stdDeviation="30"/>
    </filter>

    <!-- Vector Paths for Card Suits -->
    <g id="suit-heart">
      <path d="M 0,-4 C 0,-14 -14,-14 -14,-4 C -14,6 0,14 0,14 C 0,14 14,6 14,-4 C 14,-14 0,-14 0,-4 Z" fill="#D32F2F"/>
    </g>
    <g id="suit-spade">
      <path d="M 0,-14 C 0,-14 -14,0 -14,5 C -14,11 -5,11 0,6 C 5,11 14,11 14,5 C 14,0 0,-14 0,-14 Z M -3,6 L -6,14 L 6,14 L 3,6 Z" fill="#111"/>
    </g>
    <g id="suit-diamond">
      <path d="M 0,-14 L 11,0 L 0,14 L -11,0 Z" fill="#D32F2F"/>
    </g>

    <!-- Detailed Poker Chip -->
    <g id="chip">
      <!-- 3D Edge -->
      <ellipse cx="0" cy="0" rx="35" ry="12" fill="#030303"/>
      <path d="M -35 0 L -35 -8 C -35 -15, -19 -20, 0 -20 C 19 -20, 35 -15, 35 -8 L 35 0 Z" fill="#151515"/>
      <!-- Edge Ridges -->
      <path d="M -34 -4 L -34 0 M -28 -7 L -28 2 M -18 -9 L -18 4 M -8 -10 L -8 5 M 2 -10 L 2 5 M 12 -9 L 12 4 M 22 -7 L 22 2 M 30 -5 L 30 1 M 34 -3 L 34 0" stroke="#000" stroke-width="1.5" opacity="0.9"/>
      
      <!-- Top Face -->
      <ellipse cx="0" cy="-8" rx="35" ry="12" fill="currentColor"/>
      
      <!-- Edge Marks -->
      <path d="M -22 -7 L -33 -7 M 22 -7 L 33 -7 M -11 -16 L -16 -19 M 11 -16 L 16 -19 M -11 2 L -16 5 M 11 2 L 16 5" stroke="#FFF" stroke-width="5" stroke-linecap="round" opacity="0.9"/>
      <path d="M -22 -7 L -33 -7 M 22 -7 L 33 -7 M -11 -16 L -16 -19 M 11 -16 L 16 -19 M -11 2 L -16 5 M 11 2 L 16 5" stroke="#000" stroke-width="1.5" stroke-linecap="round" opacity="0.5" transform="translate(0, 1.5)"/>
      
      <!-- Inner Detailing -->
      <ellipse cx="0" cy="-8" rx="22" ry="7" fill="none" stroke="#FFF" stroke-width="1" opacity="0.6"/>
      <ellipse cx="0" cy="-8" rx="14" ry="4.5" fill="#111" opacity="0.7"/>
      <path d="M 0 -11.5 L 2.5 -9 L 6 -9 L 3.5 -6.5 L 5 -3.5 L 0 -5 L -5 -3.5 L -3.5 -6.5 L -6 -9 L -2.5 -9 Z" fill="#FFF" opacity="0.8"/>
      
      <!-- Gloss Reflection -->
      <path d="M -25 -10 C -10 -16, 10 -16, 25 -10" fill="none" stroke="#FFF" stroke-width="2" opacity="0.4" filter="url(#glow)"/>
    </g>

    <!-- Flop Card Base -->
    <g id="flop-card">
      <rect width="70" height="100" rx="6" fill="url(#cardGrad)" stroke="#BDBDBD" stroke-width="1.5" filter="url(#shadow)"/>
      <rect x="4" y="4" width="62" height="92" rx="4" fill="none" stroke="#E0E0E0" stroke-width="1"/>
    </g>
  </defs>

  <!-- ================= BACKGROUND & ATMOSPHERE ================= -->
  <rect width="1000" height="800" fill="url(#wallpaper)"/>
  <rect width="1000" height="800" fill="url(#vignette)"/>

  <!-- Cinematic Background Smoke Layers -->
  <path d="M -100 200 Q 200 -50 500 250 T 1100 100" fill="none" stroke="#455A64" stroke-width="180" opacity="0.2" filter="url(#heavySmoke)"/>
  <path d="M -50 600 Q 300 400 700 700 T 1200 400" fill="none" stroke="#37474F" stroke-width="150" opacity="0.3" filter="url(#heavySmoke)"/>

  <!-- Volumetric Lighting (God Rays) -->
  <!-- Left Teal Beam -->
  <polygon points="-100,-50 300,-50 550,850 -200,850" fill="url(#rayTeal)" style="mix-blend-mode: screen;" pointer-events="none"/>
  <!-- Right Warm Gold Beam -->
  <polygon points="500,-50 900,-50 1200,850 400,850" fill="url(#rayGold)" style="mix-blend-mode: screen;" pointer-events="none"/>
  
  <!-- Center Highlight Focus -->
  <circle cx="500" cy="200" r="300" fill="#FFC107" opacity="0.08" filter="url(#heavySmoke)" style="mix-blend-mode: color-dodge;"/>

  <!-- Casino Bokeh -->
  <g filter="url(#bokehBlur)" opacity="0.65" style="mix-blend-mode: screen;">
    <circle cx="180" cy="220" r="45" fill="#E91E63" opacity="0.4"/>
    <circle cx="180" cy="220" r="40" fill="none" stroke="#F48FB1" stroke-width="6" opacity="0.6"/>
    <circle cx="820" cy="150" r="70" fill="#FFC107" opacity="0.3"/>
    <circle cx="820" cy="150" r="60" fill="none" stroke="#FFE082" stroke-width="8" opacity="0.5"/>
    <circle cx="100" cy="480" r="60" fill="#00BCD4" opacity="0.25"/>
    <circle cx="900" cy="450" r="50" fill="#4CAF50" opacity="0.3"/>
    <circle cx="280" cy="100" r="30" fill="#9C27B0" opacity="0.4"/>
  </g>


  <!-- ================= HYENA CHARACTER (BACK/BODY) ================= -->
  
  <!-- Massive Shoulders & Torso -->
  <path d="M 150 850 C 120 520, 300 400, 500 400 C 700 400, 880 520, 850 850 Z" fill="#1b100c"/>
  <path d="M 260 850 C 250 580, 370 480, 500 480 C 630 480, 750 580, 740 850 Z" fill="#3a251e" opacity="0.8"/>

  <!-- Left Shoulder Teal Rim Light -->
  <path d="M 150 850 C 120 520, 300 400, 420 400" fill="none" stroke="#00E5FF" stroke-width="12" opacity="0.5" filter="url(#glow)"/>
  <path d="M 155 830 C 130 550, 290 410, 400 410" fill="none" stroke="#FFF" stroke-width="3" opacity="0.6"/>

  <!-- Right Shoulder Warm Rim Light -->
  <path d="M 850 850 C 880 520, 700 400, 580 400" fill="none" stroke="#FF9800" stroke-width="10" opacity="0.4" filter="url(#glow)"/>

  <!-- Back Mane (Spiky and backlit) -->
  <g filter="url(#shadow)">
    <path d="M 450 280 L 380 180 L 460 210 L 420 100 L 490 160 L 480 40 L 530 140 L 580 50 L 560 150 L 640 110 L 590 200 L 670 240 L 580 270 L 630 340 Z" fill="#0f0704"/>
    <!-- Mane Teal Highlights (Left) -->
    <path d="M 480 40 L 490 160 L 420 100 L 460 210 L 380 180 L 450 280" fill="none" stroke="#00E5FF" stroke-width="5" opacity="0.6" filter="url(#glow)"/>
    <path d="M 480 40 L 490 160 L 420 100 L 460 210" fill="none" stroke="#FFF" stroke-width="1.5" opacity="0.8"/>
    <!-- Mane Gold Highlights (Right) -->
    <path d="M 480 40 L 530 140 L 580 50 L 560 150 L 640 110 L 590 200 L 670 240" fill="none" stroke="#FFC107" stroke-width="6" opacity="0.5" filter="url(#glow)"/>
    <!-- Inner Texture -->
    <path d="M 470 230 L 430 140 L 480 180 L 500 80 L 530 160 L 570 90 L 550 170 L 610 150 L 560 220 Z" fill="#2c1711"/>
  </g>

  <!-- Left Ear (Teal rim light, ragged) -->
  <g filter="url(#shadow)">
    <path d="M 390 320 C 320 160, 220 170, 230 330 C 235 390, 300 410, 390 360 Z" fill="#3a231c" stroke="#120805" stroke-width="6" stroke-linejoin="round"/>
    <path d="M 370 320 C 320 210, 260 220, 260 340 Z" fill="#1b100c"/>
    <!-- Teal Rim Light -->
    <path d="M 280 220 C 330 230, 360 280, 380 310" fill="none" stroke="#00E5FF" stroke-width="4.5" opacity="0.8" filter="url(#glow)"/>
    <path d="M 230 300 C 215 220, 270 170, 320 175" fill="none" stroke="#00E5FF" stroke-width="2.5"/>
  </g>
  
  <!-- Right Ear (Torn, pierced, warmly backlit) -->
  <g filter="url(#shadow)">
    <path d="M 610 320 C 680 160, 780 170, 770 330 C 765 390, 700 410, 610 360 Z" fill="#3a231c" stroke="#120805" stroke-width="6" stroke-linejoin="round"/>
    <!-- Subsurface scattering/glow on ear -->
    <path d="M 610 320 C 680 160, 780 170, 770 330 C 765 390, 700 410, 610 360 Z" fill="#E64A19" opacity="0.4" filter="url(#blur)"/>
    <path d="M 630 320 C 680 210, 740 220, 740 340 Z" fill="#1b100c"/>
    <!-- Ear Tear -->
    <path d="M 780 260 L 690 300 L 740 330 Z" fill="#050203" stroke="#120805" stroke-width="4" stroke-linejoin="round"/> 
    <path d="M 690 300 L 740 330" stroke="#FF9800" stroke-width="3" filter="url(#glow)"/>
    <!-- Piercings -->
    <circle cx="760" cy="350" r="18" fill="none" stroke="#FFD54F" stroke-width="6" filter="url(#shadow)"/>
    <circle cx="760" cy="350" r="18" fill="none" stroke="#FFF" stroke-width="2"/>
    <circle cx="720" cy="390" r="12" fill="none" stroke="#FFD54F" stroke-width="5" filter="url(#shadow)"/>
    <circle cx="720" cy="390" r="12" fill="none" stroke="#FFF" stroke-width="1.5"/>
  </g>

  <!-- ================= BASE HEAD & JOWLS ================= -->
  
  <!-- Base Head Shape -->
  <path d="M 360 360 C 350 200, 650 200, 640 360 C 660 490, 500 500, 500 500 C 500 500, 340 490, 360 360 Z" fill="#4d3329"/>
  
  <!-- Wide, furry, rugged jowls (More spiky and organic) -->
  <path d="M 330 380 Q 220 500 300 560 Q 380 620 500 620 Q 620 620 700 560 Q 780 500 670 380 C 720 530, 590 640, 500 640 C 410 640, 280 530, 330 380 Z" fill="#3a251e"/>
  
  <!-- Fur Spikes on Jowls -->
  <g fill="#2c1a14">
    <!-- Left -->
    <path d="M 320 440 L 230 460 L 330 490 Z"/>
    <path d="M 330 490 L 250 520 L 350 540 Z"/>
    <path d="M 350 550 L 290 590 L 390 580 Z"/>
    <!-- Right -->
    <path d="M 680 440 L 770 460 L 670 490 Z"/>
    <path d="M 670 490 L 750 520 L 650 540 Z"/>
    <path d="M 650 550 L 710 590 L 610 580 Z"/>
  </g>

  <!-- Dramatic Under-lighting -->
  <!-- Cigar glow bouncing on right jaw -->
  <path d="M 660 480 Q 720 540 600 590" fill="none" stroke="#FF5722" stroke-width="20" opacity="0.3" filter="url(#glow)"/>
  <path d="M 660 480 Q 720 540 600 590" fill="none" stroke="#FF9800" stroke-width="8" opacity="0.5"/>
  <!-- Ambient teal bouncing on left jaw -->
  <path d="M 340 480 Q 280 540 400 590" fill="none" stroke="#00BCD4" stroke-width="15" opacity="0.25" filter="url(#glow)"/>

  <!-- Hyena Spots -->
  <g fill="#120a06" opacity="0.9">
    <circle cx="350" cy="480" r="14" />
    <ellipse cx="310" cy="540" rx="12" ry="18" transform="rotate(25, 310, 540)"/>
    <ellipse cx="370" cy="580" rx="10" ry="16" transform="rotate(-15, 370, 580)"/>
    <circle cx="650" cy="480" r="15" />
    <ellipse cx="690" cy="540" rx="14" ry="20" transform="rotate(-25, 690, 540)"/>
    <ellipse cx="630" cy="580" rx="10" ry="16" transform="rotate(15, 630, 580)"/>
    <circle cx="410" cy="270" r="15"/>
    <circle cx="590" cy="265" r="17"/>
    <ellipse cx="635" cy="330" rx="11" ry="15" transform="rotate(-30, 635, 330)"/>
    <ellipse cx="365" cy="335" rx="11" ry="15" transform="rotate(30, 365, 335)"/>
  </g>

  <!-- Muzzle/Snout Structure -->
  <path d="M 420 370 C 370 490, 420 560, 500 560 C 580 560, 630 490, 580 370 C 530 400, 470 400, 420 370 Z" fill="#5c4238"/>
  <path d="M 440 380 C 400 490, 440 530, 500 530 C 560 530, 600 490, 560 380 Z" fill="#917366"/>
  
  <!-- Muzzle Ridge Highlight -->
  <path d="M 480 380 C 485 460, 515 460, 520 380 Z" fill="#FFF" opacity="0.2" filter="url(#glow)"/>

  <!-- Whisker Pores & Wild Whiskers -->
  <g fill="#24130d" opacity="0.8">
    <circle cx="450" cy="450" r="3"/> <circle cx="435" cy="465" r="2.5"/> <circle cx="460" cy="475" r="3.5"/>
    <circle cx="440" cy="485" r="2"/> <circle cx="455" cy="495" r="3"/> <circle cx="448" cy="508" r="2"/>
    <circle cx="550" cy="450" r="3"/> <circle cx="565" cy="465" r="2.5"/> <circle cx="540" cy="475" r="3.5"/>
    <circle cx="560" cy="485" r="2"/> <circle cx="545" cy="495" r="3"/> <circle cx="552" cy="508" r="2"/>
  </g>
  <g fill="none" stroke="#CFD8DC" stroke-width="2" opacity="0.7" stroke-linecap="round">
    <path d="M 435 465 Q 320 440 270 480" />
    <path d="M 440 485 Q 330 480 280 520" />
    <path d="M 455 495 Q 350 520 300 570" />
    <path d="M 448 508 Q 360 550 320 590" />
    <!-- Right side (broken and wilder) -->
    <path d="M 565 465 Q 670 440 730 470" />
    <path d="M 560 485 Q 660 480 710 500" />
    <path d="M 545 495 Q 650 530 690 560" />
    <path d="M 552 508 Q 640 550 670 590" />
  </g>


  <!-- ================= THE MANIC EYES ================= -->

  <!-- Deep, Exhausted Sockets -->
  <path d="M 350 330 C 330 430, 480 450, 490 340 Z" fill="#1b0811" opacity="0.85" filter="url(#blur)"/>
  <path d="M 650 320 C 670 440, 510 450, 510 330 Z" fill="#140608" opacity="0.95" filter="url(#blur)"/>
  
  <!-- Under-eye Wrinkles -->
  <path d="M 360 380 Q 425 440, 480 385" fill="none" stroke="#0a0503" stroke-width="9" stroke-linecap="round"/>
  <path d="M 370 395 Q 425 450, 470 400" fill="none" stroke="#24130d" stroke-width="4.5" stroke-linecap="round"/>
  <path d="M 520 385 Q 575 440, 640 380" fill="none" stroke="#0a0503" stroke-width="10" stroke-linecap="round"/>
  <path d="M 530 400 Q 575 450, 630 395" fill="none" stroke="#361010" stroke-width="5" stroke-linecap="round"/>

  <!-- LEFT EYE (Squinting, Twitching) -->
  <path d="M 380 355 Q 430 320 480 355 Q 430 380 380 355 Z" fill="url(#eyeScleraLeft)" stroke="#080302" stroke-width="4"/>
  <!-- Veins -->
  <path d="M 380 355 Q 400 345 415 350" fill="none" stroke="#B71C1C" stroke-width="2.5" opacity="0.8"/>
  <path d="M 480 355 Q 460 365 445 360" fill="none" stroke="#D32F2F" stroke-width="2" opacity="0.9"/>
  <!-- Iris & Pupil -->
  <circle cx="430" cy="355" r="12" fill="url(#eyeIris)"/>
  <circle cx="430" cy="355" r="5" fill="#000"/>
  <circle cx="430" cy="355" r="12" fill="none" stroke="#FFC107" stroke-width="1.5" opacity="0.9" filter="url(#glow)"/>

  <!-- RIGHT EYE (Massive, Blown Out, Manic) -->
  <circle cx="580" cy="345" r="40" fill="url(#eyeScleraRight)" stroke="#080302" stroke-width="6"/>
  
  <!-- Intensely Detailed Bloodshot Veins -->
  <g fill="none" stroke="#B71C1C" stroke-width="2" opacity="0.9">
    <path d="M 540 345 Q 555 320 565 340 T 570 330"/>
    <path d="M 620 345 Q 605 320 595 340 T 590 330"/>
    <path d="M 580 305 Q 575 325 580 335"/>
    <path d="M 545 375 Q 560 355 565 365 T 575 355"/>
    <path d="M 615 375 Q 600 355 595 365 T 585 355"/>
    <!-- Fine branching -->
    <path d="M 545 355 Q 555 350 550 345" stroke-width="1.2"/>
    <path d="M 615 355 Q 605 350 610 345" stroke-width="1.2"/>
    <path d="M 565 310 Q 570 320 567 330" stroke-width="1.2"/>
    <path d="M 595 310 Q 590 320 593 330" stroke-width="1.2"/>
  </g>
  <!-- Dark red rim -->
  <path d="M 540 345 A 40 40 0 0 1 620 345 A 40 40 0 0 1 540 345" fill="none" stroke="#880E4F" stroke-width="5" opacity="0.7"/> 

  <!-- Right Iris & Dilated Pupil -->
  <circle cx="580" cy="345" r="23" fill="url(#eyeIris)"/>
  <circle cx="580" cy="345" r="23" fill="none" stroke="#FF9800" stroke-width="2.5" opacity="0.9" filter="url(#intenseGlow)"/>
  <circle cx="580" cy="345" r="17" fill="#000"/>
  
  <!-- Tiny Reflection of Poker Chips in the Giant Pupil -->
  <g transform="translate(578, 342) rotate(15) scale(0.6)" opacity="0.6" filter="url(#glow)">
    <rect x="-10" y="-5" width="20" height="4" fill="#D32F2F"/>
    <rect x="-8" y="0" width="16" height="4" fill="#1976D2"/>
    <rect x="-10" y="5" width="20" height="4" fill="#FFA000"/>
  </g>

  <!-- Wet Eye Catchlights (Ultra Crisp) -->
  <circle cx="433" cy="351" r="4" fill="#FFF"/>
  <circle cx="427" cy="358" r="1.5" fill="#FFF"/>
  <circle cx="588" cy="333" r="9" fill="#FFF" filter="url(#glow)"/>
  <circle cx="588" cy="333" r="4.5" fill="#FFF"/>
  <circle cx="570" cy="355" r="4" fill="#FFF"/>
  
  <!-- Wet Eyelid Rim Glints -->
  <path d="M 550 380 A 38 38 0 0 0 610 380" fill="none" stroke="#FFF" stroke-width="3" opacity="0.7" filter="url(#glow)"/>
  <path d="M 400 368 Q 430 378 460 368" fill="none" stroke="#FFF" stroke-width="2" opacity="0.5" filter="url(#glow)"/>

  <!-- Expressive Thick Eyebrows -->
  <path d="M 350 335 Q 430 270 495 355" fill="none" stroke="#050201" stroke-width="22" stroke-linecap="round" filter="url(#shadow)"/>
  <path d="M 355 335 Q 430 275 490 355" fill="none" stroke="#24130d" stroke-width="8" stroke-linecap="round"/>
  <path d="M 510 340 Q 590 200 660 320" fill="none" stroke="#050201" stroke-width="26" stroke-linecap="round" filter="url(#shadow)"/>
  <path d="M 515 340 Q 590 205 655 320" fill="none" stroke="#24130d" stroke-width="9" stroke-linecap="round"/>

  <!-- Dog-like Wet Nose -->
  <path d="M 445 405 C 445 360, 555 360, 555 405 C 555 430, 530 470, 500 470 C 470 470, 445 430, 445 405 Z" fill="#080402"/>
  <ellipse cx="465" cy="425" rx="16" ry="8" fill="#000" transform="rotate(-25, 465, 425)"/>
  <ellipse cx="535" cy="425" rx="16" ry="8" fill="#000" transform="rotate(25, 535, 425)"/>
  <path d="M 500 435 L 500 470" stroke="#000" stroke-width="5" stroke-linecap="round"/>
  <!-- Ultra-Wet Specular Highlights -->
  <path d="M 460 395 C 480 375, 520 375, 540 395 C 530 410, 470 410, 460 395 Z" fill="#FFF" opacity="0.35" filter="url(#blur)"/>
  <ellipse cx="475" cy="395" rx="16" ry="7" fill="#FFF" opacity="0.85" transform="rotate(-15, 475, 395)"/>
  <circle cx="530" cy="400" r="5" fill="#FFF" opacity="0.7"/>


  <!-- ================= THE DEGENERATE GRIN ================= -->
  
  <!-- Dark Mouth Cavity -->
  <path d="M 300 430 C 420 650, 580 650, 700 430 C 580 700, 420 700, 300 430 Z" fill="#020000" filter="url(#shadow)"/>
  
  <!-- Back Gums & Tongue -->
  <path d="M 380 520 C 460 620, 540 620, 620 520 C 540 590, 460 590, 380 520 Z" fill="#3E0011"/>
  <path d="M 430 550 C 470 585, 530 585, 570 550" fill="none" stroke="#E91E63" stroke-width="14" stroke-linecap="round" filter="url(#glow)"/>
  <path d="M 440 550 C 470 575, 530 575, 560 550" fill="none" stroke="#F48FB1" stroke-width="4" stroke-linecap="round"/>

  <!-- Carnivore Teeth (Sharp, overlapping, jagged) -->
  <g stroke="#0f0704" stroke-width="3" stroke-linejoin="round">
    <g fill="url(#teethGrad)">
      <polygon points="320,440 350,490 360,450" />
      <polygon points="360,450 390,510 400,460" />
      <polygon points="400,460 430,530 445,475" />
      <!-- Left Canine -->
      <polygon points="445,475 470,570 495,480" /> 
      <!-- Premolars right -->
      <polygon points="565,470 595,520 605,455" />
      <polygon points="605,455 630,500 640,445" />
      <polygon points="640,445 670,480 675,435" />
      <!-- LOWER TEETH -->
      <polygon points="360,530 375,490 390,540" />
      <polygon points="390,540 415,485 430,550" />
      <polygon points="430,550 455,480 475,565" />
      <polygon points="525,565 545,480 565,555" />
      <polygon points="565,555 590,495 605,540" />
      <polygon points="605,540 625,505 635,530" />
    </g>
    <!-- MASSIVE GOLD TOOTH -->
    <polygon points="495,480 530,575 565,470" fill="url(#goldToothGrad)"/>
  </g>

  <!-- Teeth Highlights & Gold Tooth Starburst -->
  <g fill="#FFF" opacity="0.75">
    <polygon points="460,520 466,555 472,520" />
    <!-- Gold Tooth Glare -->
    <polygon points="515,520 523,560 531,520" fill="#FFF" opacity="0.95" filter="url(#intenseGlow)"/>
    <!-- Gold Starburst -->
    <path d="M 523 510 L 525 535 L 550 537 L 525 539 L 523 564 L 521 539 L 496 537 L 521 535 Z" fill="#FFF" filter="url(#intenseGlow)"/>
    <polygon points="450,515 455,495 460,515" />
    <polygon points="540,515 545,495 550,515" />
  </g>

  <!-- Lips / Grin Outline -->
  <path d="M 300 430 C 420 650, 580 650, 700 430" fill="none" stroke="#050100" stroke-width="20" stroke-linecap="round" filter="url(#shadow)"/>
  <path d="M 300 430 C 420 650, 580 650, 700 430" fill="none" stroke="#240c07" stroke-width="8" stroke-linecap="round"/>

  <!-- Thick Saliva / Drool (Neon lit) -->
  <g fill="#E0F7FA" opacity="0.85">
    <path d="M 365 510 Q 375 600 360 625 Q 350 600 365 510 Z"/>
    <path d="M 625 470 Q 635 560 620 585 Q 610 560 625 470 Z"/>
    <path d="M 450 565 Q 460 640 475 680 Q 455 640 450 565 Z"/>
    <path d="M 540 565 Q 550 620 555 650 Q 535 620 540 565 Z"/>
  </g>
  <!-- Spit strings -->
  <path d="M 430 525 Q 450 555 435 575" fill="none" stroke="#E0F7FA" stroke-width="6" opacity="0.85"/>
  <path d="M 550 515 Q 535 545 555 565" fill="none" stroke="#E0F7FA" stroke-width="5" opacity="0.8"/>
  <path d="M 480 485 Q 500 535 515 485" fill="none" stroke="#E0F7FA" stroke-width="3" opacity="0.7"/>
  
  <!-- Saliva Specular (Cyan environment reflection) -->
  <g fill="none" stroke="#00E5FF" stroke-width="2.5" filter="url(#glow)">
    <path d="M 363 520 L 367 585 L 365 520 Z" stroke="#FFF"/>
    <path d="M 623 480 L 627 545 L 625 480 Z" stroke="#FFF"/>
    <path d="M 456 585 L 464 645 L 459 585 Z" stroke="#FFF"/>
  </g>
  <!-- Drool Drips -->
  <circle cx="360" cy="635" r="4.5" fill="#FFF" filter="url(#glow)"/>
  <circle cx="620" cy="595" r="4" fill="#FFF" filter="url(#glow)"/>
  <circle cx="475" cy="690" r="5.5" fill="#FFF" filter="url(#glow)"/>
  <circle cx="555" cy="660" r="3.5" fill="#FFF" filter="url(#glow)"/>


  <!-- ================= THE CIGAR ================= -->
  <g transform="translate(610, 475) rotate(-22)" filter="url(#shadow)">
    <!-- Cigar Body -->
    <rect x="-20" y="-18" width="135" height="36" rx="8" fill="#36221c" stroke="#0a0503" stroke-width="3"/>
    <rect x="-20" y="-13" width="135" height="10" rx="4" fill="#5c3c2e" opacity="0.8"/>
    <!-- Leaf wrapping lines -->
    <path d="M -15 -10 L 105 12 M -15 2 L 105 20 M 15 -20 L 55 20 L 95 -20" fill="none" stroke="#1c110d" stroke-width="3" opacity="0.7"/>
    <!-- Cigar Band -->
    <rect x="25" y="-19" width="30" height="38" fill="#b71c1c" stroke="#0a0503" stroke-width="2"/>
    <rect x="28" y="-17" width="24" height="34" fill="none" stroke="#FFD54F" stroke-width="2"/>
    <circle cx="40" cy="0" r="9" fill="url(#goldFoil)"/>
    <path d="M 36 -6 L 44 6" stroke="#FFF" stroke-width="2"/>
    
    <!-- Heavy Ash -->
    <path d="M 115 -17 L 145 -12 L 150 12 L 115 17 Z" fill="#9E9E9E" stroke="#212121" stroke-width="3"/>
    <path d="M 120 -15 L 125 15 M 130 -14 L 133 14 M 138 -13 L 137 13 M 143 -12 L 145 12" stroke="#616161" stroke-width="3.5"/>
    <path d="M 140 -8 L 148 8" stroke="#F5F5F5" stroke-width="3"/>
    
    <!-- Burning Ember -->
    <ellipse cx="147" cy="0" rx="10" ry="14" fill="url(#cigarGlow)" filter="url(#intenseGlow)"/>
    <ellipse cx="147" cy="0" rx="5" ry="8" fill="#FFF"/>
    <!-- Ember Crackles -->
    <path d="M 143 -7 L 147 0 L 144 7 M 149 -6 L 152 4" fill="none" stroke="#FFF" stroke-width="2.5"/>
    
    <!-- Falling Ash & Sparks (Highly detailed) -->
    <circle cx="145" cy="30" r="5" fill="#9E9E9E" opacity="0.95"/>
    <circle cx="150" cy="50" r="3" fill="#E0E0E0" opacity="0.8"/>
    <circle cx="130" cy="40" r="2.5" fill="#757575" opacity="0.9"/>
    <!-- Sparks -->
    <path d="M 152 5 L 168 18 M 148 15 L 158 35 M 158 -5 L 175 -12" stroke="#FF5722" stroke-width="2.5" stroke-linecap="round" filter="url(#glow)"/>
    <path d="M 152 5 L 160 11 M 148 15 L 153 25 M 158 -5 L 166 -9" stroke="#FFF" stroke-width="1.5" stroke-linecap="round"/>
  </g>

  <!-- Ethereal Cinematic Smoke -->
  <g filter="url(#smokeBlur)" opacity="0.9">
    <!-- Main thick plume -->
    <path d="M 740 450 Q 820 350 750 250 T 840 100 T 700 -50" fill="none" stroke="#FFF" stroke-width="35" stroke-linecap="round"/>
    <!-- Orange core from heat -->
    <path d="M 730 455 Q 770 420 750 370" fill="none" stroke="#FF9800" stroke-width="25" stroke-linecap="round" opacity="0.8" style="mix-blend-mode: color-dodge;"/>
    <!-- Teal/Blue environmental smoke wrap -->
    <path d="M 750 455 Q 840 360 770 260 T 860 110 T 720 -40" fill="none" stroke="#80DEEA" stroke-width="22" stroke-linecap="round" opacity="0.6"/>
    <!-- Snout wrap tendrils -->
    <path d="M 725 440 Q 660 380 720 300 T 660 170 T 780 40" fill="none" stroke="#FFF" stroke-width="16" stroke-linecap="round" opacity="0.8"/>
    <!-- Mouth leak -->
    <path d="M 640 470 Q 680 420 650 370 T 700 300" fill="none" stroke="#FFF" stroke-width="12" stroke-linecap="round" opacity="0.6"/>
  </g>


  <!-- ================= ACCESSORIES ================= -->

  <!-- Green Translucent Dealer Visor -->
  <g filter="url(#shadow)">
    <!-- Inner brim shadow -->
    <path d="M 260 280 C 370 420, 630 420, 740 280 C 630 360, 370 360, 260 280 Z" fill="#061c08"/>
    
    <!-- Plastic Front -->
    <linearGradient id="visorGrad" x1="0%" y1="0%" x2="0%" y2="100%">
      <stop offset="0%" stop-color="#4CAF50" stop-opacity="0.9"/>
      <stop offset="50%" stop-color="#388E3C" stop-opacity="0.95"/>
      <stop offset="100%" stop-color="#1B5E20" stop-opacity="1"/>
    </linearGradient>
    <path d="M 240 260 C 370 430, 630 430, 760 260 C 630 330, 370 330, 240 260 Z" fill="url(#visorGrad)" stroke="#1B5E20" stroke-width="4"/>
    
    <!-- Smooth Specular Reflection -->
    <path d="M 270 270 C 390 400, 610 400, 730 270 C 610 320, 390 320, 270 270 Z" fill="#FFF" opacity="0.5" filter="url(#blur)"/>
    <path d="M 310 280 C 400 370, 600 370, 690 280" fill="none" stroke="#FFF" stroke-width="8" opacity="0.7" filter="url(#glow)"/>
    <path d="M 240 260 C 370 430, 630 430, 760 260" fill="none" stroke="#FFF" stroke-width="4" opacity="0.9"/>
    
    <!-- Leather Head Strap -->
    <path d="M 225 245 C 320 170, 680 170, 775 245 L 760 260 C 670 190, 330 190, 240 260 Z" fill="#0a0a0a" stroke="#000" stroke-width="2"/>
    <rect x="250" y="215" width="22" height="36" rx="4" fill="#FFC107" transform="rotate(-38, 250, 215)"/>
    <circle cx="258" cy="220" r="4" fill="#2c1711" transform="rotate(-38, 250, 215)"/>
    <circle cx="258" cy="246" r="4" fill="#2c1711" transform="rotate(-38, 250, 215)"/>
  </g>

  <!-- Multiply Visor Green Light onto face -->
  <path d="M 280 300 C 420 400, 580 400, 720 300 C 600 250, 400 250, 280 300 Z" fill="#00E676" opacity="0.6" style="mix-blend-mode: multiply;" filter="url(#blur)"/>

  <!-- Metal Spiked Collar -->
  <g filter="url(#shadow)">
    <path d="M 270 560 Q 500 700 730 560 L 750 620 Q 500 760 250 620 Z" fill="#080402"/>
    <path d="M 260 580 Q 500 720 740 580" fill="none" stroke="#3a251e" stroke-width="8"/>
    <path d="M 260 580 Q 500 720 740 580" fill="none" stroke="#000" stroke-width="3" stroke-dasharray="12 8"/>
    
    <!-- Metallic Spikes -->
    <linearGradient id="metalSpike" x1="0%" y1="0%" x2="100%" y2="100%">
      <stop offset="0%" stop-color="#FFFFFF"/>
      <stop offset="20%" stop-color="#B0BEC5"/>
      <stop offset="50%" stop-color="#546E7A"/>
      <stop offset="80%" stop-color="#263238"/>
      <stop offset="100%" stop-color="#000"/>
    </linearGradient>
    <g stroke="#000" stroke-width="3">
      <polygon points="310,590 300,690 340,600" fill="url(#metalSpike)"/>
      <polygon points="390,630 395,735 425,640" fill="url(#metalSpike)"/>
      <polygon points="490,650 500,760 525,650" fill="url(#metalSpike)"/>
      <polygon points="590,640 610,735 625,630" fill="url(#metalSpike)"/>
      <polygon points="675,600 715,690 705,590" fill="url(#metalSpike)"/>
    </g>
    <!-- Base Rings -->
    <ellipse cx="325" cy="595" rx="20" ry="9" fill="#263238" transform="rotate(-18, 325, 595)"/>
    <ellipse cx="410" cy="635" rx="24" ry="10" fill="#263238" transform="rotate(-6, 410, 635)"/>
    <ellipse cx="508" cy="650" rx="26" ry="11" fill="#263238"/>
    <ellipse cx="608" cy="635" rx="24" ry="10" fill="#263238" transform="rotate(6, 608, 635)"/>
    <ellipse cx="690" cy="595" rx="20" ry="9" fill="#263238" transform="rotate(18, 690, 595)"/>
  </g>

  <!-- Gaudy Gold Chain -->
  <g filter="url(#shadow)">
    <!-- Links -->
    <path d="M 210 650 Q 280 730 360 790" fill="none" stroke="url(#goldFoil)" stroke-width="14" stroke-dasharray="28 16" stroke-linecap="round"/>
    <path d="M 210 650 Q 280 730 360 790" fill="none" stroke="#FF6F00" stroke-width="7" stroke-dasharray="28 16" stroke-linecap="round" stroke-dashoffset="12"/>
    <path d="M 790 650 Q 720 730 640 790" fill="none" stroke="url(#goldFoil)" stroke-width="14" stroke-dasharray="28 16" stroke-linecap="round"/>
    <path d="M 790 650 Q 720 730 640 790" fill="none" stroke="#FF6F00" stroke-width="7" stroke-dasharray="28 16" stroke-linecap="round" stroke-dashoffset="12"/>
    
    <!-- Diamond Medallion -->
    <path d="M 500 750 L 555 805 L 500 860 L 445 805 Z" fill="url(#goldFoil)" stroke="#FF6F00" stroke-width="5"/>
    <path d="M 500 760 L 545 805 L 500 850 L 455 805 Z" fill="none" stroke="#FFF" stroke-width="2.5" opacity="0.9"/>
    <path d="M 500 775 L 525 805 L 500 835 L 475 805 Z" fill="#D32F2F"/>
    <!-- Medallion Sparkle -->
    <path d="M 555 805 L 575 805 M 565 795 L 565 815" stroke="#FFF" stroke-width="2.5" filter="url(#intenseGlow)"/>
  </g>


  <!-- ================= THE POKER TABLE ================= -->
  
  <ellipse cx="500" cy="850" rx="980" ry="380" fill="url(#woodRail)" stroke="#050100" stroke-width="50" filter="url(#shadow)"/>
  <ellipse cx="500" cy="850" rx="980" ry="380" fill="none" stroke="#FFCC80" stroke-width="14" opacity="0.3"/>
  <ellipse cx="500" cy="850" rx="930" ry="330" fill="none" stroke="#0a0503" stroke-width="20" opacity="0.95"/>
  <ellipse cx="500" cy="850" rx="920" ry="320" fill="none" stroke="#FFF" stroke-width="4" opacity="0.2"/>
  
  <ellipse cx="500" cy="850" rx="910" ry="310" fill="url(#tableGlow)"/>
  
  <!-- Subtle Felt Texture Vignette -->
  <ellipse cx="500" cy="850" rx="910" ry="310" fill="none" stroke="#000" stroke-width="40" opacity="0.6" filter="url(#blur)"/>
  <ellipse cx="500" cy="850" rx="830" ry="260" fill="none" stroke="#FBC02D" stroke-width="8" opacity="0.9"/>
  <ellipse cx="500" cy="850" rx="810" ry="240" fill="none" stroke="#FFC107" stroke-width="2" opacity="0.5"/>


  <!-- ================= TABLE PROPS ================= -->
  
  <!-- Ambient Occlusion Shadows -->
  <ellipse cx="170" cy="700" rx="85" ry="32" fill="#000" opacity="0.8" filter="url(#blur)"/>
  <ellipse cx="360" cy="740" rx="130" ry="45" fill="#000" opacity="0.85" filter="url(#blur)"/>
  <ellipse cx="500" cy="720" rx="150" ry="40" fill="#000" opacity="0.7" filter="url(#blur)"/>
  
  <!-- Whiskey Caustic Shadow (Refraction) -->
  <ellipse cx="195" cy="710" rx="65" ry="25" fill="#FF9800" opacity="0.7" style="mix-blend-mode: color-dodge;" filter="url(#blur)"/>

  <!-- High-End Crystal Whiskey Glass -->
  <g transform="translate(120, 610)">
    <!-- Back of glass -->
    <path d="M 5 0 L 95 0 L 85 100 L 15 100 Z" fill="#FFF" opacity="0.05"/>
    <ellipse cx="50" cy="100" rx="35" ry="12" fill="#FFF" opacity="0.1"/>
    
    <!-- Liquid -->
    <path d="M 12 35 L 88 35 L 80 95 L 20 95 Z" fill="url(#whiskeyGrad)" opacity="0.95"/>
    <!-- Liquid Surface -->
    <ellipse cx="50" cy="35" rx="38" ry="12" fill="#FFC107" opacity="0.95"/>
    <ellipse cx="50" cy="35" rx="34" ry="10" fill="#FF9800" opacity="0.7"/>
    <path d="M 12 35 Q 50 48 88 35" fill="none" stroke="#FFF" stroke-width="3" opacity="0.85" filter="url(#glow)"/>

    <!-- Ice Cubes (Detailed with layered strokes for internal refraction) -->
    <g opacity="0.95" stroke="#FFF" stroke-width="2" stroke-linejoin="round">
      <!-- Submerged cube -->
      <path d="M 22 55 L 50 60 L 54 85 L 26 80 Z" fill="#B2EBF2" opacity="0.6"/>
      <path d="M 22 55 L 35 48 L 60 52 L 50 60 Z" fill="#E0F7FA" opacity="0.8"/>
      <path d="M 50 60 L 50 80 M 26 65 L 45 70" stroke-width="1.5" opacity="0.7"/>
      <!-- Floating cube -->
      <path d="M 45 25 L 70 20 L 75 45 L 50 50 Z" fill="#E0F7FA" opacity="0.9"/>
      <path d="M 45 25 L 55 15 L 80 12 L 70 20 Z" fill="#FFFFFF" opacity="0.95"/>
      <path d="M 70 20 L 70 45" stroke-width="2.5"/>
      <path d="M 55 25 L 65 30" stroke-width="1.5" opacity="0.8"/>
    </g>

    <!-- Front glass and thick crystal cuts -->
    <path d="M 5 0 L 95 0 L 85 100 L 15 100 Z" fill="none" stroke="#FFF" stroke-width="6" opacity="0.8" stroke-linejoin="round"/>
    <ellipse cx="50" cy="0" rx="45" ry="15" fill="none" stroke="#FFF" stroke-width="6" opacity="0.9"/>
    
    <!-- Crystal Base -->
    <path d="M 15 100 L 85 100 L 80 118 L 20 118 Z" fill="#FFF" opacity="0.3"/>
    <ellipse cx="50" cy="118" rx="30" ry="10" fill="none" stroke="#FFF" stroke-width="5" opacity="0.8"/>
    <!-- Base detail cuts -->
    <path d="M 25 105 L 35 112 M 45 105 L 50 115 M 65 105 L 60 115 M 75 105 L 70 112" stroke="#FFF" stroke-width="3" opacity="0.7"/>
    
    <!-- Extreme Specular Glare -->
    <path d="M 10 15 L 20 95" stroke="#FFF" stroke-width="8" stroke-linecap="round" opacity="1" filter="url(#glow)"/>
    <path d="M 90 15 L 82 75" stroke="#FFF" stroke-width="3" stroke-linecap="round" opacity="0.8"/>
  </g>

  <!-- High-Stakes Chip Stacks -->
  <g filter="url(#shadow)">
    <g style="color: #D32F2F" transform="translate(310, 710)">
      <use href="#chip" y="0"/> <use href="#chip" y="-14"/> <use href="#chip" y="-28"/>
      <use href="#chip" y="-42"/> <use href="#chip" y="-56"/> <use href="#chip" y="-70"/>
      <use href="#chip" y="-84"/> <use href="#chip" y="-98" transform="rotate(15, 0, -98)"/>
    </g>
    <g style="color: #1976D2" transform="translate(240, 735) rotate(-5)">
      <use href="#chip" y="0"/> <use href="#chip" y="-14"/> <use href="#chip" y="-28"/>
      <use href="#chip" y="-42"/> <use href="#chip" y="-56"/>
    </g>
    <g style="color: #FFA000" transform="translate(390, 740)">
      <use href="#chip" y="0"/> <use href="#chip" y="-14"/> <use href="#chip" y="-28"/>
      <use href="#chip" y="-42" transform="translate(6, 0)"/>
    </g>
    <g style="color: #9C27B0" transform="translate(350, 680) rotate(8)">
      <use href="#chip" y="0"/> <use href="#chip" y="-14"/> <use href="#chip" y="-28"/>
      <use href="#chip" y="-42"/>
    </g>
    
    <!-- Scattered Chips -->
    <use href="#chip" x="360" y="760" style="color: #388E3C" transform="rotate(-25, 360, 760)"/>
    <use href="#chip" x="430" y="755" style="color: #D32F2F" transform="rotate(28, 430, 755)"/>
    <use href="#chip" x="280" y="770" style="color: #9C27B0" transform="rotate(12, 280, 770)"/>
    <use href="#chip" x="340" y="775" style="color: #FFA000" transform="rotate(-8, 340, 775)"/>
    
    <!-- Dynamic Motion Falling Chips in Foreground -->
    <g filter="url(#blur)">
      <use href="#chip" x="430" y="660" style="color: #388E3C" transform="rotate(45, 430, 660) scale(1.1)"/>
      <use href="#chip" x="210" y="800" style="color: #1976D2" transform="rotate(-30, 210, 800) scale(1.3)"/>
    </g>
  </g>

  <!-- The Flop (A♠ K♠ K♦) -->
  <polygon points="440,680 630,620 660,710 470,750" fill="#000" opacity="0.75" filter="url(#blur)"/>
  <g transform="translate(510, 680) scale(1.05, 0.8) skewX(-35) rotate(-12)">
    <g transform="translate(-140, 0) rotate(-6)">
      <use href="#flop-card"/>
      <text x="12" y="28" fill="#111" font-family="Arial, sans-serif" font-weight="bold" font-size="22">A</text>
      <use href="#suit-spade" x="18" y="44" transform="scale(0.8)"/>
      <use href="#suit-spade" x="35" y="65" transform="scale(1.8)"/>
    </g>
    <g transform="translate(-55, 10) rotate(3)">
      <use href="#flop-card"/>
      <text x="12" y="28" fill="#111" font-family="Arial, sans-serif" font-weight="bold" font-size="22">K</text>
      <use href="#suit-spade" x="18" y="44" transform="scale(0.8)"/>
      <use href="#suit-spade" x="35" y="65" transform="scale(1.8)"/>
    </g>
    <g transform="translate(30, 0) rotate(12)">
      <use href="#flop-card"/>
      <text x="12" y="28" fill="#D32F2F" font-family="Arial, sans-serif" font-weight="bold" font-size="22">K</text>
      <use href="#suit-diamond" x="18" y="44" transform="scale(0.8)"/>
      <use href="#suit-diamond" x="35" y="65" transform="scale(1.8)"/>
    </g>
  </g>

  <!-- Left Arm & Paw Guarding the Pot -->
  <g filter="url(#shadow)">
    <!-- Arm -->
    <path d="M -60 950 C -10 750, 160 690, 290 760 L 120 950 Z" fill="#1b100c"/>
    <path d="M 160 690 C 220 710, 270 730, 290 760" fill="none" stroke="#FFC107" stroke-width="8" opacity="0.4" filter="url(#glow)"/>
    <path d="M -60 950 C -10 750, 160 690, 180 700" fill="none" stroke="#00E5FF" stroke-width="10" opacity="0.5" filter="url(#glow)"/>
    
    <!-- Arm Fur Textures -->
    <g fill="#1b100c">
      <path d="M 120 695 L 150 670 L 160 690 Z"/>
      <path d="M 190 715 L 230 690 L 240 725 Z"/>
      <path d="M 250 745 L 290 720 L 280 755 Z"/>
    </g>

    <!-- Hand Base -->
    <path d="M 220 740 Q 290 720, 320 760 Q 340 810, 270 830 Q 200 810, 220 740 Z" fill="#2c1a14"/>
    
    <!-- Fingers -->
    <g fill="#120a06" stroke="#000" stroke-width="5" stroke-linejoin="round">
      <path d="M 290 750 Q 350 720 370 755 Q 380 780 340 800 Q 300 780 290 750 Z"/>
      <path d="M 270 765 Q 340 740 355 780 Q 365 810 325 820 Q 280 800 270 765 Z"/>
      <path d="M 250 780 Q 310 765 325 805 Q 325 835 285 840 Q 240 815 250 780 Z"/>
    </g>
    <!-- Knuckle Highlights -->
    <circle cx="285" cy="760" r="8" fill="#FFF" opacity="0.2"/>
    <circle cx="265" cy="775" r="8" fill="#FFF" opacity="0.2"/>
    <circle cx="245" cy="790" r="8" fill="#FFF" opacity="0.2"/>

    <!-- Sharp Claws -->
    <g fill="#050201">
      <polygon points="360,760 410,770 355,785" />
      <polygon points="345,790 390,815 335,810" />
      <polygon points="315,815 350,855 300,830" />
    </g>
    <!-- Claw Specs -->
    <path d="M 363,764 L 402,770 M 348,795 L 382,812 M 318,822 L 342,848" stroke="#FFF" stroke-width="3" opacity="0.85"/>
  </g>


  <!-- ================= THE ROYAL FLUSH (FOREGROUND RIGHT) ================= -->
  
  <!-- Right Arm -->
  <path d="M 1050 950 C 1000 680, 840 590, 650 710 L 740 950 Z" fill="#1b100c" filter="url(#shadow)"/>
  <g fill="#1b100c">
    <path d="M 860 620 L 820 580 L 810 610 Z"/>
    <path d="M 780 645 L 740 610 L 730 655 Z"/>
    <path d="M 690 675 L 650 640 L 670 690 Z"/>
  </g>

  <!-- Glowing Aura behind winning cards -->
  <circle cx="700" cy="650" r="160" fill="#FFC107" opacity="0.15" filter="url(#intenseGlow)"/>
  
  <path d="M 500 750 L 680 570 L 860 670 L 690 870 Z" fill="#000" opacity="0.8" filter="url(#blur)"/>

  <g id="winning-hand" filter="url(#shadow)">
    <!-- 10 of Hearts -->
    <g transform="translate(530, 620) rotate(-28)">
      <rect width="85" height="125" rx="6" fill="url(#cardGrad)" stroke="#BDBDBD" stroke-width="2"/>
      <rect x="5" y="5" width="75" height="115" rx="4" fill="none" stroke="#E0E0E0" stroke-width="1"/>
      <text x="10" y="28" fill="#D32F2F" font-family="Arial, sans-serif" font-weight="bold" font-size="26" letter-spacing="-2">10</text>
      <use href="#suit-heart" x="24" y="48" transform="scale(0.85)"/>
      <use href="#suit-heart" x="42" y="75" transform="scale(2.2)"/>
    </g>
    <!-- Jack of Hearts -->
    <g transform="translate(595, 575) rotate(-16)">
      <rect width="85" height="125" rx="6" fill="url(#cardGrad)" stroke="#BDBDBD" stroke-width="2"/>
      <rect x="5" y="5" width="75" height="115" rx="4" fill="none" stroke="#E0E0E0" stroke-width="1"/>
      <text x="12" y="28" fill="#D32F2F" font-family="Arial, sans-serif" font-weight="bold" font-size="26">J</text>
      <use href="#suit-heart" x="20" y="48" transform="scale(0.85)"/>
      <use href="#suit-heart" x="42" y="75" transform="scale(2.2)"/>
    </g>
    <!-- Queen of Hearts -->
    <g transform="translate(660, 550) rotate(-4)">
      <rect width="85" height="125" rx="6" fill="url(#cardGrad)" stroke="#BDBDBD" stroke-width="2"/>
      <rect x="5" y="5" width="75" height="115" rx="4" fill="none" stroke="#E0E0E0" stroke-width="1"/>
      <text x="12" y="28" fill="#D32F2F" font-family="Arial, sans-serif" font-weight="bold" font-size="26">Q</text>
      <use href="#suit-heart" x="20" y="48" transform="scale(0.85)"/>
      <use href="#suit-heart" x="42" y="75" transform="scale(2.2)"/>
    </g>
    <!-- King of Hearts -->
    <g transform="translate(730, 555) rotate(8)">
      <rect width="85" height="125" rx="6" fill="url(#cardGrad)" stroke="#BDBDBD" stroke-width="2"/>
      <rect x="5" y="5" width="75" height="115" rx="4" fill="none" stroke="#E0E0E0" stroke-width="1"/>
      <text x="12" y="28" fill="#D32F2F" font-family="Arial, sans-serif" font-weight="bold" font-size="26">K</text>
      <use href="#suit-heart" x="20" y="48" transform="scale(0.85)"/>
      <use href="#suit-heart" x="42" y="75" transform="scale(2.2)"/>
    </g>
    <!-- Ace of Hearts (The Kicker) -->
    <g transform="translate(795, 580) rotate(20)">
      <rect width="85" height="125" rx="6" fill="url(#cardGrad)" stroke="#BDBDBD" stroke-width="2"/>
      <!-- Shining Gold Edge -->
      <rect x="3" y="3" width="79" height="119" rx="4" fill="none" stroke="url(#goldFoil)" stroke-width="3" filter="url(#glow)"/>
      <rect x="6" y="6" width="73" height="113" rx="3" fill="none" stroke="#E0E0E0" stroke-width="1"/>
      <text x="12" y="28" fill="#D32F2F" font-family="Arial, sans-serif" font-weight="bold" font-size="26">A</text>
      <use href="#suit-heart" x="20" y="48" transform="scale(0.85)"/>
      <use href="#suit-heart" x="42" y="75" transform="scale(2.2)"/>
    </g>
  </g>

  <!-- Right Paw Gripping Cards -->
  <g filter="url(#shadow)">
    <!-- Base Palm -->
    <path d="M 540 850 C 520 690, 680 650, 900 720 L 950 860 Z" fill="#2c1a14"/>
    
    <!-- Articulated Fingers behind cards -->
    <g fill="#120a06" stroke="#000" stroke-width="5" stroke-linejoin="round">
      <path d="M 540 680 Q 570 640, 600 660 Q 620 680, 590 720 Z"/>
      <path d="M 600 640 Q 630 600, 660 625 Q 680 655, 650 690 Z"/>
      <path d="M 670 620 Q 700 580, 730 610 Q 750 645, 720 680 Z"/>
      <path d="M 750 630 Q 780 590, 810 620 Q 830 655, 800 690 Z"/>
    </g>

    <!-- Finger Claws over the cards -->
    <g fill="#050201">
      <polygon points="565,660 530,620 580,635" />
      <polygon points="630,625 610,570 655,605" />
      <polygon points="700,615 695,560 735,600" />
      <polygon points="780,625 805,570 815,615" />
    </g>
    <!-- Claw Highlights -->
    <path d="M 550,630 L 572,650 M 622,585 L 645,612 M 705,570 L 725,605 M 805,585 L 810,615" stroke="#FFF" stroke-width="3" opacity="0.9"/>

    <!-- Massive Thumb Pressing Card -->
    <path d="M 640 810 C 610 730, 680 680, 740 700 C 800 720, 820 770, 770 820 C 730 860, 660 850, 640 810 Z" fill="#1b100c" stroke="#0a0503" stroke-width="6"/>
    <!-- Thumb Highlights -->
    <path d="M 650 790 C 640 730, 700 700, 730 720" fill="none" stroke="#FFC107" stroke-width="6" opacity="0.4" filter="url(#glow)"/>
    <path d="M 700 710 Q 720 725 710 760" fill="none" stroke="#000" stroke-width="5" stroke-linecap="round"/>
    <circle cx="730" cy="725" r="8" fill="#FFF" opacity="0.25"/>

    <!-- Thumb Claw -->
    <polygon points="675,705 615,650 655,730" fill="#050201"/>
    <path d="M 632,665 L 664,715" stroke="#FFF" stroke-width="3.5" opacity="0.95"/>
  </g>


  <!-- ================= FOREGROUND DUST & ATMOSPHERE ================= -->
  
  <!-- Glowing Dust Motes for Depth -->
  <g fill="#FFF" filter="url(#glow)">
    <!-- White Dust -->
    <circle cx="320" cy="380" r="5" opacity="0.8"/>
    <circle cx="350" cy="430" r="3.5" opacity="0.6"/>
    <circle cx="660" cy="270" r="6" opacity="0.7"/>
    <circle cx="680" cy="220" r="4" opacity="0.9"/>
    <circle cx="210" cy="580" r="4.5" opacity="0.6"/>
    <circle cx="780" cy="460" r="5.5" opacity="0.7"/>
    <circle cx="480" cy="240" r="3" opacity="0.8"/>
    <circle cx="550" cy="180" r="6" opacity="0.5"/>
    <circle cx="400" cy="150" r="4" opacity="0.7"/>
    <circle cx="300" cy="250" r="5" opacity="0.5"/>
    <circle cx="530" cy="280" r="4" opacity="0.9"/>
    <!-- Teal Dust in light beam -->
    <circle cx="150" cy="650" r="3.5" fill="#00E5FF" opacity="0.8"/>
    <circle cx="180" cy="520" r="5.5" fill="#00E5FF" opacity="0.6"/>
    <circle cx="280" cy="500" r="4" fill="#00E5FF" opacity="0.7"/>
    <!-- Orange Dust in light beam -->
    <circle cx="850" cy="350" r="4.5" fill="#FFC107" opacity="0.7"/>
    <circle cx="720" cy="200" r="3" fill="#FF9800" opacity="0.8"/>
    <circle cx="880" cy="450" r="5" fill="#FFC107" opacity="0.6"/>
  </g>

</svg>